G04 #@! TF.GenerationSoftware,KiCad,Pcbnew,(6.0.1-0)*
G04 #@! TF.CreationDate,2022-01-26T00:05:36+08:00*
G04 #@! TF.ProjectId,Hifi,48696669-2e6b-4696-9361-645f70636258,rev?*
G04 #@! TF.SameCoordinates,Original*
G04 #@! TF.FileFunction,Copper,L1,Top*
G04 #@! TF.FilePolarity,Positive*
%FSLAX46Y46*%
G04 Gerber Fmt 4.6, Leading zero omitted, Abs format (unit mm)*
G04 Created by KiCad (PCBNEW (6.0.1-0)) date 2022-01-26 00:05:36*
%MOMM*%
%LPD*%
G01*
G04 APERTURE LIST*
%ADD10C,0.100000*%
%ADD11C,0.150000*%
%ADD12C,0.300000*%
%ADD13C,0.400000*%
G04 #@! TA.AperFunction,SMDPad,CuDef*
%ADD14R,1.000000X1.250000*%
G04 #@! TD*
G04 #@! TA.AperFunction,ComponentPad*
%ADD15R,2.000000X2.000000*%
G04 #@! TD*
G04 #@! TA.AperFunction,ComponentPad*
%ADD16C,2.000000*%
G04 #@! TD*
G04 #@! TA.AperFunction,SMDPad,CuDef*
%ADD17R,1.800000X3.200000*%
G04 #@! TD*
G04 #@! TA.AperFunction,ComponentPad*
%ADD18C,1.600000*%
G04 #@! TD*
G04 #@! TA.AperFunction,ComponentPad*
%ADD19O,1.600000X1.600000*%
G04 #@! TD*
G04 #@! TA.AperFunction,SMDPad,CuDef*
%ADD20R,1.950000X0.600000*%
G04 #@! TD*
G04 #@! TA.AperFunction,ComponentPad*
%ADD21C,1.000000*%
G04 #@! TD*
G04 #@! TA.AperFunction,SMDPad,CuDef*
%ADD22R,2.800000X4.800000*%
G04 #@! TD*
G04 #@! TA.AperFunction,ComponentPad*
%ADD23O,1.600000X2.100000*%
G04 #@! TD*
G04 #@! TA.AperFunction,ComponentPad*
%ADD24O,2.000000X1.800000*%
G04 #@! TD*
G04 #@! TA.AperFunction,ComponentPad*
%ADD25O,3.000000X3.000000*%
G04 #@! TD*
G04 #@! TA.AperFunction,ComponentPad*
%ADD26O,2.200000X2.200000*%
G04 #@! TD*
G04 #@! TA.AperFunction,SMDPad,CuDef*
%ADD27R,2.000000X2.500000*%
G04 #@! TD*
G04 #@! TA.AperFunction,SMDPad,CuDef*
%ADD28R,2.000000X2.800000*%
G04 #@! TD*
G04 #@! TA.AperFunction,SMDPad,CuDef*
%ADD29R,2.500000X2.000000*%
G04 #@! TD*
G04 #@! TA.AperFunction,SMDPad,CuDef*
%ADD30R,1.200000X2.500000*%
G04 #@! TD*
G04 #@! TA.AperFunction,ComponentPad*
%ADD31C,3.200000*%
G04 #@! TD*
G04 #@! TA.AperFunction,ComponentPad*
%ADD32O,2.800000X4.500000*%
G04 #@! TD*
G04 #@! TA.AperFunction,ComponentPad*
%ADD33O,4.500000X2.800000*%
G04 #@! TD*
G04 #@! TA.AperFunction,ComponentPad*
%ADD34O,3.200000X5.500000*%
G04 #@! TD*
G04 #@! TA.AperFunction,ComponentPad*
%ADD35O,3.200000X5.200000*%
G04 #@! TD*
G04 #@! TA.AperFunction,ComponentPad*
%ADD36O,4.600000X2.800000*%
G04 #@! TD*
G04 #@! TA.AperFunction,ComponentPad*
%ADD37C,3.000000*%
G04 #@! TD*
G04 #@! TA.AperFunction,ComponentPad*
%ADD38O,2.100000X1.600000*%
G04 #@! TD*
G04 #@! TA.AperFunction,SMDPad,CuDef*
%ADD39R,2.000000X1.500000*%
G04 #@! TD*
G04 #@! TA.AperFunction,SMDPad,CuDef*
%ADD40R,7.000000X6.000000*%
G04 #@! TD*
G04 #@! TA.AperFunction,SMDPad,CuDef*
%ADD41R,1.250000X1.000000*%
G04 #@! TD*
G04 #@! TA.AperFunction,SMDPad,CuDef*
%ADD42R,2.370000X2.230000*%
G04 #@! TD*
G04 #@! TA.AperFunction,SMDPad,CuDef*
%ADD43R,1.700000X1.360000*%
G04 #@! TD*
G04 #@! TA.AperFunction,SMDPad,CuDef*
%ADD44R,1.360000X1.700000*%
G04 #@! TD*
G04 #@! TA.AperFunction,SMDPad,CuDef*
%ADD45R,0.800100X0.800100*%
G04 #@! TD*
G04 #@! TA.AperFunction,SMDPad,CuDef*
%ADD46R,2.499360X1.950720*%
G04 #@! TD*
G04 #@! TA.AperFunction,ComponentPad*
%ADD47R,1.600000X1.600000*%
G04 #@! TD*
G04 #@! TA.AperFunction,ViaPad*
%ADD48C,1.200000*%
G04 #@! TD*
G04 #@! TA.AperFunction,ViaPad*
%ADD49C,1.600000*%
G04 #@! TD*
G04 #@! TA.AperFunction,ViaPad*
%ADD50C,2.000000*%
G04 #@! TD*
G04 #@! TA.AperFunction,Conductor*
%ADD51C,0.254000*%
G04 #@! TD*
G04 #@! TA.AperFunction,Conductor*
%ADD52C,0.500000*%
G04 #@! TD*
G04 #@! TA.AperFunction,Conductor*
%ADD53C,1.000000*%
G04 #@! TD*
G04 #@! TA.AperFunction,Conductor*
%ADD54C,3.000000*%
G04 #@! TD*
G04 #@! TA.AperFunction,Conductor*
%ADD55C,1.500000*%
G04 #@! TD*
G04 #@! TA.AperFunction,Conductor*
%ADD56C,0.600000*%
G04 #@! TD*
G04 #@! TA.AperFunction,Conductor*
%ADD57C,1.200000*%
G04 #@! TD*
G04 #@! TA.AperFunction,Conductor*
%ADD58C,0.300000*%
G04 #@! TD*
G04 #@! TA.AperFunction,Conductor*
%ADD59C,2.000000*%
G04 #@! TD*
G04 APERTURE END LIST*
D10*
D11*
X177002200Y-166007200D02*
X177002200Y-198007200D01*
X285002200Y-198007200D01*
X285002200Y-166007200D01*
X177002200Y-166007200D01*
D10*
D11*
X10000000Y-10000000D02*
X10000000Y-200007200D01*
X287002200Y-200007200D01*
X287002200Y-10000000D01*
X10000000Y-10000000D01*
D10*
D11*
X12000000Y-12000000D02*
X12000000Y-198007200D01*
X285002200Y-198007200D01*
X285002200Y-12000000D01*
X12000000Y-12000000D01*
D10*
D11*
X60000000Y-12000000D02*
X60000000Y-10000000D01*
D10*
D11*
X110000000Y-12000000D02*
X110000000Y-10000000D01*
D10*
D11*
X160000000Y-12000000D02*
X160000000Y-10000000D01*
D10*
D11*
X210000000Y-12000000D02*
X210000000Y-10000000D01*
D10*
D11*
X260000000Y-12000000D02*
X260000000Y-10000000D01*
D10*
D11*
X36065476Y-11588095D02*
X35322619Y-11588095D01*
X35694047Y-11588095D02*
X35694047Y-10288095D01*
X35570238Y-10473809D01*
X35446428Y-10597619D01*
X35322619Y-10659523D01*
D10*
D11*
X85322619Y-10411904D02*
X85384523Y-10350000D01*
X85508333Y-10288095D01*
X85817857Y-10288095D01*
X85941666Y-10350000D01*
X86003571Y-10411904D01*
X86065476Y-10535714D01*
X86065476Y-10659523D01*
X86003571Y-10845238D01*
X85260714Y-11588095D01*
X86065476Y-11588095D01*
D10*
D11*
X135260714Y-10288095D02*
X136065476Y-10288095D01*
X135632142Y-10783333D01*
X135817857Y-10783333D01*
X135941666Y-10845238D01*
X136003571Y-10907142D01*
X136065476Y-11030952D01*
X136065476Y-11340476D01*
X136003571Y-11464285D01*
X135941666Y-11526190D01*
X135817857Y-11588095D01*
X135446428Y-11588095D01*
X135322619Y-11526190D01*
X135260714Y-11464285D01*
D10*
D11*
X185941666Y-10721428D02*
X185941666Y-11588095D01*
X185632142Y-10226190D02*
X185322619Y-11154761D01*
X186127380Y-11154761D01*
D10*
D11*
X236003571Y-10288095D02*
X235384523Y-10288095D01*
X235322619Y-10907142D01*
X235384523Y-10845238D01*
X235508333Y-10783333D01*
X235817857Y-10783333D01*
X235941666Y-10845238D01*
X236003571Y-10907142D01*
X236065476Y-11030952D01*
X236065476Y-11340476D01*
X236003571Y-11464285D01*
X235941666Y-11526190D01*
X235817857Y-11588095D01*
X235508333Y-11588095D01*
X235384523Y-11526190D01*
X235322619Y-11464285D01*
D10*
D11*
X285941666Y-10288095D02*
X285694047Y-10288095D01*
X285570238Y-10350000D01*
X285508333Y-10411904D01*
X285384523Y-10597619D01*
X285322619Y-10845238D01*
X285322619Y-11340476D01*
X285384523Y-11464285D01*
X285446428Y-11526190D01*
X285570238Y-11588095D01*
X285817857Y-11588095D01*
X285941666Y-11526190D01*
X286003571Y-11464285D01*
X286065476Y-11340476D01*
X286065476Y-11030952D01*
X286003571Y-10907142D01*
X285941666Y-10845238D01*
X285817857Y-10783333D01*
X285570238Y-10783333D01*
X285446428Y-10845238D01*
X285384523Y-10907142D01*
X285322619Y-11030952D01*
D10*
D11*
X60000000Y-198007200D02*
X60000000Y-200007200D01*
D10*
D11*
X110000000Y-198007200D02*
X110000000Y-200007200D01*
D10*
D11*
X160000000Y-198007200D02*
X160000000Y-200007200D01*
D10*
D11*
X210000000Y-198007200D02*
X210000000Y-200007200D01*
D10*
D11*
X260000000Y-198007200D02*
X260000000Y-200007200D01*
D10*
D11*
X36065476Y-199595295D02*
X35322619Y-199595295D01*
X35694047Y-199595295D02*
X35694047Y-198295295D01*
X35570238Y-198481009D01*
X35446428Y-198604819D01*
X35322619Y-198666723D01*
D10*
D11*
X85322619Y-198419104D02*
X85384523Y-198357200D01*
X85508333Y-198295295D01*
X85817857Y-198295295D01*
X85941666Y-198357200D01*
X86003571Y-198419104D01*
X86065476Y-198542914D01*
X86065476Y-198666723D01*
X86003571Y-198852438D01*
X85260714Y-199595295D01*
X86065476Y-199595295D01*
D10*
D11*
X135260714Y-198295295D02*
X136065476Y-198295295D01*
X135632142Y-198790533D01*
X135817857Y-198790533D01*
X135941666Y-198852438D01*
X136003571Y-198914342D01*
X136065476Y-199038152D01*
X136065476Y-199347676D01*
X136003571Y-199471485D01*
X135941666Y-199533390D01*
X135817857Y-199595295D01*
X135446428Y-199595295D01*
X135322619Y-199533390D01*
X135260714Y-199471485D01*
D10*
D11*
X185941666Y-198728628D02*
X185941666Y-199595295D01*
X185632142Y-198233390D02*
X185322619Y-199161961D01*
X186127380Y-199161961D01*
D10*
D11*
X236003571Y-198295295D02*
X235384523Y-198295295D01*
X235322619Y-198914342D01*
X235384523Y-198852438D01*
X235508333Y-198790533D01*
X235817857Y-198790533D01*
X235941666Y-198852438D01*
X236003571Y-198914342D01*
X236065476Y-199038152D01*
X236065476Y-199347676D01*
X236003571Y-199471485D01*
X235941666Y-199533390D01*
X235817857Y-199595295D01*
X235508333Y-199595295D01*
X235384523Y-199533390D01*
X235322619Y-199471485D01*
D10*
D11*
X285941666Y-198295295D02*
X285694047Y-198295295D01*
X285570238Y-198357200D01*
X285508333Y-198419104D01*
X285384523Y-198604819D01*
X285322619Y-198852438D01*
X285322619Y-199347676D01*
X285384523Y-199471485D01*
X285446428Y-199533390D01*
X285570238Y-199595295D01*
X285817857Y-199595295D01*
X285941666Y-199533390D01*
X286003571Y-199471485D01*
X286065476Y-199347676D01*
X286065476Y-199038152D01*
X286003571Y-198914342D01*
X285941666Y-198852438D01*
X285817857Y-198790533D01*
X285570238Y-198790533D01*
X285446428Y-198852438D01*
X285384523Y-198914342D01*
X285322619Y-199038152D01*
D10*
D11*
X10000000Y-60000000D02*
X12000000Y-60000000D01*
D10*
D11*
X10000000Y-110000000D02*
X12000000Y-110000000D01*
D10*
D11*
X10000000Y-160000000D02*
X12000000Y-160000000D01*
D10*
D11*
X10690476Y-35216666D02*
X11309523Y-35216666D01*
X10566666Y-35588095D02*
X11000000Y-34288095D01*
X11433333Y-35588095D01*
D10*
D11*
X11092857Y-84907142D02*
X11278571Y-84969047D01*
X11340476Y-85030952D01*
X11402380Y-85154761D01*
X11402380Y-85340476D01*
X11340476Y-85464285D01*
X11278571Y-85526190D01*
X11154761Y-85588095D01*
X10659523Y-85588095D01*
X10659523Y-84288095D01*
X11092857Y-84288095D01*
X11216666Y-84350000D01*
X11278571Y-84411904D01*
X11340476Y-84535714D01*
X11340476Y-84659523D01*
X11278571Y-84783333D01*
X11216666Y-84845238D01*
X11092857Y-84907142D01*
X10659523Y-84907142D01*
D10*
D11*
X11402380Y-135464285D02*
X11340476Y-135526190D01*
X11154761Y-135588095D01*
X11030952Y-135588095D01*
X10845238Y-135526190D01*
X10721428Y-135402380D01*
X10659523Y-135278571D01*
X10597619Y-135030952D01*
X10597619Y-134845238D01*
X10659523Y-134597619D01*
X10721428Y-134473809D01*
X10845238Y-134350000D01*
X11030952Y-134288095D01*
X11154761Y-134288095D01*
X11340476Y-134350000D01*
X11402380Y-134411904D01*
D10*
D11*
X10659523Y-185588095D02*
X10659523Y-184288095D01*
X10969047Y-184288095D01*
X11154761Y-184350000D01*
X11278571Y-184473809D01*
X11340476Y-184597619D01*
X11402380Y-184845238D01*
X11402380Y-185030952D01*
X11340476Y-185278571D01*
X11278571Y-185402380D01*
X11154761Y-185526190D01*
X10969047Y-185588095D01*
X10659523Y-185588095D01*
D10*
D11*
X287002200Y-60000000D02*
X285002200Y-60000000D01*
D10*
D11*
X287002200Y-110000000D02*
X285002200Y-110000000D01*
D10*
D11*
X287002200Y-160000000D02*
X285002200Y-160000000D01*
D10*
D11*
X285692676Y-35216666D02*
X286311723Y-35216666D01*
X285568866Y-35588095D02*
X286002200Y-34288095D01*
X286435533Y-35588095D01*
D10*
D11*
X286095057Y-84907142D02*
X286280771Y-84969047D01*
X286342676Y-85030952D01*
X286404580Y-85154761D01*
X286404580Y-85340476D01*
X286342676Y-85464285D01*
X286280771Y-85526190D01*
X286156961Y-85588095D01*
X285661723Y-85588095D01*
X285661723Y-84288095D01*
X286095057Y-84288095D01*
X286218866Y-84350000D01*
X286280771Y-84411904D01*
X286342676Y-84535714D01*
X286342676Y-84659523D01*
X286280771Y-84783333D01*
X286218866Y-84845238D01*
X286095057Y-84907142D01*
X285661723Y-84907142D01*
D10*
D11*
X286404580Y-135464285D02*
X286342676Y-135526190D01*
X286156961Y-135588095D01*
X286033152Y-135588095D01*
X285847438Y-135526190D01*
X285723628Y-135402380D01*
X285661723Y-135278571D01*
X285599819Y-135030952D01*
X285599819Y-134845238D01*
X285661723Y-134597619D01*
X285723628Y-134473809D01*
X285847438Y-134350000D01*
X286033152Y-134288095D01*
X286156961Y-134288095D01*
X286342676Y-134350000D01*
X286404580Y-134411904D01*
D10*
D11*
X285661723Y-185588095D02*
X285661723Y-184288095D01*
X285971247Y-184288095D01*
X286156961Y-184350000D01*
X286280771Y-184473809D01*
X286342676Y-184597619D01*
X286404580Y-184845238D01*
X286404580Y-185030952D01*
X286342676Y-185278571D01*
X286280771Y-185402380D01*
X286156961Y-185526190D01*
X285971247Y-185588095D01*
X285661723Y-185588095D01*
D10*
D11*
X200434342Y-193785771D02*
X200434342Y-192285771D01*
X200791485Y-192285771D01*
X201005771Y-192357200D01*
X201148628Y-192500057D01*
X201220057Y-192642914D01*
X201291485Y-192928628D01*
X201291485Y-193142914D01*
X201220057Y-193428628D01*
X201148628Y-193571485D01*
X201005771Y-193714342D01*
X200791485Y-193785771D01*
X200434342Y-193785771D01*
X202577200Y-193785771D02*
X202577200Y-193000057D01*
X202505771Y-192857200D01*
X202362914Y-192785771D01*
X202077200Y-192785771D01*
X201934342Y-192857200D01*
X202577200Y-193714342D02*
X202434342Y-193785771D01*
X202077200Y-193785771D01*
X201934342Y-193714342D01*
X201862914Y-193571485D01*
X201862914Y-193428628D01*
X201934342Y-193285771D01*
X202077200Y-193214342D01*
X202434342Y-193214342D01*
X202577200Y-193142914D01*
X203077200Y-192785771D02*
X203648628Y-192785771D01*
X203291485Y-192285771D02*
X203291485Y-193571485D01*
X203362914Y-193714342D01*
X203505771Y-193785771D01*
X203648628Y-193785771D01*
X204720057Y-193714342D02*
X204577200Y-193785771D01*
X204291485Y-193785771D01*
X204148628Y-193714342D01*
X204077200Y-193571485D01*
X204077200Y-193000057D01*
X204148628Y-192857200D01*
X204291485Y-192785771D01*
X204577200Y-192785771D01*
X204720057Y-192857200D01*
X204791485Y-193000057D01*
X204791485Y-193142914D01*
X204077200Y-193285771D01*
X205434342Y-193642914D02*
X205505771Y-193714342D01*
X205434342Y-193785771D01*
X205362914Y-193714342D01*
X205434342Y-193642914D01*
X205434342Y-193785771D01*
X205434342Y-192857200D02*
X205505771Y-192928628D01*
X205434342Y-193000057D01*
X205362914Y-192928628D01*
X205434342Y-192857200D01*
X205434342Y-193000057D01*
D10*
D11*
X177002200Y-194507200D02*
X285002200Y-194507200D01*
D10*
D11*
X178434342Y-196585771D02*
X178434342Y-195085771D01*
X179291485Y-196585771D02*
X178648628Y-195728628D01*
X179291485Y-195085771D02*
X178434342Y-195942914D01*
X179934342Y-196585771D02*
X179934342Y-195585771D01*
X179934342Y-195085771D02*
X179862914Y-195157200D01*
X179934342Y-195228628D01*
X180005771Y-195157200D01*
X179934342Y-195085771D01*
X179934342Y-195228628D01*
X181505771Y-196442914D02*
X181434342Y-196514342D01*
X181220057Y-196585771D01*
X181077200Y-196585771D01*
X180862914Y-196514342D01*
X180720057Y-196371485D01*
X180648628Y-196228628D01*
X180577200Y-195942914D01*
X180577200Y-195728628D01*
X180648628Y-195442914D01*
X180720057Y-195300057D01*
X180862914Y-195157200D01*
X181077200Y-195085771D01*
X181220057Y-195085771D01*
X181434342Y-195157200D01*
X181505771Y-195228628D01*
X182791485Y-196585771D02*
X182791485Y-195800057D01*
X182720057Y-195657200D01*
X182577200Y-195585771D01*
X182291485Y-195585771D01*
X182148628Y-195657200D01*
X182791485Y-196514342D02*
X182648628Y-196585771D01*
X182291485Y-196585771D01*
X182148628Y-196514342D01*
X182077200Y-196371485D01*
X182077200Y-196228628D01*
X182148628Y-196085771D01*
X182291485Y-196014342D01*
X182648628Y-196014342D01*
X182791485Y-195942914D01*
X184148628Y-196585771D02*
X184148628Y-195085771D01*
X184148628Y-196514342D02*
X184005771Y-196585771D01*
X183720057Y-196585771D01*
X183577200Y-196514342D01*
X183505771Y-196442914D01*
X183434342Y-196300057D01*
X183434342Y-195871485D01*
X183505771Y-195728628D01*
X183577200Y-195657200D01*
X183720057Y-195585771D01*
X184005771Y-195585771D01*
X184148628Y-195657200D01*
X186005771Y-195800057D02*
X186505771Y-195800057D01*
X186720057Y-196585771D02*
X186005771Y-196585771D01*
X186005771Y-195085771D01*
X186720057Y-195085771D01*
X187362914Y-196442914D02*
X187434342Y-196514342D01*
X187362914Y-196585771D01*
X187291485Y-196514342D01*
X187362914Y-196442914D01*
X187362914Y-196585771D01*
X188077200Y-196585771D02*
X188077200Y-195085771D01*
X188434342Y-195085771D01*
X188648628Y-195157200D01*
X188791485Y-195300057D01*
X188862914Y-195442914D01*
X188934342Y-195728628D01*
X188934342Y-195942914D01*
X188862914Y-196228628D01*
X188791485Y-196371485D01*
X188648628Y-196514342D01*
X188434342Y-196585771D01*
X188077200Y-196585771D01*
X189577200Y-196442914D02*
X189648628Y-196514342D01*
X189577200Y-196585771D01*
X189505771Y-196514342D01*
X189577200Y-196442914D01*
X189577200Y-196585771D01*
X190220057Y-196157200D02*
X190934342Y-196157200D01*
X190077200Y-196585771D02*
X190577200Y-195085771D01*
X191077200Y-196585771D01*
X191577200Y-196442914D02*
X191648628Y-196514342D01*
X191577200Y-196585771D01*
X191505771Y-196514342D01*
X191577200Y-196442914D01*
X191577200Y-196585771D01*
X194577200Y-196585771D02*
X194577200Y-195085771D01*
X194720057Y-196014342D02*
X195148628Y-196585771D01*
X195148628Y-195585771D02*
X194577200Y-196157200D01*
X195791485Y-196585771D02*
X195791485Y-195585771D01*
X195791485Y-195085771D02*
X195720057Y-195157200D01*
X195791485Y-195228628D01*
X195862914Y-195157200D01*
X195791485Y-195085771D01*
X195791485Y-195228628D01*
X197148628Y-196514342D02*
X197005771Y-196585771D01*
X196720057Y-196585771D01*
X196577200Y-196514342D01*
X196505771Y-196442914D01*
X196434342Y-196300057D01*
X196434342Y-195871485D01*
X196505771Y-195728628D01*
X196577200Y-195657200D01*
X196720057Y-195585771D01*
X197005771Y-195585771D01*
X197148628Y-195657200D01*
X198434342Y-196585771D02*
X198434342Y-195800057D01*
X198362914Y-195657200D01*
X198220057Y-195585771D01*
X197934342Y-195585771D01*
X197791485Y-195657200D01*
X198434342Y-196514342D02*
X198291485Y-196585771D01*
X197934342Y-196585771D01*
X197791485Y-196514342D01*
X197720057Y-196371485D01*
X197720057Y-196228628D01*
X197791485Y-196085771D01*
X197934342Y-196014342D01*
X198291485Y-196014342D01*
X198434342Y-195942914D01*
X199791485Y-196585771D02*
X199791485Y-195085771D01*
X199791485Y-196514342D02*
X199648628Y-196585771D01*
X199362914Y-196585771D01*
X199220057Y-196514342D01*
X199148628Y-196442914D01*
X199077200Y-196300057D01*
X199077200Y-195871485D01*
X199148628Y-195728628D01*
X199220057Y-195657200D01*
X199362914Y-195585771D01*
X199648628Y-195585771D01*
X199791485Y-195657200D01*
X202077200Y-197157200D02*
X202005771Y-197085771D01*
X201862914Y-196871485D01*
X201791485Y-196728628D01*
X201720057Y-196514342D01*
X201648628Y-196157200D01*
X201648628Y-195871485D01*
X201720057Y-195514342D01*
X201791485Y-195300057D01*
X201862914Y-195157200D01*
X202005771Y-194942914D01*
X202077200Y-194871485D01*
X203291485Y-195085771D02*
X203005771Y-195085771D01*
X202862914Y-195157200D01*
X202791485Y-195228628D01*
X202648628Y-195442914D01*
X202577200Y-195728628D01*
X202577200Y-196300057D01*
X202648628Y-196442914D01*
X202720057Y-196514342D01*
X202862914Y-196585771D01*
X203148628Y-196585771D01*
X203291485Y-196514342D01*
X203362914Y-196442914D01*
X203434342Y-196300057D01*
X203434342Y-195942914D01*
X203362914Y-195800057D01*
X203291485Y-195728628D01*
X203148628Y-195657200D01*
X202862914Y-195657200D01*
X202720057Y-195728628D01*
X202648628Y-195800057D01*
X202577200Y-195942914D01*
X204077200Y-196442914D02*
X204148628Y-196514342D01*
X204077200Y-196585771D01*
X204005771Y-196514342D01*
X204077200Y-196442914D01*
X204077200Y-196585771D01*
X205077200Y-195085771D02*
X205220057Y-195085771D01*
X205362914Y-195157200D01*
X205434342Y-195228628D01*
X205505771Y-195371485D01*
X205577200Y-195657200D01*
X205577200Y-196014342D01*
X205505771Y-196300057D01*
X205434342Y-196442914D01*
X205362914Y-196514342D01*
X205220057Y-196585771D01*
X205077200Y-196585771D01*
X204934342Y-196514342D01*
X204862914Y-196442914D01*
X204791485Y-196300057D01*
X204720057Y-196014342D01*
X204720057Y-195657200D01*
X204791485Y-195371485D01*
X204862914Y-195228628D01*
X204934342Y-195157200D01*
X205077200Y-195085771D01*
X206220057Y-196442914D02*
X206291485Y-196514342D01*
X206220057Y-196585771D01*
X206148628Y-196514342D01*
X206220057Y-196442914D01*
X206220057Y-196585771D01*
X207720057Y-196585771D02*
X206862914Y-196585771D01*
X207291485Y-196585771D02*
X207291485Y-195085771D01*
X207148628Y-195300057D01*
X207005771Y-195442914D01*
X206862914Y-195514342D01*
X208362914Y-196014342D02*
X209505771Y-196014342D01*
X210505771Y-195085771D02*
X210648628Y-195085771D01*
X210791485Y-195157200D01*
X210862914Y-195228628D01*
X210934342Y-195371485D01*
X211005771Y-195657200D01*
X211005771Y-196014342D01*
X210934342Y-196300057D01*
X210862914Y-196442914D01*
X210791485Y-196514342D01*
X210648628Y-196585771D01*
X210505771Y-196585771D01*
X210362914Y-196514342D01*
X210291485Y-196442914D01*
X210220057Y-196300057D01*
X210148628Y-196014342D01*
X210148628Y-195657200D01*
X210220057Y-195371485D01*
X210291485Y-195228628D01*
X210362914Y-195157200D01*
X210505771Y-195085771D01*
X211505771Y-197157200D02*
X211577200Y-197085771D01*
X211720057Y-196871485D01*
X211791485Y-196728628D01*
X211862914Y-196514342D01*
X211934342Y-196157200D01*
X211934342Y-195871485D01*
X211862914Y-195514342D01*
X211791485Y-195300057D01*
X211720057Y-195157200D01*
X211577200Y-194942914D01*
X211505771Y-194871485D01*
D10*
D11*
X177002200Y-191507200D02*
X285002200Y-191507200D01*
D10*
D12*
X264411485Y-193785771D02*
X263911485Y-193071485D01*
X263554342Y-193785771D02*
X263554342Y-192285771D01*
X264125771Y-192285771D01*
X264268628Y-192357200D01*
X264340057Y-192428628D01*
X264411485Y-192571485D01*
X264411485Y-192785771D01*
X264340057Y-192928628D01*
X264268628Y-193000057D01*
X264125771Y-193071485D01*
X263554342Y-193071485D01*
X265625771Y-193714342D02*
X265482914Y-193785771D01*
X265197200Y-193785771D01*
X265054342Y-193714342D01*
X264982914Y-193571485D01*
X264982914Y-193000057D01*
X265054342Y-192857200D01*
X265197200Y-192785771D01*
X265482914Y-192785771D01*
X265625771Y-192857200D01*
X265697200Y-193000057D01*
X265697200Y-193142914D01*
X264982914Y-193285771D01*
X266197200Y-192785771D02*
X266554342Y-193785771D01*
X266911485Y-192785771D01*
X267482914Y-193642914D02*
X267554342Y-193714342D01*
X267482914Y-193785771D01*
X267411485Y-193714342D01*
X267482914Y-193642914D01*
X267482914Y-193785771D01*
X267482914Y-192857200D02*
X267554342Y-192928628D01*
X267482914Y-193000057D01*
X267411485Y-192928628D01*
X267482914Y-192857200D01*
X267482914Y-193000057D01*
D10*
D11*
X178362914Y-193714342D02*
X178577200Y-193785771D01*
X178934342Y-193785771D01*
X179077200Y-193714342D01*
X179148628Y-193642914D01*
X179220057Y-193500057D01*
X179220057Y-193357200D01*
X179148628Y-193214342D01*
X179077200Y-193142914D01*
X178934342Y-193071485D01*
X178648628Y-193000057D01*
X178505771Y-192928628D01*
X178434342Y-192857200D01*
X178362914Y-192714342D01*
X178362914Y-192571485D01*
X178434342Y-192428628D01*
X178505771Y-192357200D01*
X178648628Y-192285771D01*
X179005771Y-192285771D01*
X179220057Y-192357200D01*
X179862914Y-193785771D02*
X179862914Y-192785771D01*
X179862914Y-192285771D02*
X179791485Y-192357200D01*
X179862914Y-192428628D01*
X179934342Y-192357200D01*
X179862914Y-192285771D01*
X179862914Y-192428628D01*
X180434342Y-192785771D02*
X181220057Y-192785771D01*
X180434342Y-193785771D01*
X181220057Y-193785771D01*
X182362914Y-193714342D02*
X182220057Y-193785771D01*
X181934342Y-193785771D01*
X181791485Y-193714342D01*
X181720057Y-193571485D01*
X181720057Y-193000057D01*
X181791485Y-192857200D01*
X181934342Y-192785771D01*
X182220057Y-192785771D01*
X182362914Y-192857200D01*
X182434342Y-193000057D01*
X182434342Y-193142914D01*
X181720057Y-193285771D01*
X183077200Y-193642914D02*
X183148628Y-193714342D01*
X183077200Y-193785771D01*
X183005771Y-193714342D01*
X183077200Y-193642914D01*
X183077200Y-193785771D01*
X183077200Y-192857200D02*
X183148628Y-192928628D01*
X183077200Y-193000057D01*
X183005771Y-192928628D01*
X183077200Y-192857200D01*
X183077200Y-193000057D01*
X184862914Y-193357200D02*
X185577200Y-193357200D01*
X184720057Y-193785771D02*
X185220057Y-192285771D01*
X185720057Y-193785771D01*
X186862914Y-192785771D02*
X186862914Y-193785771D01*
X186505771Y-192214342D02*
X186148628Y-193285771D01*
X187077200Y-193285771D01*
D10*
D11*
X263434342Y-196585771D02*
X263434342Y-195085771D01*
X264791485Y-196585771D02*
X264791485Y-195085771D01*
X264791485Y-196514342D02*
X264648628Y-196585771D01*
X264362914Y-196585771D01*
X264220057Y-196514342D01*
X264148628Y-196442914D01*
X264077200Y-196300057D01*
X264077200Y-195871485D01*
X264148628Y-195728628D01*
X264220057Y-195657200D01*
X264362914Y-195585771D01*
X264648628Y-195585771D01*
X264791485Y-195657200D01*
X265505771Y-196442914D02*
X265577200Y-196514342D01*
X265505771Y-196585771D01*
X265434342Y-196514342D01*
X265505771Y-196442914D01*
X265505771Y-196585771D01*
X265505771Y-195657200D02*
X265577200Y-195728628D01*
X265505771Y-195800057D01*
X265434342Y-195728628D01*
X265505771Y-195657200D01*
X265505771Y-195800057D01*
X268148628Y-196585771D02*
X267291485Y-196585771D01*
X267720057Y-196585771D02*
X267720057Y-195085771D01*
X267577200Y-195300057D01*
X267434342Y-195442914D01*
X267291485Y-195514342D01*
X269862914Y-195014342D02*
X268577200Y-196942914D01*
X271148628Y-196585771D02*
X270291485Y-196585771D01*
X270720057Y-196585771D02*
X270720057Y-195085771D01*
X270577200Y-195300057D01*
X270434342Y-195442914D01*
X270291485Y-195514342D01*
D10*
D11*
X177002200Y-187507200D02*
X285002200Y-187507200D01*
D10*
D13*
X178714580Y-188211961D02*
X179857438Y-188211961D01*
X179036009Y-190211961D02*
X179286009Y-188211961D01*
X180274104Y-190211961D02*
X180440771Y-188878628D01*
X180524104Y-188211961D02*
X180416961Y-188307200D01*
X180500295Y-188402438D01*
X180607438Y-188307200D01*
X180524104Y-188211961D01*
X180500295Y-188402438D01*
X181107438Y-188878628D02*
X181869342Y-188878628D01*
X181476485Y-188211961D02*
X181262200Y-189926247D01*
X181333628Y-190116723D01*
X181512200Y-190211961D01*
X181702676Y-190211961D01*
X182655057Y-190211961D02*
X182476485Y-190116723D01*
X182405057Y-189926247D01*
X182619342Y-188211961D01*
X184190771Y-190116723D02*
X183988390Y-190211961D01*
X183607438Y-190211961D01*
X183428866Y-190116723D01*
X183357438Y-189926247D01*
X183452676Y-189164342D01*
X183571723Y-188973866D01*
X183774104Y-188878628D01*
X184155057Y-188878628D01*
X184333628Y-188973866D01*
X184405057Y-189164342D01*
X184381247Y-189354819D01*
X183405057Y-189545295D01*
X185155057Y-190021485D02*
X185238390Y-190116723D01*
X185131247Y-190211961D01*
X185047914Y-190116723D01*
X185155057Y-190021485D01*
X185131247Y-190211961D01*
X185286009Y-188973866D02*
X185369342Y-189069104D01*
X185262200Y-189164342D01*
X185178866Y-189069104D01*
X185286009Y-188973866D01*
X185262200Y-189164342D01*
D10*
D11*
X178934342Y-185600057D02*
X178434342Y-185600057D01*
X178434342Y-186385771D02*
X178434342Y-184885771D01*
X179148628Y-184885771D01*
X179720057Y-186385771D02*
X179720057Y-185385771D01*
X179720057Y-184885771D02*
X179648628Y-184957200D01*
X179720057Y-185028628D01*
X179791485Y-184957200D01*
X179720057Y-184885771D01*
X179720057Y-185028628D01*
X180648628Y-186385771D02*
X180505771Y-186314342D01*
X180434342Y-186171485D01*
X180434342Y-184885771D01*
X181791485Y-186314342D02*
X181648628Y-186385771D01*
X181362914Y-186385771D01*
X181220057Y-186314342D01*
X181148628Y-186171485D01*
X181148628Y-185600057D01*
X181220057Y-185457200D01*
X181362914Y-185385771D01*
X181648628Y-185385771D01*
X181791485Y-185457200D01*
X181862914Y-185600057D01*
X181862914Y-185742914D01*
X181148628Y-185885771D01*
X182505771Y-186242914D02*
X182577200Y-186314342D01*
X182505771Y-186385771D01*
X182434342Y-186314342D01*
X182505771Y-186242914D01*
X182505771Y-186385771D01*
X182505771Y-185457200D02*
X182577200Y-185528628D01*
X182505771Y-185600057D01*
X182434342Y-185528628D01*
X182505771Y-185457200D01*
X182505771Y-185600057D01*
X184362914Y-186385771D02*
X184362914Y-184885771D01*
X184362914Y-185600057D02*
X185220057Y-185600057D01*
X185220057Y-186385771D02*
X185220057Y-184885771D01*
X185934342Y-186385771D02*
X185934342Y-185385771D01*
X185934342Y-184885771D02*
X185862914Y-184957200D01*
X185934342Y-185028628D01*
X186005771Y-184957200D01*
X185934342Y-184885771D01*
X185934342Y-185028628D01*
X186434342Y-185385771D02*
X187005771Y-185385771D01*
X186648628Y-186385771D02*
X186648628Y-185100057D01*
X186720057Y-184957200D01*
X186862914Y-184885771D01*
X187005771Y-184885771D01*
X187505771Y-186385771D02*
X187505771Y-185385771D01*
X187505771Y-184885771D02*
X187434342Y-184957200D01*
X187505771Y-185028628D01*
X187577200Y-184957200D01*
X187505771Y-184885771D01*
X187505771Y-185028628D01*
X188220057Y-186242914D02*
X188291485Y-186314342D01*
X188220057Y-186385771D01*
X188148628Y-186314342D01*
X188220057Y-186242914D01*
X188220057Y-186385771D01*
X188934342Y-186385771D02*
X188934342Y-184885771D01*
X189077200Y-185814342D02*
X189505771Y-186385771D01*
X189505771Y-185385771D02*
X188934342Y-185957200D01*
X190148628Y-186385771D02*
X190148628Y-185385771D01*
X190148628Y-184885771D02*
X190077200Y-184957200D01*
X190148628Y-185028628D01*
X190220057Y-184957200D01*
X190148628Y-184885771D01*
X190148628Y-185028628D01*
X191505771Y-186314342D02*
X191362914Y-186385771D01*
X191077200Y-186385771D01*
X190934342Y-186314342D01*
X190862914Y-186242914D01*
X190791485Y-186100057D01*
X190791485Y-185671485D01*
X190862914Y-185528628D01*
X190934342Y-185457200D01*
X191077200Y-185385771D01*
X191362914Y-185385771D01*
X191505771Y-185457200D01*
X192791485Y-186385771D02*
X192791485Y-185600057D01*
X192720057Y-185457200D01*
X192577200Y-185385771D01*
X192291485Y-185385771D01*
X192148628Y-185457200D01*
X192791485Y-186314342D02*
X192648628Y-186385771D01*
X192291485Y-186385771D01*
X192148628Y-186314342D01*
X192077200Y-186171485D01*
X192077200Y-186028628D01*
X192148628Y-185885771D01*
X192291485Y-185814342D01*
X192648628Y-185814342D01*
X192791485Y-185742914D01*
X194148628Y-186385771D02*
X194148628Y-184885771D01*
X194148628Y-186314342D02*
X194005771Y-186385771D01*
X193720057Y-186385771D01*
X193577200Y-186314342D01*
X193505771Y-186242914D01*
X193434342Y-186100057D01*
X193434342Y-185671485D01*
X193505771Y-185528628D01*
X193577200Y-185457200D01*
X193720057Y-185385771D01*
X194005771Y-185385771D01*
X194148628Y-185457200D01*
X194505771Y-186528628D02*
X195648628Y-186528628D01*
X196005771Y-185385771D02*
X196005771Y-186885771D01*
X196005771Y-185457200D02*
X196148628Y-185385771D01*
X196434342Y-185385771D01*
X196577200Y-185457200D01*
X196648628Y-185528628D01*
X196720057Y-185671485D01*
X196720057Y-186100057D01*
X196648628Y-186242914D01*
X196577200Y-186314342D01*
X196434342Y-186385771D01*
X196148628Y-186385771D01*
X196005771Y-186314342D01*
X198005771Y-186314342D02*
X197862914Y-186385771D01*
X197577200Y-186385771D01*
X197434342Y-186314342D01*
X197362914Y-186242914D01*
X197291485Y-186100057D01*
X197291485Y-185671485D01*
X197362914Y-185528628D01*
X197434342Y-185457200D01*
X197577200Y-185385771D01*
X197862914Y-185385771D01*
X198005771Y-185457200D01*
X198648628Y-186385771D02*
X198648628Y-184885771D01*
X198648628Y-185457200D02*
X198791485Y-185385771D01*
X199077200Y-185385771D01*
X199220057Y-185457200D01*
X199291485Y-185528628D01*
X199362914Y-185671485D01*
X199362914Y-186100057D01*
X199291485Y-186242914D01*
X199220057Y-186314342D01*
X199077200Y-186385771D01*
X198791485Y-186385771D01*
X198648628Y-186314342D01*
D10*
D11*
X177002200Y-181507200D02*
X285002200Y-181507200D01*
D10*
D11*
X178362914Y-183614342D02*
X178577200Y-183685771D01*
X178934342Y-183685771D01*
X179077200Y-183614342D01*
X179148628Y-183542914D01*
X179220057Y-183400057D01*
X179220057Y-183257200D01*
X179148628Y-183114342D01*
X179077200Y-183042914D01*
X178934342Y-182971485D01*
X178648628Y-182900057D01*
X178505771Y-182828628D01*
X178434342Y-182757200D01*
X178362914Y-182614342D01*
X178362914Y-182471485D01*
X178434342Y-182328628D01*
X178505771Y-182257200D01*
X178648628Y-182185771D01*
X179005771Y-182185771D01*
X179220057Y-182257200D01*
X179862914Y-183685771D02*
X179862914Y-182185771D01*
X180505771Y-183685771D02*
X180505771Y-182900057D01*
X180434342Y-182757200D01*
X180291485Y-182685771D01*
X180077200Y-182685771D01*
X179934342Y-182757200D01*
X179862914Y-182828628D01*
X181791485Y-183614342D02*
X181648628Y-183685771D01*
X181362914Y-183685771D01*
X181220057Y-183614342D01*
X181148628Y-183471485D01*
X181148628Y-182900057D01*
X181220057Y-182757200D01*
X181362914Y-182685771D01*
X181648628Y-182685771D01*
X181791485Y-182757200D01*
X181862914Y-182900057D01*
X181862914Y-183042914D01*
X181148628Y-183185771D01*
X183077200Y-183614342D02*
X182934342Y-183685771D01*
X182648628Y-183685771D01*
X182505771Y-183614342D01*
X182434342Y-183471485D01*
X182434342Y-182900057D01*
X182505771Y-182757200D01*
X182648628Y-182685771D01*
X182934342Y-182685771D01*
X183077200Y-182757200D01*
X183148628Y-182900057D01*
X183148628Y-183042914D01*
X182434342Y-183185771D01*
X183577200Y-182685771D02*
X184148628Y-182685771D01*
X183791485Y-182185771D02*
X183791485Y-183471485D01*
X183862914Y-183614342D01*
X184005771Y-183685771D01*
X184148628Y-183685771D01*
X184648628Y-183542914D02*
X184720057Y-183614342D01*
X184648628Y-183685771D01*
X184577200Y-183614342D01*
X184648628Y-183542914D01*
X184648628Y-183685771D01*
X184648628Y-182757200D02*
X184720057Y-182828628D01*
X184648628Y-182900057D01*
X184577200Y-182828628D01*
X184648628Y-182757200D01*
X184648628Y-182900057D01*
D10*
D12*
D10*
D11*
D10*
D11*
D10*
D11*
D10*
D11*
D10*
D11*
X197002200Y-191507200D02*
X197002200Y-194507200D01*
D10*
D11*
X261002200Y-191507200D02*
X261002200Y-198007200D01*
D14*
X122000000Y-66600000D03*
X120000000Y-66600000D03*
X125000000Y-96500000D03*
X127000000Y-96500000D03*
X115000000Y-96500000D03*
X117000000Y-96500000D03*
D15*
X125000000Y-104000000D03*
D16*
X130000000Y-104000000D03*
D15*
X113000000Y-104000000D03*
D16*
X118000000Y-104000000D03*
D14*
X68660000Y-116000000D03*
X66660000Y-116000000D03*
X83300000Y-132000000D03*
X81300000Y-132000000D03*
D17*
X72970000Y-71000000D03*
X77470000Y-71000000D03*
D14*
X67150000Y-132000000D03*
X69150000Y-132000000D03*
X73320000Y-116000000D03*
X71320000Y-116000000D03*
X75770000Y-116000000D03*
X77770000Y-116000000D03*
X72070000Y-132000000D03*
X74070000Y-132000000D03*
X76600000Y-132000000D03*
X78600000Y-132000000D03*
X80290000Y-116000000D03*
X82290000Y-116000000D03*
X89500000Y-128500000D03*
X87500000Y-128500000D03*
X89500000Y-125500000D03*
X87500000Y-125500000D03*
D18*
X92960000Y-113000000D03*
D19*
X103120000Y-113000000D03*
D18*
X107000000Y-109000000D03*
D19*
X107000000Y-98840000D03*
D14*
X108500000Y-125500000D03*
X106500000Y-125500000D03*
X106500000Y-128500000D03*
X108500000Y-128500000D03*
D20*
X93300000Y-118285000D03*
X93300000Y-119555000D03*
X93300000Y-120825000D03*
X93300000Y-122095000D03*
X93300000Y-123365000D03*
X93300000Y-124635000D03*
X93300000Y-125905000D03*
X93300000Y-127175000D03*
X93300000Y-128445000D03*
X93300000Y-129715000D03*
D21*
X97450000Y-125650000D03*
X97450000Y-124550000D03*
X98550000Y-125650000D03*
X98550000Y-124550000D03*
D22*
X98000000Y-124000000D03*
D21*
X98550000Y-123450000D03*
X97450000Y-123450000D03*
X97450000Y-122350000D03*
X98550000Y-122350000D03*
D20*
X102700000Y-129715000D03*
X102700000Y-128445000D03*
X102700000Y-127175000D03*
X102700000Y-125905000D03*
X102700000Y-124635000D03*
X102700000Y-123365000D03*
X102700000Y-122095000D03*
X102700000Y-120825000D03*
X102700000Y-119555000D03*
X102700000Y-118285000D03*
D23*
X78810000Y-120190000D03*
X76270000Y-120190000D03*
X73730000Y-120190000D03*
X71190000Y-120190000D03*
X71190000Y-127810000D03*
X73730000Y-127810000D03*
X76270000Y-127810000D03*
X78810000Y-127810000D03*
D24*
X55100000Y-121500000D03*
X55100000Y-124000000D03*
X55100000Y-126500000D03*
X57600000Y-121500000D03*
X57600000Y-124000000D03*
X57600000Y-126500000D03*
D25*
X123540000Y-71040000D03*
X118460000Y-71040000D03*
X110840000Y-91360000D03*
X121000000Y-91360000D03*
X131160000Y-91360000D03*
X131160000Y-71040000D03*
X55550000Y-89885000D03*
X61900000Y-89885000D03*
X68250000Y-89885000D03*
X68250000Y-106115000D03*
X61900000Y-106115000D03*
X55550000Y-106115000D03*
D26*
X139000000Y-124000000D03*
X146000000Y-124000000D03*
D27*
X147100000Y-120550000D03*
D28*
X137800000Y-120300000D03*
D27*
X145200000Y-127450000D03*
D29*
X133600000Y-125000000D03*
D30*
X148000000Y-127450000D03*
D31*
X147000000Y-88250000D03*
D32*
X144000000Y-92500000D03*
D33*
X139300000Y-92500000D03*
D26*
X139300000Y-100000000D03*
D33*
X139300000Y-107500000D03*
D32*
X144000000Y-107500000D03*
D31*
X147000000Y-111750000D03*
D34*
X139300000Y-76000000D03*
D35*
X145500000Y-76000000D03*
D36*
X142300000Y-71300000D03*
D31*
X52660000Y-73500000D03*
X52660000Y-78500000D03*
D37*
X65360000Y-76000000D03*
X69160000Y-76020000D03*
X72960000Y-76080000D03*
D14*
X87500000Y-122500000D03*
X89500000Y-122500000D03*
X108500000Y-119500000D03*
X106500000Y-119500000D03*
X87500000Y-119500000D03*
X89500000Y-119500000D03*
X108500000Y-122500000D03*
X106500000Y-122500000D03*
D38*
X80190000Y-92920000D03*
X80190000Y-95460000D03*
X80190000Y-98000000D03*
X80190000Y-100540000D03*
X80190000Y-103080000D03*
X87810000Y-103080000D03*
X87810000Y-100540000D03*
X87810000Y-98000000D03*
X87810000Y-95460000D03*
X87810000Y-92920000D03*
D39*
X69500000Y-80700000D03*
D40*
X76000000Y-83000000D03*
D39*
X69500000Y-85300000D03*
D41*
X66000000Y-83000000D03*
X66000000Y-85000000D03*
D42*
X98530000Y-83000000D03*
X103470000Y-83000000D03*
D43*
X94500000Y-84450000D03*
X94500000Y-81550000D03*
D44*
X85450000Y-88490000D03*
X82550000Y-88490000D03*
D45*
X88760000Y-83999240D03*
X86860000Y-83999240D03*
X87810000Y-85998220D03*
D41*
X91480000Y-84000000D03*
X91480000Y-82000000D03*
D14*
X86810000Y-81000000D03*
X88810000Y-81000000D03*
D46*
X83000000Y-84524000D03*
X83000000Y-81476000D03*
D15*
X58000000Y-85270000D03*
D16*
X58000000Y-82730000D03*
D41*
X63000000Y-83000000D03*
X63000000Y-85000000D03*
D15*
X118500000Y-128000000D03*
D16*
X123500000Y-128000000D03*
D15*
X118500000Y-116000000D03*
D16*
X123500000Y-116000000D03*
D15*
X100500000Y-104000000D03*
D16*
X95500000Y-104000000D03*
D41*
X84000000Y-120000000D03*
X84000000Y-122000000D03*
X84000000Y-126000000D03*
X84000000Y-128000000D03*
D15*
X98000000Y-71000000D03*
D16*
X98000000Y-76000000D03*
D15*
X86000000Y-71000000D03*
D16*
X86000000Y-76000000D03*
D15*
X100500000Y-92000000D03*
D16*
X95500000Y-92000000D03*
D47*
X63500000Y-127000000D03*
D18*
X66000000Y-127000000D03*
D47*
X63500000Y-121000000D03*
D18*
X66000000Y-121000000D03*
D48*
X98010000Y-114830000D03*
X74630000Y-112375000D03*
X98010000Y-113390000D03*
D49*
X97980000Y-131310000D03*
D48*
X84860000Y-112375000D03*
X68580000Y-112375000D03*
X71440000Y-112375000D03*
X78010000Y-112375000D03*
X81330000Y-112375000D03*
X108500000Y-121050000D03*
X65640000Y-112375000D03*
D49*
X104825000Y-120825000D03*
X91175000Y-120825000D03*
X105280000Y-118285000D03*
X90715000Y-118285000D03*
D48*
X95690000Y-120480000D03*
X86580000Y-124560000D03*
X100360000Y-120470000D03*
X109760000Y-125500000D03*
D49*
X142680000Y-127440000D03*
X60070000Y-131920000D03*
X135050000Y-120560000D03*
D48*
X126490000Y-80920000D03*
X84000000Y-124070000D03*
X95430000Y-122890000D03*
X100600000Y-122890000D03*
X85270000Y-129160000D03*
X91480000Y-80530000D03*
X83000000Y-86490000D03*
D50*
X66790000Y-81090000D03*
D48*
X105270000Y-71130000D03*
D51*
X97365000Y-124635000D02*
X97450000Y-124550000D01*
X97195000Y-125905000D02*
X97450000Y-125650000D01*
X95925000Y-127175000D02*
X97450000Y-125650000D01*
D52*
X97365000Y-124635000D02*
X97450000Y-124550000D01*
X97195000Y-125905000D02*
X97450000Y-125650000D01*
X95925000Y-127175000D02*
X97450000Y-125650000D01*
X94485000Y-129715000D02*
X98550000Y-125650000D01*
X95755000Y-128445000D02*
X98550000Y-125650000D01*
X98635000Y-124635000D02*
X98550000Y-124550000D01*
X98805000Y-125905000D02*
X98550000Y-125650000D01*
X100075000Y-127175000D02*
X98550000Y-125650000D01*
X100245000Y-128445000D02*
X97450000Y-125650000D01*
X101515000Y-129715000D02*
X97450000Y-125650000D01*
D53*
X91300000Y-110620000D02*
X89170000Y-110620000D01*
X60055000Y-110620000D02*
X55550000Y-106115000D01*
X60055000Y-110620000D02*
X56550000Y-107115000D01*
X56550000Y-107115000D02*
X56550000Y-101910000D01*
X56550000Y-101910000D02*
X55550000Y-101910000D01*
D54*
X55550000Y-101910000D02*
X55550000Y-101760000D01*
D53*
X88190000Y-110620000D02*
X86435000Y-112375000D01*
X86435000Y-112375000D02*
X85740000Y-113070000D01*
D54*
X59205000Y-112375000D02*
X55550000Y-108720000D01*
D55*
X55550000Y-108720000D02*
X55550000Y-111820000D01*
D54*
X64690000Y-112375000D02*
X61580000Y-112375000D01*
X56965000Y-112375000D02*
X52660000Y-108070000D01*
X52660000Y-108070000D02*
X52660000Y-116890000D01*
D55*
X57600000Y-114780000D02*
X58540000Y-113840000D01*
X57600000Y-114780000D02*
X60005000Y-112375000D01*
X60005000Y-112375000D02*
X60945000Y-112375000D01*
X60945000Y-112375000D02*
X61580000Y-113010000D01*
X61580000Y-113010000D02*
X61580000Y-112375000D01*
D54*
X61580000Y-112375000D02*
X59205000Y-112375000D01*
D55*
X57600000Y-119760000D02*
X56600000Y-118760000D01*
X56600000Y-118760000D02*
X56600000Y-114530000D01*
D54*
X65640000Y-112375000D02*
X64690000Y-112375000D01*
X68580000Y-112375000D02*
X65640000Y-112375000D01*
X71440000Y-112375000D02*
X68580000Y-112375000D01*
X74630000Y-112375000D02*
X71440000Y-112375000D01*
D53*
X97980000Y-130510000D02*
X97980000Y-131170000D01*
X97980000Y-132110000D02*
X97980000Y-133090000D01*
X98010000Y-113390000D02*
X95240000Y-110620000D01*
D54*
X78010000Y-112375000D02*
X74630000Y-112375000D01*
X81330000Y-112375000D02*
X78010000Y-112375000D01*
X84860000Y-112375000D02*
X81330000Y-112375000D01*
X118000000Y-111000000D02*
X125000000Y-104000000D01*
X118000000Y-107630000D02*
X121630000Y-104000000D01*
D53*
X86140000Y-110620000D02*
X66590000Y-110620000D01*
D55*
X96810000Y-110620000D02*
X98300000Y-112110000D01*
X98300000Y-112110000D02*
X98300000Y-122600000D01*
X98300000Y-122600000D02*
X97450000Y-123450000D01*
X57970000Y-110620000D02*
X55550000Y-108200000D01*
X55550000Y-108200000D02*
X55550000Y-108720000D01*
X55550000Y-119430000D02*
X55550000Y-120200000D01*
X55540000Y-119430000D02*
X55340000Y-119630000D01*
X55340000Y-119630000D02*
X55150000Y-119630000D01*
X55150000Y-119630000D02*
X51910000Y-122870000D01*
X51910000Y-122870000D02*
X51910000Y-132670000D01*
X51910000Y-132670000D02*
X53820000Y-134580000D01*
X53820000Y-134580000D02*
X106720000Y-134580000D01*
X106720000Y-134580000D02*
X108500000Y-132800000D01*
X108500000Y-132800000D02*
X108500000Y-128500000D01*
D56*
X67030000Y-134330000D02*
X66760000Y-134330000D01*
D55*
X67030000Y-134410000D02*
X66860000Y-134580000D01*
X66860000Y-134580000D02*
X54380000Y-134580000D01*
X54380000Y-134580000D02*
X52340000Y-132540000D01*
X52340000Y-132540000D02*
X52340000Y-119130000D01*
X52340000Y-119130000D02*
X52660000Y-118810000D01*
X97980000Y-132190000D02*
X100370000Y-134580000D01*
X100370000Y-134580000D02*
X114580000Y-134580000D01*
X120800000Y-134580000D02*
X123500000Y-131880000D01*
X123500000Y-128000000D02*
X123500000Y-131880000D01*
X114580000Y-134580000D02*
X120800000Y-134580000D01*
X110280000Y-134580000D02*
X108500000Y-132800000D01*
D54*
X52660000Y-86995000D02*
X55550000Y-89885000D01*
D55*
X55550000Y-121050000D02*
X55100000Y-121500000D01*
X55550000Y-117440000D02*
X55550000Y-119430000D01*
X55550000Y-113810000D02*
X55550000Y-115110000D01*
X55550000Y-115110000D02*
X55550000Y-115890000D01*
D56*
X67320000Y-113840000D02*
X66660000Y-114500000D01*
X66660000Y-114500000D02*
X66660000Y-116000000D01*
X73320000Y-114520000D02*
X72640000Y-113840000D01*
X72640000Y-113840000D02*
X69430000Y-113840000D01*
X87500000Y-115330000D02*
X86010000Y-113840000D01*
X86010000Y-113840000D02*
X85950000Y-113840000D01*
X75160000Y-113840000D02*
X73340000Y-113840000D01*
X74120000Y-113840000D02*
X73320000Y-114640000D01*
X73320000Y-114640000D02*
X73320000Y-114520000D01*
X73320000Y-113840000D02*
X73340000Y-113860000D01*
X73340000Y-113860000D02*
X73340000Y-114060000D01*
X73340000Y-114060000D02*
X73340000Y-113840000D01*
X73340000Y-113840000D02*
X72640000Y-113840000D01*
X85390000Y-134330000D02*
X84770000Y-134330000D01*
X52910000Y-121500000D02*
X55100000Y-121500000D01*
X53900000Y-134330000D02*
X54110000Y-134330000D01*
X85670000Y-134330000D02*
X85390000Y-134330000D01*
X83300000Y-133550000D02*
X82520000Y-134330000D01*
X84770000Y-134330000D02*
X84100000Y-134330000D01*
X84080000Y-134330000D02*
X83300000Y-133550000D01*
X83300000Y-133370000D02*
X83300000Y-133550000D01*
X83300000Y-134330000D02*
X83340000Y-134290000D01*
X83340000Y-134290000D02*
X83340000Y-134160000D01*
X83340000Y-134160000D02*
X83340000Y-134330000D01*
X83340000Y-134330000D02*
X82520000Y-134330000D01*
X72070000Y-133560000D02*
X71300000Y-134330000D01*
X73790000Y-134330000D02*
X71730000Y-134330000D01*
X72840000Y-134330000D02*
X72070000Y-133560000D01*
X72070000Y-133990000D02*
X71730000Y-134330000D01*
X71730000Y-134330000D02*
X71300000Y-134330000D01*
X67150000Y-133540000D02*
X66360000Y-134330000D01*
X66360000Y-134330000D02*
X54110000Y-134330000D01*
X69520000Y-134330000D02*
X67030000Y-134330000D01*
X67940000Y-134330000D02*
X67150000Y-133540000D01*
X67150000Y-133940000D02*
X66760000Y-134330000D01*
X66760000Y-134330000D02*
X66360000Y-134330000D01*
X69430000Y-113840000D02*
X67320000Y-113840000D01*
X56820000Y-113840000D02*
X55550000Y-115110000D01*
D55*
X55550000Y-111820000D02*
X55550000Y-113810000D01*
D56*
X55550000Y-112570000D02*
X56820000Y-113840000D01*
X58540000Y-113840000D02*
X56820000Y-113840000D01*
X55580000Y-113840000D02*
X55550000Y-113810000D01*
X64550000Y-113840000D02*
X58540000Y-113840000D01*
X66000000Y-113840000D02*
X66660000Y-114500000D01*
D54*
X52660000Y-84370000D02*
X52660000Y-86995000D01*
X52660000Y-103225000D02*
X55550000Y-106115000D01*
X52660000Y-101430000D02*
X52660000Y-103225000D01*
X52660000Y-117310000D02*
X54450000Y-119100000D01*
D55*
X55550000Y-120200000D02*
X55550000Y-121050000D01*
D54*
X54450000Y-119100000D02*
X55550000Y-120200000D01*
X52660000Y-118810000D02*
X52660000Y-117310000D01*
D56*
X54600000Y-121500000D02*
X53770000Y-120670000D01*
X53920000Y-121500000D02*
X53430000Y-121010000D01*
D54*
X55550000Y-101760000D02*
X55550000Y-106115000D01*
D57*
X55550000Y-105340000D02*
X54450000Y-106440000D01*
X54450000Y-106440000D02*
X54450000Y-119100000D01*
X55550000Y-119450000D02*
X57600000Y-121500000D01*
D55*
X55350000Y-121500000D02*
X52660000Y-118810000D01*
X52680000Y-121500000D02*
X52660000Y-121480000D01*
X52660000Y-121480000D02*
X52660000Y-120670000D01*
D54*
X52660000Y-116890000D02*
X52660000Y-118810000D01*
D56*
X51460000Y-118090000D02*
X51460000Y-124120000D01*
X51460000Y-132290000D02*
X53500000Y-134330000D01*
X53500000Y-134330000D02*
X53900000Y-134330000D01*
X53150000Y-121500000D02*
X51910000Y-122740000D01*
X51460000Y-123190000D02*
X51460000Y-124120000D01*
X51460000Y-124120000D02*
X51460000Y-132290000D01*
X54210000Y-121500000D02*
X51910000Y-119200000D01*
X51910000Y-119200000D02*
X52270000Y-119200000D01*
X52270000Y-119200000D02*
X52660000Y-118810000D01*
X51910000Y-119560000D02*
X51910000Y-122740000D01*
X51910000Y-122740000D02*
X51460000Y-123190000D01*
D53*
X87500000Y-115330000D02*
X85980000Y-113810000D01*
X85980000Y-113810000D02*
X55550000Y-113810000D01*
X85670000Y-134330000D02*
X53500000Y-134330000D01*
X53500000Y-134330000D02*
X51660000Y-132490000D01*
X51660000Y-132490000D02*
X51660000Y-121670000D01*
X51660000Y-121670000D02*
X52660000Y-120670000D01*
D55*
X52660000Y-120670000D02*
X52660000Y-118810000D01*
D53*
X51660000Y-119810000D02*
X51660000Y-121670000D01*
D55*
X55550000Y-115890000D02*
X55550000Y-117440000D01*
D53*
X55550000Y-118570000D02*
X57600000Y-120620000D01*
X57600000Y-120620000D02*
X57600000Y-121500000D01*
D56*
X80800000Y-134330000D02*
X82520000Y-134330000D01*
D53*
X106610000Y-134330000D02*
X108500000Y-132440000D01*
X108500000Y-132440000D02*
X108500000Y-128500000D01*
X92230000Y-134330000D02*
X93150000Y-134330000D01*
X87500000Y-133790000D02*
X86960000Y-134330000D01*
X86960000Y-134330000D02*
X92230000Y-134330000D01*
D56*
X84100000Y-134330000D02*
X83340000Y-134330000D01*
D53*
X86620000Y-134330000D02*
X87500000Y-133450000D01*
X87500000Y-133450000D02*
X87500000Y-128500000D01*
X93150000Y-134330000D02*
X95460000Y-134330000D01*
X88290000Y-134330000D02*
X87500000Y-133540000D01*
X87500000Y-133540000D02*
X87500000Y-128500000D01*
X97450000Y-132430000D02*
X95550000Y-134330000D01*
X95550000Y-134330000D02*
X97980000Y-134330000D01*
X98550000Y-132450000D02*
X100430000Y-134330000D01*
X100430000Y-134330000D02*
X101110000Y-134330000D01*
X97980000Y-122920000D02*
X97980000Y-130510000D01*
X97980000Y-134330000D02*
X100430000Y-134330000D01*
X95460000Y-134330000D02*
X95550000Y-134330000D01*
X96380000Y-134330000D02*
X97360000Y-133350000D01*
X99220000Y-134330000D02*
X97980000Y-133090000D01*
X97980000Y-133090000D02*
X97980000Y-134330000D01*
X97450000Y-112830000D02*
X95240000Y-110620000D01*
X95240000Y-110620000D02*
X92820000Y-110620000D01*
X89170000Y-110620000D02*
X85950000Y-113840000D01*
D56*
X85950000Y-113840000D02*
X75160000Y-113840000D01*
D53*
X98550000Y-113930000D02*
X98010000Y-113390000D01*
X98550000Y-112360000D02*
X96810000Y-110620000D01*
X96810000Y-110620000D02*
X89170000Y-110620000D01*
X92820000Y-110620000D02*
X91300000Y-110620000D01*
X98060000Y-121740000D02*
X97450000Y-122350000D01*
X87500000Y-117230000D02*
X87500000Y-115330000D01*
X87500000Y-112290000D02*
X89170000Y-110620000D01*
X87500000Y-117630000D02*
X87500000Y-117230000D01*
X87500000Y-114420000D02*
X86790000Y-113710000D01*
X87500000Y-132990000D02*
X86160000Y-134330000D01*
X86160000Y-134330000D02*
X82520000Y-134330000D01*
X88860000Y-134330000D02*
X87500000Y-132970000D01*
X87500000Y-132970000D02*
X87500000Y-133790000D01*
D54*
X144000000Y-91250000D02*
X144000000Y-97500000D01*
X144000000Y-100380000D02*
X144000000Y-107500000D01*
X144000000Y-108750000D02*
X147000000Y-111750000D01*
X141500000Y-100000000D02*
X144000000Y-97500000D01*
X144000000Y-97500000D02*
X144000000Y-100380000D01*
X144000000Y-102500000D02*
X141500000Y-100000000D01*
X122960000Y-100000000D02*
X121000000Y-98040000D01*
X121000000Y-98040000D02*
X121000000Y-91360000D01*
X121000000Y-101000000D02*
X118000000Y-104000000D01*
X129000000Y-100000000D02*
X125000000Y-104000000D01*
X125000000Y-101590000D02*
X126590000Y-100000000D01*
X126590000Y-100000000D02*
X122960000Y-100000000D01*
X147000000Y-109160000D02*
X147000000Y-111750000D01*
X147000000Y-120450000D02*
X147100000Y-120550000D01*
D53*
X97980000Y-131310000D02*
X97980000Y-132110000D01*
D56*
X98010000Y-114880000D02*
X98060000Y-114880000D01*
X98060000Y-114880000D02*
X98010000Y-114880000D01*
X98010000Y-114880000D02*
X98060000Y-114880000D01*
D53*
X98060000Y-114880000D02*
X98060000Y-121740000D01*
D56*
X98060000Y-114880000D02*
X98010000Y-114830000D01*
D54*
X120900000Y-104000000D02*
X122930000Y-101970000D01*
X121630000Y-104000000D02*
X125000000Y-104000000D01*
X118000000Y-120490000D02*
X123500000Y-125990000D01*
X123500000Y-125990000D02*
X123500000Y-128000000D01*
X118000000Y-111940000D02*
X118000000Y-118910000D01*
X118000000Y-115500000D02*
X118500000Y-116000000D01*
X118000000Y-118910000D02*
X118000000Y-120490000D01*
X118000000Y-116500000D02*
X118500000Y-116000000D01*
D53*
X108500000Y-121050000D02*
X108500000Y-122500000D01*
X87500000Y-130780000D02*
X87500000Y-132970000D01*
D54*
X139300000Y-100000000D02*
X141500000Y-100000000D01*
D55*
X114580000Y-134580000D02*
X110280000Y-134580000D01*
D56*
X67150000Y-132000000D02*
X67150000Y-133540000D01*
X75160000Y-113840000D02*
X74120000Y-113840000D01*
D52*
X102700000Y-129715000D02*
X101515000Y-129715000D01*
D56*
X64550000Y-113840000D02*
X66000000Y-113840000D01*
D55*
X91300000Y-110620000D02*
X57970000Y-110620000D01*
X67030000Y-134330000D02*
X67030000Y-134410000D01*
D54*
X139300000Y-100000000D02*
X126590000Y-100000000D01*
D56*
X72070000Y-132000000D02*
X72070000Y-133990000D01*
D54*
X52660000Y-84370000D02*
X52660000Y-101430000D01*
D56*
X83300000Y-132000000D02*
X83300000Y-133370000D01*
D55*
X57600000Y-121500000D02*
X55350000Y-121500000D01*
D56*
X69520000Y-134330000D02*
X71300000Y-134330000D01*
D54*
X118000000Y-111940000D02*
X118000000Y-107630000D01*
D53*
X80800000Y-134330000D02*
X86960000Y-134330000D01*
D54*
X118000000Y-104000000D02*
X118000000Y-111940000D01*
D56*
X58540000Y-113840000D02*
X55580000Y-113840000D01*
D52*
X93300000Y-127175000D02*
X95925000Y-127175000D01*
D53*
X97450000Y-122350000D02*
X97450000Y-132430000D01*
D52*
X93300000Y-124635000D02*
X97365000Y-124635000D01*
D56*
X55100000Y-121500000D02*
X54210000Y-121500000D01*
D55*
X97980000Y-132190000D02*
X97980000Y-130510000D01*
D56*
X83300000Y-133370000D02*
X83300000Y-134330000D01*
D53*
X101110000Y-134330000D02*
X99220000Y-134330000D01*
D56*
X55550000Y-111820000D02*
X55550000Y-112570000D01*
D52*
X93300000Y-125905000D02*
X97195000Y-125905000D01*
D54*
X147000000Y-88250000D02*
X147000000Y-109160000D01*
D55*
X57600000Y-121500000D02*
X57600000Y-116050000D01*
D54*
X139300000Y-100000000D02*
X129000000Y-100000000D01*
X118000000Y-111940000D02*
X118000000Y-115500000D01*
X144000000Y-107500000D02*
X144000000Y-102500000D01*
D52*
X102700000Y-127175000D02*
X100075000Y-127175000D01*
D56*
X69520000Y-134330000D02*
X67940000Y-134330000D01*
X75770000Y-116000000D02*
X73320000Y-116000000D01*
D55*
X55550000Y-106115000D02*
X55550000Y-108200000D01*
D56*
X55100000Y-121500000D02*
X53920000Y-121500000D01*
D53*
X97450000Y-124550000D02*
X97450000Y-112830000D01*
D56*
X84770000Y-134330000D02*
X84080000Y-134330000D01*
D53*
X101110000Y-134330000D02*
X106610000Y-134330000D01*
D56*
X55550000Y-101760000D02*
X55550000Y-105340000D01*
X72070000Y-132000000D02*
X72070000Y-133560000D01*
X52660000Y-118810000D02*
X51910000Y-119560000D01*
D53*
X97980000Y-131310000D02*
X97980000Y-131170000D01*
D54*
X55550000Y-89885000D02*
X55550000Y-101910000D01*
D52*
X93300000Y-129715000D02*
X94485000Y-129715000D01*
D53*
X55550000Y-115890000D02*
X55550000Y-118570000D01*
D54*
X118000000Y-118910000D02*
X118000000Y-116500000D01*
D53*
X87500000Y-117630000D02*
X87500000Y-114420000D01*
D56*
X69430000Y-113840000D02*
X64550000Y-113840000D01*
D53*
X52660000Y-118810000D02*
X51660000Y-119810000D01*
X98550000Y-122350000D02*
X98550000Y-132450000D01*
D52*
X102700000Y-128445000D02*
X100245000Y-128445000D01*
D55*
X57600000Y-121500000D02*
X55100000Y-121500000D01*
D52*
X102700000Y-125905000D02*
X98805000Y-125905000D01*
D56*
X67150000Y-133540000D02*
X67150000Y-133940000D01*
D54*
X52660000Y-101430000D02*
X52660000Y-108070000D01*
D52*
X102700000Y-124635000D02*
X98635000Y-124635000D01*
D54*
X64690000Y-112375000D02*
X56965000Y-112375000D01*
D53*
X108500000Y-119500000D02*
X108500000Y-121050000D01*
X87500000Y-122500000D02*
X87500000Y-119500000D01*
D55*
X86140000Y-110620000D02*
X96810000Y-110620000D01*
D53*
X87500000Y-128500000D02*
X87500000Y-130780000D01*
D54*
X121000000Y-91360000D02*
X121000000Y-101000000D01*
D53*
X98550000Y-122350000D02*
X97980000Y-122920000D01*
D56*
X55100000Y-121500000D02*
X54600000Y-121500000D01*
D55*
X55550000Y-119430000D02*
X55540000Y-119430000D01*
D52*
X93300000Y-128445000D02*
X95755000Y-128445000D01*
D56*
X73790000Y-134330000D02*
X80800000Y-134330000D01*
D55*
X57600000Y-116050000D02*
X57600000Y-114780000D01*
D53*
X92230000Y-134330000D02*
X88860000Y-134330000D01*
D54*
X52660000Y-73500000D02*
X52660000Y-84370000D01*
D57*
X57600000Y-121500000D02*
X52910000Y-121500000D01*
D54*
X125000000Y-104000000D02*
X125000000Y-101590000D01*
D53*
X87500000Y-117230000D02*
X87500000Y-112290000D01*
X84100000Y-134330000D02*
X86620000Y-134330000D01*
X87500000Y-119500000D02*
X87500000Y-117630000D01*
X98550000Y-122350000D02*
X98550000Y-113930000D01*
D56*
X52660000Y-116890000D02*
X51460000Y-118090000D01*
D54*
X86435000Y-112375000D02*
X84860000Y-112375000D01*
D53*
X91300000Y-110620000D02*
X88190000Y-110620000D01*
X93150000Y-134330000D02*
X88290000Y-134330000D01*
D54*
X147000000Y-109160000D02*
X147000000Y-120450000D01*
D53*
X91300000Y-110620000D02*
X86140000Y-110620000D01*
D57*
X55550000Y-115110000D02*
X55550000Y-119450000D01*
D53*
X87500000Y-130780000D02*
X87500000Y-132990000D01*
D54*
X144000000Y-100380000D02*
X144000000Y-108750000D01*
D56*
X55100000Y-121500000D02*
X53150000Y-121500000D01*
D55*
X57600000Y-121500000D02*
X57600000Y-119760000D01*
D56*
X73320000Y-116000000D02*
X73320000Y-113840000D01*
D53*
X66590000Y-110620000D02*
X60055000Y-110620000D01*
D54*
X118000000Y-111940000D02*
X118000000Y-111000000D01*
D56*
X73790000Y-134330000D02*
X72840000Y-134330000D01*
D54*
X118000000Y-104000000D02*
X120900000Y-104000000D01*
D56*
X73320000Y-116000000D02*
X73320000Y-114640000D01*
D55*
X57600000Y-121500000D02*
X52680000Y-121500000D01*
D54*
X118000000Y-104000000D02*
X121630000Y-104000000D01*
D53*
X98550000Y-122350000D02*
X98550000Y-112360000D01*
X95460000Y-134330000D02*
X96380000Y-134330000D01*
D54*
X147000000Y-88250000D02*
X144000000Y-91250000D01*
D56*
X110840000Y-95190000D02*
X112150000Y-96500000D01*
X112150000Y-96500000D02*
X115000000Y-96500000D01*
D58*
X81300000Y-130300000D02*
X78810000Y-127810000D01*
X91080000Y-120920000D02*
X89500000Y-122500000D01*
D56*
X81300000Y-130300000D02*
X78810000Y-127810000D01*
D59*
X113000000Y-122500000D02*
X118500000Y-128000000D01*
D56*
X93300000Y-120825000D02*
X91175000Y-120825000D01*
X106500000Y-122500000D02*
X104825000Y-120825000D01*
X102700000Y-120825000D02*
X104825000Y-120825000D01*
X89500000Y-122500000D02*
X91175000Y-120825000D01*
D59*
X113000000Y-104000000D02*
X113000000Y-122500000D01*
D56*
X110840000Y-91360000D02*
X110840000Y-95190000D01*
X91080000Y-120920000D02*
X91175000Y-120825000D01*
X81300000Y-132000000D02*
X81300000Y-130300000D01*
X131160000Y-95160000D02*
X129820000Y-96500000D01*
X129820000Y-96500000D02*
X127000000Y-96500000D01*
D58*
X68660000Y-117660000D02*
X71190000Y-120190000D01*
D52*
X90715000Y-118285000D02*
X89500000Y-119500000D01*
X105285000Y-118285000D02*
X106500000Y-119500000D01*
D58*
X90695000Y-118305000D02*
X89500000Y-119500000D01*
D52*
X105280000Y-118285000D02*
X105285000Y-118285000D01*
D56*
X68660000Y-117660000D02*
X71190000Y-120190000D01*
D53*
X90695000Y-118305000D02*
X90715000Y-118285000D01*
D52*
X102700000Y-118285000D02*
X105280000Y-118285000D01*
X93300000Y-118285000D02*
X90715000Y-118285000D01*
D56*
X68660000Y-116000000D02*
X68660000Y-117660000D01*
X131160000Y-91360000D02*
X131160000Y-95160000D01*
D58*
X76270000Y-118680000D02*
X77770000Y-117180000D01*
X77770000Y-117180000D02*
X77770000Y-116000000D01*
X76270000Y-120190000D02*
X76270000Y-118680000D01*
X77770000Y-116000000D02*
X80290000Y-116000000D01*
X73730000Y-131660000D02*
X74070000Y-132000000D01*
X73730000Y-131070000D02*
X74660000Y-132000000D01*
X74660000Y-132000000D02*
X76600000Y-132000000D01*
X73730000Y-127810000D02*
X73730000Y-131660000D01*
X73730000Y-127810000D02*
X73730000Y-131070000D01*
X76600000Y-132000000D02*
X74070000Y-132000000D01*
X91635000Y-123365000D02*
X89500000Y-125500000D01*
D52*
X91635000Y-123365000D02*
X89500000Y-125500000D01*
X89500000Y-125500000D02*
X89500000Y-128500000D01*
X93300000Y-123365000D02*
X91635000Y-123365000D01*
D56*
X95005000Y-119555000D02*
X95730000Y-118830000D01*
X95730000Y-118830000D02*
X95730000Y-118020000D01*
X94890000Y-113000000D02*
X95730000Y-113840000D01*
X95730000Y-113840000D02*
X95730000Y-115770000D01*
D58*
X95690000Y-120480000D02*
X95275000Y-120065000D01*
X95275000Y-120065000D02*
X95005000Y-119555000D01*
D56*
X95730000Y-118020000D02*
X95730000Y-115770000D01*
X95730000Y-120440000D02*
X95690000Y-120480000D01*
X95275000Y-120065000D02*
X95690000Y-120480000D01*
D52*
X87500000Y-125480000D02*
X86580000Y-124560000D01*
D56*
X94765000Y-119555000D02*
X95690000Y-120480000D01*
X95690000Y-119940000D02*
X95155000Y-119405000D01*
X95155000Y-119405000D02*
X95155000Y-119555000D01*
X95155000Y-119555000D02*
X95005000Y-119555000D01*
X93300000Y-119555000D02*
X95155000Y-119555000D01*
D58*
X87500000Y-125500000D02*
X87500000Y-125480000D01*
D56*
X95730000Y-118020000D02*
X95730000Y-120440000D01*
X93300000Y-119555000D02*
X94765000Y-119555000D01*
D52*
X87500000Y-125500000D02*
X87500000Y-125480000D01*
D56*
X92960000Y-113000000D02*
X94890000Y-113000000D01*
X95690000Y-120480000D02*
X95690000Y-119940000D01*
X100935000Y-119555000D02*
X100310000Y-118930000D01*
X100310000Y-118930000D02*
X100310000Y-118240000D01*
X100310000Y-116490000D02*
X101260000Y-115540000D01*
X101260000Y-115540000D02*
X105730000Y-115540000D01*
X105730000Y-115540000D02*
X107000000Y-114270000D01*
X100360000Y-120470000D02*
X100310000Y-120420000D01*
X100310000Y-120420000D02*
X100310000Y-116490000D01*
X101275000Y-119555000D02*
X100360000Y-120470000D01*
X100360000Y-120130000D02*
X100935000Y-119555000D01*
X107000000Y-109000000D02*
X107000000Y-114270000D01*
D52*
X108500000Y-125500000D02*
X109760000Y-125500000D01*
D56*
X102700000Y-119555000D02*
X101275000Y-119555000D01*
X102700000Y-119555000D02*
X100935000Y-119555000D01*
X100360000Y-120470000D02*
X100360000Y-120130000D01*
X100310000Y-118240000D02*
X100310000Y-116490000D01*
D52*
X104365000Y-123365000D02*
X106500000Y-125500000D01*
X106500000Y-125500000D02*
X106500000Y-128500000D01*
X102700000Y-123365000D02*
X104365000Y-123365000D01*
D56*
X142690000Y-127450000D02*
X142680000Y-127440000D01*
X145200000Y-127450000D02*
X142690000Y-127450000D01*
X135060000Y-120550000D02*
X135050000Y-120560000D01*
X55100000Y-130400000D02*
X56620000Y-131920000D01*
X56620000Y-131920000D02*
X60070000Y-131920000D01*
X137800000Y-120550000D02*
X135060000Y-120550000D01*
X55100000Y-126500000D02*
X55100000Y-130400000D01*
D59*
X72960000Y-71010000D02*
X72970000Y-71000000D01*
X72960000Y-76080000D02*
X72960000Y-71010000D01*
D57*
X103120000Y-106620000D02*
X100500000Y-104000000D01*
X103120000Y-113000000D02*
X103120000Y-106620000D01*
D56*
X97080000Y-84450000D02*
X98530000Y-83000000D01*
X91930000Y-84450000D02*
X91480000Y-84000000D01*
X92710000Y-84450000D02*
X91930000Y-84450000D01*
X89210760Y-84450000D02*
X88760000Y-83999240D01*
X92710000Y-84450000D02*
X89210760Y-84450000D01*
X94500000Y-84450000D02*
X92710000Y-84450000D01*
X94500000Y-84450000D02*
X97080000Y-84450000D01*
D59*
X68250000Y-92210000D02*
X68250000Y-96850000D01*
X68250000Y-96850000D02*
X68250000Y-104420000D01*
X70930000Y-100680000D02*
X68250000Y-98000000D01*
X68250000Y-98000000D02*
X68250000Y-90025000D01*
X68250000Y-103360000D02*
X70930000Y-100680000D01*
X68250000Y-104300000D02*
X68250000Y-106135000D01*
X68250000Y-101870000D02*
X70185000Y-99935000D01*
X70185000Y-99935000D02*
X70185000Y-100680000D01*
X70185000Y-100680000D02*
X70930000Y-100680000D01*
X68250000Y-104420000D02*
X68250000Y-101870000D01*
X68250000Y-92025000D02*
X68250000Y-92210000D01*
X68250000Y-91285000D02*
X68250000Y-105515000D01*
X68250000Y-106135000D02*
X68250000Y-103240000D01*
D55*
X80190000Y-100540000D02*
X70040000Y-100540000D01*
D59*
X68250000Y-92210000D02*
X68250000Y-90025000D01*
D56*
X59354695Y-86624695D02*
X58000000Y-85270000D01*
X62440000Y-86624695D02*
X59354695Y-86624695D01*
X68620000Y-83000000D02*
X64995305Y-86624695D01*
X64995305Y-86624695D02*
X66000000Y-85620000D01*
X66000000Y-85620000D02*
X66000000Y-85000000D01*
D59*
X83000000Y-79000000D02*
X86000000Y-76000000D01*
X77524000Y-81476000D02*
X76000000Y-83000000D01*
D56*
X123540000Y-68140000D02*
X122000000Y-66600000D01*
D53*
X86810000Y-76110000D02*
X86380000Y-75680000D01*
X86380000Y-75680000D02*
X86320000Y-75680000D01*
X86320000Y-75680000D02*
X86000000Y-76000000D01*
X86334000Y-81476000D02*
X86810000Y-81000000D01*
X83000000Y-80640000D02*
X86260000Y-77380000D01*
X83000000Y-81430000D02*
X86220000Y-78210000D01*
X83954000Y-81476000D02*
X86810000Y-78620000D01*
X86810000Y-78620000D02*
X86810000Y-76110000D01*
X85044000Y-81476000D02*
X86300000Y-80220000D01*
D55*
X103470000Y-77660000D02*
X101810000Y-76000000D01*
X101810000Y-76000000D02*
X98000000Y-76000000D01*
D56*
X125000000Y-82410000D02*
X126490000Y-80920000D01*
D53*
X83000000Y-81476000D02*
X83000000Y-80640000D01*
X83000000Y-81476000D02*
X83000000Y-81430000D01*
D56*
X58000000Y-85270000D02*
X58000000Y-85910000D01*
D53*
X83000000Y-81476000D02*
X85044000Y-81476000D01*
X86810000Y-81000000D02*
X86810000Y-78620000D01*
D56*
X58000000Y-85270000D02*
X58000000Y-85910000D01*
X123540000Y-71040000D02*
X123540000Y-68140000D01*
D59*
X83000000Y-81476000D02*
X83000000Y-79000000D01*
D56*
X62440000Y-86624695D02*
X63360000Y-86624695D01*
D59*
X83000000Y-81476000D02*
X77524000Y-81476000D01*
D56*
X76000000Y-83000000D02*
X68620000Y-83000000D01*
X125000000Y-96500000D02*
X125000000Y-82410000D01*
D55*
X103470000Y-83000000D02*
X103470000Y-77660000D01*
D53*
X83000000Y-81476000D02*
X83954000Y-81476000D01*
X83000000Y-81476000D02*
X86334000Y-81476000D01*
D56*
X63360000Y-86624695D02*
X64995305Y-86624695D01*
X59710610Y-82730000D02*
X61980610Y-85000000D01*
X61980610Y-85000000D02*
X63000000Y-85000000D01*
X59240000Y-82730000D02*
X61720000Y-85210000D01*
X61720000Y-85210000D02*
X62790000Y-85210000D01*
X62790000Y-85210000D02*
X63000000Y-85000000D01*
X59710610Y-82730000D02*
X61780610Y-84800000D01*
X61780610Y-84800000D02*
X62800000Y-84800000D01*
X62800000Y-84800000D02*
X63000000Y-85000000D01*
X58000000Y-82240000D02*
X58220000Y-82460000D01*
X58220000Y-82460000D02*
X59440610Y-82460000D01*
X59440610Y-82460000D02*
X61780610Y-84800000D01*
X58000000Y-82730000D02*
X58000000Y-82240000D01*
X63000000Y-85000000D02*
X62460610Y-85000000D01*
X58000000Y-82730000D02*
X59710610Y-82730000D01*
X58000000Y-82730000D02*
X59240000Y-82730000D01*
X58000000Y-82730000D02*
X59710610Y-82730000D01*
D58*
X69150000Y-131830000D02*
X71190000Y-129790000D01*
X71190000Y-129790000D02*
X71190000Y-127810000D01*
X69150000Y-132000000D02*
X69150000Y-131830000D01*
X76270000Y-128310000D02*
X78600000Y-130640000D01*
X78600000Y-130640000D02*
X78600000Y-132000000D01*
X83770000Y-125770000D02*
X77720000Y-125770000D01*
X76680000Y-125770000D02*
X76270000Y-126180000D01*
X76270000Y-126180000D02*
X76270000Y-127810000D01*
X77720000Y-125770000D02*
X76680000Y-125770000D01*
X84000000Y-126000000D02*
X83770000Y-125770000D01*
X76270000Y-127810000D02*
X76270000Y-128310000D01*
X83810000Y-120190000D02*
X84000000Y-120000000D01*
X82290000Y-116060000D02*
X84000000Y-117770000D01*
X84000000Y-117770000D02*
X84000000Y-120000000D01*
X82290000Y-116000000D02*
X82290000Y-116060000D01*
X78810000Y-120190000D02*
X83810000Y-120190000D01*
D52*
X94635000Y-122095000D02*
X95430000Y-122890000D01*
X84000000Y-124070000D02*
X84000000Y-122000000D01*
X93300000Y-122095000D02*
X94635000Y-122095000D01*
X101395000Y-122095000D02*
X100600000Y-122890000D01*
X85270000Y-129160000D02*
X84110000Y-128000000D01*
X84110000Y-128000000D02*
X84000000Y-128000000D01*
X102700000Y-122095000D02*
X101395000Y-122095000D01*
D53*
X87810000Y-87490000D02*
X87810000Y-85998220D01*
X87810000Y-87720000D02*
X87040000Y-88490000D01*
X87040000Y-88490000D02*
X85450000Y-88490000D01*
X87810000Y-90600000D02*
X87810000Y-87490000D01*
X87810000Y-89260000D02*
X87040000Y-88490000D01*
X87810000Y-92920000D02*
X87810000Y-90600000D01*
X87810000Y-85998220D02*
X87810000Y-87720000D01*
X87810000Y-90600000D02*
X87810000Y-89260000D01*
D59*
X69160000Y-68544697D02*
X70674697Y-67030000D01*
X70674697Y-67030000D02*
X105540000Y-67030000D01*
X105540000Y-67030000D02*
X114510000Y-76000000D01*
X69160000Y-76020000D02*
X69160000Y-68544697D01*
X139300000Y-76000000D02*
X114510000Y-76000000D01*
D52*
X86860000Y-83820000D02*
X88810000Y-81870000D01*
X88810000Y-81870000D02*
X88810000Y-81000000D01*
X86860000Y-83999240D02*
X86860000Y-83820000D01*
D53*
X82550000Y-84974000D02*
X83000000Y-84524000D01*
X72690000Y-88490000D02*
X69500000Y-85300000D01*
X80190000Y-90850000D02*
X80745000Y-90295000D01*
X75830000Y-88490000D02*
X72690000Y-88490000D01*
X77830000Y-88490000D02*
X80190000Y-90850000D01*
X77130000Y-88490000D02*
X75830000Y-88490000D01*
X78940000Y-88490000D02*
X80745000Y-90295000D01*
X80745000Y-90295000D02*
X81355000Y-89685000D01*
X77280000Y-88490000D02*
X77130000Y-88490000D01*
X80160000Y-88490000D02*
X81355000Y-89685000D01*
X81355000Y-89685000D02*
X82550000Y-88490000D01*
X80190000Y-90450000D02*
X82150000Y-88490000D01*
X82150000Y-88490000D02*
X82550000Y-88490000D01*
X82550000Y-86320000D02*
X82550000Y-84974000D01*
X82550000Y-87230000D02*
X81290000Y-88490000D01*
X81290000Y-88490000D02*
X72690000Y-88490000D01*
D56*
X91480000Y-80890000D02*
X92140000Y-81550000D01*
X83000000Y-88040000D02*
X82550000Y-88490000D01*
D53*
X82550000Y-86490000D02*
X82550000Y-86320000D01*
D56*
X94500000Y-81550000D02*
X92140000Y-81550000D01*
D53*
X77130000Y-88490000D02*
X78940000Y-88490000D01*
D56*
X83000000Y-86490000D02*
X82550000Y-86490000D01*
X91480000Y-80530000D02*
X91480000Y-80890000D01*
D53*
X77280000Y-88490000D02*
X80160000Y-88490000D01*
X82550000Y-88490000D02*
X77280000Y-88490000D01*
D56*
X83000000Y-84524000D02*
X83000000Y-88040000D01*
D53*
X80190000Y-92920000D02*
X80190000Y-90450000D01*
X82550000Y-88490000D02*
X82550000Y-86490000D01*
D56*
X91480000Y-82000000D02*
X91480000Y-80530000D01*
D53*
X75830000Y-88490000D02*
X77830000Y-88490000D01*
X80190000Y-92920000D02*
X80190000Y-90850000D01*
X82550000Y-86320000D02*
X82550000Y-87230000D01*
D58*
X73730000Y-119750000D02*
X71320000Y-117340000D01*
X71320000Y-117340000D02*
X71320000Y-116000000D01*
X73730000Y-120190000D02*
X73730000Y-119750000D01*
D53*
X65660000Y-83000000D02*
X66790000Y-81090000D01*
D59*
X98000000Y-71000000D02*
X86000000Y-71000000D01*
D55*
X67180000Y-80700000D02*
X66790000Y-81090000D01*
X66000000Y-81880000D02*
X66790000Y-81090000D01*
D56*
X118460000Y-68140000D02*
X120000000Y-66600000D01*
X117000000Y-82860000D02*
X105270000Y-71130000D01*
D53*
X63000000Y-83000000D02*
X66000000Y-83000000D01*
D59*
X77470000Y-71000000D02*
X86000000Y-71000000D01*
D55*
X69500000Y-80700000D02*
X67180000Y-80700000D01*
D56*
X118460000Y-71040000D02*
X118460000Y-68140000D01*
D53*
X63000000Y-83000000D02*
X65660000Y-83000000D01*
D54*
X77470000Y-71000000D02*
X98000000Y-71000000D01*
D56*
X117000000Y-96500000D02*
X117000000Y-82860000D01*
X63000000Y-83000000D02*
X66000000Y-83000000D01*
D55*
X66000000Y-83000000D02*
X66000000Y-81880000D01*
X93710000Y-98000000D02*
X95500000Y-96210000D01*
X95500000Y-96210000D02*
X95500000Y-92000000D01*
X87810000Y-98000000D02*
X93710000Y-98000000D01*
M02*
