M48
; DRILL file {KiCad (6.0.1-0)} date 2022 January 26, Wednesday 00:05:42
; FORMAT={-:-/ absolute / inch / decimal}
; #@! TF.CreationDate,2022-01-26T00:05:42+08:00
; #@! TF.GenerationSoftware,Kicad,Pcbnew,(6.0.1-0)
; #@! TF.FileFunction,Plated,1,2,PTH
FMAT,2
INCH
; #@! TA.AperFunction,Plated,PTH,ComponentDrill
T1C0.0197
; #@! TA.AperFunction,Plated,PTH,ViaDrill
T2C0.0236
; #@! TA.AperFunction,Plated,PTH,ComponentDrill
T3C0.0283
; #@! TA.AperFunction,Plated,PTH,ViaDrill
T4C0.0315
; #@! TA.AperFunction,Plated,PTH,ComponentDrill
T5C0.0315
; #@! TA.AperFunction,Plated,PTH,ComponentDrill
T6C0.0346
; #@! TA.AperFunction,Plated,PTH,ComponentDrill
T7C0.0362
; #@! TA.AperFunction,Plated,PTH,ViaDrill
T8C0.0394
; #@! TA.AperFunction,Plated,PTH,ComponentDrill
T9C0.0394
; #@! TA.AperFunction,Plated,PTH,ComponentDrill
T10C0.0394
; #@! TA.AperFunction,Plated,PTH,ComponentDrill
T11C0.0472
; #@! TA.AperFunction,Plated,PTH,ComponentDrill
T12C0.0520
; #@! TA.AperFunction,Plated,PTH,ComponentDrill
T13C0.0630
; #@! TA.AperFunction,Plated,PTH,ComponentDrill
T14C0.0709
; #@! TA.AperFunction,Plated,PTH,ComponentDrill
T15C0.0924
%
G90
G05
T1
X3.8366Y-4.8169
X3.8366Y-4.8602
X3.8366Y-4.9035
X3.8366Y-4.9469
X3.8799Y-4.8169
X3.8799Y-4.8602
X3.8799Y-4.9035
X3.8799Y-4.9469
T2
X2.5843Y-4.4242
X2.7Y-4.4242
X2.8126Y-4.4242
X2.9382Y-4.4242
X3.0713Y-4.4242
X3.202Y-4.4242
X3.2677Y-3.4051
X3.3071Y-4.8846
X3.3409Y-4.4242
X3.3571Y-5.085
X3.4087Y-4.9039
X3.6016Y-3.1705
X3.7571Y-4.8382
X3.7673Y-4.7433
X3.8587Y-4.4642
X3.8587Y-4.5209
X3.9512Y-4.7429
X3.9606Y-4.8382
X4.1445Y-2.8004
X4.2717Y-4.7657
X4.3213Y-4.9409
X4.9799Y-3.1858
T3
X3.1571Y-3.6583
X3.1571Y-3.7583
X3.1571Y-3.8583
X3.1571Y-3.9583
X3.1571Y-4.0583
X3.4571Y-3.6583
X3.4571Y-3.7583
X3.4571Y-3.8583
X3.4571Y-3.9583
X3.4571Y-4.0583
T4
X2.365Y-5.1937
X3.5715Y-4.6569
X3.5896Y-4.7569
X3.8575Y-5.1697
X4.127Y-4.7569
X4.1449Y-4.6569
X5.3169Y-4.7465
X5.6173Y-5.0173
T5
X2.5Y-4.7638
X2.5Y-5.0
X2.5984Y-4.7638
X2.5984Y-5.0
X2.8028Y-4.7319
X2.8028Y-5.0319
X2.9028Y-4.7319
X2.9028Y-5.0319
X3.0028Y-4.7319
X3.0028Y-5.0319
X3.1028Y-4.7319
X3.1028Y-5.0319
X3.6598Y-4.4488
X4.0598Y-4.4488
X4.2126Y-3.8913
X4.2126Y-4.2913
T7
X2.1693Y-4.7835
X2.1693Y-4.8819
X2.1693Y-4.9803
X2.2677Y-4.7835
X2.2677Y-4.8819
X2.2677Y-4.9803
T8
X2.6295Y-3.1925
T9
X3.3858Y-2.7953
X3.3858Y-2.9921
X3.7598Y-3.622
X3.7598Y-4.0945
X3.8583Y-2.7953
X3.8583Y-2.9921
X3.9567Y-3.622
X3.9567Y-4.0945
X4.4488Y-4.0945
X4.6457Y-4.0945
X4.6654Y-4.5669
X4.6654Y-5.0394
X4.8622Y-4.5669
X4.8622Y-5.0394
X4.9213Y-4.0945
X5.1181Y-4.0945
T10
X2.2835Y-3.2571
X2.2835Y-3.3571
T11
X4.3638Y-3.5969
X4.6638Y-2.7969
X4.7638Y-3.5969
X4.8638Y-2.7969
X5.1638Y-2.7969
X5.1638Y-3.5969
T12
X2.187Y-3.5388
X2.187Y-4.1778
X2.437Y-3.5388
X2.437Y-4.1778
X2.687Y-3.5388
X2.687Y-4.1778
T13
X2.0732Y-2.8937
X2.0732Y-3.0906
X2.5732Y-2.9921
X2.7228Y-2.9929
X2.8724Y-2.9953
T14
X5.4843Y-3.937
T15
X5.7874Y-3.4744
X5.7874Y-4.3996
T5
G00X5.4535Y-3.6417
M15
G01X5.515Y-3.6417
M16
G05
G00X5.4535Y-4.2323
M15
G01X5.515Y-4.2323
M16
G05
T6
G00X5.6374Y-2.8071
M15
G01X5.5673Y-2.8071
M16
G05
T9
G00X5.4843Y-3.0354
M15
G01X5.4843Y-2.9488
M16
G05
G00X5.7283Y-3.0276
M15
G01X5.7283Y-2.9567
M16
G05
T12
G00X5.6693Y-3.6213
M15
G01X5.6693Y-3.6622
M16
G05
G00X5.6693Y-4.2118
M15
G01X5.6693Y-4.2528
M16
G05
T14
G00X5.4724Y-4.8819
M15
G01X5.4724Y-4.8819
M16
G05
G00X5.748Y-4.8819
M15
G01X5.748Y-4.8819
M16
G05
T0
M30
