G04 #@! TF.GenerationSoftware,KiCad,Pcbnew,(6.0.1-0)*
G04 #@! TF.CreationDate,2022-01-26T00:07:15+08:00*
G04 #@! TF.ProjectId,parts,70617274-732e-46b6-9963-61645f706362,rev?*
G04 #@! TF.SameCoordinates,Original*
G04 #@! TF.FileFunction,Soldermask,Top*
G04 #@! TF.FilePolarity,Negative*
%FSLAX46Y46*%
G04 Gerber Fmt 4.6, Leading zero omitted, Abs format (unit mm)*
G04 Created by KiCad (PCBNEW (6.0.1-0)) date 2022-01-26 00:07:15*
%MOMM*%
%LPD*%
G01*
G04 APERTURE LIST*
%ADD10C,0.100000*%
%ADD11C,0.150000*%
%ADD12C,0.300000*%
%ADD13C,0.400000*%
%ADD14C,0.320000*%
%ADD15C,0.010000*%
%ADD16C,1.000000*%
%ADD17C,4.960000*%
G04 APERTURE END LIST*
D10*
D11*
X177002200Y-166007200D02*
X177002200Y-198007200D01*
X285002200Y-198007200D01*
X285002200Y-166007200D01*
X177002200Y-166007200D01*
D10*
D11*
X10000000Y-10000000D02*
X10000000Y-200007200D01*
X287002200Y-200007200D01*
X287002200Y-10000000D01*
X10000000Y-10000000D01*
D10*
D11*
X12000000Y-12000000D02*
X12000000Y-198007200D01*
X285002200Y-198007200D01*
X285002200Y-12000000D01*
X12000000Y-12000000D01*
D10*
D11*
X60000000Y-12000000D02*
X60000000Y-10000000D01*
D10*
D11*
X110000000Y-12000000D02*
X110000000Y-10000000D01*
D10*
D11*
X160000000Y-12000000D02*
X160000000Y-10000000D01*
D10*
D11*
X210000000Y-12000000D02*
X210000000Y-10000000D01*
D10*
D11*
X260000000Y-12000000D02*
X260000000Y-10000000D01*
D10*
D11*
X36065476Y-11588095D02*
X35322619Y-11588095D01*
X35694047Y-11588095D02*
X35694047Y-10288095D01*
X35570238Y-10473809D01*
X35446428Y-10597619D01*
X35322619Y-10659523D01*
D10*
D11*
X85322619Y-10411904D02*
X85384523Y-10350000D01*
X85508333Y-10288095D01*
X85817857Y-10288095D01*
X85941666Y-10350000D01*
X86003571Y-10411904D01*
X86065476Y-10535714D01*
X86065476Y-10659523D01*
X86003571Y-10845238D01*
X85260714Y-11588095D01*
X86065476Y-11588095D01*
D10*
D11*
X135260714Y-10288095D02*
X136065476Y-10288095D01*
X135632142Y-10783333D01*
X135817857Y-10783333D01*
X135941666Y-10845238D01*
X136003571Y-10907142D01*
X136065476Y-11030952D01*
X136065476Y-11340476D01*
X136003571Y-11464285D01*
X135941666Y-11526190D01*
X135817857Y-11588095D01*
X135446428Y-11588095D01*
X135322619Y-11526190D01*
X135260714Y-11464285D01*
D10*
D11*
X185941666Y-10721428D02*
X185941666Y-11588095D01*
X185632142Y-10226190D02*
X185322619Y-11154761D01*
X186127380Y-11154761D01*
D10*
D11*
X236003571Y-10288095D02*
X235384523Y-10288095D01*
X235322619Y-10907142D01*
X235384523Y-10845238D01*
X235508333Y-10783333D01*
X235817857Y-10783333D01*
X235941666Y-10845238D01*
X236003571Y-10907142D01*
X236065476Y-11030952D01*
X236065476Y-11340476D01*
X236003571Y-11464285D01*
X235941666Y-11526190D01*
X235817857Y-11588095D01*
X235508333Y-11588095D01*
X235384523Y-11526190D01*
X235322619Y-11464285D01*
D10*
D11*
X285941666Y-10288095D02*
X285694047Y-10288095D01*
X285570238Y-10350000D01*
X285508333Y-10411904D01*
X285384523Y-10597619D01*
X285322619Y-10845238D01*
X285322619Y-11340476D01*
X285384523Y-11464285D01*
X285446428Y-11526190D01*
X285570238Y-11588095D01*
X285817857Y-11588095D01*
X285941666Y-11526190D01*
X286003571Y-11464285D01*
X286065476Y-11340476D01*
X286065476Y-11030952D01*
X286003571Y-10907142D01*
X285941666Y-10845238D01*
X285817857Y-10783333D01*
X285570238Y-10783333D01*
X285446428Y-10845238D01*
X285384523Y-10907142D01*
X285322619Y-11030952D01*
D10*
D11*
X60000000Y-198007200D02*
X60000000Y-200007200D01*
D10*
D11*
X110000000Y-198007200D02*
X110000000Y-200007200D01*
D10*
D11*
X160000000Y-198007200D02*
X160000000Y-200007200D01*
D10*
D11*
X210000000Y-198007200D02*
X210000000Y-200007200D01*
D10*
D11*
X260000000Y-198007200D02*
X260000000Y-200007200D01*
D10*
D11*
X36065476Y-199595295D02*
X35322619Y-199595295D01*
X35694047Y-199595295D02*
X35694047Y-198295295D01*
X35570238Y-198481009D01*
X35446428Y-198604819D01*
X35322619Y-198666723D01*
D10*
D11*
X85322619Y-198419104D02*
X85384523Y-198357200D01*
X85508333Y-198295295D01*
X85817857Y-198295295D01*
X85941666Y-198357200D01*
X86003571Y-198419104D01*
X86065476Y-198542914D01*
X86065476Y-198666723D01*
X86003571Y-198852438D01*
X85260714Y-199595295D01*
X86065476Y-199595295D01*
D10*
D11*
X135260714Y-198295295D02*
X136065476Y-198295295D01*
X135632142Y-198790533D01*
X135817857Y-198790533D01*
X135941666Y-198852438D01*
X136003571Y-198914342D01*
X136065476Y-199038152D01*
X136065476Y-199347676D01*
X136003571Y-199471485D01*
X135941666Y-199533390D01*
X135817857Y-199595295D01*
X135446428Y-199595295D01*
X135322619Y-199533390D01*
X135260714Y-199471485D01*
D10*
D11*
X185941666Y-198728628D02*
X185941666Y-199595295D01*
X185632142Y-198233390D02*
X185322619Y-199161961D01*
X186127380Y-199161961D01*
D10*
D11*
X236003571Y-198295295D02*
X235384523Y-198295295D01*
X235322619Y-198914342D01*
X235384523Y-198852438D01*
X235508333Y-198790533D01*
X235817857Y-198790533D01*
X235941666Y-198852438D01*
X236003571Y-198914342D01*
X236065476Y-199038152D01*
X236065476Y-199347676D01*
X236003571Y-199471485D01*
X235941666Y-199533390D01*
X235817857Y-199595295D01*
X235508333Y-199595295D01*
X235384523Y-199533390D01*
X235322619Y-199471485D01*
D10*
D11*
X285941666Y-198295295D02*
X285694047Y-198295295D01*
X285570238Y-198357200D01*
X285508333Y-198419104D01*
X285384523Y-198604819D01*
X285322619Y-198852438D01*
X285322619Y-199347676D01*
X285384523Y-199471485D01*
X285446428Y-199533390D01*
X285570238Y-199595295D01*
X285817857Y-199595295D01*
X285941666Y-199533390D01*
X286003571Y-199471485D01*
X286065476Y-199347676D01*
X286065476Y-199038152D01*
X286003571Y-198914342D01*
X285941666Y-198852438D01*
X285817857Y-198790533D01*
X285570238Y-198790533D01*
X285446428Y-198852438D01*
X285384523Y-198914342D01*
X285322619Y-199038152D01*
D10*
D11*
X10000000Y-60000000D02*
X12000000Y-60000000D01*
D10*
D11*
X10000000Y-110000000D02*
X12000000Y-110000000D01*
D10*
D11*
X10000000Y-160000000D02*
X12000000Y-160000000D01*
D10*
D11*
X10690476Y-35216666D02*
X11309523Y-35216666D01*
X10566666Y-35588095D02*
X11000000Y-34288095D01*
X11433333Y-35588095D01*
D10*
D11*
X11092857Y-84907142D02*
X11278571Y-84969047D01*
X11340476Y-85030952D01*
X11402380Y-85154761D01*
X11402380Y-85340476D01*
X11340476Y-85464285D01*
X11278571Y-85526190D01*
X11154761Y-85588095D01*
X10659523Y-85588095D01*
X10659523Y-84288095D01*
X11092857Y-84288095D01*
X11216666Y-84350000D01*
X11278571Y-84411904D01*
X11340476Y-84535714D01*
X11340476Y-84659523D01*
X11278571Y-84783333D01*
X11216666Y-84845238D01*
X11092857Y-84907142D01*
X10659523Y-84907142D01*
D10*
D11*
X11402380Y-135464285D02*
X11340476Y-135526190D01*
X11154761Y-135588095D01*
X11030952Y-135588095D01*
X10845238Y-135526190D01*
X10721428Y-135402380D01*
X10659523Y-135278571D01*
X10597619Y-135030952D01*
X10597619Y-134845238D01*
X10659523Y-134597619D01*
X10721428Y-134473809D01*
X10845238Y-134350000D01*
X11030952Y-134288095D01*
X11154761Y-134288095D01*
X11340476Y-134350000D01*
X11402380Y-134411904D01*
D10*
D11*
X10659523Y-185588095D02*
X10659523Y-184288095D01*
X10969047Y-184288095D01*
X11154761Y-184350000D01*
X11278571Y-184473809D01*
X11340476Y-184597619D01*
X11402380Y-184845238D01*
X11402380Y-185030952D01*
X11340476Y-185278571D01*
X11278571Y-185402380D01*
X11154761Y-185526190D01*
X10969047Y-185588095D01*
X10659523Y-185588095D01*
D10*
D11*
X287002200Y-60000000D02*
X285002200Y-60000000D01*
D10*
D11*
X287002200Y-110000000D02*
X285002200Y-110000000D01*
D10*
D11*
X287002200Y-160000000D02*
X285002200Y-160000000D01*
D10*
D11*
X285692676Y-35216666D02*
X286311723Y-35216666D01*
X285568866Y-35588095D02*
X286002200Y-34288095D01*
X286435533Y-35588095D01*
D10*
D11*
X286095057Y-84907142D02*
X286280771Y-84969047D01*
X286342676Y-85030952D01*
X286404580Y-85154761D01*
X286404580Y-85340476D01*
X286342676Y-85464285D01*
X286280771Y-85526190D01*
X286156961Y-85588095D01*
X285661723Y-85588095D01*
X285661723Y-84288095D01*
X286095057Y-84288095D01*
X286218866Y-84350000D01*
X286280771Y-84411904D01*
X286342676Y-84535714D01*
X286342676Y-84659523D01*
X286280771Y-84783333D01*
X286218866Y-84845238D01*
X286095057Y-84907142D01*
X285661723Y-84907142D01*
D10*
D11*
X286404580Y-135464285D02*
X286342676Y-135526190D01*
X286156961Y-135588095D01*
X286033152Y-135588095D01*
X285847438Y-135526190D01*
X285723628Y-135402380D01*
X285661723Y-135278571D01*
X285599819Y-135030952D01*
X285599819Y-134845238D01*
X285661723Y-134597619D01*
X285723628Y-134473809D01*
X285847438Y-134350000D01*
X286033152Y-134288095D01*
X286156961Y-134288095D01*
X286342676Y-134350000D01*
X286404580Y-134411904D01*
D10*
D11*
X285661723Y-185588095D02*
X285661723Y-184288095D01*
X285971247Y-184288095D01*
X286156961Y-184350000D01*
X286280771Y-184473809D01*
X286342676Y-184597619D01*
X286404580Y-184845238D01*
X286404580Y-185030952D01*
X286342676Y-185278571D01*
X286280771Y-185402380D01*
X286156961Y-185526190D01*
X285971247Y-185588095D01*
X285661723Y-185588095D01*
D10*
D11*
X200434342Y-193785771D02*
X200434342Y-192285771D01*
X200791485Y-192285771D01*
X201005771Y-192357200D01*
X201148628Y-192500057D01*
X201220057Y-192642914D01*
X201291485Y-192928628D01*
X201291485Y-193142914D01*
X201220057Y-193428628D01*
X201148628Y-193571485D01*
X201005771Y-193714342D01*
X200791485Y-193785771D01*
X200434342Y-193785771D01*
X202577200Y-193785771D02*
X202577200Y-193000057D01*
X202505771Y-192857200D01*
X202362914Y-192785771D01*
X202077200Y-192785771D01*
X201934342Y-192857200D01*
X202577200Y-193714342D02*
X202434342Y-193785771D01*
X202077200Y-193785771D01*
X201934342Y-193714342D01*
X201862914Y-193571485D01*
X201862914Y-193428628D01*
X201934342Y-193285771D01*
X202077200Y-193214342D01*
X202434342Y-193214342D01*
X202577200Y-193142914D01*
X203077200Y-192785771D02*
X203648628Y-192785771D01*
X203291485Y-192285771D02*
X203291485Y-193571485D01*
X203362914Y-193714342D01*
X203505771Y-193785771D01*
X203648628Y-193785771D01*
X204720057Y-193714342D02*
X204577200Y-193785771D01*
X204291485Y-193785771D01*
X204148628Y-193714342D01*
X204077200Y-193571485D01*
X204077200Y-193000057D01*
X204148628Y-192857200D01*
X204291485Y-192785771D01*
X204577200Y-192785771D01*
X204720057Y-192857200D01*
X204791485Y-193000057D01*
X204791485Y-193142914D01*
X204077200Y-193285771D01*
X205434342Y-193642914D02*
X205505771Y-193714342D01*
X205434342Y-193785771D01*
X205362914Y-193714342D01*
X205434342Y-193642914D01*
X205434342Y-193785771D01*
X205434342Y-192857200D02*
X205505771Y-192928628D01*
X205434342Y-193000057D01*
X205362914Y-192928628D01*
X205434342Y-192857200D01*
X205434342Y-193000057D01*
D10*
D11*
X177002200Y-194507200D02*
X285002200Y-194507200D01*
D10*
D11*
X178434342Y-196585771D02*
X178434342Y-195085771D01*
X179291485Y-196585771D02*
X178648628Y-195728628D01*
X179291485Y-195085771D02*
X178434342Y-195942914D01*
X179934342Y-196585771D02*
X179934342Y-195585771D01*
X179934342Y-195085771D02*
X179862914Y-195157200D01*
X179934342Y-195228628D01*
X180005771Y-195157200D01*
X179934342Y-195085771D01*
X179934342Y-195228628D01*
X181505771Y-196442914D02*
X181434342Y-196514342D01*
X181220057Y-196585771D01*
X181077200Y-196585771D01*
X180862914Y-196514342D01*
X180720057Y-196371485D01*
X180648628Y-196228628D01*
X180577200Y-195942914D01*
X180577200Y-195728628D01*
X180648628Y-195442914D01*
X180720057Y-195300057D01*
X180862914Y-195157200D01*
X181077200Y-195085771D01*
X181220057Y-195085771D01*
X181434342Y-195157200D01*
X181505771Y-195228628D01*
X182791485Y-196585771D02*
X182791485Y-195800057D01*
X182720057Y-195657200D01*
X182577200Y-195585771D01*
X182291485Y-195585771D01*
X182148628Y-195657200D01*
X182791485Y-196514342D02*
X182648628Y-196585771D01*
X182291485Y-196585771D01*
X182148628Y-196514342D01*
X182077200Y-196371485D01*
X182077200Y-196228628D01*
X182148628Y-196085771D01*
X182291485Y-196014342D01*
X182648628Y-196014342D01*
X182791485Y-195942914D01*
X184148628Y-196585771D02*
X184148628Y-195085771D01*
X184148628Y-196514342D02*
X184005771Y-196585771D01*
X183720057Y-196585771D01*
X183577200Y-196514342D01*
X183505771Y-196442914D01*
X183434342Y-196300057D01*
X183434342Y-195871485D01*
X183505771Y-195728628D01*
X183577200Y-195657200D01*
X183720057Y-195585771D01*
X184005771Y-195585771D01*
X184148628Y-195657200D01*
X186005771Y-195800057D02*
X186505771Y-195800057D01*
X186720057Y-196585771D02*
X186005771Y-196585771D01*
X186005771Y-195085771D01*
X186720057Y-195085771D01*
X187362914Y-196442914D02*
X187434342Y-196514342D01*
X187362914Y-196585771D01*
X187291485Y-196514342D01*
X187362914Y-196442914D01*
X187362914Y-196585771D01*
X188077200Y-196585771D02*
X188077200Y-195085771D01*
X188434342Y-195085771D01*
X188648628Y-195157200D01*
X188791485Y-195300057D01*
X188862914Y-195442914D01*
X188934342Y-195728628D01*
X188934342Y-195942914D01*
X188862914Y-196228628D01*
X188791485Y-196371485D01*
X188648628Y-196514342D01*
X188434342Y-196585771D01*
X188077200Y-196585771D01*
X189577200Y-196442914D02*
X189648628Y-196514342D01*
X189577200Y-196585771D01*
X189505771Y-196514342D01*
X189577200Y-196442914D01*
X189577200Y-196585771D01*
X190220057Y-196157200D02*
X190934342Y-196157200D01*
X190077200Y-196585771D02*
X190577200Y-195085771D01*
X191077200Y-196585771D01*
X191577200Y-196442914D02*
X191648628Y-196514342D01*
X191577200Y-196585771D01*
X191505771Y-196514342D01*
X191577200Y-196442914D01*
X191577200Y-196585771D01*
X194577200Y-195585771D02*
X194577200Y-197085771D01*
X194577200Y-195657200D02*
X194720057Y-195585771D01*
X195005771Y-195585771D01*
X195148628Y-195657200D01*
X195220057Y-195728628D01*
X195291485Y-195871485D01*
X195291485Y-196300057D01*
X195220057Y-196442914D01*
X195148628Y-196514342D01*
X195005771Y-196585771D01*
X194720057Y-196585771D01*
X194577200Y-196514342D01*
X196577200Y-196514342D02*
X196434342Y-196585771D01*
X196148628Y-196585771D01*
X196005771Y-196514342D01*
X195934342Y-196442914D01*
X195862914Y-196300057D01*
X195862914Y-195871485D01*
X195934342Y-195728628D01*
X196005771Y-195657200D01*
X196148628Y-195585771D01*
X196434342Y-195585771D01*
X196577200Y-195657200D01*
X197220057Y-196585771D02*
X197220057Y-195085771D01*
X197220057Y-195657200D02*
X197362914Y-195585771D01*
X197648628Y-195585771D01*
X197791485Y-195657200D01*
X197862914Y-195728628D01*
X197934342Y-195871485D01*
X197934342Y-196300057D01*
X197862914Y-196442914D01*
X197791485Y-196514342D01*
X197648628Y-196585771D01*
X197362914Y-196585771D01*
X197220057Y-196514342D01*
X198577200Y-195585771D02*
X198577200Y-196585771D01*
X198577200Y-195728628D02*
X198648628Y-195657200D01*
X198791485Y-195585771D01*
X199005771Y-195585771D01*
X199148628Y-195657200D01*
X199220057Y-195800057D01*
X199220057Y-196585771D01*
X200505771Y-196514342D02*
X200362914Y-196585771D01*
X200077200Y-196585771D01*
X199934342Y-196514342D01*
X199862914Y-196371485D01*
X199862914Y-195800057D01*
X199934342Y-195657200D01*
X200077200Y-195585771D01*
X200362914Y-195585771D01*
X200505771Y-195657200D01*
X200577200Y-195800057D01*
X200577200Y-195942914D01*
X199862914Y-196085771D01*
X201077200Y-195585771D02*
X201362914Y-196585771D01*
X201648628Y-195871485D01*
X201934342Y-196585771D01*
X202220057Y-195585771D01*
X204362914Y-197157200D02*
X204291485Y-197085771D01*
X204148628Y-196871485D01*
X204077200Y-196728628D01*
X204005771Y-196514342D01*
X203934342Y-196157200D01*
X203934342Y-195871485D01*
X204005771Y-195514342D01*
X204077200Y-195300057D01*
X204148628Y-195157200D01*
X204291485Y-194942914D01*
X204362914Y-194871485D01*
X205577200Y-195085771D02*
X205291485Y-195085771D01*
X205148628Y-195157200D01*
X205077200Y-195228628D01*
X204934342Y-195442914D01*
X204862914Y-195728628D01*
X204862914Y-196300057D01*
X204934342Y-196442914D01*
X205005771Y-196514342D01*
X205148628Y-196585771D01*
X205434342Y-196585771D01*
X205577200Y-196514342D01*
X205648628Y-196442914D01*
X205720057Y-196300057D01*
X205720057Y-195942914D01*
X205648628Y-195800057D01*
X205577200Y-195728628D01*
X205434342Y-195657200D01*
X205148628Y-195657200D01*
X205005771Y-195728628D01*
X204934342Y-195800057D01*
X204862914Y-195942914D01*
X206362914Y-196442914D02*
X206434342Y-196514342D01*
X206362914Y-196585771D01*
X206291485Y-196514342D01*
X206362914Y-196442914D01*
X206362914Y-196585771D01*
X207362914Y-195085771D02*
X207505771Y-195085771D01*
X207648628Y-195157200D01*
X207720057Y-195228628D01*
X207791485Y-195371485D01*
X207862914Y-195657200D01*
X207862914Y-196014342D01*
X207791485Y-196300057D01*
X207720057Y-196442914D01*
X207648628Y-196514342D01*
X207505771Y-196585771D01*
X207362914Y-196585771D01*
X207220057Y-196514342D01*
X207148628Y-196442914D01*
X207077200Y-196300057D01*
X207005771Y-196014342D01*
X207005771Y-195657200D01*
X207077200Y-195371485D01*
X207148628Y-195228628D01*
X207220057Y-195157200D01*
X207362914Y-195085771D01*
X208505771Y-196442914D02*
X208577200Y-196514342D01*
X208505771Y-196585771D01*
X208434342Y-196514342D01*
X208505771Y-196442914D01*
X208505771Y-196585771D01*
X210005771Y-196585771D02*
X209148628Y-196585771D01*
X209577200Y-196585771D02*
X209577200Y-195085771D01*
X209434342Y-195300057D01*
X209291485Y-195442914D01*
X209148628Y-195514342D01*
X210648628Y-196014342D02*
X211791485Y-196014342D01*
X212791485Y-195085771D02*
X212934342Y-195085771D01*
X213077200Y-195157200D01*
X213148628Y-195228628D01*
X213220057Y-195371485D01*
X213291485Y-195657200D01*
X213291485Y-196014342D01*
X213220057Y-196300057D01*
X213148628Y-196442914D01*
X213077200Y-196514342D01*
X212934342Y-196585771D01*
X212791485Y-196585771D01*
X212648628Y-196514342D01*
X212577200Y-196442914D01*
X212505771Y-196300057D01*
X212434342Y-196014342D01*
X212434342Y-195657200D01*
X212505771Y-195371485D01*
X212577200Y-195228628D01*
X212648628Y-195157200D01*
X212791485Y-195085771D01*
X213791485Y-197157200D02*
X213862914Y-197085771D01*
X214005771Y-196871485D01*
X214077200Y-196728628D01*
X214148628Y-196514342D01*
X214220057Y-196157200D01*
X214220057Y-195871485D01*
X214148628Y-195514342D01*
X214077200Y-195300057D01*
X214005771Y-195157200D01*
X213862914Y-194942914D01*
X213791485Y-194871485D01*
D10*
D11*
X177002200Y-191507200D02*
X285002200Y-191507200D01*
D10*
D12*
X264411485Y-193785771D02*
X263911485Y-193071485D01*
X263554342Y-193785771D02*
X263554342Y-192285771D01*
X264125771Y-192285771D01*
X264268628Y-192357200D01*
X264340057Y-192428628D01*
X264411485Y-192571485D01*
X264411485Y-192785771D01*
X264340057Y-192928628D01*
X264268628Y-193000057D01*
X264125771Y-193071485D01*
X263554342Y-193071485D01*
X265625771Y-193714342D02*
X265482914Y-193785771D01*
X265197200Y-193785771D01*
X265054342Y-193714342D01*
X264982914Y-193571485D01*
X264982914Y-193000057D01*
X265054342Y-192857200D01*
X265197200Y-192785771D01*
X265482914Y-192785771D01*
X265625771Y-192857200D01*
X265697200Y-193000057D01*
X265697200Y-193142914D01*
X264982914Y-193285771D01*
X266197200Y-192785771D02*
X266554342Y-193785771D01*
X266911485Y-192785771D01*
X267482914Y-193642914D02*
X267554342Y-193714342D01*
X267482914Y-193785771D01*
X267411485Y-193714342D01*
X267482914Y-193642914D01*
X267482914Y-193785771D01*
X267482914Y-192857200D02*
X267554342Y-192928628D01*
X267482914Y-193000057D01*
X267411485Y-192928628D01*
X267482914Y-192857200D01*
X267482914Y-193000057D01*
D10*
D11*
X178362914Y-193714342D02*
X178577200Y-193785771D01*
X178934342Y-193785771D01*
X179077200Y-193714342D01*
X179148628Y-193642914D01*
X179220057Y-193500057D01*
X179220057Y-193357200D01*
X179148628Y-193214342D01*
X179077200Y-193142914D01*
X178934342Y-193071485D01*
X178648628Y-193000057D01*
X178505771Y-192928628D01*
X178434342Y-192857200D01*
X178362914Y-192714342D01*
X178362914Y-192571485D01*
X178434342Y-192428628D01*
X178505771Y-192357200D01*
X178648628Y-192285771D01*
X179005771Y-192285771D01*
X179220057Y-192357200D01*
X179862914Y-193785771D02*
X179862914Y-192785771D01*
X179862914Y-192285771D02*
X179791485Y-192357200D01*
X179862914Y-192428628D01*
X179934342Y-192357200D01*
X179862914Y-192285771D01*
X179862914Y-192428628D01*
X180434342Y-192785771D02*
X181220057Y-192785771D01*
X180434342Y-193785771D01*
X181220057Y-193785771D01*
X182362914Y-193714342D02*
X182220057Y-193785771D01*
X181934342Y-193785771D01*
X181791485Y-193714342D01*
X181720057Y-193571485D01*
X181720057Y-193000057D01*
X181791485Y-192857200D01*
X181934342Y-192785771D01*
X182220057Y-192785771D01*
X182362914Y-192857200D01*
X182434342Y-193000057D01*
X182434342Y-193142914D01*
X181720057Y-193285771D01*
X183077200Y-193642914D02*
X183148628Y-193714342D01*
X183077200Y-193785771D01*
X183005771Y-193714342D01*
X183077200Y-193642914D01*
X183077200Y-193785771D01*
X183077200Y-192857200D02*
X183148628Y-192928628D01*
X183077200Y-193000057D01*
X183005771Y-192928628D01*
X183077200Y-192857200D01*
X183077200Y-193000057D01*
X184862914Y-193357200D02*
X185577200Y-193357200D01*
X184720057Y-193785771D02*
X185220057Y-192285771D01*
X185720057Y-193785771D01*
X186862914Y-192785771D02*
X186862914Y-193785771D01*
X186505771Y-192214342D02*
X186148628Y-193285771D01*
X187077200Y-193285771D01*
D10*
D11*
X263434342Y-196585771D02*
X263434342Y-195085771D01*
X264791485Y-196585771D02*
X264791485Y-195085771D01*
X264791485Y-196514342D02*
X264648628Y-196585771D01*
X264362914Y-196585771D01*
X264220057Y-196514342D01*
X264148628Y-196442914D01*
X264077200Y-196300057D01*
X264077200Y-195871485D01*
X264148628Y-195728628D01*
X264220057Y-195657200D01*
X264362914Y-195585771D01*
X264648628Y-195585771D01*
X264791485Y-195657200D01*
X265505771Y-196442914D02*
X265577200Y-196514342D01*
X265505771Y-196585771D01*
X265434342Y-196514342D01*
X265505771Y-196442914D01*
X265505771Y-196585771D01*
X265505771Y-195657200D02*
X265577200Y-195728628D01*
X265505771Y-195800057D01*
X265434342Y-195728628D01*
X265505771Y-195657200D01*
X265505771Y-195800057D01*
X268148628Y-196585771D02*
X267291485Y-196585771D01*
X267720057Y-196585771D02*
X267720057Y-195085771D01*
X267577200Y-195300057D01*
X267434342Y-195442914D01*
X267291485Y-195514342D01*
X269862914Y-195014342D02*
X268577200Y-196942914D01*
X271148628Y-196585771D02*
X270291485Y-196585771D01*
X270720057Y-196585771D02*
X270720057Y-195085771D01*
X270577200Y-195300057D01*
X270434342Y-195442914D01*
X270291485Y-195514342D01*
D10*
D11*
X177002200Y-187507200D02*
X285002200Y-187507200D01*
D10*
D13*
X178714580Y-188211961D02*
X179857438Y-188211961D01*
X179036009Y-190211961D02*
X179286009Y-188211961D01*
X180274104Y-190211961D02*
X180440771Y-188878628D01*
X180524104Y-188211961D02*
X180416961Y-188307200D01*
X180500295Y-188402438D01*
X180607438Y-188307200D01*
X180524104Y-188211961D01*
X180500295Y-188402438D01*
X181107438Y-188878628D02*
X181869342Y-188878628D01*
X181476485Y-188211961D02*
X181262200Y-189926247D01*
X181333628Y-190116723D01*
X181512200Y-190211961D01*
X181702676Y-190211961D01*
X182655057Y-190211961D02*
X182476485Y-190116723D01*
X182405057Y-189926247D01*
X182619342Y-188211961D01*
X184190771Y-190116723D02*
X183988390Y-190211961D01*
X183607438Y-190211961D01*
X183428866Y-190116723D01*
X183357438Y-189926247D01*
X183452676Y-189164342D01*
X183571723Y-188973866D01*
X183774104Y-188878628D01*
X184155057Y-188878628D01*
X184333628Y-188973866D01*
X184405057Y-189164342D01*
X184381247Y-189354819D01*
X183405057Y-189545295D01*
X185155057Y-190021485D02*
X185238390Y-190116723D01*
X185131247Y-190211961D01*
X185047914Y-190116723D01*
X185155057Y-190021485D01*
X185131247Y-190211961D01*
X185286009Y-188973866D02*
X185369342Y-189069104D01*
X185262200Y-189164342D01*
X185178866Y-189069104D01*
X185286009Y-188973866D01*
X185262200Y-189164342D01*
D10*
D11*
X178934342Y-185600057D02*
X178434342Y-185600057D01*
X178434342Y-186385771D02*
X178434342Y-184885771D01*
X179148628Y-184885771D01*
X179720057Y-186385771D02*
X179720057Y-185385771D01*
X179720057Y-184885771D02*
X179648628Y-184957200D01*
X179720057Y-185028628D01*
X179791485Y-184957200D01*
X179720057Y-184885771D01*
X179720057Y-185028628D01*
X180648628Y-186385771D02*
X180505771Y-186314342D01*
X180434342Y-186171485D01*
X180434342Y-184885771D01*
X181791485Y-186314342D02*
X181648628Y-186385771D01*
X181362914Y-186385771D01*
X181220057Y-186314342D01*
X181148628Y-186171485D01*
X181148628Y-185600057D01*
X181220057Y-185457200D01*
X181362914Y-185385771D01*
X181648628Y-185385771D01*
X181791485Y-185457200D01*
X181862914Y-185600057D01*
X181862914Y-185742914D01*
X181148628Y-185885771D01*
X182505771Y-186242914D02*
X182577200Y-186314342D01*
X182505771Y-186385771D01*
X182434342Y-186314342D01*
X182505771Y-186242914D01*
X182505771Y-186385771D01*
X182505771Y-185457200D02*
X182577200Y-185528628D01*
X182505771Y-185600057D01*
X182434342Y-185528628D01*
X182505771Y-185457200D01*
X182505771Y-185600057D01*
X184362914Y-185385771D02*
X184362914Y-186885771D01*
X184362914Y-185457200D02*
X184505771Y-185385771D01*
X184791485Y-185385771D01*
X184934342Y-185457200D01*
X185005771Y-185528628D01*
X185077200Y-185671485D01*
X185077200Y-186100057D01*
X185005771Y-186242914D01*
X184934342Y-186314342D01*
X184791485Y-186385771D01*
X184505771Y-186385771D01*
X184362914Y-186314342D01*
X186362914Y-186385771D02*
X186362914Y-185600057D01*
X186291485Y-185457200D01*
X186148628Y-185385771D01*
X185862914Y-185385771D01*
X185720057Y-185457200D01*
X186362914Y-186314342D02*
X186220057Y-186385771D01*
X185862914Y-186385771D01*
X185720057Y-186314342D01*
X185648628Y-186171485D01*
X185648628Y-186028628D01*
X185720057Y-185885771D01*
X185862914Y-185814342D01*
X186220057Y-185814342D01*
X186362914Y-185742914D01*
X187077200Y-186385771D02*
X187077200Y-185385771D01*
X187077200Y-185671485D02*
X187148628Y-185528628D01*
X187220057Y-185457200D01*
X187362914Y-185385771D01*
X187505771Y-185385771D01*
X187791485Y-185385771D02*
X188362914Y-185385771D01*
X188005771Y-184885771D02*
X188005771Y-186171485D01*
X188077200Y-186314342D01*
X188220057Y-186385771D01*
X188362914Y-186385771D01*
X188791485Y-186314342D02*
X188934342Y-186385771D01*
X189220057Y-186385771D01*
X189362914Y-186314342D01*
X189434342Y-186171485D01*
X189434342Y-186100057D01*
X189362914Y-185957200D01*
X189220057Y-185885771D01*
X189005771Y-185885771D01*
X188862914Y-185814342D01*
X188791485Y-185671485D01*
X188791485Y-185600057D01*
X188862914Y-185457200D01*
X189005771Y-185385771D01*
X189220057Y-185385771D01*
X189362914Y-185457200D01*
X190077200Y-186242914D02*
X190148628Y-186314342D01*
X190077200Y-186385771D01*
X190005771Y-186314342D01*
X190077200Y-186242914D01*
X190077200Y-186385771D01*
X190791485Y-186385771D02*
X190791485Y-184885771D01*
X190934342Y-185814342D02*
X191362914Y-186385771D01*
X191362914Y-185385771D02*
X190791485Y-185957200D01*
X192005771Y-186385771D02*
X192005771Y-185385771D01*
X192005771Y-184885771D02*
X191934342Y-184957200D01*
X192005771Y-185028628D01*
X192077200Y-184957200D01*
X192005771Y-184885771D01*
X192005771Y-185028628D01*
X193362914Y-186314342D02*
X193220057Y-186385771D01*
X192934342Y-186385771D01*
X192791485Y-186314342D01*
X192720057Y-186242914D01*
X192648628Y-186100057D01*
X192648628Y-185671485D01*
X192720057Y-185528628D01*
X192791485Y-185457200D01*
X192934342Y-185385771D01*
X193220057Y-185385771D01*
X193362914Y-185457200D01*
X194648628Y-186385771D02*
X194648628Y-185600057D01*
X194577200Y-185457200D01*
X194434342Y-185385771D01*
X194148628Y-185385771D01*
X194005771Y-185457200D01*
X194648628Y-186314342D02*
X194505771Y-186385771D01*
X194148628Y-186385771D01*
X194005771Y-186314342D01*
X193934342Y-186171485D01*
X193934342Y-186028628D01*
X194005771Y-185885771D01*
X194148628Y-185814342D01*
X194505771Y-185814342D01*
X194648628Y-185742914D01*
X196005771Y-186385771D02*
X196005771Y-184885771D01*
X196005771Y-186314342D02*
X195862914Y-186385771D01*
X195577200Y-186385771D01*
X195434342Y-186314342D01*
X195362914Y-186242914D01*
X195291485Y-186100057D01*
X195291485Y-185671485D01*
X195362914Y-185528628D01*
X195434342Y-185457200D01*
X195577200Y-185385771D01*
X195862914Y-185385771D01*
X196005771Y-185457200D01*
X196362914Y-186528628D02*
X197505771Y-186528628D01*
X197862914Y-185385771D02*
X197862914Y-186885771D01*
X197862914Y-185457200D02*
X198005771Y-185385771D01*
X198291485Y-185385771D01*
X198434342Y-185457200D01*
X198505771Y-185528628D01*
X198577200Y-185671485D01*
X198577200Y-186100057D01*
X198505771Y-186242914D01*
X198434342Y-186314342D01*
X198291485Y-186385771D01*
X198005771Y-186385771D01*
X197862914Y-186314342D01*
X199862914Y-186314342D02*
X199720057Y-186385771D01*
X199434342Y-186385771D01*
X199291485Y-186314342D01*
X199220057Y-186242914D01*
X199148628Y-186100057D01*
X199148628Y-185671485D01*
X199220057Y-185528628D01*
X199291485Y-185457200D01*
X199434342Y-185385771D01*
X199720057Y-185385771D01*
X199862914Y-185457200D01*
X200505771Y-186385771D02*
X200505771Y-184885771D01*
X200505771Y-185457200D02*
X200648628Y-185385771D01*
X200934342Y-185385771D01*
X201077200Y-185457200D01*
X201148628Y-185528628D01*
X201220057Y-185671485D01*
X201220057Y-186100057D01*
X201148628Y-186242914D01*
X201077200Y-186314342D01*
X200934342Y-186385771D01*
X200648628Y-186385771D01*
X200505771Y-186314342D01*
D10*
D11*
X177002200Y-181507200D02*
X285002200Y-181507200D01*
D10*
D11*
X178362914Y-183614342D02*
X178577200Y-183685771D01*
X178934342Y-183685771D01*
X179077200Y-183614342D01*
X179148628Y-183542914D01*
X179220057Y-183400057D01*
X179220057Y-183257200D01*
X179148628Y-183114342D01*
X179077200Y-183042914D01*
X178934342Y-182971485D01*
X178648628Y-182900057D01*
X178505771Y-182828628D01*
X178434342Y-182757200D01*
X178362914Y-182614342D01*
X178362914Y-182471485D01*
X178434342Y-182328628D01*
X178505771Y-182257200D01*
X178648628Y-182185771D01*
X179005771Y-182185771D01*
X179220057Y-182257200D01*
X179862914Y-183685771D02*
X179862914Y-182185771D01*
X180505771Y-183685771D02*
X180505771Y-182900057D01*
X180434342Y-182757200D01*
X180291485Y-182685771D01*
X180077200Y-182685771D01*
X179934342Y-182757200D01*
X179862914Y-182828628D01*
X181791485Y-183614342D02*
X181648628Y-183685771D01*
X181362914Y-183685771D01*
X181220057Y-183614342D01*
X181148628Y-183471485D01*
X181148628Y-182900057D01*
X181220057Y-182757200D01*
X181362914Y-182685771D01*
X181648628Y-182685771D01*
X181791485Y-182757200D01*
X181862914Y-182900057D01*
X181862914Y-183042914D01*
X181148628Y-183185771D01*
X183077200Y-183614342D02*
X182934342Y-183685771D01*
X182648628Y-183685771D01*
X182505771Y-183614342D01*
X182434342Y-183471485D01*
X182434342Y-182900057D01*
X182505771Y-182757200D01*
X182648628Y-182685771D01*
X182934342Y-182685771D01*
X183077200Y-182757200D01*
X183148628Y-182900057D01*
X183148628Y-183042914D01*
X182434342Y-183185771D01*
X183577200Y-182685771D02*
X184148628Y-182685771D01*
X183791485Y-182185771D02*
X183791485Y-183471485D01*
X183862914Y-183614342D01*
X184005771Y-183685771D01*
X184148628Y-183685771D01*
X184648628Y-183542914D02*
X184720057Y-183614342D01*
X184648628Y-183685771D01*
X184577200Y-183614342D01*
X184648628Y-183542914D01*
X184648628Y-183685771D01*
X184648628Y-182757200D02*
X184720057Y-182828628D01*
X184648628Y-182900057D01*
X184577200Y-182828628D01*
X184648628Y-182757200D01*
X184648628Y-182900057D01*
D10*
D12*
D10*
D11*
D10*
D11*
D10*
D11*
D10*
D11*
D10*
D11*
X197002200Y-191507200D02*
X197002200Y-194507200D01*
D10*
D11*
X261002200Y-191507200D02*
X261002200Y-198007200D01*
D14*
X115000000Y-94383333D02*
G75*
G03*
X112000000Y-91383333I-3000001J-1D01*
G01*
X88000000Y-91383333D02*
X112000000Y-91383333D01*
X88000000Y-91383333D02*
G75*
G03*
X85000000Y-94383333I1J-3000001D01*
G01*
X85000000Y-105383333D02*
G75*
G03*
X88000000Y-108383333I3000001J1D01*
G01*
X112000000Y-108383333D02*
G75*
G03*
X115000000Y-105383333I-1J3000001D01*
G01*
X85000000Y-105383333D02*
X85000000Y-94383333D01*
X112000000Y-108383333D02*
X88000000Y-108383333D01*
X115000000Y-94383333D02*
X115000000Y-105383333D01*
X106071428Y-107278571D02*
X105357142Y-107278571D01*
X105357142Y-105778571D01*
X106571428Y-106492857D02*
X107071428Y-106492857D01*
X107285714Y-107278571D02*
X106571428Y-107278571D01*
X106571428Y-105778571D01*
X107285714Y-105778571D01*
X108428571Y-106492857D02*
X107928571Y-106492857D01*
X107928571Y-107278571D02*
X107928571Y-105778571D01*
X108642857Y-105778571D01*
X109000000Y-105778571D02*
X109857142Y-105778571D01*
X109428571Y-107278571D02*
X109428571Y-105778571D01*
X123071428Y-108858571D02*
X122214285Y-108858571D01*
X122642857Y-108858571D02*
X122642857Y-107358571D01*
X122500000Y-107572857D01*
X122357142Y-107715714D01*
X122214285Y-107787142D01*
X123785714Y-108858571D02*
X124071428Y-108858571D01*
X124214285Y-108787142D01*
X124285714Y-108715714D01*
X124428571Y-108501428D01*
X124500000Y-108215714D01*
X124500000Y-107644285D01*
X124428571Y-107501428D01*
X124357142Y-107430000D01*
X124214285Y-107358571D01*
X123928571Y-107358571D01*
X123785714Y-107430000D01*
X123714285Y-107501428D01*
X123642857Y-107644285D01*
X123642857Y-108001428D01*
X123714285Y-108144285D01*
X123785714Y-108215714D01*
X123928571Y-108287142D01*
X124214285Y-108287142D01*
X124357142Y-108215714D01*
X124428571Y-108144285D01*
X124500000Y-108001428D01*
X124928571Y-107358571D02*
X125428571Y-108858571D01*
X125928571Y-107358571D01*
X71250000Y-108250000D02*
X71964285Y-108250000D01*
X71107142Y-108678571D02*
X71607142Y-107178571D01*
X72107142Y-108678571D01*
X72607142Y-107178571D02*
X72607142Y-108392857D01*
X72678571Y-108535714D01*
X72750000Y-108607142D01*
X72892857Y-108678571D01*
X73178571Y-108678571D01*
X73321428Y-108607142D01*
X73392857Y-108535714D01*
X73464285Y-108392857D01*
X73464285Y-107178571D01*
X74178571Y-108678571D02*
X74178571Y-107178571D01*
X74535714Y-107178571D01*
X74750000Y-107250000D01*
X74892857Y-107392857D01*
X74964285Y-107535714D01*
X75035714Y-107821428D01*
X75035714Y-108035714D01*
X74964285Y-108321428D01*
X74892857Y-108464285D01*
X74750000Y-108607142D01*
X74535714Y-108678571D01*
X74178571Y-108678571D01*
X75678571Y-108678571D02*
X75678571Y-107178571D01*
X76678571Y-107178571D02*
X76964285Y-107178571D01*
X77107142Y-107250000D01*
X77250000Y-107392857D01*
X77321428Y-107678571D01*
X77321428Y-108178571D01*
X77250000Y-108464285D01*
X77107142Y-108607142D01*
X76964285Y-108678571D01*
X76678571Y-108678571D01*
X76535714Y-108607142D01*
X76392857Y-108464285D01*
X76321428Y-108178571D01*
X76321428Y-107678571D01*
X76392857Y-107392857D01*
X76535714Y-107250000D01*
X76678571Y-107178571D01*
X79107142Y-108678571D02*
X79107142Y-107178571D01*
X79821428Y-108678571D02*
X79821428Y-107178571D01*
X80678571Y-108678571D01*
X80678571Y-107178571D01*
X121142857Y-93418571D02*
X121142857Y-91918571D01*
X121500000Y-91918571D01*
X121714285Y-91990000D01*
X121857142Y-92132857D01*
X121928571Y-92275714D01*
X122000000Y-92561428D01*
X122000000Y-92775714D01*
X121928571Y-93061428D01*
X121857142Y-93204285D01*
X121714285Y-93347142D01*
X121500000Y-93418571D01*
X121142857Y-93418571D01*
X123500000Y-93275714D02*
X123428571Y-93347142D01*
X123214285Y-93418571D01*
X123071428Y-93418571D01*
X122857142Y-93347142D01*
X122714285Y-93204285D01*
X122642857Y-93061428D01*
X122571428Y-92775714D01*
X122571428Y-92561428D01*
X122642857Y-92275714D01*
X122714285Y-92132857D01*
X122857142Y-91990000D01*
X123071428Y-91918571D01*
X123214285Y-91918571D01*
X123428571Y-91990000D01*
X123500000Y-92061428D01*
X125285714Y-93418571D02*
X125285714Y-91918571D01*
X126000000Y-93418571D02*
X126000000Y-91918571D01*
X126857142Y-93418571D01*
X126857142Y-91918571D01*
X90500000Y-107278571D02*
X90000000Y-106564285D01*
X89642857Y-107278571D02*
X89642857Y-105778571D01*
X90214285Y-105778571D01*
X90357142Y-105850000D01*
X90428571Y-105921428D01*
X90500000Y-106064285D01*
X90500000Y-106278571D01*
X90428571Y-106421428D01*
X90357142Y-106492857D01*
X90214285Y-106564285D01*
X89642857Y-106564285D01*
X91142857Y-107278571D02*
X91142857Y-105778571D01*
X92642857Y-105850000D02*
X92500000Y-105778571D01*
X92285714Y-105778571D01*
X92071428Y-105850000D01*
X91928571Y-105992857D01*
X91857142Y-106135714D01*
X91785714Y-106421428D01*
X91785714Y-106635714D01*
X91857142Y-106921428D01*
X91928571Y-107064285D01*
X92071428Y-107207142D01*
X92285714Y-107278571D01*
X92428571Y-107278571D01*
X92642857Y-107207142D01*
X92714285Y-107135714D01*
X92714285Y-106635714D01*
X92428571Y-106635714D01*
X93357142Y-107278571D02*
X93357142Y-105778571D01*
X93357142Y-106492857D02*
X94214285Y-106492857D01*
X94214285Y-107278571D02*
X94214285Y-105778571D01*
X94714285Y-105778571D02*
X95571428Y-105778571D01*
X95142857Y-107278571D02*
X95142857Y-105778571D01*
D15*
X76104707Y-98322705D02*
X78668351Y-98326117D01*
X78668351Y-98326117D02*
X78668351Y-99406968D01*
X78668351Y-99406968D02*
X76104707Y-99410381D01*
X76104707Y-99410381D02*
X73541064Y-99413793D01*
X73541064Y-99413793D02*
X73541064Y-98319292D01*
X73541064Y-98319292D02*
X76104707Y-98322705D01*
X76104707Y-98322705D02*
X76104707Y-98322705D01*
G36*
X76104707Y-98322705D02*
G01*
X78668351Y-98326117D01*
X78668351Y-99406968D01*
X76104707Y-99410381D01*
X73541064Y-99413793D01*
X73541064Y-98319292D01*
X76104707Y-98322705D01*
G37*
X76104707Y-98322705D02*
X78668351Y-98326117D01*
X78668351Y-99406968D01*
X76104707Y-99410381D01*
X73541064Y-99413793D01*
X73541064Y-98319292D01*
X76104707Y-98322705D01*
X73413756Y-91416479D02*
X73478329Y-91482053D01*
X73478329Y-91482053D02*
X73536964Y-91541762D01*
X73536964Y-91541762D02*
X73586861Y-91592742D01*
X73586861Y-91592742D02*
X73625221Y-91632129D01*
X73625221Y-91632129D02*
X73649246Y-91657059D01*
X73649246Y-91657059D02*
X73655904Y-91664220D01*
X73655904Y-91664220D02*
X73668706Y-91677887D01*
X73668706Y-91677887D02*
X73697717Y-91708111D01*
X73697717Y-91708111D02*
X73740258Y-91752124D01*
X73740258Y-91752124D02*
X73793651Y-91807160D01*
X73793651Y-91807160D02*
X73855217Y-91870453D01*
X73855217Y-91870453D02*
X73912709Y-91929431D01*
X73912709Y-91929431D02*
X73997113Y-92015958D01*
X73997113Y-92015958D02*
X74092221Y-92113500D01*
X74092221Y-92113500D02*
X74191046Y-92214886D01*
X74191046Y-92214886D02*
X74286596Y-92312946D01*
X74286596Y-92312946D02*
X74371884Y-92400508D01*
X74371884Y-92400508D02*
X74389491Y-92418591D01*
X74389491Y-92418591D02*
X74453742Y-92484471D01*
X74453742Y-92484471D02*
X74511458Y-92543436D01*
X74511458Y-92543436D02*
X74560067Y-92592876D01*
X74560067Y-92592876D02*
X74596997Y-92630183D01*
X74596997Y-92630183D02*
X74619679Y-92652746D01*
X74619679Y-92652746D02*
X74625824Y-92658432D01*
X74625824Y-92658432D02*
X74626610Y-92645848D01*
X74626610Y-92645848D02*
X74626564Y-92611705D01*
X74626564Y-92611705D02*
X74625738Y-92561450D01*
X74625738Y-92561450D02*
X74624450Y-92509815D01*
X74624450Y-92509815D02*
X74620229Y-92361170D01*
X74620229Y-92361170D02*
X74824574Y-92361170D01*
X74824574Y-92361170D02*
X74824574Y-92389231D01*
X74824574Y-92389231D02*
X74826094Y-92433765D01*
X74826094Y-92433765D02*
X74830258Y-92494028D01*
X74830258Y-92494028D02*
X74836479Y-92564824D01*
X74836479Y-92564824D02*
X74844166Y-92640954D01*
X74844166Y-92640954D02*
X74852729Y-92717224D01*
X74852729Y-92717224D02*
X74861579Y-92788436D01*
X74861579Y-92788436D02*
X74870127Y-92849393D01*
X74870127Y-92849393D02*
X74877783Y-92894899D01*
X74877783Y-92894899D02*
X74883956Y-92919757D01*
X74883956Y-92919757D02*
X74885006Y-92921862D01*
X74885006Y-92921862D02*
X74897860Y-92936786D01*
X74897860Y-92936786D02*
X74927711Y-92968940D01*
X74927711Y-92968940D02*
X74972606Y-93016292D01*
X74972606Y-93016292D02*
X75030590Y-93076810D01*
X75030590Y-93076810D02*
X75099710Y-93148462D01*
X75099710Y-93148462D02*
X75178013Y-93229216D01*
X75178013Y-93229216D02*
X75263544Y-93317040D01*
X75263544Y-93317040D02*
X75346684Y-93402076D01*
X75346684Y-93402076D02*
X75441382Y-93498784D01*
X75441382Y-93498784D02*
X75534253Y-93593677D01*
X75534253Y-93593677D02*
X75622758Y-93684158D01*
X75622758Y-93684158D02*
X75704358Y-93767628D01*
X75704358Y-93767628D02*
X75776512Y-93841489D01*
X75776512Y-93841489D02*
X75836683Y-93903143D01*
X75836683Y-93903143D02*
X75882329Y-93949991D01*
X75882329Y-93949991D02*
X75904996Y-93973323D01*
X75904996Y-93973323D02*
X75950410Y-94018559D01*
X75950410Y-94018559D02*
X75990145Y-94055131D01*
X75990145Y-94055131D02*
X76019997Y-94079372D01*
X76019997Y-94079372D02*
X76035760Y-94087614D01*
X76035760Y-94087614D02*
X76035966Y-94087577D01*
X76035966Y-94087577D02*
X76049489Y-94077155D01*
X76049489Y-94077155D02*
X76078943Y-94049793D01*
X76078943Y-94049793D02*
X76121648Y-94008140D01*
X76121648Y-94008140D02*
X76174921Y-93954845D01*
X76174921Y-93954845D02*
X76236080Y-93892556D01*
X76236080Y-93892556D02*
X76292924Y-93833830D01*
X76292924Y-93833830D02*
X76533323Y-93583883D01*
X76533323Y-93583883D02*
X76141688Y-93577128D01*
X76141688Y-93577128D02*
X75750053Y-93570372D01*
X75750053Y-93570372D02*
X75746305Y-93377846D01*
X75746305Y-93377846D02*
X75742556Y-93185319D01*
X75742556Y-93185319D02*
X76886493Y-93185319D01*
X76886493Y-93185319D02*
X77061358Y-93022567D01*
X77061358Y-93022567D02*
X77134758Y-92954590D01*
X77134758Y-92954590D02*
X77191218Y-92901905D01*
X77191218Y-92901905D02*
X77205764Y-92887550D01*
X77205764Y-92887550D02*
X77499681Y-92887550D01*
X77499681Y-92887550D02*
X77512742Y-92894356D01*
X77512742Y-92894356D02*
X77550254Y-92899051D01*
X77550254Y-92899051D02*
X77609711Y-92901382D01*
X77609711Y-92901382D02*
X77639033Y-92901596D01*
X77639033Y-92901596D02*
X77778386Y-92901596D01*
X77778386Y-92901596D02*
X77781807Y-92773245D01*
X77781807Y-92773245D02*
X77782950Y-92713468D01*
X77782950Y-92713468D02*
X77781969Y-92675741D01*
X77781969Y-92675741D02*
X77778048Y-92655124D01*
X77778048Y-92655124D02*
X77770372Y-92646679D01*
X77770372Y-92646679D02*
X77760673Y-92645372D01*
X77760673Y-92645372D02*
X77729353Y-92652571D01*
X77729353Y-92652571D02*
X77708570Y-92662261D01*
X77708570Y-92662261D02*
X77686628Y-92679621D01*
X77686628Y-92679621D02*
X77654212Y-92710278D01*
X77654212Y-92710278D02*
X77616051Y-92749130D01*
X77616051Y-92749130D02*
X77576876Y-92791076D01*
X77576876Y-92791076D02*
X77541415Y-92831016D01*
X77541415Y-92831016D02*
X77514399Y-92863848D01*
X77514399Y-92863848D02*
X77500557Y-92884471D01*
X77500557Y-92884471D02*
X77499681Y-92887550D01*
X77499681Y-92887550D02*
X77205764Y-92887550D01*
X77205764Y-92887550D02*
X77232940Y-92860731D01*
X77232940Y-92860731D02*
X77262127Y-92827289D01*
X77262127Y-92827289D02*
X77280982Y-92797800D01*
X77280982Y-92797800D02*
X77291707Y-92768483D01*
X77291707Y-92768483D02*
X77296506Y-92735560D01*
X77296506Y-92735560D02*
X77297580Y-92695251D01*
X77297580Y-92695251D02*
X77297133Y-92643776D01*
X77297133Y-92643776D02*
X77297021Y-92618193D01*
X77297021Y-92618193D02*
X77297021Y-92444382D01*
X77297021Y-92444382D02*
X77471285Y-92439930D01*
X77471285Y-92439930D02*
X77545444Y-92437511D01*
X77545444Y-92437511D02*
X77597592Y-92434193D01*
X77597592Y-92434193D02*
X77632742Y-92429230D01*
X77632742Y-92429230D02*
X77655902Y-92421875D01*
X77655902Y-92421875D02*
X77672085Y-92411381D01*
X77672085Y-92411381D02*
X77673944Y-92409741D01*
X77673944Y-92409741D02*
X77694680Y-92387310D01*
X77694680Y-92387310D02*
X77702340Y-92372587D01*
X77702340Y-92372587D02*
X77689122Y-92371042D01*
X77689122Y-92371042D02*
X77650635Y-92369559D01*
X77650635Y-92369559D02*
X77588632Y-92368151D01*
X77588632Y-92368151D02*
X77504866Y-92366832D01*
X77504866Y-92366832D02*
X77401090Y-92365617D01*
X77401090Y-92365617D02*
X77279057Y-92364519D01*
X77279057Y-92364519D02*
X77140519Y-92363552D01*
X77140519Y-92363552D02*
X76987228Y-92362730D01*
X76987228Y-92362730D02*
X76820939Y-92362067D01*
X76820939Y-92362067D02*
X76643403Y-92361577D01*
X76643403Y-92361577D02*
X76456373Y-92361273D01*
X76456373Y-92361273D02*
X76263457Y-92361170D01*
X76263457Y-92361170D02*
X74824574Y-92361170D01*
X74824574Y-92361170D02*
X74620229Y-92361170D01*
X74620229Y-92361170D02*
X74351702Y-92361170D01*
X74351702Y-92361170D02*
X74351702Y-92111224D01*
X74351702Y-92111224D02*
X77945532Y-92111224D01*
X77945532Y-92111224D02*
X77952287Y-92117979D01*
X77952287Y-92117979D02*
X77959043Y-92111224D01*
X77959043Y-92111224D02*
X77952287Y-92104468D01*
X77952287Y-92104468D02*
X77945532Y-92111224D01*
X77945532Y-92111224D02*
X74351702Y-92111224D01*
X74351702Y-92111224D02*
X74351702Y-92077447D01*
X74351702Y-92077447D02*
X74523237Y-92077447D01*
X74523237Y-92077447D02*
X74527855Y-92067204D01*
X74527855Y-92067204D02*
X74757021Y-92067204D01*
X74757021Y-92067204D02*
X74769341Y-92072407D01*
X74769341Y-92072407D02*
X74801678Y-92075107D01*
X74801678Y-92075107D02*
X74847096Y-92074735D01*
X74847096Y-92074735D02*
X74848218Y-92074687D01*
X74848218Y-92074687D02*
X74939415Y-92070692D01*
X74939415Y-92070692D02*
X74943499Y-91999761D01*
X74943499Y-91999761D02*
X74943463Y-91954730D01*
X74943463Y-91954730D02*
X74937382Y-91931378D01*
X74937382Y-91931378D02*
X74932890Y-91928830D01*
X74932890Y-91928830D02*
X74908607Y-91937057D01*
X74908607Y-91937057D02*
X74873348Y-91958208D01*
X74873348Y-91958208D02*
X74833838Y-91986992D01*
X74833838Y-91986992D02*
X74796806Y-92018115D01*
X74796806Y-92018115D02*
X74768979Y-92046284D01*
X74768979Y-92046284D02*
X74757084Y-92066207D01*
X74757084Y-92066207D02*
X74757021Y-92067204D01*
X74757021Y-92067204D02*
X74527855Y-92067204D01*
X74527855Y-92067204D02*
X74547350Y-92023973D01*
X74547350Y-92023973D02*
X74593949Y-91948378D01*
X74593949Y-91948378D02*
X74663993Y-91873414D01*
X74663993Y-91873414D02*
X74754041Y-91802411D01*
X74754041Y-91802411D02*
X74781820Y-91784888D01*
X74781820Y-91784888D02*
X75365000Y-91784888D01*
X75365000Y-91784888D02*
X75365000Y-92077447D01*
X75365000Y-92077447D02*
X76391808Y-92077447D01*
X76391808Y-92077447D02*
X76582784Y-92077425D01*
X76582784Y-92077425D02*
X76748523Y-92077332D01*
X76748523Y-92077332D02*
X76890810Y-92077125D01*
X76890810Y-92077125D02*
X77011428Y-92076760D01*
X77011428Y-92076760D02*
X77112163Y-92076195D01*
X77112163Y-92076195D02*
X77194799Y-92075387D01*
X77194799Y-92075387D02*
X77261121Y-92074294D01*
X77261121Y-92074294D02*
X77312912Y-92072871D01*
X77312912Y-92072871D02*
X77351957Y-92071077D01*
X77351957Y-92071077D02*
X77380041Y-92068869D01*
X77380041Y-92068869D02*
X77398948Y-92066203D01*
X77398948Y-92066203D02*
X77410462Y-92063036D01*
X77410462Y-92063036D02*
X77416369Y-92059327D01*
X77416369Y-92059327D02*
X77418451Y-92055032D01*
X77418451Y-92055032D02*
X77418617Y-92052781D01*
X77418617Y-92052781D02*
X77405772Y-92020205D01*
X77405772Y-92020205D02*
X77369162Y-91984605D01*
X77369162Y-91984605D02*
X77311674Y-91947403D01*
X77311674Y-91947403D02*
X77236197Y-91910022D01*
X77236197Y-91910022D02*
X77145618Y-91873884D01*
X77145618Y-91873884D02*
X77042824Y-91840413D01*
X77042824Y-91840413D02*
X76930704Y-91811030D01*
X76930704Y-91811030D02*
X76925479Y-91809825D01*
X76925479Y-91809825D02*
X76864118Y-91796660D01*
X76864118Y-91796660D02*
X76806029Y-91785741D01*
X76806029Y-91785741D02*
X76760952Y-91778852D01*
X76760952Y-91778852D02*
X76749840Y-91777705D01*
X76749840Y-91777705D02*
X76715114Y-91776456D01*
X76715114Y-91776456D02*
X76698891Y-91783850D01*
X76698891Y-91783850D02*
X76692815Y-91805574D01*
X76692815Y-91805574D02*
X76691564Y-91817367D01*
X76691564Y-91817367D02*
X76687330Y-91861277D01*
X76687330Y-91861277D02*
X75756808Y-91861277D01*
X75756808Y-91861277D02*
X75756808Y-91735774D01*
X75756808Y-91735774D02*
X75665817Y-91744270D01*
X75665817Y-91744270D02*
X75603966Y-91750945D01*
X75603966Y-91750945D02*
X75531832Y-91760026D01*
X75531832Y-91760026D02*
X75469913Y-91768828D01*
X75469913Y-91768828D02*
X75365000Y-91784888D01*
X75365000Y-91784888D02*
X74781820Y-91784888D01*
X74781820Y-91784888D02*
X74817819Y-91762180D01*
X74817819Y-91762180D02*
X74939415Y-91691754D01*
X74939415Y-91691754D02*
X74941197Y-91657714D01*
X74941197Y-91657714D02*
X75980410Y-91657714D01*
X75980410Y-91657714D02*
X76002512Y-91666452D01*
X76002512Y-91666452D02*
X76045905Y-91673719D01*
X76045905Y-91673719D02*
X76104888Y-91679256D01*
X76104888Y-91679256D02*
X76173757Y-91682804D01*
X76173757Y-91682804D02*
X76246810Y-91684104D01*
X76246810Y-91684104D02*
X76318345Y-91682896D01*
X76318345Y-91682896D02*
X76382659Y-91678921D01*
X76382659Y-91678921D02*
X76401941Y-91676884D01*
X76401941Y-91676884D02*
X76449930Y-91669734D01*
X76449930Y-91669734D02*
X76471976Y-91663141D01*
X76471976Y-91663141D02*
X76469156Y-91657293D01*
X76469156Y-91657293D02*
X76442547Y-91652378D01*
X76442547Y-91652378D02*
X76393224Y-91648585D01*
X76393224Y-91648585D02*
X76322265Y-91646101D01*
X76322265Y-91646101D02*
X76230746Y-91645115D01*
X76230746Y-91645115D02*
X76220223Y-91645107D01*
X76220223Y-91645107D02*
X76129400Y-91645742D01*
X76129400Y-91645742D02*
X76058324Y-91647581D01*
X76058324Y-91647581D02*
X76008961Y-91650519D01*
X76008961Y-91650519D02*
X75983277Y-91654453D01*
X75983277Y-91654453D02*
X75980410Y-91657714D01*
X75980410Y-91657714D02*
X74941197Y-91657714D01*
X74941197Y-91657714D02*
X74943467Y-91614388D01*
X74943467Y-91614388D02*
X74947519Y-91537021D01*
X74947519Y-91537021D02*
X75144637Y-91537021D01*
X75144637Y-91537021D02*
X75223969Y-91537466D01*
X75223969Y-91537466D02*
X75280458Y-91539080D01*
X75280458Y-91539080D02*
X75318273Y-91542281D01*
X75318273Y-91542281D02*
X75341581Y-91547489D01*
X75341581Y-91547489D02*
X75354552Y-91555123D01*
X75354552Y-91555123D02*
X75357388Y-91558401D01*
X75357388Y-91558401D02*
X75365750Y-91566649D01*
X75365750Y-91566649D02*
X75379234Y-91571452D01*
X75379234Y-91571452D02*
X75402291Y-91572782D01*
X75402291Y-91572782D02*
X75439370Y-91570609D01*
X75439370Y-91570609D02*
X75494921Y-91564905D01*
X75494921Y-91564905D02*
X75561537Y-91557070D01*
X75561537Y-91557070D02*
X75629753Y-91548547D01*
X75629753Y-91548547D02*
X75687758Y-91540721D01*
X75687758Y-91540721D02*
X75730573Y-91534307D01*
X75730573Y-91534307D02*
X75753220Y-91530022D01*
X75753220Y-91530022D02*
X75755442Y-91529177D01*
X75755442Y-91529177D02*
X75759834Y-91513334D01*
X75759834Y-91513334D02*
X75762197Y-91486597D01*
X75762197Y-91486597D02*
X75763564Y-91449202D01*
X75763564Y-91449202D02*
X76689042Y-91442092D01*
X76689042Y-91442092D02*
X76689042Y-91562127D01*
X76689042Y-91562127D02*
X76759973Y-91576187D01*
X76759973Y-91576187D02*
X76807176Y-91585314D01*
X76807176Y-91585314D02*
X76869417Y-91597042D01*
X76869417Y-91597042D02*
X76935141Y-91609200D01*
X76935141Y-91609200D02*
X76951765Y-91612234D01*
X76951765Y-91612234D02*
X77085585Y-91643356D01*
X77085585Y-91643356D02*
X77217696Y-91686591D01*
X77217696Y-91686591D02*
X77338228Y-91738452D01*
X77338228Y-91738452D02*
X77395539Y-91769113D01*
X77395539Y-91769113D02*
X77487302Y-91822598D01*
X77487302Y-91822598D02*
X77556942Y-91787895D01*
X77556942Y-91787895D02*
X77642104Y-91758793D01*
X77642104Y-91758793D02*
X77726715Y-91756699D01*
X77726715Y-91756699D02*
X77810183Y-91781252D01*
X77810183Y-91781252D02*
X77886496Y-91827109D01*
X77886496Y-91827109D02*
X77938318Y-91884361D01*
X77938318Y-91884361D02*
X77965680Y-91953060D01*
X77965680Y-91953060D02*
X77969031Y-92029164D01*
X77969031Y-92029164D02*
X77962529Y-92097713D01*
X77962529Y-92097713D02*
X78387433Y-91666108D01*
X78387433Y-91666108D02*
X78812338Y-91234503D01*
X78812338Y-91234503D02*
X78878203Y-91308076D01*
X78878203Y-91308076D02*
X78909879Y-91345097D01*
X78909879Y-91345097D02*
X78932383Y-91374557D01*
X78932383Y-91374557D02*
X78941358Y-91390700D01*
X78941358Y-91390700D02*
X78941317Y-91391480D01*
X78941317Y-91391480D02*
X78931517Y-91402638D01*
X78931517Y-91402638D02*
X78904361Y-91431105D01*
X78904361Y-91431105D02*
X78861609Y-91475091D01*
X78861609Y-91475091D02*
X78805022Y-91532808D01*
X78805022Y-91532808D02*
X78736361Y-91602469D01*
X78736361Y-91602469D02*
X78657387Y-91682283D01*
X78657387Y-91682283D02*
X78569860Y-91770464D01*
X78569860Y-91770464D02*
X78475541Y-91865222D01*
X78475541Y-91865222D02*
X78426367Y-91914526D01*
X78426367Y-91914526D02*
X78314591Y-92026568D01*
X78314591Y-92026568D02*
X78220525Y-92121048D01*
X78220525Y-92121048D02*
X78142773Y-92199512D01*
X78142773Y-92199512D02*
X78079939Y-92263507D01*
X78079939Y-92263507D02*
X78030626Y-92314577D01*
X78030626Y-92314577D02*
X77993438Y-92354270D01*
X77993438Y-92354270D02*
X77966980Y-92384129D01*
X77966980Y-92384129D02*
X77949853Y-92405703D01*
X77949853Y-92405703D02*
X77940663Y-92420535D01*
X77940663Y-92420535D02*
X77938013Y-92430172D01*
X77938013Y-92430172D02*
X77940507Y-92436161D01*
X77940507Y-92436161D02*
X77946748Y-92440046D01*
X77946748Y-92440046D02*
X77950362Y-92441502D01*
X77950362Y-92441502D02*
X77986554Y-92455262D01*
X77986554Y-92455262D02*
X77979308Y-93097500D01*
X77979308Y-93097500D02*
X77767319Y-93101217D01*
X77767319Y-93101217D02*
X77686410Y-93102933D01*
X77686410Y-93102933D02*
X77628556Y-93105120D01*
X77628556Y-93105120D02*
X77589793Y-93108268D01*
X77589793Y-93108268D02*
X77566156Y-93112866D01*
X77566156Y-93112866D02*
X77553678Y-93119404D01*
X77553678Y-93119404D02*
X77548434Y-93128238D01*
X77548434Y-93128238D02*
X77546840Y-93134707D01*
X77546840Y-93134707D02*
X77545129Y-93144524D01*
X77545129Y-93144524D02*
X77543174Y-93159317D01*
X77543174Y-93159317D02*
X77540844Y-93180713D01*
X77540844Y-93180713D02*
X77538012Y-93210339D01*
X77538012Y-93210339D02*
X77534547Y-93249823D01*
X77534547Y-93249823D02*
X77530321Y-93300792D01*
X77530321Y-93300792D02*
X77525205Y-93364873D01*
X77525205Y-93364873D02*
X77519070Y-93443693D01*
X77519070Y-93443693D02*
X77511788Y-93538879D01*
X77511788Y-93538879D02*
X77503228Y-93652060D01*
X77503228Y-93652060D02*
X77493263Y-93784862D01*
X77493263Y-93784862D02*
X77481763Y-93938912D01*
X77481763Y-93938912D02*
X77468599Y-94115837D01*
X77468599Y-94115837D02*
X77453642Y-94317265D01*
X77453642Y-94317265D02*
X77445406Y-94428298D01*
X77445406Y-94428298D02*
X77433849Y-94583558D01*
X77433849Y-94583558D02*
X77422686Y-94732437D01*
X77422686Y-94732437D02*
X77412108Y-94872486D01*
X77412108Y-94872486D02*
X77402301Y-95001259D01*
X77402301Y-95001259D02*
X77393455Y-95116309D01*
X77393455Y-95116309D02*
X77385759Y-95215188D01*
X77385759Y-95215188D02*
X77379400Y-95295449D01*
X77379400Y-95295449D02*
X77374567Y-95354646D01*
X77374567Y-95354646D02*
X77371450Y-95390330D01*
X77371450Y-95390330D02*
X77370719Y-95397526D01*
X77370719Y-95397526D02*
X77362670Y-95468297D01*
X77362670Y-95468297D02*
X77494758Y-95606941D01*
X77494758Y-95606941D02*
X77527765Y-95641404D01*
X77527765Y-95641404D02*
X77577541Y-95693125D01*
X77577541Y-95693125D02*
X77642027Y-95759974D01*
X77642027Y-95759974D02*
X77719167Y-95839826D01*
X77719167Y-95839826D02*
X77806902Y-95930553D01*
X77806902Y-95930553D02*
X77903176Y-96030026D01*
X77903176Y-96030026D02*
X78005932Y-96136120D01*
X78005932Y-96136120D02*
X78113111Y-96246705D01*
X78113111Y-96246705D02*
X78222656Y-96359656D01*
X78222656Y-96359656D02*
X78234178Y-96371531D01*
X78234178Y-96371531D02*
X78841510Y-96997477D01*
X78841510Y-96997477D02*
X78704459Y-97134528D01*
X78704459Y-97134528D02*
X78227043Y-96649338D01*
X78227043Y-96649338D02*
X78128567Y-96549268D01*
X78128567Y-96549268D02*
X78031701Y-96450852D01*
X78031701Y-96450852D02*
X77938923Y-96356606D01*
X77938923Y-96356606D02*
X77852710Y-96269045D01*
X77852710Y-96269045D02*
X77775537Y-96190684D01*
X77775537Y-96190684D02*
X77709882Y-96124039D01*
X77709882Y-96124039D02*
X77658221Y-96071624D01*
X77658221Y-96071624D02*
X77623032Y-96035954D01*
X77623032Y-96035954D02*
X77623009Y-96035931D01*
X77623009Y-96035931D02*
X77579776Y-95993081D01*
X77579776Y-95993081D02*
X77547123Y-95962570D01*
X77547123Y-95962570D02*
X77527475Y-95946502D01*
X77527475Y-95946502D02*
X77523253Y-95946978D01*
X77523253Y-95946978D02*
X77526180Y-95951907D01*
X77526180Y-95951907D02*
X77563331Y-96022483D01*
X77563331Y-96022483D02*
X77593270Y-96109645D01*
X77593270Y-96109645D02*
X77612848Y-96203262D01*
X77612848Y-96203262D02*
X77617487Y-96245448D01*
X77617487Y-96245448D02*
X77614096Y-96366214D01*
X77614096Y-96366214D02*
X77586966Y-96479008D01*
X77586966Y-96479008D02*
X77538698Y-96581447D01*
X77538698Y-96581447D02*
X77471893Y-96671149D01*
X77471893Y-96671149D02*
X77389152Y-96745731D01*
X77389152Y-96745731D02*
X77293074Y-96802809D01*
X77293074Y-96802809D02*
X77186261Y-96840000D01*
X77186261Y-96840000D02*
X77071313Y-96854921D01*
X77071313Y-96854921D02*
X76961056Y-96847006D01*
X76961056Y-96847006D02*
X76847573Y-96817190D01*
X76847573Y-96817190D02*
X76743934Y-96769135D01*
X76743934Y-96769135D02*
X76654476Y-96705745D01*
X76654476Y-96705745D02*
X76583537Y-96629926D01*
X76583537Y-96629926D02*
X76546354Y-96569254D01*
X76546354Y-96569254D02*
X76510233Y-96495426D01*
X76510233Y-96495426D02*
X75449331Y-96495426D01*
X75449331Y-96495426D02*
X75439537Y-96691330D01*
X75439537Y-96691330D02*
X75429744Y-96887234D01*
X75429744Y-96887234D02*
X75054255Y-96887234D01*
X75054255Y-96887234D02*
X75054255Y-96508267D01*
X75054255Y-96508267D02*
X75020479Y-96495426D01*
X75020479Y-96495426D02*
X74995171Y-96477768D01*
X74995171Y-96477768D02*
X74986436Y-96458606D01*
X74986436Y-96458606D02*
X74984994Y-96430114D01*
X74984994Y-96430114D02*
X74981295Y-96380831D01*
X74981295Y-96380831D02*
X74975715Y-96314608D01*
X74975715Y-96314608D02*
X74968633Y-96235296D01*
X74968633Y-96235296D02*
X74960426Y-96146747D01*
X74960426Y-96146747D02*
X74951473Y-96052812D01*
X74951473Y-96052812D02*
X74942151Y-95957342D01*
X74942151Y-95957342D02*
X74932837Y-95864189D01*
X74932837Y-95864189D02*
X74923910Y-95777204D01*
X74923910Y-95777204D02*
X74915747Y-95700239D01*
X74915747Y-95700239D02*
X74908727Y-95637145D01*
X74908727Y-95637145D02*
X74903226Y-95591774D01*
X74903226Y-95591774D02*
X74899623Y-95567976D01*
X74899623Y-95567976D02*
X74898820Y-95565380D01*
X74898820Y-95565380D02*
X74886661Y-95571027D01*
X74886661Y-95571027D02*
X74860320Y-95592973D01*
X74860320Y-95592973D02*
X74823865Y-95627590D01*
X74823865Y-95627590D02*
X74787596Y-95664652D01*
X74787596Y-95664652D02*
X74743834Y-95710467D01*
X74743834Y-95710467D02*
X74686626Y-95769983D01*
X74686626Y-95769983D02*
X74621404Y-95837567D01*
X74621404Y-95837567D02*
X74553603Y-95907587D01*
X74553603Y-95907587D02*
X74500978Y-95961755D01*
X74500978Y-95961755D02*
X74452201Y-96011946D01*
X74452201Y-96011946D02*
X74387638Y-96078485D01*
X74387638Y-96078485D02*
X74310276Y-96158289D01*
X74310276Y-96158289D02*
X74223103Y-96248273D01*
X74223103Y-96248273D02*
X74129108Y-96345352D01*
X74129108Y-96345352D02*
X74031278Y-96446441D01*
X74031278Y-96446441D02*
X73932601Y-96548456D01*
X73932601Y-96548456D02*
X73872840Y-96610266D01*
X73872840Y-96610266D02*
X73780531Y-96705746D01*
X73780531Y-96705746D02*
X73691743Y-96797567D01*
X73691743Y-96797567D02*
X73608703Y-96883428D01*
X73608703Y-96883428D02*
X73533637Y-96961026D01*
X73533637Y-96961026D02*
X73468772Y-97028059D01*
X73468772Y-97028059D02*
X73416337Y-97082226D01*
X73416337Y-97082226D02*
X73378558Y-97121223D01*
X73378558Y-97121223D02*
X73359619Y-97140741D01*
X73359619Y-97140741D02*
X73290459Y-97211853D01*
X73290459Y-97211853D02*
X73223616Y-97143990D01*
X73223616Y-97143990D02*
X73156773Y-97076126D01*
X73156773Y-97076126D02*
X73286297Y-96944526D01*
X73286297Y-96944526D02*
X73316582Y-96913531D01*
X73316582Y-96913531D02*
X73363820Y-96864888D01*
X73363820Y-96864888D02*
X73426239Y-96800432D01*
X73426239Y-96800432D02*
X73502067Y-96722000D01*
X73502067Y-96722000D02*
X73589533Y-96631424D01*
X73589533Y-96631424D02*
X73686866Y-96530542D01*
X73686866Y-96530542D02*
X73792295Y-96421188D01*
X73792295Y-96421188D02*
X73904048Y-96305197D01*
X73904048Y-96305197D02*
X74020354Y-96184404D01*
X74020354Y-96184404D02*
X74139442Y-96060645D01*
X74139442Y-96060645D02*
X74148038Y-96051708D01*
X74148038Y-96051708D02*
X74785215Y-95389296D01*
X74785215Y-95389296D02*
X75094817Y-95389296D01*
X75094817Y-95389296D02*
X75096136Y-95413906D01*
X75096136Y-95413906D02*
X75099738Y-95459598D01*
X75099738Y-95459598D02*
X75105126Y-95520576D01*
X75105126Y-95520576D02*
X75111801Y-95591044D01*
X75111801Y-95591044D02*
X75114385Y-95617234D01*
X75114385Y-95617234D02*
X75122938Y-95703853D01*
X75122938Y-95703853D02*
X75132913Y-95806234D01*
X75132913Y-95806234D02*
X75143232Y-95913233D01*
X75143232Y-95913233D02*
X75152817Y-96013705D01*
X75152817Y-96013705D02*
X75155458Y-96041656D01*
X75155458Y-96041656D02*
X75162959Y-96117716D01*
X75162959Y-96117716D02*
X75170167Y-96184409D01*
X75170167Y-96184409D02*
X75176526Y-96237069D01*
X75176526Y-96237069D02*
X75181483Y-96271030D01*
X75181483Y-96271030D02*
X75183975Y-96281469D01*
X75183975Y-96281469D02*
X75198484Y-96283745D01*
X75198484Y-96283745D02*
X75237345Y-96285868D01*
X75237345Y-96285868D02*
X75297887Y-96287790D01*
X75297887Y-96287790D02*
X75377440Y-96289466D01*
X75377440Y-96289466D02*
X75473333Y-96290848D01*
X75473333Y-96290848D02*
X75582898Y-96291890D01*
X75582898Y-96291890D02*
X75703463Y-96292545D01*
X75703463Y-96292545D02*
X75829280Y-96292766D01*
X75829280Y-96292766D02*
X76467603Y-96292766D01*
X76467603Y-96292766D02*
X76470519Y-96275407D01*
X76470519Y-96275407D02*
X76734850Y-96275407D01*
X76734850Y-96275407D02*
X76743626Y-96362574D01*
X76743626Y-96362574D02*
X76760833Y-96413582D01*
X76760833Y-96413582D02*
X76789144Y-96458231D01*
X76789144Y-96458231D02*
X76824735Y-96497299D01*
X76824735Y-96497299D02*
X76876268Y-96542310D01*
X76876268Y-96542310D02*
X76927377Y-96570150D01*
X76927377Y-96570150D02*
X76987264Y-96584462D01*
X76987264Y-96584462D02*
X77055665Y-96588782D01*
X77055665Y-96588782D02*
X77116504Y-96584843D01*
X77116504Y-96584843D02*
X77171084Y-96568082D01*
X77171084Y-96568082D02*
X77202725Y-96552846D01*
X77202725Y-96552846D02*
X77268515Y-96504301D01*
X77268515Y-96504301D02*
X77317626Y-96439591D01*
X77317626Y-96439591D02*
X77349000Y-96364143D01*
X77349000Y-96364143D02*
X77361581Y-96283387D01*
X77361581Y-96283387D02*
X77354311Y-96202748D01*
X77354311Y-96202748D02*
X77326133Y-96127657D01*
X77326133Y-96127657D02*
X77294354Y-96082378D01*
X77294354Y-96082378D02*
X77228662Y-96025835D01*
X77228662Y-96025835D02*
X77151322Y-95988699D01*
X77151322Y-95988699D02*
X77067902Y-95971490D01*
X77067902Y-95971490D02*
X76983971Y-95974730D01*
X76983971Y-95974730D02*
X76905097Y-95998940D01*
X76905097Y-95998940D02*
X76841984Y-96040010D01*
X76841984Y-96040010D02*
X76785629Y-96106710D01*
X76785629Y-96106710D02*
X76749286Y-96187245D01*
X76749286Y-96187245D02*
X76734850Y-96275407D01*
X76734850Y-96275407D02*
X76470519Y-96275407D01*
X76470519Y-96275407D02*
X76484616Y-96191517D01*
X76484616Y-96191517D02*
X76518138Y-96064319D01*
X76518138Y-96064319D02*
X76572257Y-95952590D01*
X76572257Y-95952590D02*
X76645037Y-95858028D01*
X76645037Y-95858028D02*
X76734541Y-95782328D01*
X76734541Y-95782328D02*
X76838834Y-95727187D01*
X76838834Y-95727187D02*
X76955980Y-95694301D01*
X76955980Y-95694301D02*
X77062659Y-95685118D01*
X77062659Y-95685118D02*
X77145796Y-95684787D01*
X77145796Y-95684787D02*
X77151353Y-95613857D01*
X77151353Y-95613857D02*
X77156910Y-95542926D01*
X77156910Y-95542926D02*
X76953375Y-95333604D01*
X76953375Y-95333604D02*
X76881997Y-95260252D01*
X76881997Y-95260252D02*
X76797921Y-95173941D01*
X76797921Y-95173941D02*
X76707346Y-95081029D01*
X76707346Y-95081029D02*
X76616470Y-94987874D01*
X76616470Y-94987874D02*
X76531491Y-94900831D01*
X76531491Y-94900831D02*
X76505515Y-94874243D01*
X76505515Y-94874243D02*
X76432184Y-94799074D01*
X76432184Y-94799074D02*
X76358584Y-94723408D01*
X76358584Y-94723408D02*
X76288871Y-94651534D01*
X76288871Y-94651534D02*
X76227202Y-94587743D01*
X76227202Y-94587743D02*
X76177737Y-94536326D01*
X76177737Y-94536326D02*
X76155207Y-94512739D01*
X76155207Y-94512739D02*
X76111682Y-94468332D01*
X76111682Y-94468332D02*
X76073908Y-94432322D01*
X76073908Y-94432322D02*
X76046225Y-94408685D01*
X76046225Y-94408685D02*
X76033590Y-94401277D01*
X76033590Y-94401277D02*
X76020777Y-94410674D01*
X76020777Y-94410674D02*
X75991630Y-94437341D01*
X75991630Y-94437341D02*
X75948466Y-94478993D01*
X75948466Y-94478993D02*
X75893600Y-94533345D01*
X75893600Y-94533345D02*
X75829346Y-94598112D01*
X75829346Y-94598112D02*
X75758020Y-94671009D01*
X75758020Y-94671009D02*
X75708494Y-94722154D01*
X75708494Y-94722154D02*
X75625254Y-94808446D01*
X75625254Y-94808446D02*
X75540219Y-94896560D01*
X75540219Y-94896560D02*
X75457268Y-94982482D01*
X75457268Y-94982482D02*
X75380277Y-95062198D01*
X75380277Y-95062198D02*
X75313122Y-95131693D01*
X75313122Y-95131693D02*
X75259682Y-95186952D01*
X75259682Y-95186952D02*
X75246910Y-95200147D01*
X75246910Y-95200147D02*
X75181785Y-95269016D01*
X75181785Y-95269016D02*
X75135675Y-95321639D01*
X75135675Y-95321639D02*
X75107300Y-95359608D01*
X75107300Y-95359608D02*
X75095381Y-95384515D01*
X75095381Y-95384515D02*
X75094817Y-95389296D01*
X75094817Y-95389296D02*
X74785215Y-95389296D01*
X74785215Y-95389296D02*
X74880257Y-95290491D01*
X74880257Y-95290491D02*
X74871516Y-95180272D01*
X74871516Y-95180272D02*
X74863812Y-95085809D01*
X74863812Y-95085809D02*
X74853825Y-94967659D01*
X74853825Y-94967659D02*
X74841846Y-94829030D01*
X74841846Y-94829030D02*
X74828165Y-94673136D01*
X74828165Y-94673136D02*
X74813072Y-94503184D01*
X74813072Y-94503184D02*
X74796857Y-94322388D01*
X74796857Y-94322388D02*
X74779809Y-94133956D01*
X74779809Y-94133956D02*
X74762220Y-93941100D01*
X74762220Y-93941100D02*
X74744379Y-93747030D01*
X74744379Y-93747030D02*
X74726577Y-93554956D01*
X74726577Y-93554956D02*
X74709102Y-93368090D01*
X74709102Y-93368090D02*
X74699792Y-93269525D01*
X74699792Y-93269525D02*
X74908391Y-93269525D01*
X74908391Y-93269525D02*
X74908972Y-93285552D01*
X74908972Y-93285552D02*
X74911762Y-93325731D01*
X74911762Y-93325731D02*
X74916521Y-93387308D01*
X74916521Y-93387308D02*
X74923005Y-93467523D01*
X74923005Y-93467523D02*
X74930974Y-93563621D01*
X74930974Y-93563621D02*
X74940186Y-93672845D01*
X74940186Y-93672845D02*
X74950400Y-93792437D01*
X74950400Y-93792437D02*
X74961373Y-93919641D01*
X74961373Y-93919641D02*
X74972865Y-94051701D01*
X74972865Y-94051701D02*
X74984633Y-94185859D01*
X74984633Y-94185859D02*
X74996436Y-94319358D01*
X74996436Y-94319358D02*
X75008032Y-94449442D01*
X75008032Y-94449442D02*
X75019180Y-94573354D01*
X75019180Y-94573354D02*
X75029639Y-94688336D01*
X75029639Y-94688336D02*
X75039166Y-94791633D01*
X75039166Y-94791633D02*
X75047520Y-94880487D01*
X75047520Y-94880487D02*
X75054459Y-94952141D01*
X75054459Y-94952141D02*
X75059743Y-95003839D01*
X75059743Y-95003839D02*
X75062516Y-95028199D01*
X75062516Y-95028199D02*
X75070867Y-95094430D01*
X75070867Y-95094430D02*
X75315379Y-94839050D01*
X75315379Y-94839050D02*
X75392509Y-94758885D01*
X75392509Y-94758885D02*
X75473985Y-94674888D01*
X75473985Y-94674888D02*
X75554719Y-94592257D01*
X75554719Y-94592257D02*
X75629619Y-94516194D01*
X75629619Y-94516194D02*
X75693596Y-94451898D01*
X75693596Y-94451898D02*
X75720241Y-94425449D01*
X75720241Y-94425449D02*
X75773341Y-94371700D01*
X75773341Y-94371700D02*
X75818469Y-94323424D01*
X75818469Y-94323424D02*
X75852515Y-94284163D01*
X75852515Y-94284163D02*
X75872365Y-94257461D01*
X75872365Y-94257461D02*
X75876063Y-94248139D01*
X75876063Y-94248139D02*
X76177040Y-94248139D01*
X76177040Y-94248139D02*
X76435070Y-94517234D01*
X76435070Y-94517234D02*
X76569356Y-94657284D01*
X76569356Y-94657284D02*
X76686161Y-94779073D01*
X76686161Y-94779073D02*
X76786718Y-94883831D01*
X76786718Y-94883831D02*
X76872260Y-94972789D01*
X76872260Y-94972789D02*
X76944020Y-95047178D01*
X76944020Y-95047178D02*
X77003233Y-95108227D01*
X77003233Y-95108227D02*
X77051132Y-95157167D01*
X77051132Y-95157167D02*
X77088950Y-95195227D01*
X77088950Y-95195227D02*
X77117921Y-95223639D01*
X77117921Y-95223639D02*
X77139278Y-95243632D01*
X77139278Y-95243632D02*
X77154255Y-95256437D01*
X77154255Y-95256437D02*
X77164085Y-95263283D01*
X77164085Y-95263283D02*
X77170002Y-95265402D01*
X77170002Y-95265402D02*
X77173239Y-95264023D01*
X77173239Y-95264023D02*
X77175029Y-95260377D01*
X77175029Y-95260377D02*
X77176298Y-95256518D01*
X77176298Y-95256518D02*
X77180465Y-95233931D01*
X77180465Y-95233931D02*
X77185278Y-95190661D01*
X77185278Y-95190661D02*
X77190130Y-95133016D01*
X77190130Y-95133016D02*
X77194258Y-95070053D01*
X77194258Y-95070053D02*
X77198670Y-94998533D01*
X77198670Y-94998533D02*
X77203529Y-94929456D01*
X77203529Y-94929456D02*
X77208194Y-94871494D01*
X77208194Y-94871494D02*
X77211456Y-94838048D01*
X77211456Y-94838048D02*
X77219430Y-94768169D01*
X77219430Y-94768169D02*
X77164303Y-94775563D01*
X77164303Y-94775563D02*
X77125770Y-94777719D01*
X77125770Y-94777719D02*
X77098132Y-94767957D01*
X77098132Y-94767957D02*
X77067993Y-94741773D01*
X77067993Y-94741773D02*
X77042075Y-94708721D01*
X77042075Y-94708721D02*
X77027784Y-94676630D01*
X77027784Y-94676630D02*
X77026808Y-94668780D01*
X77026808Y-94668780D02*
X77038572Y-94623554D01*
X77038572Y-94623554D02*
X77069020Y-94584558D01*
X77069020Y-94584558D02*
X77110887Y-94557110D01*
X77110887Y-94557110D02*
X77156906Y-94546526D01*
X77156906Y-94546526D02*
X77186848Y-94551668D01*
X77186848Y-94551668D02*
X77213330Y-94559078D01*
X77213330Y-94559078D02*
X77225416Y-94558449D01*
X77225416Y-94558449D02*
X77227120Y-94556070D01*
X77227120Y-94556070D02*
X77228789Y-94550981D01*
X77228789Y-94550981D02*
X77230635Y-94540885D01*
X77230635Y-94540885D02*
X77232865Y-94523483D01*
X77232865Y-94523483D02*
X77235692Y-94496478D01*
X77235692Y-94496478D02*
X77239324Y-94457571D01*
X77239324Y-94457571D02*
X77243973Y-94404465D01*
X77243973Y-94404465D02*
X77249847Y-94334861D01*
X77249847Y-94334861D02*
X77257156Y-94246461D01*
X77257156Y-94246461D02*
X77266112Y-94136967D01*
X77266112Y-94136967D02*
X77276924Y-94004081D01*
X77276924Y-94004081D02*
X77283620Y-93921649D01*
X77283620Y-93921649D02*
X77293282Y-93801176D01*
X77293282Y-93801176D02*
X77302633Y-93681805D01*
X77302633Y-93681805D02*
X77311335Y-93568054D01*
X77311335Y-93568054D02*
X77319050Y-93464443D01*
X77319050Y-93464443D02*
X77325441Y-93375492D01*
X77325441Y-93375492D02*
X77330169Y-93305719D01*
X77330169Y-93305719D02*
X77332341Y-93270107D01*
X77332341Y-93270107D02*
X77335899Y-93197901D01*
X77335899Y-93197901D02*
X77336128Y-93144655D01*
X77336128Y-93144655D02*
X77331047Y-93110462D01*
X77331047Y-93110462D02*
X77318677Y-93095420D01*
X77318677Y-93095420D02*
X77297036Y-93099621D01*
X77297036Y-93099621D02*
X77264145Y-93123163D01*
X77264145Y-93123163D02*
X77218023Y-93166141D01*
X77218023Y-93166141D02*
X77156689Y-93228649D01*
X77156689Y-93228649D02*
X77106613Y-93280965D01*
X77106613Y-93280965D02*
X77041153Y-93350166D01*
X77041153Y-93350166D02*
X76992446Y-93403374D01*
X76992446Y-93403374D02*
X76958085Y-93443651D01*
X76958085Y-93443651D02*
X76935663Y-93474057D01*
X76935663Y-93474057D02*
X76922773Y-93497653D01*
X76922773Y-93497653D02*
X76917008Y-93517500D01*
X76917008Y-93517500D02*
X76916331Y-93522928D01*
X76916331Y-93522928D02*
X76910793Y-93554142D01*
X76910793Y-93554142D02*
X76896222Y-93569610D01*
X76896222Y-93569610D02*
X76864050Y-93577770D01*
X76864050Y-93577770D02*
X76859936Y-93578444D01*
X76859936Y-93578444D02*
X76843177Y-93582650D01*
X76843177Y-93582650D02*
X76824810Y-93591268D01*
X76824810Y-93591268D02*
X76802500Y-93606390D01*
X76802500Y-93606390D02*
X76773914Y-93630108D01*
X76773914Y-93630108D02*
X76736715Y-93664512D01*
X76736715Y-93664512D02*
X76688569Y-93711694D01*
X76688569Y-93711694D02*
X76627141Y-93773745D01*
X76627141Y-93773745D02*
X76550096Y-93852757D01*
X76550096Y-93852757D02*
X76526290Y-93877294D01*
X76526290Y-93877294D02*
X76453570Y-93952474D01*
X76453570Y-93952474D02*
X76385522Y-94023156D01*
X76385522Y-94023156D02*
X76324836Y-94086518D01*
X76324836Y-94086518D02*
X76274206Y-94139738D01*
X76274206Y-94139738D02*
X76236325Y-94179992D01*
X76236325Y-94179992D02*
X76213884Y-94204459D01*
X76213884Y-94204459D02*
X76210858Y-94207949D01*
X76210858Y-94207949D02*
X76177040Y-94248139D01*
X76177040Y-94248139D02*
X75876063Y-94248139D01*
X75876063Y-94248139D02*
X75876119Y-94247998D01*
X75876119Y-94247998D02*
X75865793Y-94233382D01*
X75865793Y-94233382D02*
X75838935Y-94202559D01*
X75838935Y-94202559D02*
X75797691Y-94157697D01*
X75797691Y-94157697D02*
X75744205Y-94100964D01*
X75744205Y-94100964D02*
X75680621Y-94034530D01*
X75680621Y-94034530D02*
X75609084Y-93960561D01*
X75609084Y-93960561D02*
X75531738Y-93881227D01*
X75531738Y-93881227D02*
X75450728Y-93798696D01*
X75450728Y-93798696D02*
X75368198Y-93715136D01*
X75368198Y-93715136D02*
X75286293Y-93632714D01*
X75286293Y-93632714D02*
X75207157Y-93553601D01*
X75207157Y-93553601D02*
X75132935Y-93479963D01*
X75132935Y-93479963D02*
X75065771Y-93413970D01*
X75065771Y-93413970D02*
X75007809Y-93357789D01*
X75007809Y-93357789D02*
X74961195Y-93313589D01*
X74961195Y-93313589D02*
X74928073Y-93283537D01*
X74928073Y-93283537D02*
X74910587Y-93269804D01*
X74910587Y-93269804D02*
X74908391Y-93269525D01*
X74908391Y-93269525D02*
X74699792Y-93269525D01*
X74699792Y-93269525D02*
X74692246Y-93189642D01*
X74692246Y-93189642D02*
X74681637Y-93078420D01*
X74681637Y-93078420D02*
X74673337Y-92991786D01*
X74673337Y-92991786D02*
X74536419Y-92848739D01*
X74536419Y-92848739D02*
X74485585Y-92795855D01*
X74485585Y-92795855D02*
X74420875Y-92728877D01*
X74420875Y-92728877D02*
X74347331Y-92653006D01*
X74347331Y-92653006D02*
X74269995Y-92573439D01*
X74269995Y-92573439D02*
X74193910Y-92495377D01*
X74193910Y-92495377D02*
X74168394Y-92469255D01*
X74168394Y-92469255D02*
X74086161Y-92385055D01*
X74086161Y-92385055D02*
X73992296Y-92288824D01*
X73992296Y-92288824D02*
X73893978Y-92187932D01*
X73893978Y-92187932D02*
X73798385Y-92089745D01*
X73798385Y-92089745D02*
X73712698Y-92001633D01*
X73712698Y-92001633D02*
X73701034Y-91989628D01*
X73701034Y-91989628D02*
X73620374Y-91906620D01*
X73620374Y-91906620D02*
X73531438Y-91815128D01*
X73531438Y-91815128D02*
X73440617Y-91721725D01*
X73440617Y-91721725D02*
X73354302Y-91632985D01*
X73354302Y-91632985D02*
X73278885Y-91555480D01*
X73278885Y-91555480D02*
X73263108Y-91539272D01*
X73263108Y-91539272D02*
X73203390Y-91477668D01*
X73203390Y-91477668D02*
X73150365Y-91422474D01*
X73150365Y-91422474D02*
X73106837Y-91376649D01*
X73106837Y-91376649D02*
X73075611Y-91343154D01*
X73075611Y-91343154D02*
X73059492Y-91324949D01*
X73059492Y-91324949D02*
X73057931Y-91322719D01*
X73057931Y-91322719D02*
X73065055Y-91309258D01*
X73065055Y-91309258D02*
X73087101Y-91282936D01*
X73087101Y-91282936D02*
X73119318Y-91249415D01*
X73119318Y-91249415D02*
X73119773Y-91248967D01*
X73119773Y-91248967D02*
X73185119Y-91184603D01*
X73185119Y-91184603D02*
X73413756Y-91416479D01*
X73413756Y-91416479D02*
X73413756Y-91416479D01*
G36*
X74871516Y-95180272D02*
G01*
X74863812Y-95085809D01*
X74853825Y-94967659D01*
X74841846Y-94829030D01*
X74828165Y-94673136D01*
X74813072Y-94503184D01*
X74796857Y-94322388D01*
X74779809Y-94133956D01*
X74762220Y-93941100D01*
X74744379Y-93747030D01*
X74726577Y-93554956D01*
X74709102Y-93368090D01*
X74699792Y-93269525D01*
X74908391Y-93269525D01*
X74908972Y-93285552D01*
X74911762Y-93325731D01*
X74916521Y-93387308D01*
X74923005Y-93467523D01*
X74930974Y-93563621D01*
X74940186Y-93672845D01*
X74950400Y-93792437D01*
X74961373Y-93919641D01*
X74972865Y-94051701D01*
X74984633Y-94185859D01*
X74996436Y-94319358D01*
X75008032Y-94449442D01*
X75019180Y-94573354D01*
X75029639Y-94688336D01*
X75039166Y-94791633D01*
X75047520Y-94880487D01*
X75054459Y-94952141D01*
X75059743Y-95003839D01*
X75062516Y-95028199D01*
X75070867Y-95094430D01*
X75315379Y-94839050D01*
X75392509Y-94758885D01*
X75473985Y-94674888D01*
X75554719Y-94592257D01*
X75629619Y-94516194D01*
X75693596Y-94451898D01*
X75720241Y-94425449D01*
X75773341Y-94371700D01*
X75818469Y-94323424D01*
X75852515Y-94284163D01*
X75872365Y-94257461D01*
X75876063Y-94248139D01*
X76177040Y-94248139D01*
X76435070Y-94517234D01*
X76569356Y-94657284D01*
X76686161Y-94779073D01*
X76786718Y-94883831D01*
X76872260Y-94972789D01*
X76944020Y-95047178D01*
X77003233Y-95108227D01*
X77051132Y-95157167D01*
X77088950Y-95195227D01*
X77117921Y-95223639D01*
X77139278Y-95243632D01*
X77154255Y-95256437D01*
X77164085Y-95263283D01*
X77170002Y-95265402D01*
X77173239Y-95264023D01*
X77175029Y-95260377D01*
X77176298Y-95256518D01*
X77180465Y-95233931D01*
X77185278Y-95190661D01*
X77190130Y-95133016D01*
X77194258Y-95070053D01*
X77198670Y-94998533D01*
X77203529Y-94929456D01*
X77208194Y-94871494D01*
X77211456Y-94838048D01*
X77219430Y-94768169D01*
X77164303Y-94775563D01*
X77125770Y-94777719D01*
X77098132Y-94767957D01*
X77067993Y-94741773D01*
X77042075Y-94708721D01*
X77027784Y-94676630D01*
X77026808Y-94668780D01*
X77038572Y-94623554D01*
X77069020Y-94584558D01*
X77110887Y-94557110D01*
X77156906Y-94546526D01*
X77186848Y-94551668D01*
X77213330Y-94559078D01*
X77225416Y-94558449D01*
X77227120Y-94556070D01*
X77228789Y-94550981D01*
X77230635Y-94540885D01*
X77232865Y-94523483D01*
X77235692Y-94496478D01*
X77239324Y-94457571D01*
X77243973Y-94404465D01*
X77249847Y-94334861D01*
X77257156Y-94246461D01*
X77266112Y-94136967D01*
X77276924Y-94004081D01*
X77283620Y-93921649D01*
X77293282Y-93801176D01*
X77302633Y-93681805D01*
X77311335Y-93568054D01*
X77319050Y-93464443D01*
X77325441Y-93375492D01*
X77330169Y-93305719D01*
X77332341Y-93270107D01*
X77335899Y-93197901D01*
X77336128Y-93144655D01*
X77331047Y-93110462D01*
X77318677Y-93095420D01*
X77297036Y-93099621D01*
X77264145Y-93123163D01*
X77218023Y-93166141D01*
X77156689Y-93228649D01*
X77106613Y-93280965D01*
X77041153Y-93350166D01*
X76992446Y-93403374D01*
X76958085Y-93443651D01*
X76935663Y-93474057D01*
X76922773Y-93497653D01*
X76917008Y-93517500D01*
X76916331Y-93522928D01*
X76910793Y-93554142D01*
X76896222Y-93569610D01*
X76864050Y-93577770D01*
X76859936Y-93578444D01*
X76843177Y-93582650D01*
X76824810Y-93591268D01*
X76802500Y-93606390D01*
X76773914Y-93630108D01*
X76736715Y-93664512D01*
X76688569Y-93711694D01*
X76627141Y-93773745D01*
X76550096Y-93852757D01*
X76526290Y-93877294D01*
X76453570Y-93952474D01*
X76385522Y-94023156D01*
X76324836Y-94086518D01*
X76274206Y-94139738D01*
X76236325Y-94179992D01*
X76213884Y-94204459D01*
X76210858Y-94207949D01*
X76177040Y-94248139D01*
X75876063Y-94248139D01*
X75876119Y-94247998D01*
X75865793Y-94233382D01*
X75838935Y-94202559D01*
X75797691Y-94157697D01*
X75744205Y-94100964D01*
X75680621Y-94034530D01*
X75609084Y-93960561D01*
X75531738Y-93881227D01*
X75450728Y-93798696D01*
X75368198Y-93715136D01*
X75286293Y-93632714D01*
X75207157Y-93553601D01*
X75132935Y-93479963D01*
X75065771Y-93413970D01*
X75007809Y-93357789D01*
X74961195Y-93313589D01*
X74928073Y-93283537D01*
X74910587Y-93269804D01*
X74908391Y-93269525D01*
X74699792Y-93269525D01*
X74692246Y-93189642D01*
X74681637Y-93078420D01*
X74673337Y-92991786D01*
X74536419Y-92848739D01*
X74485585Y-92795855D01*
X74420875Y-92728877D01*
X74347331Y-92653006D01*
X74269995Y-92573439D01*
X74193910Y-92495377D01*
X74168394Y-92469255D01*
X74086161Y-92385055D01*
X73992296Y-92288824D01*
X73893978Y-92187932D01*
X73798385Y-92089745D01*
X73712698Y-92001633D01*
X73701034Y-91989628D01*
X73620374Y-91906620D01*
X73531438Y-91815128D01*
X73440617Y-91721725D01*
X73354302Y-91632985D01*
X73278885Y-91555480D01*
X73263108Y-91539272D01*
X73203390Y-91477668D01*
X73150365Y-91422474D01*
X73106837Y-91376649D01*
X73075611Y-91343154D01*
X73059492Y-91324949D01*
X73057931Y-91322719D01*
X73065055Y-91309258D01*
X73087101Y-91282936D01*
X73119318Y-91249415D01*
X73119773Y-91248967D01*
X73185119Y-91184603D01*
X73413756Y-91416479D01*
X73478329Y-91482053D01*
X73536964Y-91541762D01*
X73586861Y-91592742D01*
X73625221Y-91632129D01*
X73649246Y-91657059D01*
X73655904Y-91664220D01*
X73668706Y-91677887D01*
X73697717Y-91708111D01*
X73740258Y-91752124D01*
X73793651Y-91807160D01*
X73855217Y-91870453D01*
X73912709Y-91929431D01*
X73997113Y-92015958D01*
X74092221Y-92113500D01*
X74191046Y-92214886D01*
X74286596Y-92312946D01*
X74371884Y-92400508D01*
X74389491Y-92418591D01*
X74453742Y-92484471D01*
X74511458Y-92543436D01*
X74560067Y-92592876D01*
X74596997Y-92630183D01*
X74619679Y-92652746D01*
X74625824Y-92658432D01*
X74626610Y-92645848D01*
X74626564Y-92611705D01*
X74625738Y-92561450D01*
X74624450Y-92509815D01*
X74621026Y-92389231D01*
X74824574Y-92389231D01*
X74826094Y-92433765D01*
X74830258Y-92494028D01*
X74836479Y-92564824D01*
X74844166Y-92640954D01*
X74852729Y-92717224D01*
X74861579Y-92788436D01*
X74870127Y-92849393D01*
X74877783Y-92894899D01*
X74883956Y-92919757D01*
X74885006Y-92921862D01*
X74897860Y-92936786D01*
X74927711Y-92968940D01*
X74972606Y-93016292D01*
X75030590Y-93076810D01*
X75099710Y-93148462D01*
X75178013Y-93229216D01*
X75263544Y-93317040D01*
X75346684Y-93402076D01*
X75441382Y-93498784D01*
X75534253Y-93593677D01*
X75622758Y-93684158D01*
X75704358Y-93767628D01*
X75776512Y-93841489D01*
X75836683Y-93903143D01*
X75882329Y-93949991D01*
X75904996Y-93973323D01*
X75950410Y-94018559D01*
X75990145Y-94055131D01*
X76019997Y-94079372D01*
X76035760Y-94087614D01*
X76035966Y-94087577D01*
X76049489Y-94077155D01*
X76078943Y-94049793D01*
X76121648Y-94008140D01*
X76174921Y-93954845D01*
X76236080Y-93892556D01*
X76292924Y-93833830D01*
X76533323Y-93583883D01*
X76141688Y-93577128D01*
X75750053Y-93570372D01*
X75746305Y-93377846D01*
X75742556Y-93185319D01*
X76886493Y-93185319D01*
X77061358Y-93022567D01*
X77134758Y-92954590D01*
X77191218Y-92901905D01*
X77205764Y-92887550D01*
X77499681Y-92887550D01*
X77512742Y-92894356D01*
X77550254Y-92899051D01*
X77609711Y-92901382D01*
X77639033Y-92901596D01*
X77778386Y-92901596D01*
X77781807Y-92773245D01*
X77782950Y-92713468D01*
X77781969Y-92675741D01*
X77778048Y-92655124D01*
X77770372Y-92646679D01*
X77760673Y-92645372D01*
X77729353Y-92652571D01*
X77708570Y-92662261D01*
X77686628Y-92679621D01*
X77654212Y-92710278D01*
X77616051Y-92749130D01*
X77576876Y-92791076D01*
X77541415Y-92831016D01*
X77514399Y-92863848D01*
X77500557Y-92884471D01*
X77499681Y-92887550D01*
X77205764Y-92887550D01*
X77232940Y-92860731D01*
X77262127Y-92827289D01*
X77280982Y-92797800D01*
X77291707Y-92768483D01*
X77296506Y-92735560D01*
X77297580Y-92695251D01*
X77297133Y-92643776D01*
X77297021Y-92618193D01*
X77297021Y-92444382D01*
X77471285Y-92439930D01*
X77545444Y-92437511D01*
X77597592Y-92434193D01*
X77632742Y-92429230D01*
X77655902Y-92421875D01*
X77672085Y-92411381D01*
X77673944Y-92409741D01*
X77694680Y-92387310D01*
X77702340Y-92372587D01*
X77689122Y-92371042D01*
X77650635Y-92369559D01*
X77588632Y-92368151D01*
X77504866Y-92366832D01*
X77401090Y-92365617D01*
X77279057Y-92364519D01*
X77140519Y-92363552D01*
X76987228Y-92362730D01*
X76820939Y-92362067D01*
X76643403Y-92361577D01*
X76456373Y-92361273D01*
X76263457Y-92361170D01*
X74824574Y-92361170D01*
X74824574Y-92389231D01*
X74621026Y-92389231D01*
X74620229Y-92361170D01*
X74351702Y-92361170D01*
X74351702Y-92111224D01*
X77945532Y-92111224D01*
X77952287Y-92117979D01*
X77959043Y-92111224D01*
X77952287Y-92104468D01*
X77945532Y-92111224D01*
X74351702Y-92111224D01*
X74351702Y-92077447D01*
X74523237Y-92077447D01*
X75365000Y-92077447D01*
X76391808Y-92077447D01*
X76582784Y-92077425D01*
X76748523Y-92077332D01*
X76890810Y-92077125D01*
X77011428Y-92076760D01*
X77112163Y-92076195D01*
X77194799Y-92075387D01*
X77261121Y-92074294D01*
X77312912Y-92072871D01*
X77351957Y-92071077D01*
X77380041Y-92068869D01*
X77398948Y-92066203D01*
X77410462Y-92063036D01*
X77416369Y-92059327D01*
X77418451Y-92055032D01*
X77418617Y-92052781D01*
X77405772Y-92020205D01*
X77369162Y-91984605D01*
X77311674Y-91947403D01*
X77236197Y-91910022D01*
X77145618Y-91873884D01*
X77042824Y-91840413D01*
X76930704Y-91811030D01*
X76925479Y-91809825D01*
X76864118Y-91796660D01*
X76806029Y-91785741D01*
X76760952Y-91778852D01*
X76749840Y-91777705D01*
X76715114Y-91776456D01*
X76698891Y-91783850D01*
X76692815Y-91805574D01*
X76691564Y-91817367D01*
X76687330Y-91861277D01*
X75756808Y-91861277D01*
X75756808Y-91735774D01*
X75665817Y-91744270D01*
X75603966Y-91750945D01*
X75531832Y-91760026D01*
X75469913Y-91768828D01*
X75365000Y-91784888D01*
X75365000Y-92077447D01*
X74523237Y-92077447D01*
X74527855Y-92067204D01*
X74757021Y-92067204D01*
X74769341Y-92072407D01*
X74801678Y-92075107D01*
X74847096Y-92074735D01*
X74848218Y-92074687D01*
X74939415Y-92070692D01*
X74943499Y-91999761D01*
X74943463Y-91954730D01*
X74937382Y-91931378D01*
X74932890Y-91928830D01*
X74908607Y-91937057D01*
X74873348Y-91958208D01*
X74833838Y-91986992D01*
X74796806Y-92018115D01*
X74768979Y-92046284D01*
X74757084Y-92066207D01*
X74757021Y-92067204D01*
X74527855Y-92067204D01*
X74547350Y-92023973D01*
X74593949Y-91948378D01*
X74663993Y-91873414D01*
X74754041Y-91802411D01*
X74781820Y-91784888D01*
X74817819Y-91762180D01*
X74939415Y-91691754D01*
X74941197Y-91657714D01*
X75980410Y-91657714D01*
X76002512Y-91666452D01*
X76045905Y-91673719D01*
X76104888Y-91679256D01*
X76173757Y-91682804D01*
X76246810Y-91684104D01*
X76318345Y-91682896D01*
X76382659Y-91678921D01*
X76401941Y-91676884D01*
X76449930Y-91669734D01*
X76471976Y-91663141D01*
X76469156Y-91657293D01*
X76442547Y-91652378D01*
X76393224Y-91648585D01*
X76322265Y-91646101D01*
X76230746Y-91645115D01*
X76220223Y-91645107D01*
X76129400Y-91645742D01*
X76058324Y-91647581D01*
X76008961Y-91650519D01*
X75983277Y-91654453D01*
X75980410Y-91657714D01*
X74941197Y-91657714D01*
X74943467Y-91614388D01*
X74947519Y-91537021D01*
X75144637Y-91537021D01*
X75223969Y-91537466D01*
X75280458Y-91539080D01*
X75318273Y-91542281D01*
X75341581Y-91547489D01*
X75354552Y-91555123D01*
X75357388Y-91558401D01*
X75365750Y-91566649D01*
X75379234Y-91571452D01*
X75402291Y-91572782D01*
X75439370Y-91570609D01*
X75494921Y-91564905D01*
X75561537Y-91557070D01*
X75629753Y-91548547D01*
X75687758Y-91540721D01*
X75730573Y-91534307D01*
X75753220Y-91530022D01*
X75755442Y-91529177D01*
X75759834Y-91513334D01*
X75762197Y-91486597D01*
X75763564Y-91449202D01*
X76689042Y-91442092D01*
X76689042Y-91562127D01*
X76759973Y-91576187D01*
X76807176Y-91585314D01*
X76869417Y-91597042D01*
X76935141Y-91609200D01*
X76951765Y-91612234D01*
X77085585Y-91643356D01*
X77217696Y-91686591D01*
X77338228Y-91738452D01*
X77395539Y-91769113D01*
X77487302Y-91822598D01*
X77556942Y-91787895D01*
X77642104Y-91758793D01*
X77726715Y-91756699D01*
X77810183Y-91781252D01*
X77886496Y-91827109D01*
X77938318Y-91884361D01*
X77965680Y-91953060D01*
X77969031Y-92029164D01*
X77962529Y-92097713D01*
X78387433Y-91666108D01*
X78812338Y-91234503D01*
X78878203Y-91308076D01*
X78909879Y-91345097D01*
X78932383Y-91374557D01*
X78941358Y-91390700D01*
X78941317Y-91391480D01*
X78931517Y-91402638D01*
X78904361Y-91431105D01*
X78861609Y-91475091D01*
X78805022Y-91532808D01*
X78736361Y-91602469D01*
X78657387Y-91682283D01*
X78569860Y-91770464D01*
X78475541Y-91865222D01*
X78426367Y-91914526D01*
X78314591Y-92026568D01*
X78220525Y-92121048D01*
X78142773Y-92199512D01*
X78079939Y-92263507D01*
X78030626Y-92314577D01*
X77993438Y-92354270D01*
X77966980Y-92384129D01*
X77949853Y-92405703D01*
X77940663Y-92420535D01*
X77938013Y-92430172D01*
X77940507Y-92436161D01*
X77946748Y-92440046D01*
X77950362Y-92441502D01*
X77986554Y-92455262D01*
X77979308Y-93097500D01*
X77767319Y-93101217D01*
X77686410Y-93102933D01*
X77628556Y-93105120D01*
X77589793Y-93108268D01*
X77566156Y-93112866D01*
X77553678Y-93119404D01*
X77548434Y-93128238D01*
X77546840Y-93134707D01*
X77545129Y-93144524D01*
X77543174Y-93159317D01*
X77540844Y-93180713D01*
X77538012Y-93210339D01*
X77534547Y-93249823D01*
X77530321Y-93300792D01*
X77525205Y-93364873D01*
X77519070Y-93443693D01*
X77511788Y-93538879D01*
X77503228Y-93652060D01*
X77493263Y-93784862D01*
X77481763Y-93938912D01*
X77468599Y-94115837D01*
X77453642Y-94317265D01*
X77445406Y-94428298D01*
X77433849Y-94583558D01*
X77422686Y-94732437D01*
X77412108Y-94872486D01*
X77402301Y-95001259D01*
X77393455Y-95116309D01*
X77385759Y-95215188D01*
X77379400Y-95295449D01*
X77374567Y-95354646D01*
X77371450Y-95390330D01*
X77370719Y-95397526D01*
X77362670Y-95468297D01*
X77494758Y-95606941D01*
X77527765Y-95641404D01*
X77577541Y-95693125D01*
X77642027Y-95759974D01*
X77719167Y-95839826D01*
X77806902Y-95930553D01*
X77903176Y-96030026D01*
X78005932Y-96136120D01*
X78113111Y-96246705D01*
X78222656Y-96359656D01*
X78234178Y-96371531D01*
X78841510Y-96997477D01*
X78704459Y-97134528D01*
X78227043Y-96649338D01*
X78128567Y-96549268D01*
X78031701Y-96450852D01*
X77938923Y-96356606D01*
X77852710Y-96269045D01*
X77775537Y-96190684D01*
X77709882Y-96124039D01*
X77658221Y-96071624D01*
X77623032Y-96035954D01*
X77623009Y-96035931D01*
X77579776Y-95993081D01*
X77547123Y-95962570D01*
X77527475Y-95946502D01*
X77523253Y-95946978D01*
X77526180Y-95951907D01*
X77563331Y-96022483D01*
X77593270Y-96109645D01*
X77612848Y-96203262D01*
X77617487Y-96245448D01*
X77614096Y-96366214D01*
X77586966Y-96479008D01*
X77538698Y-96581447D01*
X77471893Y-96671149D01*
X77389152Y-96745731D01*
X77293074Y-96802809D01*
X77186261Y-96840000D01*
X77071313Y-96854921D01*
X76961056Y-96847006D01*
X76847573Y-96817190D01*
X76743934Y-96769135D01*
X76654476Y-96705745D01*
X76583537Y-96629926D01*
X76546354Y-96569254D01*
X76510233Y-96495426D01*
X75449331Y-96495426D01*
X75439537Y-96691330D01*
X75429744Y-96887234D01*
X75054255Y-96887234D01*
X75054255Y-96508267D01*
X75020479Y-96495426D01*
X74995171Y-96477768D01*
X74986436Y-96458606D01*
X74984994Y-96430114D01*
X74981295Y-96380831D01*
X74975715Y-96314608D01*
X74968633Y-96235296D01*
X74960426Y-96146747D01*
X74951473Y-96052812D01*
X74942151Y-95957342D01*
X74932837Y-95864189D01*
X74923910Y-95777204D01*
X74915747Y-95700239D01*
X74908727Y-95637145D01*
X74903226Y-95591774D01*
X74899623Y-95567976D01*
X74898820Y-95565380D01*
X74886661Y-95571027D01*
X74860320Y-95592973D01*
X74823865Y-95627590D01*
X74787596Y-95664652D01*
X74743834Y-95710467D01*
X74686626Y-95769983D01*
X74621404Y-95837567D01*
X74553603Y-95907587D01*
X74500978Y-95961755D01*
X74452201Y-96011946D01*
X74387638Y-96078485D01*
X74310276Y-96158289D01*
X74223103Y-96248273D01*
X74129108Y-96345352D01*
X74031278Y-96446441D01*
X73932601Y-96548456D01*
X73872840Y-96610266D01*
X73780531Y-96705746D01*
X73691743Y-96797567D01*
X73608703Y-96883428D01*
X73533637Y-96961026D01*
X73468772Y-97028059D01*
X73416337Y-97082226D01*
X73378558Y-97121223D01*
X73359619Y-97140741D01*
X73290459Y-97211853D01*
X73223616Y-97143990D01*
X73156773Y-97076126D01*
X73286297Y-96944526D01*
X73316582Y-96913531D01*
X73363820Y-96864888D01*
X73426239Y-96800432D01*
X73502067Y-96722000D01*
X73589533Y-96631424D01*
X73686866Y-96530542D01*
X73792295Y-96421188D01*
X73904048Y-96305197D01*
X74020354Y-96184404D01*
X74139442Y-96060645D01*
X74148038Y-96051708D01*
X74785215Y-95389296D01*
X75094817Y-95389296D01*
X75096136Y-95413906D01*
X75099738Y-95459598D01*
X75105126Y-95520576D01*
X75111801Y-95591044D01*
X75114385Y-95617234D01*
X75122938Y-95703853D01*
X75132913Y-95806234D01*
X75143232Y-95913233D01*
X75152817Y-96013705D01*
X75155458Y-96041656D01*
X75162959Y-96117716D01*
X75170167Y-96184409D01*
X75176526Y-96237069D01*
X75181483Y-96271030D01*
X75183975Y-96281469D01*
X75198484Y-96283745D01*
X75237345Y-96285868D01*
X75297887Y-96287790D01*
X75377440Y-96289466D01*
X75473333Y-96290848D01*
X75582898Y-96291890D01*
X75703463Y-96292545D01*
X75829280Y-96292766D01*
X76467603Y-96292766D01*
X76470519Y-96275407D01*
X76734850Y-96275407D01*
X76743626Y-96362574D01*
X76760833Y-96413582D01*
X76789144Y-96458231D01*
X76824735Y-96497299D01*
X76876268Y-96542310D01*
X76927377Y-96570150D01*
X76987264Y-96584462D01*
X77055665Y-96588782D01*
X77116504Y-96584843D01*
X77171084Y-96568082D01*
X77202725Y-96552846D01*
X77268515Y-96504301D01*
X77317626Y-96439591D01*
X77349000Y-96364143D01*
X77361581Y-96283387D01*
X77354311Y-96202748D01*
X77326133Y-96127657D01*
X77294354Y-96082378D01*
X77228662Y-96025835D01*
X77151322Y-95988699D01*
X77067902Y-95971490D01*
X76983971Y-95974730D01*
X76905097Y-95998940D01*
X76841984Y-96040010D01*
X76785629Y-96106710D01*
X76749286Y-96187245D01*
X76734850Y-96275407D01*
X76470519Y-96275407D01*
X76484616Y-96191517D01*
X76518138Y-96064319D01*
X76572257Y-95952590D01*
X76645037Y-95858028D01*
X76734541Y-95782328D01*
X76838834Y-95727187D01*
X76955980Y-95694301D01*
X77062659Y-95685118D01*
X77145796Y-95684787D01*
X77151353Y-95613857D01*
X77156910Y-95542926D01*
X76953375Y-95333604D01*
X76881997Y-95260252D01*
X76797921Y-95173941D01*
X76707346Y-95081029D01*
X76616470Y-94987874D01*
X76531491Y-94900831D01*
X76505515Y-94874243D01*
X76432184Y-94799074D01*
X76358584Y-94723408D01*
X76288871Y-94651534D01*
X76227202Y-94587743D01*
X76177737Y-94536326D01*
X76155207Y-94512739D01*
X76111682Y-94468332D01*
X76073908Y-94432322D01*
X76046225Y-94408685D01*
X76033590Y-94401277D01*
X76020777Y-94410674D01*
X75991630Y-94437341D01*
X75948466Y-94478993D01*
X75893600Y-94533345D01*
X75829346Y-94598112D01*
X75758020Y-94671009D01*
X75708494Y-94722154D01*
X75625254Y-94808446D01*
X75540219Y-94896560D01*
X75457268Y-94982482D01*
X75380277Y-95062198D01*
X75313122Y-95131693D01*
X75259682Y-95186952D01*
X75246910Y-95200147D01*
X75181785Y-95269016D01*
X75135675Y-95321639D01*
X75107300Y-95359608D01*
X75095381Y-95384515D01*
X75094817Y-95389296D01*
X74785215Y-95389296D01*
X74880257Y-95290491D01*
X74871516Y-95180272D01*
G37*
X74871516Y-95180272D02*
X74863812Y-95085809D01*
X74853825Y-94967659D01*
X74841846Y-94829030D01*
X74828165Y-94673136D01*
X74813072Y-94503184D01*
X74796857Y-94322388D01*
X74779809Y-94133956D01*
X74762220Y-93941100D01*
X74744379Y-93747030D01*
X74726577Y-93554956D01*
X74709102Y-93368090D01*
X74699792Y-93269525D01*
X74908391Y-93269525D01*
X74908972Y-93285552D01*
X74911762Y-93325731D01*
X74916521Y-93387308D01*
X74923005Y-93467523D01*
X74930974Y-93563621D01*
X74940186Y-93672845D01*
X74950400Y-93792437D01*
X74961373Y-93919641D01*
X74972865Y-94051701D01*
X74984633Y-94185859D01*
X74996436Y-94319358D01*
X75008032Y-94449442D01*
X75019180Y-94573354D01*
X75029639Y-94688336D01*
X75039166Y-94791633D01*
X75047520Y-94880487D01*
X75054459Y-94952141D01*
X75059743Y-95003839D01*
X75062516Y-95028199D01*
X75070867Y-95094430D01*
X75315379Y-94839050D01*
X75392509Y-94758885D01*
X75473985Y-94674888D01*
X75554719Y-94592257D01*
X75629619Y-94516194D01*
X75693596Y-94451898D01*
X75720241Y-94425449D01*
X75773341Y-94371700D01*
X75818469Y-94323424D01*
X75852515Y-94284163D01*
X75872365Y-94257461D01*
X75876063Y-94248139D01*
X76177040Y-94248139D01*
X76435070Y-94517234D01*
X76569356Y-94657284D01*
X76686161Y-94779073D01*
X76786718Y-94883831D01*
X76872260Y-94972789D01*
X76944020Y-95047178D01*
X77003233Y-95108227D01*
X77051132Y-95157167D01*
X77088950Y-95195227D01*
X77117921Y-95223639D01*
X77139278Y-95243632D01*
X77154255Y-95256437D01*
X77164085Y-95263283D01*
X77170002Y-95265402D01*
X77173239Y-95264023D01*
X77175029Y-95260377D01*
X77176298Y-95256518D01*
X77180465Y-95233931D01*
X77185278Y-95190661D01*
X77190130Y-95133016D01*
X77194258Y-95070053D01*
X77198670Y-94998533D01*
X77203529Y-94929456D01*
X77208194Y-94871494D01*
X77211456Y-94838048D01*
X77219430Y-94768169D01*
X77164303Y-94775563D01*
X77125770Y-94777719D01*
X77098132Y-94767957D01*
X77067993Y-94741773D01*
X77042075Y-94708721D01*
X77027784Y-94676630D01*
X77026808Y-94668780D01*
X77038572Y-94623554D01*
X77069020Y-94584558D01*
X77110887Y-94557110D01*
X77156906Y-94546526D01*
X77186848Y-94551668D01*
X77213330Y-94559078D01*
X77225416Y-94558449D01*
X77227120Y-94556070D01*
X77228789Y-94550981D01*
X77230635Y-94540885D01*
X77232865Y-94523483D01*
X77235692Y-94496478D01*
X77239324Y-94457571D01*
X77243973Y-94404465D01*
X77249847Y-94334861D01*
X77257156Y-94246461D01*
X77266112Y-94136967D01*
X77276924Y-94004081D01*
X77283620Y-93921649D01*
X77293282Y-93801176D01*
X77302633Y-93681805D01*
X77311335Y-93568054D01*
X77319050Y-93464443D01*
X77325441Y-93375492D01*
X77330169Y-93305719D01*
X77332341Y-93270107D01*
X77335899Y-93197901D01*
X77336128Y-93144655D01*
X77331047Y-93110462D01*
X77318677Y-93095420D01*
X77297036Y-93099621D01*
X77264145Y-93123163D01*
X77218023Y-93166141D01*
X77156689Y-93228649D01*
X77106613Y-93280965D01*
X77041153Y-93350166D01*
X76992446Y-93403374D01*
X76958085Y-93443651D01*
X76935663Y-93474057D01*
X76922773Y-93497653D01*
X76917008Y-93517500D01*
X76916331Y-93522928D01*
X76910793Y-93554142D01*
X76896222Y-93569610D01*
X76864050Y-93577770D01*
X76859936Y-93578444D01*
X76843177Y-93582650D01*
X76824810Y-93591268D01*
X76802500Y-93606390D01*
X76773914Y-93630108D01*
X76736715Y-93664512D01*
X76688569Y-93711694D01*
X76627141Y-93773745D01*
X76550096Y-93852757D01*
X76526290Y-93877294D01*
X76453570Y-93952474D01*
X76385522Y-94023156D01*
X76324836Y-94086518D01*
X76274206Y-94139738D01*
X76236325Y-94179992D01*
X76213884Y-94204459D01*
X76210858Y-94207949D01*
X76177040Y-94248139D01*
X75876063Y-94248139D01*
X75876119Y-94247998D01*
X75865793Y-94233382D01*
X75838935Y-94202559D01*
X75797691Y-94157697D01*
X75744205Y-94100964D01*
X75680621Y-94034530D01*
X75609084Y-93960561D01*
X75531738Y-93881227D01*
X75450728Y-93798696D01*
X75368198Y-93715136D01*
X75286293Y-93632714D01*
X75207157Y-93553601D01*
X75132935Y-93479963D01*
X75065771Y-93413970D01*
X75007809Y-93357789D01*
X74961195Y-93313589D01*
X74928073Y-93283537D01*
X74910587Y-93269804D01*
X74908391Y-93269525D01*
X74699792Y-93269525D01*
X74692246Y-93189642D01*
X74681637Y-93078420D01*
X74673337Y-92991786D01*
X74536419Y-92848739D01*
X74485585Y-92795855D01*
X74420875Y-92728877D01*
X74347331Y-92653006D01*
X74269995Y-92573439D01*
X74193910Y-92495377D01*
X74168394Y-92469255D01*
X74086161Y-92385055D01*
X73992296Y-92288824D01*
X73893978Y-92187932D01*
X73798385Y-92089745D01*
X73712698Y-92001633D01*
X73701034Y-91989628D01*
X73620374Y-91906620D01*
X73531438Y-91815128D01*
X73440617Y-91721725D01*
X73354302Y-91632985D01*
X73278885Y-91555480D01*
X73263108Y-91539272D01*
X73203390Y-91477668D01*
X73150365Y-91422474D01*
X73106837Y-91376649D01*
X73075611Y-91343154D01*
X73059492Y-91324949D01*
X73057931Y-91322719D01*
X73065055Y-91309258D01*
X73087101Y-91282936D01*
X73119318Y-91249415D01*
X73119773Y-91248967D01*
X73185119Y-91184603D01*
X73413756Y-91416479D01*
X73478329Y-91482053D01*
X73536964Y-91541762D01*
X73586861Y-91592742D01*
X73625221Y-91632129D01*
X73649246Y-91657059D01*
X73655904Y-91664220D01*
X73668706Y-91677887D01*
X73697717Y-91708111D01*
X73740258Y-91752124D01*
X73793651Y-91807160D01*
X73855217Y-91870453D01*
X73912709Y-91929431D01*
X73997113Y-92015958D01*
X74092221Y-92113500D01*
X74191046Y-92214886D01*
X74286596Y-92312946D01*
X74371884Y-92400508D01*
X74389491Y-92418591D01*
X74453742Y-92484471D01*
X74511458Y-92543436D01*
X74560067Y-92592876D01*
X74596997Y-92630183D01*
X74619679Y-92652746D01*
X74625824Y-92658432D01*
X74626610Y-92645848D01*
X74626564Y-92611705D01*
X74625738Y-92561450D01*
X74624450Y-92509815D01*
X74621026Y-92389231D01*
X74824574Y-92389231D01*
X74826094Y-92433765D01*
X74830258Y-92494028D01*
X74836479Y-92564824D01*
X74844166Y-92640954D01*
X74852729Y-92717224D01*
X74861579Y-92788436D01*
X74870127Y-92849393D01*
X74877783Y-92894899D01*
X74883956Y-92919757D01*
X74885006Y-92921862D01*
X74897860Y-92936786D01*
X74927711Y-92968940D01*
X74972606Y-93016292D01*
X75030590Y-93076810D01*
X75099710Y-93148462D01*
X75178013Y-93229216D01*
X75263544Y-93317040D01*
X75346684Y-93402076D01*
X75441382Y-93498784D01*
X75534253Y-93593677D01*
X75622758Y-93684158D01*
X75704358Y-93767628D01*
X75776512Y-93841489D01*
X75836683Y-93903143D01*
X75882329Y-93949991D01*
X75904996Y-93973323D01*
X75950410Y-94018559D01*
X75990145Y-94055131D01*
X76019997Y-94079372D01*
X76035760Y-94087614D01*
X76035966Y-94087577D01*
X76049489Y-94077155D01*
X76078943Y-94049793D01*
X76121648Y-94008140D01*
X76174921Y-93954845D01*
X76236080Y-93892556D01*
X76292924Y-93833830D01*
X76533323Y-93583883D01*
X76141688Y-93577128D01*
X75750053Y-93570372D01*
X75746305Y-93377846D01*
X75742556Y-93185319D01*
X76886493Y-93185319D01*
X77061358Y-93022567D01*
X77134758Y-92954590D01*
X77191218Y-92901905D01*
X77205764Y-92887550D01*
X77499681Y-92887550D01*
X77512742Y-92894356D01*
X77550254Y-92899051D01*
X77609711Y-92901382D01*
X77639033Y-92901596D01*
X77778386Y-92901596D01*
X77781807Y-92773245D01*
X77782950Y-92713468D01*
X77781969Y-92675741D01*
X77778048Y-92655124D01*
X77770372Y-92646679D01*
X77760673Y-92645372D01*
X77729353Y-92652571D01*
X77708570Y-92662261D01*
X77686628Y-92679621D01*
X77654212Y-92710278D01*
X77616051Y-92749130D01*
X77576876Y-92791076D01*
X77541415Y-92831016D01*
X77514399Y-92863848D01*
X77500557Y-92884471D01*
X77499681Y-92887550D01*
X77205764Y-92887550D01*
X77232940Y-92860731D01*
X77262127Y-92827289D01*
X77280982Y-92797800D01*
X77291707Y-92768483D01*
X77296506Y-92735560D01*
X77297580Y-92695251D01*
X77297133Y-92643776D01*
X77297021Y-92618193D01*
X77297021Y-92444382D01*
X77471285Y-92439930D01*
X77545444Y-92437511D01*
X77597592Y-92434193D01*
X77632742Y-92429230D01*
X77655902Y-92421875D01*
X77672085Y-92411381D01*
X77673944Y-92409741D01*
X77694680Y-92387310D01*
X77702340Y-92372587D01*
X77689122Y-92371042D01*
X77650635Y-92369559D01*
X77588632Y-92368151D01*
X77504866Y-92366832D01*
X77401090Y-92365617D01*
X77279057Y-92364519D01*
X77140519Y-92363552D01*
X76987228Y-92362730D01*
X76820939Y-92362067D01*
X76643403Y-92361577D01*
X76456373Y-92361273D01*
X76263457Y-92361170D01*
X74824574Y-92361170D01*
X74824574Y-92389231D01*
X74621026Y-92389231D01*
X74620229Y-92361170D01*
X74351702Y-92361170D01*
X74351702Y-92111224D01*
X77945532Y-92111224D01*
X77952287Y-92117979D01*
X77959043Y-92111224D01*
X77952287Y-92104468D01*
X77945532Y-92111224D01*
X74351702Y-92111224D01*
X74351702Y-92077447D01*
X74523237Y-92077447D01*
X75365000Y-92077447D01*
X76391808Y-92077447D01*
X76582784Y-92077425D01*
X76748523Y-92077332D01*
X76890810Y-92077125D01*
X77011428Y-92076760D01*
X77112163Y-92076195D01*
X77194799Y-92075387D01*
X77261121Y-92074294D01*
X77312912Y-92072871D01*
X77351957Y-92071077D01*
X77380041Y-92068869D01*
X77398948Y-92066203D01*
X77410462Y-92063036D01*
X77416369Y-92059327D01*
X77418451Y-92055032D01*
X77418617Y-92052781D01*
X77405772Y-92020205D01*
X77369162Y-91984605D01*
X77311674Y-91947403D01*
X77236197Y-91910022D01*
X77145618Y-91873884D01*
X77042824Y-91840413D01*
X76930704Y-91811030D01*
X76925479Y-91809825D01*
X76864118Y-91796660D01*
X76806029Y-91785741D01*
X76760952Y-91778852D01*
X76749840Y-91777705D01*
X76715114Y-91776456D01*
X76698891Y-91783850D01*
X76692815Y-91805574D01*
X76691564Y-91817367D01*
X76687330Y-91861277D01*
X75756808Y-91861277D01*
X75756808Y-91735774D01*
X75665817Y-91744270D01*
X75603966Y-91750945D01*
X75531832Y-91760026D01*
X75469913Y-91768828D01*
X75365000Y-91784888D01*
X75365000Y-92077447D01*
X74523237Y-92077447D01*
X74527855Y-92067204D01*
X74757021Y-92067204D01*
X74769341Y-92072407D01*
X74801678Y-92075107D01*
X74847096Y-92074735D01*
X74848218Y-92074687D01*
X74939415Y-92070692D01*
X74943499Y-91999761D01*
X74943463Y-91954730D01*
X74937382Y-91931378D01*
X74932890Y-91928830D01*
X74908607Y-91937057D01*
X74873348Y-91958208D01*
X74833838Y-91986992D01*
X74796806Y-92018115D01*
X74768979Y-92046284D01*
X74757084Y-92066207D01*
X74757021Y-92067204D01*
X74527855Y-92067204D01*
X74547350Y-92023973D01*
X74593949Y-91948378D01*
X74663993Y-91873414D01*
X74754041Y-91802411D01*
X74781820Y-91784888D01*
X74817819Y-91762180D01*
X74939415Y-91691754D01*
X74941197Y-91657714D01*
X75980410Y-91657714D01*
X76002512Y-91666452D01*
X76045905Y-91673719D01*
X76104888Y-91679256D01*
X76173757Y-91682804D01*
X76246810Y-91684104D01*
X76318345Y-91682896D01*
X76382659Y-91678921D01*
X76401941Y-91676884D01*
X76449930Y-91669734D01*
X76471976Y-91663141D01*
X76469156Y-91657293D01*
X76442547Y-91652378D01*
X76393224Y-91648585D01*
X76322265Y-91646101D01*
X76230746Y-91645115D01*
X76220223Y-91645107D01*
X76129400Y-91645742D01*
X76058324Y-91647581D01*
X76008961Y-91650519D01*
X75983277Y-91654453D01*
X75980410Y-91657714D01*
X74941197Y-91657714D01*
X74943467Y-91614388D01*
X74947519Y-91537021D01*
X75144637Y-91537021D01*
X75223969Y-91537466D01*
X75280458Y-91539080D01*
X75318273Y-91542281D01*
X75341581Y-91547489D01*
X75354552Y-91555123D01*
X75357388Y-91558401D01*
X75365750Y-91566649D01*
X75379234Y-91571452D01*
X75402291Y-91572782D01*
X75439370Y-91570609D01*
X75494921Y-91564905D01*
X75561537Y-91557070D01*
X75629753Y-91548547D01*
X75687758Y-91540721D01*
X75730573Y-91534307D01*
X75753220Y-91530022D01*
X75755442Y-91529177D01*
X75759834Y-91513334D01*
X75762197Y-91486597D01*
X75763564Y-91449202D01*
X76689042Y-91442092D01*
X76689042Y-91562127D01*
X76759973Y-91576187D01*
X76807176Y-91585314D01*
X76869417Y-91597042D01*
X76935141Y-91609200D01*
X76951765Y-91612234D01*
X77085585Y-91643356D01*
X77217696Y-91686591D01*
X77338228Y-91738452D01*
X77395539Y-91769113D01*
X77487302Y-91822598D01*
X77556942Y-91787895D01*
X77642104Y-91758793D01*
X77726715Y-91756699D01*
X77810183Y-91781252D01*
X77886496Y-91827109D01*
X77938318Y-91884361D01*
X77965680Y-91953060D01*
X77969031Y-92029164D01*
X77962529Y-92097713D01*
X78387433Y-91666108D01*
X78812338Y-91234503D01*
X78878203Y-91308076D01*
X78909879Y-91345097D01*
X78932383Y-91374557D01*
X78941358Y-91390700D01*
X78941317Y-91391480D01*
X78931517Y-91402638D01*
X78904361Y-91431105D01*
X78861609Y-91475091D01*
X78805022Y-91532808D01*
X78736361Y-91602469D01*
X78657387Y-91682283D01*
X78569860Y-91770464D01*
X78475541Y-91865222D01*
X78426367Y-91914526D01*
X78314591Y-92026568D01*
X78220525Y-92121048D01*
X78142773Y-92199512D01*
X78079939Y-92263507D01*
X78030626Y-92314577D01*
X77993438Y-92354270D01*
X77966980Y-92384129D01*
X77949853Y-92405703D01*
X77940663Y-92420535D01*
X77938013Y-92430172D01*
X77940507Y-92436161D01*
X77946748Y-92440046D01*
X77950362Y-92441502D01*
X77986554Y-92455262D01*
X77979308Y-93097500D01*
X77767319Y-93101217D01*
X77686410Y-93102933D01*
X77628556Y-93105120D01*
X77589793Y-93108268D01*
X77566156Y-93112866D01*
X77553678Y-93119404D01*
X77548434Y-93128238D01*
X77546840Y-93134707D01*
X77545129Y-93144524D01*
X77543174Y-93159317D01*
X77540844Y-93180713D01*
X77538012Y-93210339D01*
X77534547Y-93249823D01*
X77530321Y-93300792D01*
X77525205Y-93364873D01*
X77519070Y-93443693D01*
X77511788Y-93538879D01*
X77503228Y-93652060D01*
X77493263Y-93784862D01*
X77481763Y-93938912D01*
X77468599Y-94115837D01*
X77453642Y-94317265D01*
X77445406Y-94428298D01*
X77433849Y-94583558D01*
X77422686Y-94732437D01*
X77412108Y-94872486D01*
X77402301Y-95001259D01*
X77393455Y-95116309D01*
X77385759Y-95215188D01*
X77379400Y-95295449D01*
X77374567Y-95354646D01*
X77371450Y-95390330D01*
X77370719Y-95397526D01*
X77362670Y-95468297D01*
X77494758Y-95606941D01*
X77527765Y-95641404D01*
X77577541Y-95693125D01*
X77642027Y-95759974D01*
X77719167Y-95839826D01*
X77806902Y-95930553D01*
X77903176Y-96030026D01*
X78005932Y-96136120D01*
X78113111Y-96246705D01*
X78222656Y-96359656D01*
X78234178Y-96371531D01*
X78841510Y-96997477D01*
X78704459Y-97134528D01*
X78227043Y-96649338D01*
X78128567Y-96549268D01*
X78031701Y-96450852D01*
X77938923Y-96356606D01*
X77852710Y-96269045D01*
X77775537Y-96190684D01*
X77709882Y-96124039D01*
X77658221Y-96071624D01*
X77623032Y-96035954D01*
X77623009Y-96035931D01*
X77579776Y-95993081D01*
X77547123Y-95962570D01*
X77527475Y-95946502D01*
X77523253Y-95946978D01*
X77526180Y-95951907D01*
X77563331Y-96022483D01*
X77593270Y-96109645D01*
X77612848Y-96203262D01*
X77617487Y-96245448D01*
X77614096Y-96366214D01*
X77586966Y-96479008D01*
X77538698Y-96581447D01*
X77471893Y-96671149D01*
X77389152Y-96745731D01*
X77293074Y-96802809D01*
X77186261Y-96840000D01*
X77071313Y-96854921D01*
X76961056Y-96847006D01*
X76847573Y-96817190D01*
X76743934Y-96769135D01*
X76654476Y-96705745D01*
X76583537Y-96629926D01*
X76546354Y-96569254D01*
X76510233Y-96495426D01*
X75449331Y-96495426D01*
X75439537Y-96691330D01*
X75429744Y-96887234D01*
X75054255Y-96887234D01*
X75054255Y-96508267D01*
X75020479Y-96495426D01*
X74995171Y-96477768D01*
X74986436Y-96458606D01*
X74984994Y-96430114D01*
X74981295Y-96380831D01*
X74975715Y-96314608D01*
X74968633Y-96235296D01*
X74960426Y-96146747D01*
X74951473Y-96052812D01*
X74942151Y-95957342D01*
X74932837Y-95864189D01*
X74923910Y-95777204D01*
X74915747Y-95700239D01*
X74908727Y-95637145D01*
X74903226Y-95591774D01*
X74899623Y-95567976D01*
X74898820Y-95565380D01*
X74886661Y-95571027D01*
X74860320Y-95592973D01*
X74823865Y-95627590D01*
X74787596Y-95664652D01*
X74743834Y-95710467D01*
X74686626Y-95769983D01*
X74621404Y-95837567D01*
X74553603Y-95907587D01*
X74500978Y-95961755D01*
X74452201Y-96011946D01*
X74387638Y-96078485D01*
X74310276Y-96158289D01*
X74223103Y-96248273D01*
X74129108Y-96345352D01*
X74031278Y-96446441D01*
X73932601Y-96548456D01*
X73872840Y-96610266D01*
X73780531Y-96705746D01*
X73691743Y-96797567D01*
X73608703Y-96883428D01*
X73533637Y-96961026D01*
X73468772Y-97028059D01*
X73416337Y-97082226D01*
X73378558Y-97121223D01*
X73359619Y-97140741D01*
X73290459Y-97211853D01*
X73223616Y-97143990D01*
X73156773Y-97076126D01*
X73286297Y-96944526D01*
X73316582Y-96913531D01*
X73363820Y-96864888D01*
X73426239Y-96800432D01*
X73502067Y-96722000D01*
X73589533Y-96631424D01*
X73686866Y-96530542D01*
X73792295Y-96421188D01*
X73904048Y-96305197D01*
X74020354Y-96184404D01*
X74139442Y-96060645D01*
X74148038Y-96051708D01*
X74785215Y-95389296D01*
X75094817Y-95389296D01*
X75096136Y-95413906D01*
X75099738Y-95459598D01*
X75105126Y-95520576D01*
X75111801Y-95591044D01*
X75114385Y-95617234D01*
X75122938Y-95703853D01*
X75132913Y-95806234D01*
X75143232Y-95913233D01*
X75152817Y-96013705D01*
X75155458Y-96041656D01*
X75162959Y-96117716D01*
X75170167Y-96184409D01*
X75176526Y-96237069D01*
X75181483Y-96271030D01*
X75183975Y-96281469D01*
X75198484Y-96283745D01*
X75237345Y-96285868D01*
X75297887Y-96287790D01*
X75377440Y-96289466D01*
X75473333Y-96290848D01*
X75582898Y-96291890D01*
X75703463Y-96292545D01*
X75829280Y-96292766D01*
X76467603Y-96292766D01*
X76470519Y-96275407D01*
X76734850Y-96275407D01*
X76743626Y-96362574D01*
X76760833Y-96413582D01*
X76789144Y-96458231D01*
X76824735Y-96497299D01*
X76876268Y-96542310D01*
X76927377Y-96570150D01*
X76987264Y-96584462D01*
X77055665Y-96588782D01*
X77116504Y-96584843D01*
X77171084Y-96568082D01*
X77202725Y-96552846D01*
X77268515Y-96504301D01*
X77317626Y-96439591D01*
X77349000Y-96364143D01*
X77361581Y-96283387D01*
X77354311Y-96202748D01*
X77326133Y-96127657D01*
X77294354Y-96082378D01*
X77228662Y-96025835D01*
X77151322Y-95988699D01*
X77067902Y-95971490D01*
X76983971Y-95974730D01*
X76905097Y-95998940D01*
X76841984Y-96040010D01*
X76785629Y-96106710D01*
X76749286Y-96187245D01*
X76734850Y-96275407D01*
X76470519Y-96275407D01*
X76484616Y-96191517D01*
X76518138Y-96064319D01*
X76572257Y-95952590D01*
X76645037Y-95858028D01*
X76734541Y-95782328D01*
X76838834Y-95727187D01*
X76955980Y-95694301D01*
X77062659Y-95685118D01*
X77145796Y-95684787D01*
X77151353Y-95613857D01*
X77156910Y-95542926D01*
X76953375Y-95333604D01*
X76881997Y-95260252D01*
X76797921Y-95173941D01*
X76707346Y-95081029D01*
X76616470Y-94987874D01*
X76531491Y-94900831D01*
X76505515Y-94874243D01*
X76432184Y-94799074D01*
X76358584Y-94723408D01*
X76288871Y-94651534D01*
X76227202Y-94587743D01*
X76177737Y-94536326D01*
X76155207Y-94512739D01*
X76111682Y-94468332D01*
X76073908Y-94432322D01*
X76046225Y-94408685D01*
X76033590Y-94401277D01*
X76020777Y-94410674D01*
X75991630Y-94437341D01*
X75948466Y-94478993D01*
X75893600Y-94533345D01*
X75829346Y-94598112D01*
X75758020Y-94671009D01*
X75708494Y-94722154D01*
X75625254Y-94808446D01*
X75540219Y-94896560D01*
X75457268Y-94982482D01*
X75380277Y-95062198D01*
X75313122Y-95131693D01*
X75259682Y-95186952D01*
X75246910Y-95200147D01*
X75181785Y-95269016D01*
X75135675Y-95321639D01*
X75107300Y-95359608D01*
X75095381Y-95384515D01*
X75094817Y-95389296D01*
X74785215Y-95389296D01*
X74880257Y-95290491D01*
X74871516Y-95180272D01*
D16*
X64780000Y-90000000D03*
X63000000Y-91780000D03*
X63000000Y-88220000D03*
X64260000Y-88740000D03*
X61740000Y-91260000D03*
X61220000Y-90000000D03*
D17*
X63000000Y-90000000D03*
D16*
X64260000Y-91260000D03*
X61740000Y-88740000D03*
X64260000Y-111260000D03*
X63000000Y-108220000D03*
X64780000Y-110000000D03*
X61740000Y-111260000D03*
X61220000Y-110000000D03*
X63000000Y-111780000D03*
X64260000Y-108740000D03*
D17*
X63000000Y-110000000D03*
D16*
X61740000Y-108740000D03*
X137000000Y-88220000D03*
X137000000Y-91780000D03*
X135220000Y-90000000D03*
X138780000Y-90000000D03*
X135740000Y-91260000D03*
X135740000Y-88740000D03*
X138260000Y-91260000D03*
X138260000Y-88740000D03*
D17*
X137000000Y-90000000D03*
D16*
X135740000Y-108740000D03*
X138260000Y-108740000D03*
D17*
X137000000Y-110000000D03*
D16*
X137000000Y-111780000D03*
X137000000Y-108220000D03*
X135740000Y-111260000D03*
X138260000Y-111260000D03*
X135220000Y-110000000D03*
X138780000Y-110000000D03*
M02*
