G04 #@! TF.GenerationSoftware,KiCad,Pcbnew,(6.0.1-0)*
G04 #@! TF.CreationDate,2022-01-26T00:07:15+08:00*
G04 #@! TF.ProjectId,parts,70617274-732e-46b6-9963-61645f706362,rev?*
G04 #@! TF.SameCoordinates,Original*
G04 #@! TF.FileFunction,Copper,L2,Bot*
G04 #@! TF.FilePolarity,Positive*
%FSLAX46Y46*%
G04 Gerber Fmt 4.6, Leading zero omitted, Abs format (unit mm)*
G04 Created by KiCad (PCBNEW (6.0.1-0)) date 2022-01-26 00:07:15*
%MOMM*%
%LPD*%
G01*
G04 APERTURE LIST*
%ADD10C,0.100000*%
%ADD11C,0.150000*%
%ADD12C,0.300000*%
%ADD13C,0.400000*%
G04 #@! TA.AperFunction,ComponentPad*
%ADD14C,0.600000*%
G04 #@! TD*
G04 #@! TA.AperFunction,ComponentPad*
%ADD15C,4.560000*%
G04 #@! TD*
G04 APERTURE END LIST*
D10*
D11*
X177002200Y-166007200D02*
X177002200Y-198007200D01*
X285002200Y-198007200D01*
X285002200Y-166007200D01*
X177002200Y-166007200D01*
D10*
D11*
X10000000Y-10000000D02*
X10000000Y-200007200D01*
X287002200Y-200007200D01*
X287002200Y-10000000D01*
X10000000Y-10000000D01*
D10*
D11*
X12000000Y-12000000D02*
X12000000Y-198007200D01*
X285002200Y-198007200D01*
X285002200Y-12000000D01*
X12000000Y-12000000D01*
D10*
D11*
X60000000Y-12000000D02*
X60000000Y-10000000D01*
D10*
D11*
X110000000Y-12000000D02*
X110000000Y-10000000D01*
D10*
D11*
X160000000Y-12000000D02*
X160000000Y-10000000D01*
D10*
D11*
X210000000Y-12000000D02*
X210000000Y-10000000D01*
D10*
D11*
X260000000Y-12000000D02*
X260000000Y-10000000D01*
D10*
D11*
X36065476Y-11588095D02*
X35322619Y-11588095D01*
X35694047Y-11588095D02*
X35694047Y-10288095D01*
X35570238Y-10473809D01*
X35446428Y-10597619D01*
X35322619Y-10659523D01*
D10*
D11*
X85322619Y-10411904D02*
X85384523Y-10350000D01*
X85508333Y-10288095D01*
X85817857Y-10288095D01*
X85941666Y-10350000D01*
X86003571Y-10411904D01*
X86065476Y-10535714D01*
X86065476Y-10659523D01*
X86003571Y-10845238D01*
X85260714Y-11588095D01*
X86065476Y-11588095D01*
D10*
D11*
X135260714Y-10288095D02*
X136065476Y-10288095D01*
X135632142Y-10783333D01*
X135817857Y-10783333D01*
X135941666Y-10845238D01*
X136003571Y-10907142D01*
X136065476Y-11030952D01*
X136065476Y-11340476D01*
X136003571Y-11464285D01*
X135941666Y-11526190D01*
X135817857Y-11588095D01*
X135446428Y-11588095D01*
X135322619Y-11526190D01*
X135260714Y-11464285D01*
D10*
D11*
X185941666Y-10721428D02*
X185941666Y-11588095D01*
X185632142Y-10226190D02*
X185322619Y-11154761D01*
X186127380Y-11154761D01*
D10*
D11*
X236003571Y-10288095D02*
X235384523Y-10288095D01*
X235322619Y-10907142D01*
X235384523Y-10845238D01*
X235508333Y-10783333D01*
X235817857Y-10783333D01*
X235941666Y-10845238D01*
X236003571Y-10907142D01*
X236065476Y-11030952D01*
X236065476Y-11340476D01*
X236003571Y-11464285D01*
X235941666Y-11526190D01*
X235817857Y-11588095D01*
X235508333Y-11588095D01*
X235384523Y-11526190D01*
X235322619Y-11464285D01*
D10*
D11*
X285941666Y-10288095D02*
X285694047Y-10288095D01*
X285570238Y-10350000D01*
X285508333Y-10411904D01*
X285384523Y-10597619D01*
X285322619Y-10845238D01*
X285322619Y-11340476D01*
X285384523Y-11464285D01*
X285446428Y-11526190D01*
X285570238Y-11588095D01*
X285817857Y-11588095D01*
X285941666Y-11526190D01*
X286003571Y-11464285D01*
X286065476Y-11340476D01*
X286065476Y-11030952D01*
X286003571Y-10907142D01*
X285941666Y-10845238D01*
X285817857Y-10783333D01*
X285570238Y-10783333D01*
X285446428Y-10845238D01*
X285384523Y-10907142D01*
X285322619Y-11030952D01*
D10*
D11*
X60000000Y-198007200D02*
X60000000Y-200007200D01*
D10*
D11*
X110000000Y-198007200D02*
X110000000Y-200007200D01*
D10*
D11*
X160000000Y-198007200D02*
X160000000Y-200007200D01*
D10*
D11*
X210000000Y-198007200D02*
X210000000Y-200007200D01*
D10*
D11*
X260000000Y-198007200D02*
X260000000Y-200007200D01*
D10*
D11*
X36065476Y-199595295D02*
X35322619Y-199595295D01*
X35694047Y-199595295D02*
X35694047Y-198295295D01*
X35570238Y-198481009D01*
X35446428Y-198604819D01*
X35322619Y-198666723D01*
D10*
D11*
X85322619Y-198419104D02*
X85384523Y-198357200D01*
X85508333Y-198295295D01*
X85817857Y-198295295D01*
X85941666Y-198357200D01*
X86003571Y-198419104D01*
X86065476Y-198542914D01*
X86065476Y-198666723D01*
X86003571Y-198852438D01*
X85260714Y-199595295D01*
X86065476Y-199595295D01*
D10*
D11*
X135260714Y-198295295D02*
X136065476Y-198295295D01*
X135632142Y-198790533D01*
X135817857Y-198790533D01*
X135941666Y-198852438D01*
X136003571Y-198914342D01*
X136065476Y-199038152D01*
X136065476Y-199347676D01*
X136003571Y-199471485D01*
X135941666Y-199533390D01*
X135817857Y-199595295D01*
X135446428Y-199595295D01*
X135322619Y-199533390D01*
X135260714Y-199471485D01*
D10*
D11*
X185941666Y-198728628D02*
X185941666Y-199595295D01*
X185632142Y-198233390D02*
X185322619Y-199161961D01*
X186127380Y-199161961D01*
D10*
D11*
X236003571Y-198295295D02*
X235384523Y-198295295D01*
X235322619Y-198914342D01*
X235384523Y-198852438D01*
X235508333Y-198790533D01*
X235817857Y-198790533D01*
X235941666Y-198852438D01*
X236003571Y-198914342D01*
X236065476Y-199038152D01*
X236065476Y-199347676D01*
X236003571Y-199471485D01*
X235941666Y-199533390D01*
X235817857Y-199595295D01*
X235508333Y-199595295D01*
X235384523Y-199533390D01*
X235322619Y-199471485D01*
D10*
D11*
X285941666Y-198295295D02*
X285694047Y-198295295D01*
X285570238Y-198357200D01*
X285508333Y-198419104D01*
X285384523Y-198604819D01*
X285322619Y-198852438D01*
X285322619Y-199347676D01*
X285384523Y-199471485D01*
X285446428Y-199533390D01*
X285570238Y-199595295D01*
X285817857Y-199595295D01*
X285941666Y-199533390D01*
X286003571Y-199471485D01*
X286065476Y-199347676D01*
X286065476Y-199038152D01*
X286003571Y-198914342D01*
X285941666Y-198852438D01*
X285817857Y-198790533D01*
X285570238Y-198790533D01*
X285446428Y-198852438D01*
X285384523Y-198914342D01*
X285322619Y-199038152D01*
D10*
D11*
X10000000Y-60000000D02*
X12000000Y-60000000D01*
D10*
D11*
X10000000Y-110000000D02*
X12000000Y-110000000D01*
D10*
D11*
X10000000Y-160000000D02*
X12000000Y-160000000D01*
D10*
D11*
X10690476Y-35216666D02*
X11309523Y-35216666D01*
X10566666Y-35588095D02*
X11000000Y-34288095D01*
X11433333Y-35588095D01*
D10*
D11*
X11092857Y-84907142D02*
X11278571Y-84969047D01*
X11340476Y-85030952D01*
X11402380Y-85154761D01*
X11402380Y-85340476D01*
X11340476Y-85464285D01*
X11278571Y-85526190D01*
X11154761Y-85588095D01*
X10659523Y-85588095D01*
X10659523Y-84288095D01*
X11092857Y-84288095D01*
X11216666Y-84350000D01*
X11278571Y-84411904D01*
X11340476Y-84535714D01*
X11340476Y-84659523D01*
X11278571Y-84783333D01*
X11216666Y-84845238D01*
X11092857Y-84907142D01*
X10659523Y-84907142D01*
D10*
D11*
X11402380Y-135464285D02*
X11340476Y-135526190D01*
X11154761Y-135588095D01*
X11030952Y-135588095D01*
X10845238Y-135526190D01*
X10721428Y-135402380D01*
X10659523Y-135278571D01*
X10597619Y-135030952D01*
X10597619Y-134845238D01*
X10659523Y-134597619D01*
X10721428Y-134473809D01*
X10845238Y-134350000D01*
X11030952Y-134288095D01*
X11154761Y-134288095D01*
X11340476Y-134350000D01*
X11402380Y-134411904D01*
D10*
D11*
X10659523Y-185588095D02*
X10659523Y-184288095D01*
X10969047Y-184288095D01*
X11154761Y-184350000D01*
X11278571Y-184473809D01*
X11340476Y-184597619D01*
X11402380Y-184845238D01*
X11402380Y-185030952D01*
X11340476Y-185278571D01*
X11278571Y-185402380D01*
X11154761Y-185526190D01*
X10969047Y-185588095D01*
X10659523Y-185588095D01*
D10*
D11*
X287002200Y-60000000D02*
X285002200Y-60000000D01*
D10*
D11*
X287002200Y-110000000D02*
X285002200Y-110000000D01*
D10*
D11*
X287002200Y-160000000D02*
X285002200Y-160000000D01*
D10*
D11*
X285692676Y-35216666D02*
X286311723Y-35216666D01*
X285568866Y-35588095D02*
X286002200Y-34288095D01*
X286435533Y-35588095D01*
D10*
D11*
X286095057Y-84907142D02*
X286280771Y-84969047D01*
X286342676Y-85030952D01*
X286404580Y-85154761D01*
X286404580Y-85340476D01*
X286342676Y-85464285D01*
X286280771Y-85526190D01*
X286156961Y-85588095D01*
X285661723Y-85588095D01*
X285661723Y-84288095D01*
X286095057Y-84288095D01*
X286218866Y-84350000D01*
X286280771Y-84411904D01*
X286342676Y-84535714D01*
X286342676Y-84659523D01*
X286280771Y-84783333D01*
X286218866Y-84845238D01*
X286095057Y-84907142D01*
X285661723Y-84907142D01*
D10*
D11*
X286404580Y-135464285D02*
X286342676Y-135526190D01*
X286156961Y-135588095D01*
X286033152Y-135588095D01*
X285847438Y-135526190D01*
X285723628Y-135402380D01*
X285661723Y-135278571D01*
X285599819Y-135030952D01*
X285599819Y-134845238D01*
X285661723Y-134597619D01*
X285723628Y-134473809D01*
X285847438Y-134350000D01*
X286033152Y-134288095D01*
X286156961Y-134288095D01*
X286342676Y-134350000D01*
X286404580Y-134411904D01*
D10*
D11*
X285661723Y-185588095D02*
X285661723Y-184288095D01*
X285971247Y-184288095D01*
X286156961Y-184350000D01*
X286280771Y-184473809D01*
X286342676Y-184597619D01*
X286404580Y-184845238D01*
X286404580Y-185030952D01*
X286342676Y-185278571D01*
X286280771Y-185402380D01*
X286156961Y-185526190D01*
X285971247Y-185588095D01*
X285661723Y-185588095D01*
D10*
D11*
X200434342Y-193785771D02*
X200434342Y-192285771D01*
X200791485Y-192285771D01*
X201005771Y-192357200D01*
X201148628Y-192500057D01*
X201220057Y-192642914D01*
X201291485Y-192928628D01*
X201291485Y-193142914D01*
X201220057Y-193428628D01*
X201148628Y-193571485D01*
X201005771Y-193714342D01*
X200791485Y-193785771D01*
X200434342Y-193785771D01*
X202577200Y-193785771D02*
X202577200Y-193000057D01*
X202505771Y-192857200D01*
X202362914Y-192785771D01*
X202077200Y-192785771D01*
X201934342Y-192857200D01*
X202577200Y-193714342D02*
X202434342Y-193785771D01*
X202077200Y-193785771D01*
X201934342Y-193714342D01*
X201862914Y-193571485D01*
X201862914Y-193428628D01*
X201934342Y-193285771D01*
X202077200Y-193214342D01*
X202434342Y-193214342D01*
X202577200Y-193142914D01*
X203077200Y-192785771D02*
X203648628Y-192785771D01*
X203291485Y-192285771D02*
X203291485Y-193571485D01*
X203362914Y-193714342D01*
X203505771Y-193785771D01*
X203648628Y-193785771D01*
X204720057Y-193714342D02*
X204577200Y-193785771D01*
X204291485Y-193785771D01*
X204148628Y-193714342D01*
X204077200Y-193571485D01*
X204077200Y-193000057D01*
X204148628Y-192857200D01*
X204291485Y-192785771D01*
X204577200Y-192785771D01*
X204720057Y-192857200D01*
X204791485Y-193000057D01*
X204791485Y-193142914D01*
X204077200Y-193285771D01*
X205434342Y-193642914D02*
X205505771Y-193714342D01*
X205434342Y-193785771D01*
X205362914Y-193714342D01*
X205434342Y-193642914D01*
X205434342Y-193785771D01*
X205434342Y-192857200D02*
X205505771Y-192928628D01*
X205434342Y-193000057D01*
X205362914Y-192928628D01*
X205434342Y-192857200D01*
X205434342Y-193000057D01*
D10*
D11*
X177002200Y-194507200D02*
X285002200Y-194507200D01*
D10*
D11*
X178434342Y-196585771D02*
X178434342Y-195085771D01*
X179291485Y-196585771D02*
X178648628Y-195728628D01*
X179291485Y-195085771D02*
X178434342Y-195942914D01*
X179934342Y-196585771D02*
X179934342Y-195585771D01*
X179934342Y-195085771D02*
X179862914Y-195157200D01*
X179934342Y-195228628D01*
X180005771Y-195157200D01*
X179934342Y-195085771D01*
X179934342Y-195228628D01*
X181505771Y-196442914D02*
X181434342Y-196514342D01*
X181220057Y-196585771D01*
X181077200Y-196585771D01*
X180862914Y-196514342D01*
X180720057Y-196371485D01*
X180648628Y-196228628D01*
X180577200Y-195942914D01*
X180577200Y-195728628D01*
X180648628Y-195442914D01*
X180720057Y-195300057D01*
X180862914Y-195157200D01*
X181077200Y-195085771D01*
X181220057Y-195085771D01*
X181434342Y-195157200D01*
X181505771Y-195228628D01*
X182791485Y-196585771D02*
X182791485Y-195800057D01*
X182720057Y-195657200D01*
X182577200Y-195585771D01*
X182291485Y-195585771D01*
X182148628Y-195657200D01*
X182791485Y-196514342D02*
X182648628Y-196585771D01*
X182291485Y-196585771D01*
X182148628Y-196514342D01*
X182077200Y-196371485D01*
X182077200Y-196228628D01*
X182148628Y-196085771D01*
X182291485Y-196014342D01*
X182648628Y-196014342D01*
X182791485Y-195942914D01*
X184148628Y-196585771D02*
X184148628Y-195085771D01*
X184148628Y-196514342D02*
X184005771Y-196585771D01*
X183720057Y-196585771D01*
X183577200Y-196514342D01*
X183505771Y-196442914D01*
X183434342Y-196300057D01*
X183434342Y-195871485D01*
X183505771Y-195728628D01*
X183577200Y-195657200D01*
X183720057Y-195585771D01*
X184005771Y-195585771D01*
X184148628Y-195657200D01*
X186005771Y-195800057D02*
X186505771Y-195800057D01*
X186720057Y-196585771D02*
X186005771Y-196585771D01*
X186005771Y-195085771D01*
X186720057Y-195085771D01*
X187362914Y-196442914D02*
X187434342Y-196514342D01*
X187362914Y-196585771D01*
X187291485Y-196514342D01*
X187362914Y-196442914D01*
X187362914Y-196585771D01*
X188077200Y-196585771D02*
X188077200Y-195085771D01*
X188434342Y-195085771D01*
X188648628Y-195157200D01*
X188791485Y-195300057D01*
X188862914Y-195442914D01*
X188934342Y-195728628D01*
X188934342Y-195942914D01*
X188862914Y-196228628D01*
X188791485Y-196371485D01*
X188648628Y-196514342D01*
X188434342Y-196585771D01*
X188077200Y-196585771D01*
X189577200Y-196442914D02*
X189648628Y-196514342D01*
X189577200Y-196585771D01*
X189505771Y-196514342D01*
X189577200Y-196442914D01*
X189577200Y-196585771D01*
X190220057Y-196157200D02*
X190934342Y-196157200D01*
X190077200Y-196585771D02*
X190577200Y-195085771D01*
X191077200Y-196585771D01*
X191577200Y-196442914D02*
X191648628Y-196514342D01*
X191577200Y-196585771D01*
X191505771Y-196514342D01*
X191577200Y-196442914D01*
X191577200Y-196585771D01*
X194577200Y-195585771D02*
X194577200Y-197085771D01*
X194577200Y-195657200D02*
X194720057Y-195585771D01*
X195005771Y-195585771D01*
X195148628Y-195657200D01*
X195220057Y-195728628D01*
X195291485Y-195871485D01*
X195291485Y-196300057D01*
X195220057Y-196442914D01*
X195148628Y-196514342D01*
X195005771Y-196585771D01*
X194720057Y-196585771D01*
X194577200Y-196514342D01*
X196577200Y-196514342D02*
X196434342Y-196585771D01*
X196148628Y-196585771D01*
X196005771Y-196514342D01*
X195934342Y-196442914D01*
X195862914Y-196300057D01*
X195862914Y-195871485D01*
X195934342Y-195728628D01*
X196005771Y-195657200D01*
X196148628Y-195585771D01*
X196434342Y-195585771D01*
X196577200Y-195657200D01*
X197220057Y-196585771D02*
X197220057Y-195085771D01*
X197220057Y-195657200D02*
X197362914Y-195585771D01*
X197648628Y-195585771D01*
X197791485Y-195657200D01*
X197862914Y-195728628D01*
X197934342Y-195871485D01*
X197934342Y-196300057D01*
X197862914Y-196442914D01*
X197791485Y-196514342D01*
X197648628Y-196585771D01*
X197362914Y-196585771D01*
X197220057Y-196514342D01*
X198577200Y-195585771D02*
X198577200Y-196585771D01*
X198577200Y-195728628D02*
X198648628Y-195657200D01*
X198791485Y-195585771D01*
X199005771Y-195585771D01*
X199148628Y-195657200D01*
X199220057Y-195800057D01*
X199220057Y-196585771D01*
X200505771Y-196514342D02*
X200362914Y-196585771D01*
X200077200Y-196585771D01*
X199934342Y-196514342D01*
X199862914Y-196371485D01*
X199862914Y-195800057D01*
X199934342Y-195657200D01*
X200077200Y-195585771D01*
X200362914Y-195585771D01*
X200505771Y-195657200D01*
X200577200Y-195800057D01*
X200577200Y-195942914D01*
X199862914Y-196085771D01*
X201077200Y-195585771D02*
X201362914Y-196585771D01*
X201648628Y-195871485D01*
X201934342Y-196585771D01*
X202220057Y-195585771D01*
X204362914Y-197157200D02*
X204291485Y-197085771D01*
X204148628Y-196871485D01*
X204077200Y-196728628D01*
X204005771Y-196514342D01*
X203934342Y-196157200D01*
X203934342Y-195871485D01*
X204005771Y-195514342D01*
X204077200Y-195300057D01*
X204148628Y-195157200D01*
X204291485Y-194942914D01*
X204362914Y-194871485D01*
X205577200Y-195085771D02*
X205291485Y-195085771D01*
X205148628Y-195157200D01*
X205077200Y-195228628D01*
X204934342Y-195442914D01*
X204862914Y-195728628D01*
X204862914Y-196300057D01*
X204934342Y-196442914D01*
X205005771Y-196514342D01*
X205148628Y-196585771D01*
X205434342Y-196585771D01*
X205577200Y-196514342D01*
X205648628Y-196442914D01*
X205720057Y-196300057D01*
X205720057Y-195942914D01*
X205648628Y-195800057D01*
X205577200Y-195728628D01*
X205434342Y-195657200D01*
X205148628Y-195657200D01*
X205005771Y-195728628D01*
X204934342Y-195800057D01*
X204862914Y-195942914D01*
X206362914Y-196442914D02*
X206434342Y-196514342D01*
X206362914Y-196585771D01*
X206291485Y-196514342D01*
X206362914Y-196442914D01*
X206362914Y-196585771D01*
X207362914Y-195085771D02*
X207505771Y-195085771D01*
X207648628Y-195157200D01*
X207720057Y-195228628D01*
X207791485Y-195371485D01*
X207862914Y-195657200D01*
X207862914Y-196014342D01*
X207791485Y-196300057D01*
X207720057Y-196442914D01*
X207648628Y-196514342D01*
X207505771Y-196585771D01*
X207362914Y-196585771D01*
X207220057Y-196514342D01*
X207148628Y-196442914D01*
X207077200Y-196300057D01*
X207005771Y-196014342D01*
X207005771Y-195657200D01*
X207077200Y-195371485D01*
X207148628Y-195228628D01*
X207220057Y-195157200D01*
X207362914Y-195085771D01*
X208505771Y-196442914D02*
X208577200Y-196514342D01*
X208505771Y-196585771D01*
X208434342Y-196514342D01*
X208505771Y-196442914D01*
X208505771Y-196585771D01*
X210005771Y-196585771D02*
X209148628Y-196585771D01*
X209577200Y-196585771D02*
X209577200Y-195085771D01*
X209434342Y-195300057D01*
X209291485Y-195442914D01*
X209148628Y-195514342D01*
X210648628Y-196014342D02*
X211791485Y-196014342D01*
X212791485Y-195085771D02*
X212934342Y-195085771D01*
X213077200Y-195157200D01*
X213148628Y-195228628D01*
X213220057Y-195371485D01*
X213291485Y-195657200D01*
X213291485Y-196014342D01*
X213220057Y-196300057D01*
X213148628Y-196442914D01*
X213077200Y-196514342D01*
X212934342Y-196585771D01*
X212791485Y-196585771D01*
X212648628Y-196514342D01*
X212577200Y-196442914D01*
X212505771Y-196300057D01*
X212434342Y-196014342D01*
X212434342Y-195657200D01*
X212505771Y-195371485D01*
X212577200Y-195228628D01*
X212648628Y-195157200D01*
X212791485Y-195085771D01*
X213791485Y-197157200D02*
X213862914Y-197085771D01*
X214005771Y-196871485D01*
X214077200Y-196728628D01*
X214148628Y-196514342D01*
X214220057Y-196157200D01*
X214220057Y-195871485D01*
X214148628Y-195514342D01*
X214077200Y-195300057D01*
X214005771Y-195157200D01*
X213862914Y-194942914D01*
X213791485Y-194871485D01*
D10*
D11*
X177002200Y-191507200D02*
X285002200Y-191507200D01*
D10*
D12*
X264411485Y-193785771D02*
X263911485Y-193071485D01*
X263554342Y-193785771D02*
X263554342Y-192285771D01*
X264125771Y-192285771D01*
X264268628Y-192357200D01*
X264340057Y-192428628D01*
X264411485Y-192571485D01*
X264411485Y-192785771D01*
X264340057Y-192928628D01*
X264268628Y-193000057D01*
X264125771Y-193071485D01*
X263554342Y-193071485D01*
X265625771Y-193714342D02*
X265482914Y-193785771D01*
X265197200Y-193785771D01*
X265054342Y-193714342D01*
X264982914Y-193571485D01*
X264982914Y-193000057D01*
X265054342Y-192857200D01*
X265197200Y-192785771D01*
X265482914Y-192785771D01*
X265625771Y-192857200D01*
X265697200Y-193000057D01*
X265697200Y-193142914D01*
X264982914Y-193285771D01*
X266197200Y-192785771D02*
X266554342Y-193785771D01*
X266911485Y-192785771D01*
X267482914Y-193642914D02*
X267554342Y-193714342D01*
X267482914Y-193785771D01*
X267411485Y-193714342D01*
X267482914Y-193642914D01*
X267482914Y-193785771D01*
X267482914Y-192857200D02*
X267554342Y-192928628D01*
X267482914Y-193000057D01*
X267411485Y-192928628D01*
X267482914Y-192857200D01*
X267482914Y-193000057D01*
D10*
D11*
X178362914Y-193714342D02*
X178577200Y-193785771D01*
X178934342Y-193785771D01*
X179077200Y-193714342D01*
X179148628Y-193642914D01*
X179220057Y-193500057D01*
X179220057Y-193357200D01*
X179148628Y-193214342D01*
X179077200Y-193142914D01*
X178934342Y-193071485D01*
X178648628Y-193000057D01*
X178505771Y-192928628D01*
X178434342Y-192857200D01*
X178362914Y-192714342D01*
X178362914Y-192571485D01*
X178434342Y-192428628D01*
X178505771Y-192357200D01*
X178648628Y-192285771D01*
X179005771Y-192285771D01*
X179220057Y-192357200D01*
X179862914Y-193785771D02*
X179862914Y-192785771D01*
X179862914Y-192285771D02*
X179791485Y-192357200D01*
X179862914Y-192428628D01*
X179934342Y-192357200D01*
X179862914Y-192285771D01*
X179862914Y-192428628D01*
X180434342Y-192785771D02*
X181220057Y-192785771D01*
X180434342Y-193785771D01*
X181220057Y-193785771D01*
X182362914Y-193714342D02*
X182220057Y-193785771D01*
X181934342Y-193785771D01*
X181791485Y-193714342D01*
X181720057Y-193571485D01*
X181720057Y-193000057D01*
X181791485Y-192857200D01*
X181934342Y-192785771D01*
X182220057Y-192785771D01*
X182362914Y-192857200D01*
X182434342Y-193000057D01*
X182434342Y-193142914D01*
X181720057Y-193285771D01*
X183077200Y-193642914D02*
X183148628Y-193714342D01*
X183077200Y-193785771D01*
X183005771Y-193714342D01*
X183077200Y-193642914D01*
X183077200Y-193785771D01*
X183077200Y-192857200D02*
X183148628Y-192928628D01*
X183077200Y-193000057D01*
X183005771Y-192928628D01*
X183077200Y-192857200D01*
X183077200Y-193000057D01*
X184862914Y-193357200D02*
X185577200Y-193357200D01*
X184720057Y-193785771D02*
X185220057Y-192285771D01*
X185720057Y-193785771D01*
X186862914Y-192785771D02*
X186862914Y-193785771D01*
X186505771Y-192214342D02*
X186148628Y-193285771D01*
X187077200Y-193285771D01*
D10*
D11*
X263434342Y-196585771D02*
X263434342Y-195085771D01*
X264791485Y-196585771D02*
X264791485Y-195085771D01*
X264791485Y-196514342D02*
X264648628Y-196585771D01*
X264362914Y-196585771D01*
X264220057Y-196514342D01*
X264148628Y-196442914D01*
X264077200Y-196300057D01*
X264077200Y-195871485D01*
X264148628Y-195728628D01*
X264220057Y-195657200D01*
X264362914Y-195585771D01*
X264648628Y-195585771D01*
X264791485Y-195657200D01*
X265505771Y-196442914D02*
X265577200Y-196514342D01*
X265505771Y-196585771D01*
X265434342Y-196514342D01*
X265505771Y-196442914D01*
X265505771Y-196585771D01*
X265505771Y-195657200D02*
X265577200Y-195728628D01*
X265505771Y-195800057D01*
X265434342Y-195728628D01*
X265505771Y-195657200D01*
X265505771Y-195800057D01*
X268148628Y-196585771D02*
X267291485Y-196585771D01*
X267720057Y-196585771D02*
X267720057Y-195085771D01*
X267577200Y-195300057D01*
X267434342Y-195442914D01*
X267291485Y-195514342D01*
X269862914Y-195014342D02*
X268577200Y-196942914D01*
X271148628Y-196585771D02*
X270291485Y-196585771D01*
X270720057Y-196585771D02*
X270720057Y-195085771D01*
X270577200Y-195300057D01*
X270434342Y-195442914D01*
X270291485Y-195514342D01*
D10*
D11*
X177002200Y-187507200D02*
X285002200Y-187507200D01*
D10*
D13*
X178714580Y-188211961D02*
X179857438Y-188211961D01*
X179036009Y-190211961D02*
X179286009Y-188211961D01*
X180274104Y-190211961D02*
X180440771Y-188878628D01*
X180524104Y-188211961D02*
X180416961Y-188307200D01*
X180500295Y-188402438D01*
X180607438Y-188307200D01*
X180524104Y-188211961D01*
X180500295Y-188402438D01*
X181107438Y-188878628D02*
X181869342Y-188878628D01*
X181476485Y-188211961D02*
X181262200Y-189926247D01*
X181333628Y-190116723D01*
X181512200Y-190211961D01*
X181702676Y-190211961D01*
X182655057Y-190211961D02*
X182476485Y-190116723D01*
X182405057Y-189926247D01*
X182619342Y-188211961D01*
X184190771Y-190116723D02*
X183988390Y-190211961D01*
X183607438Y-190211961D01*
X183428866Y-190116723D01*
X183357438Y-189926247D01*
X183452676Y-189164342D01*
X183571723Y-188973866D01*
X183774104Y-188878628D01*
X184155057Y-188878628D01*
X184333628Y-188973866D01*
X184405057Y-189164342D01*
X184381247Y-189354819D01*
X183405057Y-189545295D01*
X185155057Y-190021485D02*
X185238390Y-190116723D01*
X185131247Y-190211961D01*
X185047914Y-190116723D01*
X185155057Y-190021485D01*
X185131247Y-190211961D01*
X185286009Y-188973866D02*
X185369342Y-189069104D01*
X185262200Y-189164342D01*
X185178866Y-189069104D01*
X185286009Y-188973866D01*
X185262200Y-189164342D01*
D10*
D11*
X178934342Y-185600057D02*
X178434342Y-185600057D01*
X178434342Y-186385771D02*
X178434342Y-184885771D01*
X179148628Y-184885771D01*
X179720057Y-186385771D02*
X179720057Y-185385771D01*
X179720057Y-184885771D02*
X179648628Y-184957200D01*
X179720057Y-185028628D01*
X179791485Y-184957200D01*
X179720057Y-184885771D01*
X179720057Y-185028628D01*
X180648628Y-186385771D02*
X180505771Y-186314342D01*
X180434342Y-186171485D01*
X180434342Y-184885771D01*
X181791485Y-186314342D02*
X181648628Y-186385771D01*
X181362914Y-186385771D01*
X181220057Y-186314342D01*
X181148628Y-186171485D01*
X181148628Y-185600057D01*
X181220057Y-185457200D01*
X181362914Y-185385771D01*
X181648628Y-185385771D01*
X181791485Y-185457200D01*
X181862914Y-185600057D01*
X181862914Y-185742914D01*
X181148628Y-185885771D01*
X182505771Y-186242914D02*
X182577200Y-186314342D01*
X182505771Y-186385771D01*
X182434342Y-186314342D01*
X182505771Y-186242914D01*
X182505771Y-186385771D01*
X182505771Y-185457200D02*
X182577200Y-185528628D01*
X182505771Y-185600057D01*
X182434342Y-185528628D01*
X182505771Y-185457200D01*
X182505771Y-185600057D01*
X184362914Y-185385771D02*
X184362914Y-186885771D01*
X184362914Y-185457200D02*
X184505771Y-185385771D01*
X184791485Y-185385771D01*
X184934342Y-185457200D01*
X185005771Y-185528628D01*
X185077200Y-185671485D01*
X185077200Y-186100057D01*
X185005771Y-186242914D01*
X184934342Y-186314342D01*
X184791485Y-186385771D01*
X184505771Y-186385771D01*
X184362914Y-186314342D01*
X186362914Y-186385771D02*
X186362914Y-185600057D01*
X186291485Y-185457200D01*
X186148628Y-185385771D01*
X185862914Y-185385771D01*
X185720057Y-185457200D01*
X186362914Y-186314342D02*
X186220057Y-186385771D01*
X185862914Y-186385771D01*
X185720057Y-186314342D01*
X185648628Y-186171485D01*
X185648628Y-186028628D01*
X185720057Y-185885771D01*
X185862914Y-185814342D01*
X186220057Y-185814342D01*
X186362914Y-185742914D01*
X187077200Y-186385771D02*
X187077200Y-185385771D01*
X187077200Y-185671485D02*
X187148628Y-185528628D01*
X187220057Y-185457200D01*
X187362914Y-185385771D01*
X187505771Y-185385771D01*
X187791485Y-185385771D02*
X188362914Y-185385771D01*
X188005771Y-184885771D02*
X188005771Y-186171485D01*
X188077200Y-186314342D01*
X188220057Y-186385771D01*
X188362914Y-186385771D01*
X188791485Y-186314342D02*
X188934342Y-186385771D01*
X189220057Y-186385771D01*
X189362914Y-186314342D01*
X189434342Y-186171485D01*
X189434342Y-186100057D01*
X189362914Y-185957200D01*
X189220057Y-185885771D01*
X189005771Y-185885771D01*
X188862914Y-185814342D01*
X188791485Y-185671485D01*
X188791485Y-185600057D01*
X188862914Y-185457200D01*
X189005771Y-185385771D01*
X189220057Y-185385771D01*
X189362914Y-185457200D01*
X190077200Y-186242914D02*
X190148628Y-186314342D01*
X190077200Y-186385771D01*
X190005771Y-186314342D01*
X190077200Y-186242914D01*
X190077200Y-186385771D01*
X190791485Y-186385771D02*
X190791485Y-184885771D01*
X190934342Y-185814342D02*
X191362914Y-186385771D01*
X191362914Y-185385771D02*
X190791485Y-185957200D01*
X192005771Y-186385771D02*
X192005771Y-185385771D01*
X192005771Y-184885771D02*
X191934342Y-184957200D01*
X192005771Y-185028628D01*
X192077200Y-184957200D01*
X192005771Y-184885771D01*
X192005771Y-185028628D01*
X193362914Y-186314342D02*
X193220057Y-186385771D01*
X192934342Y-186385771D01*
X192791485Y-186314342D01*
X192720057Y-186242914D01*
X192648628Y-186100057D01*
X192648628Y-185671485D01*
X192720057Y-185528628D01*
X192791485Y-185457200D01*
X192934342Y-185385771D01*
X193220057Y-185385771D01*
X193362914Y-185457200D01*
X194648628Y-186385771D02*
X194648628Y-185600057D01*
X194577200Y-185457200D01*
X194434342Y-185385771D01*
X194148628Y-185385771D01*
X194005771Y-185457200D01*
X194648628Y-186314342D02*
X194505771Y-186385771D01*
X194148628Y-186385771D01*
X194005771Y-186314342D01*
X193934342Y-186171485D01*
X193934342Y-186028628D01*
X194005771Y-185885771D01*
X194148628Y-185814342D01*
X194505771Y-185814342D01*
X194648628Y-185742914D01*
X196005771Y-186385771D02*
X196005771Y-184885771D01*
X196005771Y-186314342D02*
X195862914Y-186385771D01*
X195577200Y-186385771D01*
X195434342Y-186314342D01*
X195362914Y-186242914D01*
X195291485Y-186100057D01*
X195291485Y-185671485D01*
X195362914Y-185528628D01*
X195434342Y-185457200D01*
X195577200Y-185385771D01*
X195862914Y-185385771D01*
X196005771Y-185457200D01*
X196362914Y-186528628D02*
X197505771Y-186528628D01*
X197862914Y-185385771D02*
X197862914Y-186885771D01*
X197862914Y-185457200D02*
X198005771Y-185385771D01*
X198291485Y-185385771D01*
X198434342Y-185457200D01*
X198505771Y-185528628D01*
X198577200Y-185671485D01*
X198577200Y-186100057D01*
X198505771Y-186242914D01*
X198434342Y-186314342D01*
X198291485Y-186385771D01*
X198005771Y-186385771D01*
X197862914Y-186314342D01*
X199862914Y-186314342D02*
X199720057Y-186385771D01*
X199434342Y-186385771D01*
X199291485Y-186314342D01*
X199220057Y-186242914D01*
X199148628Y-186100057D01*
X199148628Y-185671485D01*
X199220057Y-185528628D01*
X199291485Y-185457200D01*
X199434342Y-185385771D01*
X199720057Y-185385771D01*
X199862914Y-185457200D01*
X200505771Y-186385771D02*
X200505771Y-184885771D01*
X200505771Y-185457200D02*
X200648628Y-185385771D01*
X200934342Y-185385771D01*
X201077200Y-185457200D01*
X201148628Y-185528628D01*
X201220057Y-185671485D01*
X201220057Y-186100057D01*
X201148628Y-186242914D01*
X201077200Y-186314342D01*
X200934342Y-186385771D01*
X200648628Y-186385771D01*
X200505771Y-186314342D01*
D10*
D11*
X177002200Y-181507200D02*
X285002200Y-181507200D01*
D10*
D11*
X178362914Y-183614342D02*
X178577200Y-183685771D01*
X178934342Y-183685771D01*
X179077200Y-183614342D01*
X179148628Y-183542914D01*
X179220057Y-183400057D01*
X179220057Y-183257200D01*
X179148628Y-183114342D01*
X179077200Y-183042914D01*
X178934342Y-182971485D01*
X178648628Y-182900057D01*
X178505771Y-182828628D01*
X178434342Y-182757200D01*
X178362914Y-182614342D01*
X178362914Y-182471485D01*
X178434342Y-182328628D01*
X178505771Y-182257200D01*
X178648628Y-182185771D01*
X179005771Y-182185771D01*
X179220057Y-182257200D01*
X179862914Y-183685771D02*
X179862914Y-182185771D01*
X180505771Y-183685771D02*
X180505771Y-182900057D01*
X180434342Y-182757200D01*
X180291485Y-182685771D01*
X180077200Y-182685771D01*
X179934342Y-182757200D01*
X179862914Y-182828628D01*
X181791485Y-183614342D02*
X181648628Y-183685771D01*
X181362914Y-183685771D01*
X181220057Y-183614342D01*
X181148628Y-183471485D01*
X181148628Y-182900057D01*
X181220057Y-182757200D01*
X181362914Y-182685771D01*
X181648628Y-182685771D01*
X181791485Y-182757200D01*
X181862914Y-182900057D01*
X181862914Y-183042914D01*
X181148628Y-183185771D01*
X183077200Y-183614342D02*
X182934342Y-183685771D01*
X182648628Y-183685771D01*
X182505771Y-183614342D01*
X182434342Y-183471485D01*
X182434342Y-182900057D01*
X182505771Y-182757200D01*
X182648628Y-182685771D01*
X182934342Y-182685771D01*
X183077200Y-182757200D01*
X183148628Y-182900057D01*
X183148628Y-183042914D01*
X182434342Y-183185771D01*
X183577200Y-182685771D02*
X184148628Y-182685771D01*
X183791485Y-182185771D02*
X183791485Y-183471485D01*
X183862914Y-183614342D01*
X184005771Y-183685771D01*
X184148628Y-183685771D01*
X184648628Y-183542914D02*
X184720057Y-183614342D01*
X184648628Y-183685771D01*
X184577200Y-183614342D01*
X184648628Y-183542914D01*
X184648628Y-183685771D01*
X184648628Y-182757200D02*
X184720057Y-182828628D01*
X184648628Y-182900057D01*
X184577200Y-182828628D01*
X184648628Y-182757200D01*
X184648628Y-182900057D01*
D10*
D12*
D10*
D11*
D10*
D11*
D10*
D11*
D10*
D11*
D10*
D11*
X197002200Y-191507200D02*
X197002200Y-194507200D01*
D10*
D11*
X261002200Y-191507200D02*
X261002200Y-198007200D01*
D14*
X64780000Y-90000000D03*
X63000000Y-91780000D03*
X63000000Y-88220000D03*
X64260000Y-88740000D03*
X61740000Y-91260000D03*
X61220000Y-90000000D03*
D15*
X63000000Y-90000000D03*
D14*
X64260000Y-91260000D03*
X61740000Y-88740000D03*
X64260000Y-111260000D03*
X63000000Y-108220000D03*
X64780000Y-110000000D03*
X61740000Y-111260000D03*
X61220000Y-110000000D03*
X63000000Y-111780000D03*
X64260000Y-108740000D03*
D15*
X63000000Y-110000000D03*
D14*
X61740000Y-108740000D03*
X137000000Y-88220000D03*
X137000000Y-91780000D03*
X135220000Y-90000000D03*
X138780000Y-90000000D03*
X135740000Y-91260000D03*
X135740000Y-88740000D03*
X138260000Y-91260000D03*
X138260000Y-88740000D03*
D15*
X137000000Y-90000000D03*
D14*
X135740000Y-108740000D03*
X138260000Y-108740000D03*
D15*
X137000000Y-110000000D03*
D14*
X137000000Y-111780000D03*
X137000000Y-108220000D03*
X135740000Y-111260000D03*
X138260000Y-111260000D03*
X135220000Y-110000000D03*
X138780000Y-110000000D03*
G04 #@! TA.AperFunction,Conductor*
G36*
X137987153Y-86756421D02*
G01*
X138000000Y-86758976D01*
X138012170Y-86756556D01*
X138024581Y-86756556D01*
X138024581Y-86756757D01*
X138035469Y-86755992D01*
X138300393Y-86770870D01*
X138314425Y-86772450D01*
X138459248Y-86797057D01*
X138604066Y-86821663D01*
X138617841Y-86824807D01*
X138704600Y-86849802D01*
X138900156Y-86906141D01*
X138913477Y-86910802D01*
X139184912Y-87023234D01*
X139197635Y-87029361D01*
X139286523Y-87078488D01*
X139454768Y-87171474D01*
X139466731Y-87178991D01*
X139706329Y-87348994D01*
X139717377Y-87357804D01*
X139936439Y-87553570D01*
X139946430Y-87563561D01*
X140142196Y-87782623D01*
X140151006Y-87793671D01*
X140321009Y-88033269D01*
X140328526Y-88045232D01*
X140470637Y-88302361D01*
X140476766Y-88315088D01*
X140589198Y-88586523D01*
X140593859Y-88599844D01*
X140650198Y-88795400D01*
X140675193Y-88882159D01*
X140678337Y-88895934D01*
X140727549Y-89185570D01*
X140729131Y-89199611D01*
X140744008Y-89464528D01*
X140743243Y-89475419D01*
X140743444Y-89475419D01*
X140743444Y-89487830D01*
X140741024Y-89500000D01*
X140743579Y-89512844D01*
X140746000Y-89537425D01*
X140746000Y-110462575D01*
X140743579Y-110487153D01*
X140741024Y-110500000D01*
X140743444Y-110512170D01*
X140743444Y-110524581D01*
X140743243Y-110524581D01*
X140744008Y-110535472D01*
X140729131Y-110800389D01*
X140727549Y-110814430D01*
X140678337Y-111104066D01*
X140675193Y-111117841D01*
X140593859Y-111400156D01*
X140589198Y-111413477D01*
X140476768Y-111684908D01*
X140470637Y-111697639D01*
X140328526Y-111954768D01*
X140321009Y-111966731D01*
X140151006Y-112206329D01*
X140142196Y-112217377D01*
X139946430Y-112436439D01*
X139936439Y-112446430D01*
X139717377Y-112642196D01*
X139706329Y-112651006D01*
X139466731Y-112821009D01*
X139454768Y-112828526D01*
X139197635Y-112970639D01*
X139184912Y-112976766D01*
X138913477Y-113089198D01*
X138900156Y-113093859D01*
X138704600Y-113150198D01*
X138617841Y-113175193D01*
X138604066Y-113178337D01*
X138459248Y-113202943D01*
X138314425Y-113227550D01*
X138300393Y-113229130D01*
X138035469Y-113244008D01*
X138024581Y-113243243D01*
X138024581Y-113243444D01*
X138012170Y-113243444D01*
X138000000Y-113241024D01*
X137987153Y-113243579D01*
X137962575Y-113246000D01*
X62037425Y-113246000D01*
X62012847Y-113243579D01*
X62000000Y-113241024D01*
X61987830Y-113243444D01*
X61975419Y-113243444D01*
X61975419Y-113243243D01*
X61964531Y-113244008D01*
X61699607Y-113229130D01*
X61685575Y-113227550D01*
X61540752Y-113202943D01*
X61395934Y-113178337D01*
X61382159Y-113175193D01*
X61295400Y-113150198D01*
X61099844Y-113093859D01*
X61086523Y-113089198D01*
X60815088Y-112976766D01*
X60802365Y-112970639D01*
X60545232Y-112828526D01*
X60533269Y-112821009D01*
X60293671Y-112651006D01*
X60282623Y-112642196D01*
X60063561Y-112446430D01*
X60053570Y-112436439D01*
X59857804Y-112217377D01*
X59848994Y-112206329D01*
X59678991Y-111966731D01*
X59671474Y-111954768D01*
X59529363Y-111697639D01*
X59523232Y-111684908D01*
X59410802Y-111413477D01*
X59406141Y-111400156D01*
X59324807Y-111117841D01*
X59321663Y-111104066D01*
X59272451Y-110814430D01*
X59270869Y-110800389D01*
X59255992Y-110535472D01*
X59256757Y-110524581D01*
X59256556Y-110524581D01*
X59256556Y-110512170D01*
X59258976Y-110500000D01*
X59256421Y-110487153D01*
X59254000Y-110462575D01*
X59254000Y-103435202D01*
X73142574Y-103435202D01*
X73144925Y-103525000D01*
X73151189Y-103764221D01*
X73151699Y-103767806D01*
X73151700Y-103767815D01*
X73160723Y-103831214D01*
X73197564Y-104090070D01*
X73198483Y-104093573D01*
X73198484Y-104093578D01*
X73231290Y-104218627D01*
X73281084Y-104408429D01*
X73400642Y-104715079D01*
X73402346Y-104718297D01*
X73527366Y-104954418D01*
X73554653Y-105005955D01*
X73556710Y-105008948D01*
X73739019Y-105274209D01*
X73739025Y-105274216D01*
X73741076Y-105277201D01*
X73957439Y-105525223D01*
X74200876Y-105746734D01*
X74468159Y-105938796D01*
X74755745Y-106098865D01*
X75059824Y-106224818D01*
X75063318Y-106225813D01*
X75063320Y-106225814D01*
X75372863Y-106313990D01*
X75372868Y-106313991D01*
X75376364Y-106314987D01*
X75599977Y-106351605D01*
X75697590Y-106367590D01*
X75697594Y-106367590D01*
X75701170Y-106368176D01*
X75704796Y-106368347D01*
X76026310Y-106383509D01*
X76026311Y-106383509D01*
X76029937Y-106383680D01*
X76040233Y-106382978D01*
X76354690Y-106361541D01*
X76354697Y-106361540D01*
X76358307Y-106361294D01*
X76681928Y-106301315D01*
X76996511Y-106204536D01*
X77207464Y-106111934D01*
X77294550Y-106073706D01*
X77294551Y-106073706D01*
X77297885Y-106072242D01*
X77378730Y-106025000D01*
X119241024Y-106025000D01*
X119246000Y-106050017D01*
X119260737Y-106124106D01*
X119316876Y-106208124D01*
X119400894Y-106264263D01*
X119500000Y-106283976D01*
X119512847Y-106281421D01*
X119537425Y-106279000D01*
X128462575Y-106279000D01*
X128487153Y-106281421D01*
X128500000Y-106283976D01*
X128599106Y-106264263D01*
X128683124Y-106208124D01*
X128739263Y-106124106D01*
X128754000Y-106050017D01*
X128758976Y-106025000D01*
X128756421Y-106012153D01*
X128754000Y-105987575D01*
X128754000Y-95062425D01*
X128756421Y-95037844D01*
X128756555Y-95037170D01*
X128758976Y-95025000D01*
X128739263Y-94925894D01*
X128683124Y-94841876D01*
X128599106Y-94785737D01*
X128525017Y-94771000D01*
X128512172Y-94768445D01*
X128500000Y-94766024D01*
X128487153Y-94768579D01*
X128462575Y-94771000D01*
X119537425Y-94771000D01*
X119512847Y-94768579D01*
X119500000Y-94766024D01*
X119487828Y-94768445D01*
X119474983Y-94771000D01*
X119400894Y-94785737D01*
X119316876Y-94841876D01*
X119260737Y-94925894D01*
X119241024Y-95025000D01*
X119243445Y-95037170D01*
X119243579Y-95037844D01*
X119246000Y-95062425D01*
X119246000Y-105987575D01*
X119243579Y-106012153D01*
X119241024Y-106025000D01*
X77378730Y-106025000D01*
X77582056Y-105906186D01*
X77584965Y-105904002D01*
X77842351Y-105710751D01*
X77842355Y-105710748D01*
X77845258Y-105708568D01*
X78084002Y-105482009D01*
X78295124Y-105229510D01*
X78391610Y-105082624D01*
X78473838Y-104957444D01*
X78473843Y-104957435D01*
X78475825Y-104954418D01*
X78549768Y-104807399D01*
X78622084Y-104663617D01*
X78622087Y-104663609D01*
X78623711Y-104660381D01*
X78627303Y-104650566D01*
X78735572Y-104354707D01*
X78735575Y-104354697D01*
X78736820Y-104351295D01*
X78737665Y-104347773D01*
X78737668Y-104347765D01*
X78812808Y-104034785D01*
X78812809Y-104034781D01*
X78813655Y-104031256D01*
X78840637Y-103808290D01*
X78852860Y-103707287D01*
X78852861Y-103707280D01*
X78853196Y-103704508D01*
X78854774Y-103654312D01*
X78858749Y-103527797D01*
X78858837Y-103525000D01*
X78853869Y-103438834D01*
X78840100Y-103200033D01*
X78840099Y-103200028D01*
X78839891Y-103196413D01*
X78821853Y-103093061D01*
X78783927Y-102875755D01*
X78783925Y-102875748D01*
X78783303Y-102872182D01*
X78759702Y-102792504D01*
X78710744Y-102627225D01*
X78689825Y-102556604D01*
X78655457Y-102476028D01*
X78562116Y-102257194D01*
X78560694Y-102253860D01*
X78397622Y-101967966D01*
X78265732Y-101788418D01*
X78204912Y-101705622D01*
X78204910Y-101705620D01*
X78202772Y-101702709D01*
X78061847Y-101551055D01*
X77981196Y-101464264D01*
X77981195Y-101464263D01*
X77978725Y-101461605D01*
X77975965Y-101459248D01*
X77975959Y-101459242D01*
X77741431Y-101258938D01*
X77728450Y-101247851D01*
X77455266Y-101064279D01*
X77162794Y-100913322D01*
X76854909Y-100796982D01*
X76851388Y-100796098D01*
X76851383Y-100796096D01*
X76539209Y-100717684D01*
X76539206Y-100717684D01*
X76535693Y-100716801D01*
X76394684Y-100698237D01*
X76212978Y-100674314D01*
X76212974Y-100674314D01*
X76209376Y-100673840D01*
X76093052Y-100672013D01*
X75883926Y-100668728D01*
X75883922Y-100668728D01*
X75880284Y-100668671D01*
X75876670Y-100669032D01*
X75876664Y-100669032D01*
X75644995Y-100692156D01*
X75552779Y-100701360D01*
X75231202Y-100771475D01*
X75227775Y-100772648D01*
X75227769Y-100772650D01*
X74923246Y-100876912D01*
X74923241Y-100876914D01*
X74919815Y-100878087D01*
X74916547Y-100879646D01*
X74916539Y-100879649D01*
X74765172Y-100951848D01*
X74622745Y-101019782D01*
X74343930Y-101194682D01*
X74341096Y-101196952D01*
X74341091Y-101196956D01*
X74180696Y-101325457D01*
X74087065Y-101400470D01*
X73855555Y-101634417D01*
X73652468Y-101893423D01*
X73480497Y-102174054D01*
X73478972Y-102177339D01*
X73478970Y-102177343D01*
X73443452Y-102253860D01*
X73341921Y-102472592D01*
X73238576Y-102785079D01*
X73171832Y-103107372D01*
X73142574Y-103435202D01*
X59254000Y-103435202D01*
X59254000Y-99757787D01*
X86945867Y-99757787D01*
X86984825Y-100221729D01*
X86985267Y-100224342D01*
X87061375Y-100674314D01*
X87062469Y-100680783D01*
X87178252Y-101131730D01*
X87179120Y-101134224D01*
X87179122Y-101134229D01*
X87219509Y-101250205D01*
X87331364Y-101571408D01*
X87520730Y-101996731D01*
X87745022Y-102404717D01*
X87746474Y-102406903D01*
X87746478Y-102406909D01*
X88001209Y-102790310D01*
X88002667Y-102792504D01*
X88291858Y-103157371D01*
X88610565Y-103496760D01*
X88956554Y-103808290D01*
X88958638Y-103809872D01*
X88958643Y-103809876D01*
X89147093Y-103952917D01*
X89327398Y-104089776D01*
X89329632Y-104091194D01*
X89329641Y-104091200D01*
X89532516Y-104219948D01*
X89720495Y-104339243D01*
X89722822Y-104340459D01*
X89722828Y-104340463D01*
X90130751Y-104553720D01*
X90130756Y-104553722D01*
X90133089Y-104554942D01*
X90562285Y-104735359D01*
X90564793Y-104736174D01*
X90564796Y-104736175D01*
X91002557Y-104878412D01*
X91002561Y-104878413D01*
X91005072Y-104879229D01*
X91248923Y-104936424D01*
X91455778Y-104984942D01*
X91455785Y-104984943D01*
X91458346Y-104985544D01*
X91918925Y-105053556D01*
X91921566Y-105053722D01*
X91921574Y-105053723D01*
X92172169Y-105069489D01*
X92383581Y-105082790D01*
X92386213Y-105082735D01*
X92386220Y-105082735D01*
X92562991Y-105079032D01*
X92849053Y-105073040D01*
X93312077Y-105024374D01*
X93769405Y-104937134D01*
X93771937Y-104936427D01*
X93771950Y-104936424D01*
X94215290Y-104812641D01*
X94215298Y-104812638D01*
X94217828Y-104811932D01*
X94524183Y-104698000D01*
X94651730Y-104650566D01*
X94651736Y-104650563D01*
X94654203Y-104649646D01*
X95075467Y-104451414D01*
X95478666Y-104218627D01*
X95860972Y-103952917D01*
X96084722Y-103767815D01*
X96217674Y-103657828D01*
X96217680Y-103657822D01*
X96219703Y-103656149D01*
X96552343Y-103330404D01*
X96554056Y-103328419D01*
X96554063Y-103328412D01*
X96854824Y-102979976D01*
X96856559Y-102977966D01*
X97130217Y-102601309D01*
X97157292Y-102556604D01*
X97370023Y-102205341D01*
X97371397Y-102203073D01*
X97578407Y-101786053D01*
X97749797Y-101353173D01*
X97884363Y-100907469D01*
X97890277Y-100879649D01*
X97980614Y-100454642D01*
X97981161Y-100452069D01*
X98039513Y-99990166D01*
X98049253Y-99757787D01*
X101945867Y-99757787D01*
X101984825Y-100221729D01*
X101985267Y-100224342D01*
X102061375Y-100674314D01*
X102062469Y-100680783D01*
X102178252Y-101131730D01*
X102179120Y-101134224D01*
X102179122Y-101134229D01*
X102219509Y-101250205D01*
X102331364Y-101571408D01*
X102520730Y-101996731D01*
X102745022Y-102404717D01*
X102746474Y-102406903D01*
X102746478Y-102406909D01*
X103001209Y-102790310D01*
X103002667Y-102792504D01*
X103291858Y-103157371D01*
X103610565Y-103496760D01*
X103956554Y-103808290D01*
X103958638Y-103809872D01*
X103958643Y-103809876D01*
X104147093Y-103952917D01*
X104327398Y-104089776D01*
X104329632Y-104091194D01*
X104329641Y-104091200D01*
X104532516Y-104219948D01*
X104720495Y-104339243D01*
X104722822Y-104340459D01*
X104722828Y-104340463D01*
X105130751Y-104553720D01*
X105130756Y-104553722D01*
X105133089Y-104554942D01*
X105562285Y-104735359D01*
X105564793Y-104736174D01*
X105564796Y-104736175D01*
X106002557Y-104878412D01*
X106002561Y-104878413D01*
X106005072Y-104879229D01*
X106248923Y-104936424D01*
X106455778Y-104984942D01*
X106455785Y-104984943D01*
X106458346Y-104985544D01*
X106918925Y-105053556D01*
X106921566Y-105053722D01*
X106921574Y-105053723D01*
X107172169Y-105069489D01*
X107383581Y-105082790D01*
X107386213Y-105082735D01*
X107386220Y-105082735D01*
X107562991Y-105079032D01*
X107849053Y-105073040D01*
X108312077Y-105024374D01*
X108769405Y-104937134D01*
X108771937Y-104936427D01*
X108771950Y-104936424D01*
X109215290Y-104812641D01*
X109215298Y-104812638D01*
X109217828Y-104811932D01*
X109524183Y-104698000D01*
X109651730Y-104650566D01*
X109651736Y-104650563D01*
X109654203Y-104649646D01*
X110075467Y-104451414D01*
X110478666Y-104218627D01*
X110860972Y-103952917D01*
X111084722Y-103767815D01*
X111217674Y-103657828D01*
X111217680Y-103657822D01*
X111219703Y-103656149D01*
X111552343Y-103330404D01*
X111554056Y-103328419D01*
X111554063Y-103328412D01*
X111854824Y-102979976D01*
X111856559Y-102977966D01*
X112130217Y-102601309D01*
X112157292Y-102556604D01*
X112370023Y-102205341D01*
X112371397Y-102203073D01*
X112578407Y-101786053D01*
X112749797Y-101353173D01*
X112884363Y-100907469D01*
X112890277Y-100879649D01*
X112980614Y-100454642D01*
X112981161Y-100452069D01*
X113039513Y-99990166D01*
X113049253Y-99757787D01*
X113058898Y-99527648D01*
X113059009Y-99525000D01*
X113049363Y-99294843D01*
X113039624Y-99062479D01*
X113039624Y-99062476D01*
X113039513Y-99059834D01*
X112981161Y-98597931D01*
X112933100Y-98371822D01*
X112884909Y-98145098D01*
X112884907Y-98145090D01*
X112884363Y-98142531D01*
X112749797Y-97696827D01*
X112578407Y-97263947D01*
X112371397Y-96846927D01*
X112130217Y-96448691D01*
X111856559Y-96072034D01*
X111701701Y-95892629D01*
X111554063Y-95721588D01*
X111554056Y-95721581D01*
X111552343Y-95719596D01*
X111219703Y-95393851D01*
X111217680Y-95392178D01*
X111217674Y-95392172D01*
X110931025Y-95155036D01*
X110860972Y-95097083D01*
X110478666Y-94831373D01*
X110075467Y-94598586D01*
X109654203Y-94400354D01*
X109651736Y-94399437D01*
X109651730Y-94399434D01*
X109220288Y-94238983D01*
X109217828Y-94238068D01*
X109215298Y-94237362D01*
X109215290Y-94237359D01*
X108771950Y-94113576D01*
X108771937Y-94113573D01*
X108769405Y-94112866D01*
X108312077Y-94025626D01*
X107849053Y-93976960D01*
X107562991Y-93970968D01*
X107386220Y-93967265D01*
X107386213Y-93967265D01*
X107383581Y-93967210D01*
X107172169Y-93980511D01*
X106921574Y-93996277D01*
X106921566Y-93996278D01*
X106918925Y-93996444D01*
X106458346Y-94064456D01*
X106455785Y-94065057D01*
X106455778Y-94065058D01*
X106279098Y-94106498D01*
X106005072Y-94170771D01*
X106002561Y-94171587D01*
X106002557Y-94171588D01*
X105564796Y-94313825D01*
X105562285Y-94314641D01*
X105133089Y-94495058D01*
X105130756Y-94496277D01*
X105130751Y-94496280D01*
X104722829Y-94709537D01*
X104722823Y-94709541D01*
X104720496Y-94710757D01*
X104718268Y-94712171D01*
X104329641Y-94958800D01*
X104329632Y-94958806D01*
X104327398Y-94960224D01*
X104325291Y-94961823D01*
X104325290Y-94961824D01*
X104070743Y-95155036D01*
X103956554Y-95241710D01*
X103610565Y-95553240D01*
X103291858Y-95892629D01*
X103002667Y-96257496D01*
X103001213Y-96259685D01*
X103001209Y-96259690D01*
X102986723Y-96281494D01*
X102745022Y-96645283D01*
X102520730Y-97053269D01*
X102331364Y-97478592D01*
X102178252Y-97918270D01*
X102062469Y-98369217D01*
X102062030Y-98371813D01*
X102062028Y-98371822D01*
X102023341Y-98600551D01*
X101984825Y-98828271D01*
X101945867Y-99292213D01*
X101945867Y-99757787D01*
X98049253Y-99757787D01*
X98058898Y-99527648D01*
X98059009Y-99525000D01*
X98049363Y-99294843D01*
X98039624Y-99062479D01*
X98039624Y-99062476D01*
X98039513Y-99059834D01*
X97981161Y-98597931D01*
X97933100Y-98371822D01*
X97884909Y-98145098D01*
X97884907Y-98145090D01*
X97884363Y-98142531D01*
X97749797Y-97696827D01*
X97578407Y-97263947D01*
X97371397Y-96846927D01*
X97130217Y-96448691D01*
X96856559Y-96072034D01*
X96701701Y-95892629D01*
X96554063Y-95721588D01*
X96554056Y-95721581D01*
X96552343Y-95719596D01*
X96219703Y-95393851D01*
X96217680Y-95392178D01*
X96217674Y-95392172D01*
X95931025Y-95155036D01*
X95860972Y-95097083D01*
X95478666Y-94831373D01*
X95075467Y-94598586D01*
X94654203Y-94400354D01*
X94651736Y-94399437D01*
X94651730Y-94399434D01*
X94220288Y-94238983D01*
X94217828Y-94238068D01*
X94215298Y-94237362D01*
X94215290Y-94237359D01*
X93771950Y-94113576D01*
X93771937Y-94113573D01*
X93769405Y-94112866D01*
X93312077Y-94025626D01*
X92849053Y-93976960D01*
X92562991Y-93970968D01*
X92386220Y-93967265D01*
X92386213Y-93967265D01*
X92383581Y-93967210D01*
X92172169Y-93980511D01*
X91921574Y-93996277D01*
X91921566Y-93996278D01*
X91918925Y-93996444D01*
X91458346Y-94064456D01*
X91455785Y-94065057D01*
X91455778Y-94065058D01*
X91279098Y-94106498D01*
X91005072Y-94170771D01*
X91002561Y-94171587D01*
X91002557Y-94171588D01*
X90564796Y-94313825D01*
X90562285Y-94314641D01*
X90133089Y-94495058D01*
X90130756Y-94496277D01*
X90130751Y-94496280D01*
X89722829Y-94709537D01*
X89722823Y-94709541D01*
X89720496Y-94710757D01*
X89718268Y-94712171D01*
X89329641Y-94958800D01*
X89329632Y-94958806D01*
X89327398Y-94960224D01*
X89325291Y-94961823D01*
X89325290Y-94961824D01*
X89070743Y-95155036D01*
X88956554Y-95241710D01*
X88610565Y-95553240D01*
X88291858Y-95892629D01*
X88002667Y-96257496D01*
X88001213Y-96259685D01*
X88001209Y-96259690D01*
X87986723Y-96281494D01*
X87745022Y-96645283D01*
X87520730Y-97053269D01*
X87331364Y-97478592D01*
X87178252Y-97918270D01*
X87062469Y-98369217D01*
X87062030Y-98371813D01*
X87062028Y-98371822D01*
X87023341Y-98600551D01*
X86984825Y-98828271D01*
X86945867Y-99292213D01*
X86945867Y-99757787D01*
X59254000Y-99757787D01*
X59254000Y-89537425D01*
X59256421Y-89512844D01*
X59258976Y-89500000D01*
X59256556Y-89487830D01*
X59256556Y-89475419D01*
X59256757Y-89475419D01*
X59255992Y-89464528D01*
X59270869Y-89199611D01*
X59272451Y-89185570D01*
X59321663Y-88895934D01*
X59324807Y-88882159D01*
X59349802Y-88795400D01*
X59406141Y-88599844D01*
X59410802Y-88586523D01*
X59523234Y-88315088D01*
X59529363Y-88302361D01*
X59671474Y-88045232D01*
X59678991Y-88033269D01*
X59848994Y-87793671D01*
X59857804Y-87782623D01*
X60053570Y-87563561D01*
X60063561Y-87553570D01*
X60282623Y-87357804D01*
X60293671Y-87348994D01*
X60533269Y-87178991D01*
X60545232Y-87171474D01*
X60713477Y-87078488D01*
X60802365Y-87029361D01*
X60815088Y-87023234D01*
X61086523Y-86910802D01*
X61099844Y-86906141D01*
X61295400Y-86849802D01*
X61382159Y-86824807D01*
X61395934Y-86821663D01*
X61540752Y-86797057D01*
X61685575Y-86772450D01*
X61699607Y-86770870D01*
X61964531Y-86755992D01*
X61975419Y-86756757D01*
X61975419Y-86756556D01*
X61987830Y-86756556D01*
X62000000Y-86758976D01*
X62012847Y-86756421D01*
X62037425Y-86754000D01*
X137962575Y-86754000D01*
X137987153Y-86756421D01*
G37*
G04 #@! TD.AperFunction*
M02*
