M48
; DRILL file {KiCad (6.0.1-0)} date 
; FORMAT={-:-/ absolute / inch / decimal}
; #@! TF.CreationDate,2022-01-26T00:07:18+08:00
; #@! TF.GenerationSoftware,Kicad,Pcbnew,(6.0.1-0)
; #@! TF.FileFunction,Plated,1,2,PTH
FMAT,2
INCH
; #@! TA.AperFunction,Plated,PTH,ComponentDrill
T1C0.0138
; #@! TA.AperFunction,Plated,PTH,ComponentDrill
T2C0.1008
%
G90
G05
T1
X2.4102Y-3.5433
X2.4102Y-4.3307
X2.4307Y-3.4937
X2.4307Y-3.5929
X2.4307Y-4.2811
X2.4307Y-4.3803
X2.4803Y-3.4732
X2.4803Y-3.6134
X2.4803Y-4.2606
X2.4803Y-4.4008
X2.5299Y-3.4937
X2.5299Y-3.5929
X2.5299Y-4.2811
X2.5299Y-4.3803
X2.5504Y-3.5433
X2.5504Y-4.3307
X5.3236Y-3.5433
X5.3236Y-4.3307
X5.3441Y-3.4937
X5.3441Y-3.5929
X5.3441Y-4.2811
X5.3441Y-4.3803
X5.3937Y-3.4732
X5.3937Y-3.6134
X5.3937Y-4.2606
X5.3937Y-4.4008
X5.4433Y-3.4937
X5.4433Y-3.5929
X5.4433Y-4.2811
X5.4433Y-4.3803
X5.4638Y-3.5433
X5.4638Y-4.3307
T2
X2.4803Y-3.5433
X2.4803Y-4.3307
X5.3937Y-3.5433
X5.3937Y-4.3307
T0
M30
