G04 #@! TF.GenerationSoftware,KiCad,Pcbnew,(5.1.4)-1*
G04 #@! TF.CreationDate,2020-02-22T21:07:06+08:00*
G04 #@! TF.ProjectId,parts,70617274-732e-46b6-9963-61645f706362,rev?*
G04 #@! TF.SameCoordinates,Original*
G04 #@! TF.FileFunction,Legend,Top*
G04 #@! TF.FilePolarity,Positive*
%FSLAX46Y46*%
G04 Gerber Fmt 4.6, Leading zero omitted, Abs format (unit mm)*
G04 Created by KiCad (PCBNEW (5.1.4)-1) date 2020-02-22 21:07:06*
%MOMM*%
%LPD*%
G04 APERTURE LIST*
%ADD10C,0.150000*%
%ADD11C,0.300000*%
%ADD12C,0.400000*%
%ADD13C,0.010000*%
G04 APERTURE END LIST*
D10*
X177002200Y-166007200D02*
X177002200Y-198007200D01*
X285002200Y-198007200D01*
X285002200Y-166007200D01*
X177002200Y-166007200D01*
X10000000Y-10000000D02*
X10000000Y-200007200D01*
X287002200Y-200007200D01*
X287002200Y-10000000D01*
X10000000Y-10000000D01*
X12000000Y-12000000D02*
X12000000Y-198007200D01*
X285002200Y-198007200D01*
X285002200Y-12000000D01*
X12000000Y-12000000D01*
X60000000Y-12000000D02*
X60000000Y-10000000D01*
X110000000Y-12000000D02*
X110000000Y-10000000D01*
X160000000Y-12000000D02*
X160000000Y-10000000D01*
X210000000Y-12000000D02*
X210000000Y-10000000D01*
X260000000Y-12000000D02*
X260000000Y-10000000D01*
X36065476Y-11588095D02*
X35322619Y-11588095D01*
X35694047Y-11588095D02*
X35694047Y-10288095D01*
X35570238Y-10473809D01*
X35446428Y-10597619D01*
X35322619Y-10659523D01*
X85322619Y-10411904D02*
X85384523Y-10350000D01*
X85508333Y-10288095D01*
X85817857Y-10288095D01*
X85941666Y-10350000D01*
X86003571Y-10411904D01*
X86065476Y-10535714D01*
X86065476Y-10659523D01*
X86003571Y-10845238D01*
X85260714Y-11588095D01*
X86065476Y-11588095D01*
X135260714Y-10288095D02*
X136065476Y-10288095D01*
X135632142Y-10783333D01*
X135817857Y-10783333D01*
X135941666Y-10845238D01*
X136003571Y-10907142D01*
X136065476Y-11030952D01*
X136065476Y-11340476D01*
X136003571Y-11464285D01*
X135941666Y-11526190D01*
X135817857Y-11588095D01*
X135446428Y-11588095D01*
X135322619Y-11526190D01*
X135260714Y-11464285D01*
X185941666Y-10721428D02*
X185941666Y-11588095D01*
X185632142Y-10226190D02*
X185322619Y-11154761D01*
X186127380Y-11154761D01*
X236003571Y-10288095D02*
X235384523Y-10288095D01*
X235322619Y-10907142D01*
X235384523Y-10845238D01*
X235508333Y-10783333D01*
X235817857Y-10783333D01*
X235941666Y-10845238D01*
X236003571Y-10907142D01*
X236065476Y-11030952D01*
X236065476Y-11340476D01*
X236003571Y-11464285D01*
X235941666Y-11526190D01*
X235817857Y-11588095D01*
X235508333Y-11588095D01*
X235384523Y-11526190D01*
X235322619Y-11464285D01*
X285941666Y-10288095D02*
X285694047Y-10288095D01*
X285570238Y-10350000D01*
X285508333Y-10411904D01*
X285384523Y-10597619D01*
X285322619Y-10845238D01*
X285322619Y-11340476D01*
X285384523Y-11464285D01*
X285446428Y-11526190D01*
X285570238Y-11588095D01*
X285817857Y-11588095D01*
X285941666Y-11526190D01*
X286003571Y-11464285D01*
X286065476Y-11340476D01*
X286065476Y-11030952D01*
X286003571Y-10907142D01*
X285941666Y-10845238D01*
X285817857Y-10783333D01*
X285570238Y-10783333D01*
X285446428Y-10845238D01*
X285384523Y-10907142D01*
X285322619Y-11030952D01*
X60000000Y-198007200D02*
X60000000Y-200007200D01*
X110000000Y-198007200D02*
X110000000Y-200007200D01*
X160000000Y-198007200D02*
X160000000Y-200007200D01*
X210000000Y-198007200D02*
X210000000Y-200007200D01*
X260000000Y-198007200D02*
X260000000Y-200007200D01*
X36065476Y-199595295D02*
X35322619Y-199595295D01*
X35694047Y-199595295D02*
X35694047Y-198295295D01*
X35570238Y-198481009D01*
X35446428Y-198604819D01*
X35322619Y-198666723D01*
X85322619Y-198419104D02*
X85384523Y-198357200D01*
X85508333Y-198295295D01*
X85817857Y-198295295D01*
X85941666Y-198357200D01*
X86003571Y-198419104D01*
X86065476Y-198542914D01*
X86065476Y-198666723D01*
X86003571Y-198852438D01*
X85260714Y-199595295D01*
X86065476Y-199595295D01*
X135260714Y-198295295D02*
X136065476Y-198295295D01*
X135632142Y-198790533D01*
X135817857Y-198790533D01*
X135941666Y-198852438D01*
X136003571Y-198914342D01*
X136065476Y-199038152D01*
X136065476Y-199347676D01*
X136003571Y-199471485D01*
X135941666Y-199533390D01*
X135817857Y-199595295D01*
X135446428Y-199595295D01*
X135322619Y-199533390D01*
X135260714Y-199471485D01*
X185941666Y-198728628D02*
X185941666Y-199595295D01*
X185632142Y-198233390D02*
X185322619Y-199161961D01*
X186127380Y-199161961D01*
X236003571Y-198295295D02*
X235384523Y-198295295D01*
X235322619Y-198914342D01*
X235384523Y-198852438D01*
X235508333Y-198790533D01*
X235817857Y-198790533D01*
X235941666Y-198852438D01*
X236003571Y-198914342D01*
X236065476Y-199038152D01*
X236065476Y-199347676D01*
X236003571Y-199471485D01*
X235941666Y-199533390D01*
X235817857Y-199595295D01*
X235508333Y-199595295D01*
X235384523Y-199533390D01*
X235322619Y-199471485D01*
X285941666Y-198295295D02*
X285694047Y-198295295D01*
X285570238Y-198357200D01*
X285508333Y-198419104D01*
X285384523Y-198604819D01*
X285322619Y-198852438D01*
X285322619Y-199347676D01*
X285384523Y-199471485D01*
X285446428Y-199533390D01*
X285570238Y-199595295D01*
X285817857Y-199595295D01*
X285941666Y-199533390D01*
X286003571Y-199471485D01*
X286065476Y-199347676D01*
X286065476Y-199038152D01*
X286003571Y-198914342D01*
X285941666Y-198852438D01*
X285817857Y-198790533D01*
X285570238Y-198790533D01*
X285446428Y-198852438D01*
X285384523Y-198914342D01*
X285322619Y-199038152D01*
X10000000Y-60000000D02*
X12000000Y-60000000D01*
X10000000Y-110000000D02*
X12000000Y-110000000D01*
X10000000Y-160000000D02*
X12000000Y-160000000D01*
X10690476Y-35216666D02*
X11309523Y-35216666D01*
X10566666Y-35588095D02*
X11000000Y-34288095D01*
X11433333Y-35588095D01*
X11092857Y-84907142D02*
X11278571Y-84969047D01*
X11340476Y-85030952D01*
X11402380Y-85154761D01*
X11402380Y-85340476D01*
X11340476Y-85464285D01*
X11278571Y-85526190D01*
X11154761Y-85588095D01*
X10659523Y-85588095D01*
X10659523Y-84288095D01*
X11092857Y-84288095D01*
X11216666Y-84350000D01*
X11278571Y-84411904D01*
X11340476Y-84535714D01*
X11340476Y-84659523D01*
X11278571Y-84783333D01*
X11216666Y-84845238D01*
X11092857Y-84907142D01*
X10659523Y-84907142D01*
X11402380Y-135464285D02*
X11340476Y-135526190D01*
X11154761Y-135588095D01*
X11030952Y-135588095D01*
X10845238Y-135526190D01*
X10721428Y-135402380D01*
X10659523Y-135278571D01*
X10597619Y-135030952D01*
X10597619Y-134845238D01*
X10659523Y-134597619D01*
X10721428Y-134473809D01*
X10845238Y-134350000D01*
X11030952Y-134288095D01*
X11154761Y-134288095D01*
X11340476Y-134350000D01*
X11402380Y-134411904D01*
X10659523Y-185588095D02*
X10659523Y-184288095D01*
X10969047Y-184288095D01*
X11154761Y-184350000D01*
X11278571Y-184473809D01*
X11340476Y-184597619D01*
X11402380Y-184845238D01*
X11402380Y-185030952D01*
X11340476Y-185278571D01*
X11278571Y-185402380D01*
X11154761Y-185526190D01*
X10969047Y-185588095D01*
X10659523Y-185588095D01*
X287002200Y-60000000D02*
X285002200Y-60000000D01*
X287002200Y-110000000D02*
X285002200Y-110000000D01*
X287002200Y-160000000D02*
X285002200Y-160000000D01*
X285692676Y-35216666D02*
X286311723Y-35216666D01*
X285568866Y-35588095D02*
X286002200Y-34288095D01*
X286435533Y-35588095D01*
X286095057Y-84907142D02*
X286280771Y-84969047D01*
X286342676Y-85030952D01*
X286404580Y-85154761D01*
X286404580Y-85340476D01*
X286342676Y-85464285D01*
X286280771Y-85526190D01*
X286156961Y-85588095D01*
X285661723Y-85588095D01*
X285661723Y-84288095D01*
X286095057Y-84288095D01*
X286218866Y-84350000D01*
X286280771Y-84411904D01*
X286342676Y-84535714D01*
X286342676Y-84659523D01*
X286280771Y-84783333D01*
X286218866Y-84845238D01*
X286095057Y-84907142D01*
X285661723Y-84907142D01*
X286404580Y-135464285D02*
X286342676Y-135526190D01*
X286156961Y-135588095D01*
X286033152Y-135588095D01*
X285847438Y-135526190D01*
X285723628Y-135402380D01*
X285661723Y-135278571D01*
X285599819Y-135030952D01*
X285599819Y-134845238D01*
X285661723Y-134597619D01*
X285723628Y-134473809D01*
X285847438Y-134350000D01*
X286033152Y-134288095D01*
X286156961Y-134288095D01*
X286342676Y-134350000D01*
X286404580Y-134411904D01*
X285661723Y-185588095D02*
X285661723Y-184288095D01*
X285971247Y-184288095D01*
X286156961Y-184350000D01*
X286280771Y-184473809D01*
X286342676Y-184597619D01*
X286404580Y-184845238D01*
X286404580Y-185030952D01*
X286342676Y-185278571D01*
X286280771Y-185402380D01*
X286156961Y-185526190D01*
X285971247Y-185588095D01*
X285661723Y-185588095D01*
X200434342Y-193785771D02*
X200434342Y-192285771D01*
X200791485Y-192285771D01*
X201005771Y-192357200D01*
X201148628Y-192500057D01*
X201220057Y-192642914D01*
X201291485Y-192928628D01*
X201291485Y-193142914D01*
X201220057Y-193428628D01*
X201148628Y-193571485D01*
X201005771Y-193714342D01*
X200791485Y-193785771D01*
X200434342Y-193785771D01*
X202577200Y-193785771D02*
X202577200Y-193000057D01*
X202505771Y-192857200D01*
X202362914Y-192785771D01*
X202077200Y-192785771D01*
X201934342Y-192857200D01*
X202577200Y-193714342D02*
X202434342Y-193785771D01*
X202077200Y-193785771D01*
X201934342Y-193714342D01*
X201862914Y-193571485D01*
X201862914Y-193428628D01*
X201934342Y-193285771D01*
X202077200Y-193214342D01*
X202434342Y-193214342D01*
X202577200Y-193142914D01*
X203077200Y-192785771D02*
X203648628Y-192785771D01*
X203291485Y-192285771D02*
X203291485Y-193571485D01*
X203362914Y-193714342D01*
X203505771Y-193785771D01*
X203648628Y-193785771D01*
X204720057Y-193714342D02*
X204577200Y-193785771D01*
X204291485Y-193785771D01*
X204148628Y-193714342D01*
X204077200Y-193571485D01*
X204077200Y-193000057D01*
X204148628Y-192857200D01*
X204291485Y-192785771D01*
X204577200Y-192785771D01*
X204720057Y-192857200D01*
X204791485Y-193000057D01*
X204791485Y-193142914D01*
X204077200Y-193285771D01*
X205434342Y-193642914D02*
X205505771Y-193714342D01*
X205434342Y-193785771D01*
X205362914Y-193714342D01*
X205434342Y-193642914D01*
X205434342Y-193785771D01*
X205434342Y-192857200D02*
X205505771Y-192928628D01*
X205434342Y-193000057D01*
X205362914Y-192928628D01*
X205434342Y-192857200D01*
X205434342Y-193000057D01*
X177002200Y-194507200D02*
X285002200Y-194507200D01*
X178434342Y-196585771D02*
X178434342Y-195085771D01*
X179291485Y-196585771D02*
X178648628Y-195728628D01*
X179291485Y-195085771D02*
X178434342Y-195942914D01*
X179934342Y-196585771D02*
X179934342Y-195585771D01*
X179934342Y-195085771D02*
X179862914Y-195157200D01*
X179934342Y-195228628D01*
X180005771Y-195157200D01*
X179934342Y-195085771D01*
X179934342Y-195228628D01*
X181505771Y-196442914D02*
X181434342Y-196514342D01*
X181220057Y-196585771D01*
X181077200Y-196585771D01*
X180862914Y-196514342D01*
X180720057Y-196371485D01*
X180648628Y-196228628D01*
X180577200Y-195942914D01*
X180577200Y-195728628D01*
X180648628Y-195442914D01*
X180720057Y-195300057D01*
X180862914Y-195157200D01*
X181077200Y-195085771D01*
X181220057Y-195085771D01*
X181434342Y-195157200D01*
X181505771Y-195228628D01*
X182791485Y-196585771D02*
X182791485Y-195800057D01*
X182720057Y-195657200D01*
X182577200Y-195585771D01*
X182291485Y-195585771D01*
X182148628Y-195657200D01*
X182791485Y-196514342D02*
X182648628Y-196585771D01*
X182291485Y-196585771D01*
X182148628Y-196514342D01*
X182077200Y-196371485D01*
X182077200Y-196228628D01*
X182148628Y-196085771D01*
X182291485Y-196014342D01*
X182648628Y-196014342D01*
X182791485Y-195942914D01*
X184148628Y-196585771D02*
X184148628Y-195085771D01*
X184148628Y-196514342D02*
X184005771Y-196585771D01*
X183720057Y-196585771D01*
X183577200Y-196514342D01*
X183505771Y-196442914D01*
X183434342Y-196300057D01*
X183434342Y-195871485D01*
X183505771Y-195728628D01*
X183577200Y-195657200D01*
X183720057Y-195585771D01*
X184005771Y-195585771D01*
X184148628Y-195657200D01*
X186005771Y-195800057D02*
X186505771Y-195800057D01*
X186720057Y-196585771D02*
X186005771Y-196585771D01*
X186005771Y-195085771D01*
X186720057Y-195085771D01*
X187362914Y-196442914D02*
X187434342Y-196514342D01*
X187362914Y-196585771D01*
X187291485Y-196514342D01*
X187362914Y-196442914D01*
X187362914Y-196585771D01*
X188077200Y-196585771D02*
X188077200Y-195085771D01*
X188434342Y-195085771D01*
X188648628Y-195157200D01*
X188791485Y-195300057D01*
X188862914Y-195442914D01*
X188934342Y-195728628D01*
X188934342Y-195942914D01*
X188862914Y-196228628D01*
X188791485Y-196371485D01*
X188648628Y-196514342D01*
X188434342Y-196585771D01*
X188077200Y-196585771D01*
X189577200Y-196442914D02*
X189648628Y-196514342D01*
X189577200Y-196585771D01*
X189505771Y-196514342D01*
X189577200Y-196442914D01*
X189577200Y-196585771D01*
X190220057Y-196157200D02*
X190934342Y-196157200D01*
X190077200Y-196585771D02*
X190577200Y-195085771D01*
X191077200Y-196585771D01*
X191577200Y-196442914D02*
X191648628Y-196514342D01*
X191577200Y-196585771D01*
X191505771Y-196514342D01*
X191577200Y-196442914D01*
X191577200Y-196585771D01*
X194577200Y-196585771D02*
X194577200Y-195085771D01*
X194720057Y-196014342D02*
X195148628Y-196585771D01*
X195148628Y-195585771D02*
X194577200Y-196157200D01*
X195791485Y-196585771D02*
X195791485Y-195585771D01*
X195791485Y-195085771D02*
X195720057Y-195157200D01*
X195791485Y-195228628D01*
X195862914Y-195157200D01*
X195791485Y-195085771D01*
X195791485Y-195228628D01*
X197148628Y-196514342D02*
X197005771Y-196585771D01*
X196720057Y-196585771D01*
X196577200Y-196514342D01*
X196505771Y-196442914D01*
X196434342Y-196300057D01*
X196434342Y-195871485D01*
X196505771Y-195728628D01*
X196577200Y-195657200D01*
X196720057Y-195585771D01*
X197005771Y-195585771D01*
X197148628Y-195657200D01*
X198434342Y-196585771D02*
X198434342Y-195800057D01*
X198362914Y-195657200D01*
X198220057Y-195585771D01*
X197934342Y-195585771D01*
X197791485Y-195657200D01*
X198434342Y-196514342D02*
X198291485Y-196585771D01*
X197934342Y-196585771D01*
X197791485Y-196514342D01*
X197720057Y-196371485D01*
X197720057Y-196228628D01*
X197791485Y-196085771D01*
X197934342Y-196014342D01*
X198291485Y-196014342D01*
X198434342Y-195942914D01*
X199791485Y-196585771D02*
X199791485Y-195085771D01*
X199791485Y-196514342D02*
X199648628Y-196585771D01*
X199362914Y-196585771D01*
X199220057Y-196514342D01*
X199148628Y-196442914D01*
X199077200Y-196300057D01*
X199077200Y-195871485D01*
X199148628Y-195728628D01*
X199220057Y-195657200D01*
X199362914Y-195585771D01*
X199648628Y-195585771D01*
X199791485Y-195657200D01*
X202077200Y-197157200D02*
X202005771Y-197085771D01*
X201862914Y-196871485D01*
X201791485Y-196728628D01*
X201720057Y-196514342D01*
X201648628Y-196157200D01*
X201648628Y-195871485D01*
X201720057Y-195514342D01*
X201791485Y-195300057D01*
X201862914Y-195157200D01*
X202005771Y-194942914D01*
X202077200Y-194871485D01*
X203362914Y-195085771D02*
X202648628Y-195085771D01*
X202577200Y-195800057D01*
X202648628Y-195728628D01*
X202791485Y-195657200D01*
X203148628Y-195657200D01*
X203291485Y-195728628D01*
X203362914Y-195800057D01*
X203434342Y-195942914D01*
X203434342Y-196300057D01*
X203362914Y-196442914D01*
X203291485Y-196514342D01*
X203148628Y-196585771D01*
X202791485Y-196585771D01*
X202648628Y-196514342D01*
X202577200Y-196442914D01*
X204077200Y-196442914D02*
X204148628Y-196514342D01*
X204077200Y-196585771D01*
X204005771Y-196514342D01*
X204077200Y-196442914D01*
X204077200Y-196585771D01*
X205577200Y-196585771D02*
X204720057Y-196585771D01*
X205148628Y-196585771D02*
X205148628Y-195085771D01*
X205005771Y-195300057D01*
X204862914Y-195442914D01*
X204720057Y-195514342D01*
X206220057Y-196442914D02*
X206291485Y-196514342D01*
X206220057Y-196585771D01*
X206148628Y-196514342D01*
X206220057Y-196442914D01*
X206220057Y-196585771D01*
X207577200Y-195585771D02*
X207577200Y-196585771D01*
X207220057Y-195014342D02*
X206862914Y-196085771D01*
X207791485Y-196085771D01*
X208220057Y-197157200D02*
X208291485Y-197085771D01*
X208434342Y-196871485D01*
X208505771Y-196728628D01*
X208577200Y-196514342D01*
X208648628Y-196157200D01*
X208648628Y-195871485D01*
X208577200Y-195514342D01*
X208505771Y-195300057D01*
X208434342Y-195157200D01*
X208291485Y-194942914D01*
X208220057Y-194871485D01*
X209362914Y-196014342D02*
X210505771Y-196014342D01*
X212005771Y-196585771D02*
X211148628Y-196585771D01*
X211577200Y-196585771D02*
X211577200Y-195085771D01*
X211434342Y-195300057D01*
X211291485Y-195442914D01*
X211148628Y-195514342D01*
X177002200Y-191507200D02*
X285002200Y-191507200D01*
D11*
X264411485Y-193785771D02*
X263911485Y-193071485D01*
X263554342Y-193785771D02*
X263554342Y-192285771D01*
X264125771Y-192285771D01*
X264268628Y-192357200D01*
X264340057Y-192428628D01*
X264411485Y-192571485D01*
X264411485Y-192785771D01*
X264340057Y-192928628D01*
X264268628Y-193000057D01*
X264125771Y-193071485D01*
X263554342Y-193071485D01*
X265625771Y-193714342D02*
X265482914Y-193785771D01*
X265197200Y-193785771D01*
X265054342Y-193714342D01*
X264982914Y-193571485D01*
X264982914Y-193000057D01*
X265054342Y-192857200D01*
X265197200Y-192785771D01*
X265482914Y-192785771D01*
X265625771Y-192857200D01*
X265697200Y-193000057D01*
X265697200Y-193142914D01*
X264982914Y-193285771D01*
X266197200Y-192785771D02*
X266554342Y-193785771D01*
X266911485Y-192785771D01*
X267482914Y-193642914D02*
X267554342Y-193714342D01*
X267482914Y-193785771D01*
X267411485Y-193714342D01*
X267482914Y-193642914D01*
X267482914Y-193785771D01*
X267482914Y-192857200D02*
X267554342Y-192928628D01*
X267482914Y-193000057D01*
X267411485Y-192928628D01*
X267482914Y-192857200D01*
X267482914Y-193000057D01*
D10*
X178362914Y-193714342D02*
X178577200Y-193785771D01*
X178934342Y-193785771D01*
X179077200Y-193714342D01*
X179148628Y-193642914D01*
X179220057Y-193500057D01*
X179220057Y-193357200D01*
X179148628Y-193214342D01*
X179077200Y-193142914D01*
X178934342Y-193071485D01*
X178648628Y-193000057D01*
X178505771Y-192928628D01*
X178434342Y-192857200D01*
X178362914Y-192714342D01*
X178362914Y-192571485D01*
X178434342Y-192428628D01*
X178505771Y-192357200D01*
X178648628Y-192285771D01*
X179005771Y-192285771D01*
X179220057Y-192357200D01*
X179862914Y-193785771D02*
X179862914Y-192785771D01*
X179862914Y-192285771D02*
X179791485Y-192357200D01*
X179862914Y-192428628D01*
X179934342Y-192357200D01*
X179862914Y-192285771D01*
X179862914Y-192428628D01*
X180434342Y-192785771D02*
X181220057Y-192785771D01*
X180434342Y-193785771D01*
X181220057Y-193785771D01*
X182362914Y-193714342D02*
X182220057Y-193785771D01*
X181934342Y-193785771D01*
X181791485Y-193714342D01*
X181720057Y-193571485D01*
X181720057Y-193000057D01*
X181791485Y-192857200D01*
X181934342Y-192785771D01*
X182220057Y-192785771D01*
X182362914Y-192857200D01*
X182434342Y-193000057D01*
X182434342Y-193142914D01*
X181720057Y-193285771D01*
X183077200Y-193642914D02*
X183148628Y-193714342D01*
X183077200Y-193785771D01*
X183005771Y-193714342D01*
X183077200Y-193642914D01*
X183077200Y-193785771D01*
X183077200Y-192857200D02*
X183148628Y-192928628D01*
X183077200Y-193000057D01*
X183005771Y-192928628D01*
X183077200Y-192857200D01*
X183077200Y-193000057D01*
X184862914Y-193357200D02*
X185577200Y-193357200D01*
X184720057Y-193785771D02*
X185220057Y-192285771D01*
X185720057Y-193785771D01*
X186862914Y-192785771D02*
X186862914Y-193785771D01*
X186505771Y-192214342D02*
X186148628Y-193285771D01*
X187077200Y-193285771D01*
X263434342Y-196585771D02*
X263434342Y-195085771D01*
X264791485Y-196585771D02*
X264791485Y-195085771D01*
X264791485Y-196514342D02*
X264648628Y-196585771D01*
X264362914Y-196585771D01*
X264220057Y-196514342D01*
X264148628Y-196442914D01*
X264077200Y-196300057D01*
X264077200Y-195871485D01*
X264148628Y-195728628D01*
X264220057Y-195657200D01*
X264362914Y-195585771D01*
X264648628Y-195585771D01*
X264791485Y-195657200D01*
X265505771Y-196442914D02*
X265577200Y-196514342D01*
X265505771Y-196585771D01*
X265434342Y-196514342D01*
X265505771Y-196442914D01*
X265505771Y-196585771D01*
X265505771Y-195657200D02*
X265577200Y-195728628D01*
X265505771Y-195800057D01*
X265434342Y-195728628D01*
X265505771Y-195657200D01*
X265505771Y-195800057D01*
X268148628Y-196585771D02*
X267291485Y-196585771D01*
X267720057Y-196585771D02*
X267720057Y-195085771D01*
X267577200Y-195300057D01*
X267434342Y-195442914D01*
X267291485Y-195514342D01*
X269862914Y-195014342D02*
X268577200Y-196942914D01*
X271148628Y-196585771D02*
X270291485Y-196585771D01*
X270720057Y-196585771D02*
X270720057Y-195085771D01*
X270577200Y-195300057D01*
X270434342Y-195442914D01*
X270291485Y-195514342D01*
X177002200Y-187507200D02*
X285002200Y-187507200D01*
D12*
X178714580Y-188211961D02*
X179857438Y-188211961D01*
X179036009Y-190211961D02*
X179286009Y-188211961D01*
X180274104Y-190211961D02*
X180440771Y-188878628D01*
X180524104Y-188211961D02*
X180416961Y-188307200D01*
X180500295Y-188402438D01*
X180607438Y-188307200D01*
X180524104Y-188211961D01*
X180500295Y-188402438D01*
X181107438Y-188878628D02*
X181869342Y-188878628D01*
X181476485Y-188211961D02*
X181262200Y-189926247D01*
X181333628Y-190116723D01*
X181512200Y-190211961D01*
X181702676Y-190211961D01*
X182655057Y-190211961D02*
X182476485Y-190116723D01*
X182405057Y-189926247D01*
X182619342Y-188211961D01*
X184190771Y-190116723D02*
X183988390Y-190211961D01*
X183607438Y-190211961D01*
X183428866Y-190116723D01*
X183357438Y-189926247D01*
X183452676Y-189164342D01*
X183571723Y-188973866D01*
X183774104Y-188878628D01*
X184155057Y-188878628D01*
X184333628Y-188973866D01*
X184405057Y-189164342D01*
X184381247Y-189354819D01*
X183405057Y-189545295D01*
X185155057Y-190021485D02*
X185238390Y-190116723D01*
X185131247Y-190211961D01*
X185047914Y-190116723D01*
X185155057Y-190021485D01*
X185131247Y-190211961D01*
X185286009Y-188973866D02*
X185369342Y-189069104D01*
X185262200Y-189164342D01*
X185178866Y-189069104D01*
X185286009Y-188973866D01*
X185262200Y-189164342D01*
D10*
X178934342Y-185600057D02*
X178434342Y-185600057D01*
X178434342Y-186385771D02*
X178434342Y-184885771D01*
X179148628Y-184885771D01*
X179720057Y-186385771D02*
X179720057Y-185385771D01*
X179720057Y-184885771D02*
X179648628Y-184957200D01*
X179720057Y-185028628D01*
X179791485Y-184957200D01*
X179720057Y-184885771D01*
X179720057Y-185028628D01*
X180648628Y-186385771D02*
X180505771Y-186314342D01*
X180434342Y-186171485D01*
X180434342Y-184885771D01*
X181791485Y-186314342D02*
X181648628Y-186385771D01*
X181362914Y-186385771D01*
X181220057Y-186314342D01*
X181148628Y-186171485D01*
X181148628Y-185600057D01*
X181220057Y-185457200D01*
X181362914Y-185385771D01*
X181648628Y-185385771D01*
X181791485Y-185457200D01*
X181862914Y-185600057D01*
X181862914Y-185742914D01*
X181148628Y-185885771D01*
X182505771Y-186242914D02*
X182577200Y-186314342D01*
X182505771Y-186385771D01*
X182434342Y-186314342D01*
X182505771Y-186242914D01*
X182505771Y-186385771D01*
X182505771Y-185457200D02*
X182577200Y-185528628D01*
X182505771Y-185600057D01*
X182434342Y-185528628D01*
X182505771Y-185457200D01*
X182505771Y-185600057D01*
X184362914Y-185385771D02*
X184362914Y-186885771D01*
X184362914Y-185457200D02*
X184505771Y-185385771D01*
X184791485Y-185385771D01*
X184934342Y-185457200D01*
X185005771Y-185528628D01*
X185077200Y-185671485D01*
X185077200Y-186100057D01*
X185005771Y-186242914D01*
X184934342Y-186314342D01*
X184791485Y-186385771D01*
X184505771Y-186385771D01*
X184362914Y-186314342D01*
X186362914Y-186385771D02*
X186362914Y-185600057D01*
X186291485Y-185457200D01*
X186148628Y-185385771D01*
X185862914Y-185385771D01*
X185720057Y-185457200D01*
X186362914Y-186314342D02*
X186220057Y-186385771D01*
X185862914Y-186385771D01*
X185720057Y-186314342D01*
X185648628Y-186171485D01*
X185648628Y-186028628D01*
X185720057Y-185885771D01*
X185862914Y-185814342D01*
X186220057Y-185814342D01*
X186362914Y-185742914D01*
X187077200Y-186385771D02*
X187077200Y-185385771D01*
X187077200Y-185671485D02*
X187148628Y-185528628D01*
X187220057Y-185457200D01*
X187362914Y-185385771D01*
X187505771Y-185385771D01*
X187791485Y-185385771D02*
X188362914Y-185385771D01*
X188005771Y-184885771D02*
X188005771Y-186171485D01*
X188077200Y-186314342D01*
X188220057Y-186385771D01*
X188362914Y-186385771D01*
X188791485Y-186314342D02*
X188934342Y-186385771D01*
X189220057Y-186385771D01*
X189362914Y-186314342D01*
X189434342Y-186171485D01*
X189434342Y-186100057D01*
X189362914Y-185957200D01*
X189220057Y-185885771D01*
X189005771Y-185885771D01*
X188862914Y-185814342D01*
X188791485Y-185671485D01*
X188791485Y-185600057D01*
X188862914Y-185457200D01*
X189005771Y-185385771D01*
X189220057Y-185385771D01*
X189362914Y-185457200D01*
X190077200Y-186242914D02*
X190148628Y-186314342D01*
X190077200Y-186385771D01*
X190005771Y-186314342D01*
X190077200Y-186242914D01*
X190077200Y-186385771D01*
X190791485Y-186385771D02*
X190791485Y-184885771D01*
X190934342Y-185814342D02*
X191362914Y-186385771D01*
X191362914Y-185385771D02*
X190791485Y-185957200D01*
X192005771Y-186385771D02*
X192005771Y-185385771D01*
X192005771Y-184885771D02*
X191934342Y-184957200D01*
X192005771Y-185028628D01*
X192077200Y-184957200D01*
X192005771Y-184885771D01*
X192005771Y-185028628D01*
X193362914Y-186314342D02*
X193220057Y-186385771D01*
X192934342Y-186385771D01*
X192791485Y-186314342D01*
X192720057Y-186242914D01*
X192648628Y-186100057D01*
X192648628Y-185671485D01*
X192720057Y-185528628D01*
X192791485Y-185457200D01*
X192934342Y-185385771D01*
X193220057Y-185385771D01*
X193362914Y-185457200D01*
X194648628Y-186385771D02*
X194648628Y-185600057D01*
X194577200Y-185457200D01*
X194434342Y-185385771D01*
X194148628Y-185385771D01*
X194005771Y-185457200D01*
X194648628Y-186314342D02*
X194505771Y-186385771D01*
X194148628Y-186385771D01*
X194005771Y-186314342D01*
X193934342Y-186171485D01*
X193934342Y-186028628D01*
X194005771Y-185885771D01*
X194148628Y-185814342D01*
X194505771Y-185814342D01*
X194648628Y-185742914D01*
X196005771Y-186385771D02*
X196005771Y-184885771D01*
X196005771Y-186314342D02*
X195862914Y-186385771D01*
X195577200Y-186385771D01*
X195434342Y-186314342D01*
X195362914Y-186242914D01*
X195291485Y-186100057D01*
X195291485Y-185671485D01*
X195362914Y-185528628D01*
X195434342Y-185457200D01*
X195577200Y-185385771D01*
X195862914Y-185385771D01*
X196005771Y-185457200D01*
X196362914Y-186528628D02*
X197505771Y-186528628D01*
X197862914Y-185385771D02*
X197862914Y-186885771D01*
X197862914Y-185457200D02*
X198005771Y-185385771D01*
X198291485Y-185385771D01*
X198434342Y-185457200D01*
X198505771Y-185528628D01*
X198577200Y-185671485D01*
X198577200Y-186100057D01*
X198505771Y-186242914D01*
X198434342Y-186314342D01*
X198291485Y-186385771D01*
X198005771Y-186385771D01*
X197862914Y-186314342D01*
X199862914Y-186314342D02*
X199720057Y-186385771D01*
X199434342Y-186385771D01*
X199291485Y-186314342D01*
X199220057Y-186242914D01*
X199148628Y-186100057D01*
X199148628Y-185671485D01*
X199220057Y-185528628D01*
X199291485Y-185457200D01*
X199434342Y-185385771D01*
X199720057Y-185385771D01*
X199862914Y-185457200D01*
X200505771Y-186385771D02*
X200505771Y-184885771D01*
X200505771Y-185457200D02*
X200648628Y-185385771D01*
X200934342Y-185385771D01*
X201077200Y-185457200D01*
X201148628Y-185528628D01*
X201220057Y-185671485D01*
X201220057Y-186100057D01*
X201148628Y-186242914D01*
X201077200Y-186314342D01*
X200934342Y-186385771D01*
X200648628Y-186385771D01*
X200505771Y-186314342D01*
X177002200Y-181507200D02*
X285002200Y-181507200D01*
X178362914Y-183614342D02*
X178577200Y-183685771D01*
X178934342Y-183685771D01*
X179077200Y-183614342D01*
X179148628Y-183542914D01*
X179220057Y-183400057D01*
X179220057Y-183257200D01*
X179148628Y-183114342D01*
X179077200Y-183042914D01*
X178934342Y-182971485D01*
X178648628Y-182900057D01*
X178505771Y-182828628D01*
X178434342Y-182757200D01*
X178362914Y-182614342D01*
X178362914Y-182471485D01*
X178434342Y-182328628D01*
X178505771Y-182257200D01*
X178648628Y-182185771D01*
X179005771Y-182185771D01*
X179220057Y-182257200D01*
X179862914Y-183685771D02*
X179862914Y-182185771D01*
X180505771Y-183685771D02*
X180505771Y-182900057D01*
X180434342Y-182757200D01*
X180291485Y-182685771D01*
X180077200Y-182685771D01*
X179934342Y-182757200D01*
X179862914Y-182828628D01*
X181791485Y-183614342D02*
X181648628Y-183685771D01*
X181362914Y-183685771D01*
X181220057Y-183614342D01*
X181148628Y-183471485D01*
X181148628Y-182900057D01*
X181220057Y-182757200D01*
X181362914Y-182685771D01*
X181648628Y-182685771D01*
X181791485Y-182757200D01*
X181862914Y-182900057D01*
X181862914Y-183042914D01*
X181148628Y-183185771D01*
X183077200Y-183614342D02*
X182934342Y-183685771D01*
X182648628Y-183685771D01*
X182505771Y-183614342D01*
X182434342Y-183471485D01*
X182434342Y-182900057D01*
X182505771Y-182757200D01*
X182648628Y-182685771D01*
X182934342Y-182685771D01*
X183077200Y-182757200D01*
X183148628Y-182900057D01*
X183148628Y-183042914D01*
X182434342Y-183185771D01*
X183577200Y-182685771D02*
X184148628Y-182685771D01*
X183791485Y-182185771D02*
X183791485Y-183471485D01*
X183862914Y-183614342D01*
X184005771Y-183685771D01*
X184148628Y-183685771D01*
X184648628Y-183542914D02*
X184720057Y-183614342D01*
X184648628Y-183685771D01*
X184577200Y-183614342D01*
X184648628Y-183542914D01*
X184648628Y-183685771D01*
X184648628Y-182757200D02*
X184720057Y-182828628D01*
X184648628Y-182900057D01*
X184577200Y-182828628D01*
X184648628Y-182757200D01*
X184648628Y-182900057D01*
X197002200Y-191507200D02*
X197002200Y-194507200D01*
X261002200Y-191507200D02*
X261002200Y-198007200D01*
D13*
G36*
X59104211Y-75516612D02*
G01*
X59354741Y-75701597D01*
X59669710Y-76000224D01*
X60024958Y-76362382D01*
X60175248Y-76581066D01*
X60151344Y-76725503D01*
X60037154Y-76827081D01*
X59741165Y-76987724D01*
X59481034Y-76952073D01*
X59175727Y-76691646D01*
X58966106Y-76450601D01*
X58692520Y-76099662D01*
X58608542Y-75887081D01*
X58690496Y-75716020D01*
X58766758Y-75635206D01*
X58933843Y-75504841D01*
X59104211Y-75516612D01*
X59104211Y-75516612D01*
G37*
X59104211Y-75516612D02*
X59354741Y-75701597D01*
X59669710Y-76000224D01*
X60024958Y-76362382D01*
X60175248Y-76581066D01*
X60151344Y-76725503D01*
X60037154Y-76827081D01*
X59741165Y-76987724D01*
X59481034Y-76952073D01*
X59175727Y-76691646D01*
X58966106Y-76450601D01*
X58692520Y-76099662D01*
X58608542Y-75887081D01*
X58690496Y-75716020D01*
X58766758Y-75635206D01*
X58933843Y-75504841D01*
X59104211Y-75516612D01*
G36*
X140786250Y-78138750D02*
G01*
X140310000Y-78138750D01*
X139975609Y-78092767D01*
X139833786Y-77981975D01*
X139833750Y-77980000D01*
X139681951Y-77908370D01*
X139253602Y-77855953D01*
X138589271Y-77826435D01*
X138087500Y-77821250D01*
X137299580Y-77835049D01*
X136722987Y-77873990D01*
X136398290Y-77934384D01*
X136341250Y-77980000D01*
X136203301Y-78091463D01*
X135870925Y-78138737D01*
X135865000Y-78138750D01*
X135388750Y-78138750D01*
X135388750Y-76233750D01*
X136341250Y-76233750D01*
X136341250Y-77186250D01*
X139833750Y-77186250D01*
X139833750Y-76233750D01*
X136341250Y-76233750D01*
X135388750Y-76233750D01*
X135388750Y-75598750D01*
X140786250Y-75598750D01*
X140786250Y-78138750D01*
X140786250Y-78138750D01*
G37*
X140786250Y-78138750D02*
X140310000Y-78138750D01*
X139975609Y-78092767D01*
X139833786Y-77981975D01*
X139833750Y-77980000D01*
X139681951Y-77908370D01*
X139253602Y-77855953D01*
X138589271Y-77826435D01*
X138087500Y-77821250D01*
X137299580Y-77835049D01*
X136722987Y-77873990D01*
X136398290Y-77934384D01*
X136341250Y-77980000D01*
X136203301Y-78091463D01*
X135870925Y-78138737D01*
X135865000Y-78138750D01*
X135388750Y-78138750D01*
X135388750Y-76233750D01*
X136341250Y-76233750D01*
X136341250Y-77186250D01*
X139833750Y-77186250D01*
X139833750Y-76233750D01*
X136341250Y-76233750D01*
X135388750Y-76233750D01*
X135388750Y-75598750D01*
X140786250Y-75598750D01*
X140786250Y-78138750D01*
G36*
X62879687Y-75151146D02*
G01*
X63200624Y-75331924D01*
X63287603Y-75559062D01*
X63339454Y-75747240D01*
X63476245Y-75854466D01*
X63770449Y-75903231D01*
X64294542Y-75916027D01*
X64438541Y-75916250D01*
X65038872Y-75930493D01*
X65381153Y-75981666D01*
X65523906Y-76082436D01*
X65538750Y-76154375D01*
X65473397Y-76283752D01*
X65238412Y-76357798D01*
X64775398Y-76389028D01*
X64427500Y-76392500D01*
X63823739Y-76406504D01*
X63478188Y-76456858D01*
X63332451Y-76556075D01*
X63316250Y-76630625D01*
X63384579Y-76763548D01*
X63628981Y-76837768D01*
X64108578Y-76866775D01*
X64359765Y-76868750D01*
X64921270Y-76879075D01*
X65229708Y-76922037D01*
X65349173Y-77015608D01*
X65350358Y-77146562D01*
X65256540Y-77307802D01*
X65005727Y-77404911D01*
X64529338Y-77459252D01*
X64306843Y-77471637D01*
X63693830Y-77526807D01*
X63384392Y-77606887D01*
X63367540Y-77693722D01*
X63632281Y-77769161D01*
X64167625Y-77815049D01*
X64518515Y-77821250D01*
X65130793Y-77829371D01*
X65486627Y-77863547D01*
X65646869Y-77938490D01*
X65672373Y-78068917D01*
X65667419Y-78099062D01*
X65620286Y-78201354D01*
X65494392Y-78276789D01*
X65245322Y-78330536D01*
X64828658Y-78367764D01*
X64199987Y-78393641D01*
X63314891Y-78413335D01*
X62907732Y-78420182D01*
X62011006Y-78428308D01*
X61226762Y-78423617D01*
X60609260Y-78407384D01*
X60212763Y-78380882D01*
X60091952Y-78354036D01*
X59988720Y-78109318D01*
X59982500Y-78032916D01*
X60069199Y-77920773D01*
X60359689Y-77853765D01*
X60899562Y-77824295D01*
X61252500Y-77821250D01*
X61881435Y-77802683D01*
X62323400Y-77751995D01*
X62518266Y-77676701D01*
X62522500Y-77662500D01*
X62377901Y-77577940D01*
X62000157Y-77520612D01*
X61570000Y-77503750D01*
X61038009Y-77492165D01*
X60750549Y-77441275D01*
X60635011Y-77326876D01*
X60617500Y-77186250D01*
X60652254Y-77008919D01*
X60804924Y-76913099D01*
X61148120Y-76874587D01*
X61570000Y-76868750D01*
X62123073Y-76850462D01*
X62420016Y-76785633D01*
X62520621Y-76659316D01*
X62522500Y-76630625D01*
X62457147Y-76501247D01*
X62222162Y-76427201D01*
X61759148Y-76395971D01*
X61411250Y-76392500D01*
X60807489Y-76378495D01*
X60461938Y-76328141D01*
X60316201Y-76228924D01*
X60300000Y-76154375D01*
X60365352Y-76024997D01*
X60600337Y-75950951D01*
X61063351Y-75919721D01*
X61411250Y-75916250D01*
X61991688Y-75910714D01*
X62323867Y-75877167D01*
X62477016Y-75790194D01*
X62520365Y-75624383D01*
X62522500Y-75508333D01*
X62574324Y-75211002D01*
X62783532Y-75141147D01*
X62879687Y-75151146D01*
X62879687Y-75151146D01*
G37*
X62879687Y-75151146D02*
X63200624Y-75331924D01*
X63287603Y-75559062D01*
X63339454Y-75747240D01*
X63476245Y-75854466D01*
X63770449Y-75903231D01*
X64294542Y-75916027D01*
X64438541Y-75916250D01*
X65038872Y-75930493D01*
X65381153Y-75981666D01*
X65523906Y-76082436D01*
X65538750Y-76154375D01*
X65473397Y-76283752D01*
X65238412Y-76357798D01*
X64775398Y-76389028D01*
X64427500Y-76392500D01*
X63823739Y-76406504D01*
X63478188Y-76456858D01*
X63332451Y-76556075D01*
X63316250Y-76630625D01*
X63384579Y-76763548D01*
X63628981Y-76837768D01*
X64108578Y-76866775D01*
X64359765Y-76868750D01*
X64921270Y-76879075D01*
X65229708Y-76922037D01*
X65349173Y-77015608D01*
X65350358Y-77146562D01*
X65256540Y-77307802D01*
X65005727Y-77404911D01*
X64529338Y-77459252D01*
X64306843Y-77471637D01*
X63693830Y-77526807D01*
X63384392Y-77606887D01*
X63367540Y-77693722D01*
X63632281Y-77769161D01*
X64167625Y-77815049D01*
X64518515Y-77821250D01*
X65130793Y-77829371D01*
X65486627Y-77863547D01*
X65646869Y-77938490D01*
X65672373Y-78068917D01*
X65667419Y-78099062D01*
X65620286Y-78201354D01*
X65494392Y-78276789D01*
X65245322Y-78330536D01*
X64828658Y-78367764D01*
X64199987Y-78393641D01*
X63314891Y-78413335D01*
X62907732Y-78420182D01*
X62011006Y-78428308D01*
X61226762Y-78423617D01*
X60609260Y-78407384D01*
X60212763Y-78380882D01*
X60091952Y-78354036D01*
X59988720Y-78109318D01*
X59982500Y-78032916D01*
X60069199Y-77920773D01*
X60359689Y-77853765D01*
X60899562Y-77824295D01*
X61252500Y-77821250D01*
X61881435Y-77802683D01*
X62323400Y-77751995D01*
X62518266Y-77676701D01*
X62522500Y-77662500D01*
X62377901Y-77577940D01*
X62000157Y-77520612D01*
X61570000Y-77503750D01*
X61038009Y-77492165D01*
X60750549Y-77441275D01*
X60635011Y-77326876D01*
X60617500Y-77186250D01*
X60652254Y-77008919D01*
X60804924Y-76913099D01*
X61148120Y-76874587D01*
X61570000Y-76868750D01*
X62123073Y-76850462D01*
X62420016Y-76785633D01*
X62520621Y-76659316D01*
X62522500Y-76630625D01*
X62457147Y-76501247D01*
X62222162Y-76427201D01*
X61759148Y-76395971D01*
X61411250Y-76392500D01*
X60807489Y-76378495D01*
X60461938Y-76328141D01*
X60316201Y-76228924D01*
X60300000Y-76154375D01*
X60365352Y-76024997D01*
X60600337Y-75950951D01*
X61063351Y-75919721D01*
X61411250Y-75916250D01*
X61991688Y-75910714D01*
X62323867Y-75877167D01*
X62477016Y-75790194D01*
X62520365Y-75624383D01*
X62522500Y-75508333D01*
X62574324Y-75211002D01*
X62783532Y-75141147D01*
X62879687Y-75151146D01*
G36*
X101634478Y-78458211D02*
G01*
X102295996Y-78468090D01*
X102732839Y-78491872D01*
X102991415Y-78535547D01*
X103118133Y-78605103D01*
X103159402Y-78706529D01*
X103162500Y-78773750D01*
X103147294Y-78894085D01*
X103070739Y-78979443D01*
X102886424Y-79035809D01*
X102547942Y-79069174D01*
X102008882Y-79085525D01*
X101222835Y-79090850D01*
X100701875Y-79091250D01*
X99769271Y-79089288D01*
X99107753Y-79079409D01*
X98670910Y-79055627D01*
X98412334Y-79011952D01*
X98285616Y-78942396D01*
X98244347Y-78840970D01*
X98241250Y-78773750D01*
X98256455Y-78653414D01*
X98333010Y-78568056D01*
X98517325Y-78511690D01*
X98855807Y-78478325D01*
X99394867Y-78461974D01*
X100180914Y-78456649D01*
X100701875Y-78456250D01*
X101634478Y-78458211D01*
X101634478Y-78458211D01*
G37*
X101634478Y-78458211D02*
X102295996Y-78468090D01*
X102732839Y-78491872D01*
X102991415Y-78535547D01*
X103118133Y-78605103D01*
X103159402Y-78706529D01*
X103162500Y-78773750D01*
X103147294Y-78894085D01*
X103070739Y-78979443D01*
X102886424Y-79035809D01*
X102547942Y-79069174D01*
X102008882Y-79085525D01*
X101222835Y-79090850D01*
X100701875Y-79091250D01*
X99769271Y-79089288D01*
X99107753Y-79079409D01*
X98670910Y-79055627D01*
X98412334Y-79011952D01*
X98285616Y-78942396D01*
X98244347Y-78840970D01*
X98241250Y-78773750D01*
X98256455Y-78653414D01*
X98333010Y-78568056D01*
X98517325Y-78511690D01*
X98855807Y-78478325D01*
X99394867Y-78461974D01*
X100180914Y-78456649D01*
X100701875Y-78456250D01*
X101634478Y-78458211D01*
G36*
X115251722Y-75264173D02*
G01*
X115522064Y-75523866D01*
X115582449Y-75590696D01*
X115810170Y-75826289D01*
X116030593Y-75969652D01*
X116328024Y-76043644D01*
X116786766Y-76071129D01*
X117368387Y-76075000D01*
X118720000Y-76075000D01*
X118720000Y-76868750D01*
X118707132Y-77339832D01*
X118641465Y-77574844D01*
X118482400Y-77654980D01*
X118323125Y-77662500D01*
X118039489Y-77611242D01*
X117935727Y-77393352D01*
X117926250Y-77186250D01*
X117926250Y-76710000D01*
X116153541Y-76710000D01*
X115458947Y-76718620D01*
X114911147Y-76742030D01*
X114568829Y-76776556D01*
X114485289Y-76814456D01*
X114489741Y-77005341D01*
X114412934Y-77131956D01*
X114384042Y-77225937D01*
X114511493Y-77288411D01*
X114838452Y-77325163D01*
X115408086Y-77341982D01*
X116001811Y-77345000D01*
X116812893Y-77354083D01*
X117348958Y-77384645D01*
X117652061Y-77441648D01*
X117764257Y-77530056D01*
X117767500Y-77553424D01*
X117646577Y-77804390D01*
X117330289Y-78159371D01*
X116888355Y-78547638D01*
X116529271Y-78809582D01*
X116164168Y-79052856D01*
X116529271Y-79139393D01*
X116874422Y-79200249D01*
X117412683Y-79273192D01*
X117961859Y-79335397D01*
X118522860Y-79400664D01*
X118825072Y-79468292D01*
X118926319Y-79564344D01*
X118884426Y-79714882D01*
X118869086Y-79744307D01*
X118589218Y-79969037D01*
X118065677Y-80038374D01*
X117286993Y-79952315D01*
X116365081Y-79743712D01*
X115766850Y-79593521D01*
X115352494Y-79526797D01*
X114999550Y-79543566D01*
X114585553Y-79643854D01*
X114256814Y-79744154D01*
X113571801Y-79929449D01*
X112851654Y-80081950D01*
X112458085Y-80142571D01*
X111953338Y-80184199D01*
X111675554Y-80146865D01*
X111540611Y-80015111D01*
X111521151Y-79970394D01*
X111433259Y-79720313D01*
X111417500Y-79655671D01*
X111561869Y-79611407D01*
X111944775Y-79533959D01*
X112490917Y-79438227D01*
X112638912Y-79414025D01*
X113436269Y-79280182D01*
X113953077Y-79171512D01*
X114223068Y-79068092D01*
X114279974Y-78949997D01*
X114157527Y-78797304D01*
X113953825Y-78637385D01*
X113462490Y-78274125D01*
X112901529Y-78701990D01*
X112539805Y-78956748D01*
X112320262Y-79026053D01*
X112145144Y-78932383D01*
X112097577Y-78886863D01*
X112002700Y-78748985D01*
X112025767Y-78586228D01*
X112199984Y-78346565D01*
X112558560Y-77977972D01*
X112709905Y-77832668D01*
X114036875Y-77832668D01*
X114513125Y-78223045D01*
X114969562Y-78523225D01*
X115381428Y-78584006D01*
X115848906Y-78405087D01*
X116145898Y-78218125D01*
X116729952Y-77821250D01*
X115383413Y-77826959D01*
X114036875Y-77832668D01*
X112709905Y-77832668D01*
X112866355Y-77682463D01*
X113878125Y-76721057D01*
X113203437Y-76715528D01*
X112780199Y-76727561D01*
X112585637Y-76815126D01*
X112531164Y-77041477D01*
X112528750Y-77197291D01*
X112493368Y-77535545D01*
X112341519Y-77643725D01*
X112171562Y-77633853D01*
X111948281Y-77559421D01*
X111843272Y-77360517D01*
X111814666Y-76947460D01*
X111814375Y-76868750D01*
X111814375Y-76154375D01*
X113376709Y-76108763D01*
X114087000Y-76083149D01*
X114528002Y-76049585D01*
X114747912Y-75997581D01*
X114794932Y-75916646D01*
X114732076Y-75813772D01*
X114617917Y-75592486D01*
X114755197Y-75398178D01*
X114836617Y-75335392D01*
X115057479Y-75213069D01*
X115251722Y-75264173D01*
X115251722Y-75264173D01*
G37*
X115251722Y-75264173D02*
X115522064Y-75523866D01*
X115582449Y-75590696D01*
X115810170Y-75826289D01*
X116030593Y-75969652D01*
X116328024Y-76043644D01*
X116786766Y-76071129D01*
X117368387Y-76075000D01*
X118720000Y-76075000D01*
X118720000Y-76868750D01*
X118707132Y-77339832D01*
X118641465Y-77574844D01*
X118482400Y-77654980D01*
X118323125Y-77662500D01*
X118039489Y-77611242D01*
X117935727Y-77393352D01*
X117926250Y-77186250D01*
X117926250Y-76710000D01*
X116153541Y-76710000D01*
X115458947Y-76718620D01*
X114911147Y-76742030D01*
X114568829Y-76776556D01*
X114485289Y-76814456D01*
X114489741Y-77005341D01*
X114412934Y-77131956D01*
X114384042Y-77225937D01*
X114511493Y-77288411D01*
X114838452Y-77325163D01*
X115408086Y-77341982D01*
X116001811Y-77345000D01*
X116812893Y-77354083D01*
X117348958Y-77384645D01*
X117652061Y-77441648D01*
X117764257Y-77530056D01*
X117767500Y-77553424D01*
X117646577Y-77804390D01*
X117330289Y-78159371D01*
X116888355Y-78547638D01*
X116529271Y-78809582D01*
X116164168Y-79052856D01*
X116529271Y-79139393D01*
X116874422Y-79200249D01*
X117412683Y-79273192D01*
X117961859Y-79335397D01*
X118522860Y-79400664D01*
X118825072Y-79468292D01*
X118926319Y-79564344D01*
X118884426Y-79714882D01*
X118869086Y-79744307D01*
X118589218Y-79969037D01*
X118065677Y-80038374D01*
X117286993Y-79952315D01*
X116365081Y-79743712D01*
X115766850Y-79593521D01*
X115352494Y-79526797D01*
X114999550Y-79543566D01*
X114585553Y-79643854D01*
X114256814Y-79744154D01*
X113571801Y-79929449D01*
X112851654Y-80081950D01*
X112458085Y-80142571D01*
X111953338Y-80184199D01*
X111675554Y-80146865D01*
X111540611Y-80015111D01*
X111521151Y-79970394D01*
X111433259Y-79720313D01*
X111417500Y-79655671D01*
X111561869Y-79611407D01*
X111944775Y-79533959D01*
X112490917Y-79438227D01*
X112638912Y-79414025D01*
X113436269Y-79280182D01*
X113953077Y-79171512D01*
X114223068Y-79068092D01*
X114279974Y-78949997D01*
X114157527Y-78797304D01*
X113953825Y-78637385D01*
X113462490Y-78274125D01*
X112901529Y-78701990D01*
X112539805Y-78956748D01*
X112320262Y-79026053D01*
X112145144Y-78932383D01*
X112097577Y-78886863D01*
X112002700Y-78748985D01*
X112025767Y-78586228D01*
X112199984Y-78346565D01*
X112558560Y-77977972D01*
X112709905Y-77832668D01*
X114036875Y-77832668D01*
X114513125Y-78223045D01*
X114969562Y-78523225D01*
X115381428Y-78584006D01*
X115848906Y-78405087D01*
X116145898Y-78218125D01*
X116729952Y-77821250D01*
X115383413Y-77826959D01*
X114036875Y-77832668D01*
X112709905Y-77832668D01*
X112866355Y-77682463D01*
X113878125Y-76721057D01*
X113203437Y-76715528D01*
X112780199Y-76727561D01*
X112585637Y-76815126D01*
X112531164Y-77041477D01*
X112528750Y-77197291D01*
X112493368Y-77535545D01*
X112341519Y-77643725D01*
X112171562Y-77633853D01*
X111948281Y-77559421D01*
X111843272Y-77360517D01*
X111814666Y-76947460D01*
X111814375Y-76868750D01*
X111814375Y-76154375D01*
X113376709Y-76108763D01*
X114087000Y-76083149D01*
X114528002Y-76049585D01*
X114747912Y-75997581D01*
X114794932Y-75916646D01*
X114732076Y-75813772D01*
X114617917Y-75592486D01*
X114755197Y-75398178D01*
X114836617Y-75335392D01*
X115057479Y-75213069D01*
X115251722Y-75264173D01*
G36*
X139282565Y-78457158D02*
G01*
X140197501Y-78461958D01*
X140869678Y-78473765D01*
X141336466Y-78495693D01*
X141635234Y-78530855D01*
X141803354Y-78582367D01*
X141878193Y-78653341D01*
X141897123Y-78746893D01*
X141897500Y-78773750D01*
X141882941Y-78891274D01*
X141809162Y-78975553D01*
X141631004Y-79032099D01*
X141303310Y-79066424D01*
X140780923Y-79084041D01*
X140018685Y-79090463D01*
X139296640Y-79091250D01*
X138332024Y-79093280D01*
X137638261Y-79103048D01*
X137168715Y-79126073D01*
X136876745Y-79167870D01*
X136715714Y-79233958D01*
X136638983Y-79329853D01*
X136612752Y-79408750D01*
X136593925Y-79536527D01*
X136647917Y-79624448D01*
X136822618Y-79679945D01*
X137165914Y-79710452D01*
X137725694Y-79723405D01*
X138549848Y-79726237D01*
X138657987Y-79726250D01*
X140786250Y-79726250D01*
X140786250Y-80416935D01*
X140702067Y-81295419D01*
X140443969Y-81921217D01*
X140003628Y-82312543D01*
X139896741Y-82362701D01*
X139426928Y-82491055D01*
X138835258Y-82562360D01*
X138224934Y-82575391D01*
X137699159Y-82528922D01*
X137361135Y-82421725D01*
X137325500Y-82393250D01*
X137124704Y-82121940D01*
X137174374Y-81939188D01*
X137493904Y-81833066D01*
X138102685Y-81791644D01*
X138306186Y-81790000D01*
X138987480Y-81771565D01*
X139422402Y-81689562D01*
X139681210Y-81503939D01*
X139834160Y-81174643D01*
X139907407Y-80877187D01*
X140017727Y-80361250D01*
X135510486Y-80361250D01*
X135587953Y-80004062D01*
X135703999Y-79584549D01*
X135782194Y-79369062D01*
X135813089Y-79205414D01*
X135684232Y-79122093D01*
X135331164Y-79093296D01*
X135088234Y-79091250D01*
X134605949Y-79075240D01*
X134362993Y-79006999D01*
X134281949Y-78856210D01*
X134277500Y-78773750D01*
X134288397Y-78674161D01*
X134346002Y-78597916D01*
X134487686Y-78541901D01*
X134750818Y-78503002D01*
X135172767Y-78478105D01*
X135790905Y-78464095D01*
X136642600Y-78457858D01*
X137765223Y-78456281D01*
X138087500Y-78456250D01*
X139282565Y-78457158D01*
X139282565Y-78457158D01*
G37*
X139282565Y-78457158D02*
X140197501Y-78461958D01*
X140869678Y-78473765D01*
X141336466Y-78495693D01*
X141635234Y-78530855D01*
X141803354Y-78582367D01*
X141878193Y-78653341D01*
X141897123Y-78746893D01*
X141897500Y-78773750D01*
X141882941Y-78891274D01*
X141809162Y-78975553D01*
X141631004Y-79032099D01*
X141303310Y-79066424D01*
X140780923Y-79084041D01*
X140018685Y-79090463D01*
X139296640Y-79091250D01*
X138332024Y-79093280D01*
X137638261Y-79103048D01*
X137168715Y-79126073D01*
X136876745Y-79167870D01*
X136715714Y-79233958D01*
X136638983Y-79329853D01*
X136612752Y-79408750D01*
X136593925Y-79536527D01*
X136647917Y-79624448D01*
X136822618Y-79679945D01*
X137165914Y-79710452D01*
X137725694Y-79723405D01*
X138549848Y-79726237D01*
X138657987Y-79726250D01*
X140786250Y-79726250D01*
X140786250Y-80416935D01*
X140702067Y-81295419D01*
X140443969Y-81921217D01*
X140003628Y-82312543D01*
X139896741Y-82362701D01*
X139426928Y-82491055D01*
X138835258Y-82562360D01*
X138224934Y-82575391D01*
X137699159Y-82528922D01*
X137361135Y-82421725D01*
X137325500Y-82393250D01*
X137124704Y-82121940D01*
X137174374Y-81939188D01*
X137493904Y-81833066D01*
X138102685Y-81791644D01*
X138306186Y-81790000D01*
X138987480Y-81771565D01*
X139422402Y-81689562D01*
X139681210Y-81503939D01*
X139834160Y-81174643D01*
X139907407Y-80877187D01*
X140017727Y-80361250D01*
X135510486Y-80361250D01*
X135587953Y-80004062D01*
X135703999Y-79584549D01*
X135782194Y-79369062D01*
X135813089Y-79205414D01*
X135684232Y-79122093D01*
X135331164Y-79093296D01*
X135088234Y-79091250D01*
X134605949Y-79075240D01*
X134362993Y-79006999D01*
X134281949Y-78856210D01*
X134277500Y-78773750D01*
X134288397Y-78674161D01*
X134346002Y-78597916D01*
X134487686Y-78541901D01*
X134750818Y-78503002D01*
X135172767Y-78478105D01*
X135790905Y-78464095D01*
X136642600Y-78457858D01*
X137765223Y-78456281D01*
X138087500Y-78456250D01*
X139282565Y-78457158D01*
G36*
X128529657Y-75416342D02*
G01*
X128603794Y-75553575D01*
X128544454Y-75827756D01*
X128336049Y-76290834D01*
X128172470Y-76606817D01*
X127865559Y-77190307D01*
X127692278Y-77548582D01*
X127636808Y-77736555D01*
X127683332Y-77809139D01*
X127816031Y-77821246D01*
X127822643Y-77821250D01*
X128038717Y-77691463D01*
X128216114Y-77424375D01*
X128461953Y-77119645D01*
X128707788Y-77027500D01*
X128942360Y-76940577D01*
X129053846Y-76631849D01*
X129063583Y-76551250D01*
X129832500Y-76551250D01*
X129832500Y-77345000D01*
X133166250Y-77345000D01*
X133166250Y-76551250D01*
X129832500Y-76551250D01*
X129063583Y-76551250D01*
X129068379Y-76511562D01*
X129118125Y-75995625D01*
X130123186Y-75948028D01*
X130663002Y-75911691D01*
X130936925Y-75856643D01*
X130996558Y-75765799D01*
X130942614Y-75676756D01*
X130864620Y-75500013D01*
X131041249Y-75385889D01*
X131178655Y-75347247D01*
X131555398Y-75332965D01*
X131826258Y-75564151D01*
X131836666Y-75578832D01*
X132045845Y-75784697D01*
X132364475Y-75886980D01*
X132891954Y-75916157D01*
X132937126Y-75916249D01*
X133801250Y-75916250D01*
X133801250Y-78073797D01*
X131816875Y-78007734D01*
X130994798Y-77982504D01*
X130438254Y-77976244D01*
X130095497Y-77996009D01*
X129914782Y-78048857D01*
X129844365Y-78141843D01*
X129832500Y-78278335D01*
X129846441Y-78415635D01*
X129922099Y-78509421D01*
X130110224Y-78567971D01*
X130461566Y-78599564D01*
X131026877Y-78612480D01*
X131856906Y-78614998D01*
X131896250Y-78615000D01*
X133960000Y-78615000D01*
X133960000Y-80348266D01*
X133951507Y-81079863D01*
X133928533Y-81708752D01*
X133894833Y-82157598D01*
X133863640Y-82332641D01*
X133678547Y-82478690D01*
X133334252Y-82567639D01*
X132949388Y-82591262D01*
X132642589Y-82541338D01*
X132531250Y-82425000D01*
X132402669Y-82284160D01*
X132293125Y-82266250D01*
X132143377Y-82181275D01*
X132070237Y-81887073D01*
X132055000Y-81472500D01*
X132046893Y-81313750D01*
X132848750Y-81313750D01*
X132883958Y-81711388D01*
X132971914Y-81932557D01*
X133007500Y-81948750D01*
X133106909Y-81807914D01*
X133162201Y-81456091D01*
X133166250Y-81313750D01*
X133131041Y-80916111D01*
X133043085Y-80694942D01*
X133007500Y-80678750D01*
X132908090Y-80819585D01*
X132852798Y-81171408D01*
X132848750Y-81313750D01*
X132046893Y-81313750D01*
X132029507Y-80973340D01*
X131941247Y-80729542D01*
X131816875Y-80678750D01*
X131667127Y-80763724D01*
X131593987Y-81057926D01*
X131578750Y-81472500D01*
X131562033Y-81948594D01*
X131491081Y-82186040D01*
X131334687Y-82262853D01*
X131261250Y-82266250D01*
X131070812Y-82224459D01*
X130975833Y-82047079D01*
X130945108Y-81656093D01*
X130943750Y-81472500D01*
X130918257Y-80973340D01*
X130829997Y-80729542D01*
X130705625Y-80678750D01*
X130567356Y-80751900D01*
X130493120Y-81011214D01*
X130467969Y-81516484D01*
X130467500Y-81631250D01*
X130455915Y-82163240D01*
X130405025Y-82450700D01*
X130290626Y-82566238D01*
X130150000Y-82583750D01*
X130000548Y-82559789D01*
X129906062Y-82448177D01*
X129853114Y-82189312D01*
X129828278Y-81723596D01*
X129819195Y-81115312D01*
X129805890Y-79646875D01*
X130467500Y-79646875D01*
X130519137Y-80057824D01*
X130683937Y-80201495D01*
X130705625Y-80202500D01*
X130881746Y-80082013D01*
X130943319Y-79697479D01*
X130943750Y-79646875D01*
X131578750Y-79646875D01*
X131630387Y-80057824D01*
X131795187Y-80201495D01*
X131816875Y-80202500D01*
X131992996Y-80082013D01*
X132054569Y-79697479D01*
X132055000Y-79646875D01*
X132848750Y-79646875D01*
X132888622Y-80014126D01*
X132986666Y-80197701D01*
X133007500Y-80202500D01*
X133112428Y-80062946D01*
X133164878Y-79719793D01*
X133166250Y-79646875D01*
X133126377Y-79279623D01*
X133028333Y-79096048D01*
X133007500Y-79091250D01*
X132902571Y-79230803D01*
X132850121Y-79573956D01*
X132848750Y-79646875D01*
X132055000Y-79646875D01*
X132003362Y-79235925D01*
X131838562Y-79092254D01*
X131816875Y-79091250D01*
X131640753Y-79211736D01*
X131579180Y-79596270D01*
X131578750Y-79646875D01*
X130943750Y-79646875D01*
X130892112Y-79235925D01*
X130727312Y-79092254D01*
X130705625Y-79091250D01*
X130529503Y-79211736D01*
X130467930Y-79596270D01*
X130467500Y-79646875D01*
X129805890Y-79646875D01*
X129612955Y-80520000D01*
X129423049Y-81220811D01*
X129192187Y-81838817D01*
X128951415Y-82307099D01*
X128731777Y-82558737D01*
X128655536Y-82583750D01*
X128383357Y-82481320D01*
X128287107Y-82403607D01*
X128200452Y-82183594D01*
X128346307Y-81858230D01*
X128352751Y-81848347D01*
X128501400Y-81599376D01*
X128453903Y-81520829D01*
X128158217Y-81565048D01*
X128064581Y-81584458D01*
X127356196Y-81693062D01*
X126911351Y-81663992D01*
X126706366Y-81494896D01*
X126692876Y-81448231D01*
X126738266Y-81264422D01*
X127004505Y-81143487D01*
X127323516Y-81082546D01*
X128035082Y-80970000D01*
X128489222Y-80877577D01*
X128743220Y-80783406D01*
X128854363Y-80665616D01*
X128879934Y-80502337D01*
X128880000Y-80488306D01*
X128853065Y-80311601D01*
X128723790Y-80223626D01*
X128419464Y-80205316D01*
X127911616Y-80234385D01*
X127293889Y-80250739D01*
X126954175Y-80163856D01*
X126871702Y-79935537D01*
X127025695Y-79527582D01*
X127049884Y-79485720D01*
X127927500Y-79485720D01*
X128067246Y-79539806D01*
X128410808Y-79566805D01*
X128483125Y-79567500D01*
X129038750Y-79567500D01*
X129038750Y-78615000D01*
X129029022Y-78112550D01*
X129003739Y-77767402D01*
X128974529Y-77662500D01*
X128872459Y-77787749D01*
X128672826Y-78103777D01*
X128427073Y-78520998D01*
X128186646Y-78949830D01*
X128002992Y-79300689D01*
X127927554Y-79483991D01*
X127927500Y-79485720D01*
X127049884Y-79485720D01*
X127284086Y-79080409D01*
X127783304Y-78269076D01*
X127319905Y-78370855D01*
X126964855Y-78394386D01*
X126787491Y-78253335D01*
X126787627Y-77922762D01*
X126965076Y-77377725D01*
X127306870Y-76619655D01*
X127646651Y-75948157D01*
X127905262Y-75533019D01*
X128121087Y-75336467D01*
X128332509Y-75320729D01*
X128529657Y-75416342D01*
X128529657Y-75416342D01*
G37*
X128529657Y-75416342D02*
X128603794Y-75553575D01*
X128544454Y-75827756D01*
X128336049Y-76290834D01*
X128172470Y-76606817D01*
X127865559Y-77190307D01*
X127692278Y-77548582D01*
X127636808Y-77736555D01*
X127683332Y-77809139D01*
X127816031Y-77821246D01*
X127822643Y-77821250D01*
X128038717Y-77691463D01*
X128216114Y-77424375D01*
X128461953Y-77119645D01*
X128707788Y-77027500D01*
X128942360Y-76940577D01*
X129053846Y-76631849D01*
X129063583Y-76551250D01*
X129832500Y-76551250D01*
X129832500Y-77345000D01*
X133166250Y-77345000D01*
X133166250Y-76551250D01*
X129832500Y-76551250D01*
X129063583Y-76551250D01*
X129068379Y-76511562D01*
X129118125Y-75995625D01*
X130123186Y-75948028D01*
X130663002Y-75911691D01*
X130936925Y-75856643D01*
X130996558Y-75765799D01*
X130942614Y-75676756D01*
X130864620Y-75500013D01*
X131041249Y-75385889D01*
X131178655Y-75347247D01*
X131555398Y-75332965D01*
X131826258Y-75564151D01*
X131836666Y-75578832D01*
X132045845Y-75784697D01*
X132364475Y-75886980D01*
X132891954Y-75916157D01*
X132937126Y-75916249D01*
X133801250Y-75916250D01*
X133801250Y-78073797D01*
X131816875Y-78007734D01*
X130994798Y-77982504D01*
X130438254Y-77976244D01*
X130095497Y-77996009D01*
X129914782Y-78048857D01*
X129844365Y-78141843D01*
X129832500Y-78278335D01*
X129846441Y-78415635D01*
X129922099Y-78509421D01*
X130110224Y-78567971D01*
X130461566Y-78599564D01*
X131026877Y-78612480D01*
X131856906Y-78614998D01*
X131896250Y-78615000D01*
X133960000Y-78615000D01*
X133960000Y-80348266D01*
X133951507Y-81079863D01*
X133928533Y-81708752D01*
X133894833Y-82157598D01*
X133863640Y-82332641D01*
X133678547Y-82478690D01*
X133334252Y-82567639D01*
X132949388Y-82591262D01*
X132642589Y-82541338D01*
X132531250Y-82425000D01*
X132402669Y-82284160D01*
X132293125Y-82266250D01*
X132143377Y-82181275D01*
X132070237Y-81887073D01*
X132055000Y-81472500D01*
X132046893Y-81313750D01*
X132848750Y-81313750D01*
X132883958Y-81711388D01*
X132971914Y-81932557D01*
X133007500Y-81948750D01*
X133106909Y-81807914D01*
X133162201Y-81456091D01*
X133166250Y-81313750D01*
X133131041Y-80916111D01*
X133043085Y-80694942D01*
X133007500Y-80678750D01*
X132908090Y-80819585D01*
X132852798Y-81171408D01*
X132848750Y-81313750D01*
X132046893Y-81313750D01*
X132029507Y-80973340D01*
X131941247Y-80729542D01*
X131816875Y-80678750D01*
X131667127Y-80763724D01*
X131593987Y-81057926D01*
X131578750Y-81472500D01*
X131562033Y-81948594D01*
X131491081Y-82186040D01*
X131334687Y-82262853D01*
X131261250Y-82266250D01*
X131070812Y-82224459D01*
X130975833Y-82047079D01*
X130945108Y-81656093D01*
X130943750Y-81472500D01*
X130918257Y-80973340D01*
X130829997Y-80729542D01*
X130705625Y-80678750D01*
X130567356Y-80751900D01*
X130493120Y-81011214D01*
X130467969Y-81516484D01*
X130467500Y-81631250D01*
X130455915Y-82163240D01*
X130405025Y-82450700D01*
X130290626Y-82566238D01*
X130150000Y-82583750D01*
X130000548Y-82559789D01*
X129906062Y-82448177D01*
X129853114Y-82189312D01*
X129828278Y-81723596D01*
X129819195Y-81115312D01*
X129805890Y-79646875D01*
X130467500Y-79646875D01*
X130519137Y-80057824D01*
X130683937Y-80201495D01*
X130705625Y-80202500D01*
X130881746Y-80082013D01*
X130943319Y-79697479D01*
X130943750Y-79646875D01*
X131578750Y-79646875D01*
X131630387Y-80057824D01*
X131795187Y-80201495D01*
X131816875Y-80202500D01*
X131992996Y-80082013D01*
X132054569Y-79697479D01*
X132055000Y-79646875D01*
X132848750Y-79646875D01*
X132888622Y-80014126D01*
X132986666Y-80197701D01*
X133007500Y-80202500D01*
X133112428Y-80062946D01*
X133164878Y-79719793D01*
X133166250Y-79646875D01*
X133126377Y-79279623D01*
X133028333Y-79096048D01*
X133007500Y-79091250D01*
X132902571Y-79230803D01*
X132850121Y-79573956D01*
X132848750Y-79646875D01*
X132055000Y-79646875D01*
X132003362Y-79235925D01*
X131838562Y-79092254D01*
X131816875Y-79091250D01*
X131640753Y-79211736D01*
X131579180Y-79596270D01*
X131578750Y-79646875D01*
X130943750Y-79646875D01*
X130892112Y-79235925D01*
X130727312Y-79092254D01*
X130705625Y-79091250D01*
X130529503Y-79211736D01*
X130467930Y-79596270D01*
X130467500Y-79646875D01*
X129805890Y-79646875D01*
X129612955Y-80520000D01*
X129423049Y-81220811D01*
X129192187Y-81838817D01*
X128951415Y-82307099D01*
X128731777Y-82558737D01*
X128655536Y-82583750D01*
X128383357Y-82481320D01*
X128287107Y-82403607D01*
X128200452Y-82183594D01*
X128346307Y-81858230D01*
X128352751Y-81848347D01*
X128501400Y-81599376D01*
X128453903Y-81520829D01*
X128158217Y-81565048D01*
X128064581Y-81584458D01*
X127356196Y-81693062D01*
X126911351Y-81663992D01*
X126706366Y-81494896D01*
X126692876Y-81448231D01*
X126738266Y-81264422D01*
X127004505Y-81143487D01*
X127323516Y-81082546D01*
X128035082Y-80970000D01*
X128489222Y-80877577D01*
X128743220Y-80783406D01*
X128854363Y-80665616D01*
X128879934Y-80502337D01*
X128880000Y-80488306D01*
X128853065Y-80311601D01*
X128723790Y-80223626D01*
X128419464Y-80205316D01*
X127911616Y-80234385D01*
X127293889Y-80250739D01*
X126954175Y-80163856D01*
X126871702Y-79935537D01*
X127025695Y-79527582D01*
X127049884Y-79485720D01*
X127927500Y-79485720D01*
X128067246Y-79539806D01*
X128410808Y-79566805D01*
X128483125Y-79567500D01*
X129038750Y-79567500D01*
X129038750Y-78615000D01*
X129029022Y-78112550D01*
X129003739Y-77767402D01*
X128974529Y-77662500D01*
X128872459Y-77787749D01*
X128672826Y-78103777D01*
X128427073Y-78520998D01*
X128186646Y-78949830D01*
X128002992Y-79300689D01*
X127927554Y-79483991D01*
X127927500Y-79485720D01*
X127049884Y-79485720D01*
X127284086Y-79080409D01*
X127783304Y-78269076D01*
X127319905Y-78370855D01*
X126964855Y-78394386D01*
X126787491Y-78253335D01*
X126787627Y-77922762D01*
X126965076Y-77377725D01*
X127306870Y-76619655D01*
X127646651Y-75948157D01*
X127905262Y-75533019D01*
X128121087Y-75336467D01*
X128332509Y-75320729D01*
X128529657Y-75416342D01*
G36*
X110074478Y-75918605D02*
G01*
X110685257Y-75930318D01*
X111076130Y-75958358D01*
X111295890Y-76009697D01*
X111393328Y-76091304D01*
X111417237Y-76210151D01*
X111417500Y-76233750D01*
X111364249Y-76441470D01*
X111149020Y-76533274D01*
X110782500Y-76551250D01*
X110147500Y-76551250D01*
X110147500Y-79250000D01*
X110141794Y-80358756D01*
X110112854Y-81189964D01*
X110042944Y-81783526D01*
X109914331Y-82179345D01*
X109709278Y-82417326D01*
X109410051Y-82537371D01*
X108998916Y-82579384D01*
X108665833Y-82583750D01*
X108171782Y-82565346D01*
X107817406Y-82518131D01*
X107713333Y-82477916D01*
X107622415Y-82244471D01*
X107607500Y-82081041D01*
X107659580Y-81903464D01*
X107866246Y-81815991D01*
X108303134Y-81790283D01*
X108384265Y-81790000D01*
X108916046Y-81753580D01*
X109195323Y-81633243D01*
X109257390Y-81538891D01*
X109291386Y-81297229D01*
X109320122Y-80801155D01*
X109341277Y-80113741D01*
X109352532Y-79298061D01*
X109353750Y-78919516D01*
X109353750Y-76551250D01*
X108163125Y-76551250D01*
X107554373Y-76543751D01*
X107197193Y-76509557D01*
X107025790Y-76431122D01*
X106974367Y-76290902D01*
X106972500Y-76233750D01*
X106988987Y-76108110D01*
X107070976Y-76020856D01*
X107267261Y-75965017D01*
X107626632Y-75933622D01*
X108197884Y-75919703D01*
X109029808Y-75916287D01*
X109195000Y-75916250D01*
X110074478Y-75918605D01*
X110074478Y-75918605D01*
G37*
X110074478Y-75918605D02*
X110685257Y-75930318D01*
X111076130Y-75958358D01*
X111295890Y-76009697D01*
X111393328Y-76091304D01*
X111417237Y-76210151D01*
X111417500Y-76233750D01*
X111364249Y-76441470D01*
X111149020Y-76533274D01*
X110782500Y-76551250D01*
X110147500Y-76551250D01*
X110147500Y-79250000D01*
X110141794Y-80358756D01*
X110112854Y-81189964D01*
X110042944Y-81783526D01*
X109914331Y-82179345D01*
X109709278Y-82417326D01*
X109410051Y-82537371D01*
X108998916Y-82579384D01*
X108665833Y-82583750D01*
X108171782Y-82565346D01*
X107817406Y-82518131D01*
X107713333Y-82477916D01*
X107622415Y-82244471D01*
X107607500Y-82081041D01*
X107659580Y-81903464D01*
X107866246Y-81815991D01*
X108303134Y-81790283D01*
X108384265Y-81790000D01*
X108916046Y-81753580D01*
X109195323Y-81633243D01*
X109257390Y-81538891D01*
X109291386Y-81297229D01*
X109320122Y-80801155D01*
X109341277Y-80113741D01*
X109352532Y-79298061D01*
X109353750Y-78919516D01*
X109353750Y-76551250D01*
X108163125Y-76551250D01*
X107554373Y-76543751D01*
X107197193Y-76509557D01*
X107025790Y-76431122D01*
X106974367Y-76290902D01*
X106972500Y-76233750D01*
X106988987Y-76108110D01*
X107070976Y-76020856D01*
X107267261Y-75965017D01*
X107626632Y-75933622D01*
X108197884Y-75919703D01*
X109029808Y-75916287D01*
X109195000Y-75916250D01*
X110074478Y-75918605D01*
G36*
X105504062Y-75310392D02*
G01*
X105785186Y-75379231D01*
X105923570Y-75563179D01*
X105983767Y-75957488D01*
X105988980Y-76025900D01*
X106040519Y-76449178D01*
X106162702Y-76651112D01*
X106430299Y-76727835D01*
X106544605Y-76740275D01*
X106914656Y-76829171D01*
X107047172Y-77032167D01*
X107051875Y-77106875D01*
X106968830Y-77344840D01*
X106669639Y-77457608D01*
X106535937Y-77474120D01*
X106201945Y-77532347D01*
X106055788Y-77686257D01*
X106020520Y-78035887D01*
X106020000Y-78144878D01*
X106033529Y-78539342D01*
X106114030Y-78684930D01*
X106321377Y-78650186D01*
X106427209Y-78611070D01*
X106853128Y-78477713D01*
X107065359Y-78510252D01*
X107130136Y-78724755D01*
X107131250Y-78781850D01*
X106989779Y-79090337D01*
X106575625Y-79339605D01*
X106020000Y-79571760D01*
X106020000Y-80724932D01*
X105984185Y-81535570D01*
X105857036Y-82080581D01*
X105608989Y-82405769D01*
X105210485Y-82556939D01*
X104820373Y-82583750D01*
X104397434Y-82554445D01*
X104145645Y-82480402D01*
X104115000Y-82437983D01*
X104062634Y-82172437D01*
X104017463Y-82038041D01*
X104008233Y-81868860D01*
X104205913Y-81815635D01*
X104454026Y-81826620D01*
X104988125Y-81869375D01*
X105035387Y-80877187D01*
X105048297Y-80363515D01*
X105035226Y-80004991D01*
X105003169Y-79885000D01*
X104815967Y-79944078D01*
X104507976Y-80074411D01*
X104181242Y-80182528D01*
X103996549Y-80102422D01*
X103947312Y-80034724D01*
X103813393Y-79708796D01*
X103933222Y-79490795D01*
X104337172Y-79331833D01*
X104392812Y-79317685D01*
X104740262Y-79215737D01*
X104922676Y-79069591D01*
X105001987Y-78784850D01*
X105036108Y-78337187D01*
X105084092Y-77503750D01*
X104520171Y-77503750D01*
X104140850Y-77475116D01*
X103984045Y-77345584D01*
X103956250Y-77106875D01*
X103997762Y-76838484D01*
X104184571Y-76728610D01*
X104511875Y-76710000D01*
X104851512Y-76695202D01*
X105013546Y-76593622D01*
X105063723Y-76319480D01*
X105067500Y-75985080D01*
X105079998Y-75543465D01*
X105151684Y-75339993D01*
X105333842Y-75295406D01*
X105504062Y-75310392D01*
X105504062Y-75310392D01*
G37*
X105504062Y-75310392D02*
X105785186Y-75379231D01*
X105923570Y-75563179D01*
X105983767Y-75957488D01*
X105988980Y-76025900D01*
X106040519Y-76449178D01*
X106162702Y-76651112D01*
X106430299Y-76727835D01*
X106544605Y-76740275D01*
X106914656Y-76829171D01*
X107047172Y-77032167D01*
X107051875Y-77106875D01*
X106968830Y-77344840D01*
X106669639Y-77457608D01*
X106535937Y-77474120D01*
X106201945Y-77532347D01*
X106055788Y-77686257D01*
X106020520Y-78035887D01*
X106020000Y-78144878D01*
X106033529Y-78539342D01*
X106114030Y-78684930D01*
X106321377Y-78650186D01*
X106427209Y-78611070D01*
X106853128Y-78477713D01*
X107065359Y-78510252D01*
X107130136Y-78724755D01*
X107131250Y-78781850D01*
X106989779Y-79090337D01*
X106575625Y-79339605D01*
X106020000Y-79571760D01*
X106020000Y-80724932D01*
X105984185Y-81535570D01*
X105857036Y-82080581D01*
X105608989Y-82405769D01*
X105210485Y-82556939D01*
X104820373Y-82583750D01*
X104397434Y-82554445D01*
X104145645Y-82480402D01*
X104115000Y-82437983D01*
X104062634Y-82172437D01*
X104017463Y-82038041D01*
X104008233Y-81868860D01*
X104205913Y-81815635D01*
X104454026Y-81826620D01*
X104988125Y-81869375D01*
X105035387Y-80877187D01*
X105048297Y-80363515D01*
X105035226Y-80004991D01*
X105003169Y-79885000D01*
X104815967Y-79944078D01*
X104507976Y-80074411D01*
X104181242Y-80182528D01*
X103996549Y-80102422D01*
X103947312Y-80034724D01*
X103813393Y-79708796D01*
X103933222Y-79490795D01*
X104337172Y-79331833D01*
X104392812Y-79317685D01*
X104740262Y-79215737D01*
X104922676Y-79069591D01*
X105001987Y-78784850D01*
X105036108Y-78337187D01*
X105084092Y-77503750D01*
X104520171Y-77503750D01*
X104140850Y-77475116D01*
X103984045Y-77345584D01*
X103956250Y-77106875D01*
X103997762Y-76838484D01*
X104184571Y-76728610D01*
X104511875Y-76710000D01*
X104851512Y-76695202D01*
X105013546Y-76593622D01*
X105063723Y-76319480D01*
X105067500Y-75985080D01*
X105079998Y-75543465D01*
X105151684Y-75339993D01*
X105333842Y-75295406D01*
X105504062Y-75310392D01*
G36*
X59823750Y-79408750D02*
G01*
X59834807Y-80074448D01*
X59864622Y-80601730D01*
X59908161Y-80923685D01*
X59942812Y-80991201D01*
X60152531Y-80900761D01*
X60339687Y-80775262D01*
X60516133Y-80537833D01*
X60519784Y-80520000D01*
X61570000Y-80520000D01*
X61719234Y-80597310D01*
X62129682Y-80652058D01*
X62745461Y-80677669D01*
X62919375Y-80678750D01*
X63576515Y-80661192D01*
X64041872Y-80612904D01*
X64259564Y-80540460D01*
X64268750Y-80520000D01*
X64119515Y-80442689D01*
X63709067Y-80387941D01*
X63093288Y-80362330D01*
X62919375Y-80361250D01*
X62262234Y-80378807D01*
X61796877Y-80427095D01*
X61579185Y-80499539D01*
X61570000Y-80520000D01*
X60519784Y-80520000D01*
X60601513Y-80120844D01*
X60617500Y-79669061D01*
X60617500Y-79567500D01*
X61570000Y-79567500D01*
X61719234Y-79644810D01*
X62129682Y-79699558D01*
X62745461Y-79725169D01*
X62919375Y-79726250D01*
X63576515Y-79708692D01*
X64041872Y-79660404D01*
X64259564Y-79587960D01*
X64268750Y-79567500D01*
X64119515Y-79490189D01*
X63709067Y-79435441D01*
X63093288Y-79409830D01*
X62919375Y-79408750D01*
X62262234Y-79426307D01*
X61796877Y-79474595D01*
X61579185Y-79547039D01*
X61570000Y-79567500D01*
X60617500Y-79567500D01*
X60617500Y-78773750D01*
X65062500Y-78773750D01*
X65062500Y-80429285D01*
X65049031Y-81294178D01*
X64987921Y-81891175D01*
X64848115Y-82269450D01*
X64598555Y-82478174D01*
X64208187Y-82566520D01*
X63701785Y-82583750D01*
X63200109Y-82569041D01*
X62940293Y-82507027D01*
X62847358Y-82370879D01*
X62840000Y-82275377D01*
X62902294Y-82070790D01*
X63141032Y-81962842D01*
X63513317Y-81918190D01*
X63986644Y-81840739D01*
X64208404Y-81679920D01*
X64239333Y-81591562D01*
X64232461Y-81456587D01*
X64110537Y-81373725D01*
X63815566Y-81330661D01*
X63289557Y-81315082D01*
X62931015Y-81313750D01*
X61570000Y-81313750D01*
X61570000Y-81948750D01*
X61551193Y-82355916D01*
X61449278Y-82536919D01*
X61196015Y-82582748D01*
X61093750Y-82583750D01*
X60775285Y-82553430D01*
X60643525Y-82398633D01*
X60617500Y-82023599D01*
X60617500Y-81457247D01*
X59892074Y-81956352D01*
X59472888Y-82234267D01*
X59228475Y-82344986D01*
X59075830Y-82306669D01*
X58950261Y-82162416D01*
X58827695Y-81856165D01*
X58881937Y-81718562D01*
X58945287Y-81503515D01*
X58995103Y-81047961D01*
X59024711Y-80428820D01*
X59030000Y-80011999D01*
X59030000Y-78456250D01*
X58553750Y-78456250D01*
X58205149Y-78406355D01*
X58082413Y-78220708D01*
X58077500Y-78138750D01*
X58115397Y-77955267D01*
X58279252Y-77859683D01*
X58644308Y-77824636D01*
X58950625Y-77821250D01*
X59823750Y-77821250D01*
X59823750Y-79408750D01*
X59823750Y-79408750D01*
G37*
X59823750Y-79408750D02*
X59834807Y-80074448D01*
X59864622Y-80601730D01*
X59908161Y-80923685D01*
X59942812Y-80991201D01*
X60152531Y-80900761D01*
X60339687Y-80775262D01*
X60516133Y-80537833D01*
X60519784Y-80520000D01*
X61570000Y-80520000D01*
X61719234Y-80597310D01*
X62129682Y-80652058D01*
X62745461Y-80677669D01*
X62919375Y-80678750D01*
X63576515Y-80661192D01*
X64041872Y-80612904D01*
X64259564Y-80540460D01*
X64268750Y-80520000D01*
X64119515Y-80442689D01*
X63709067Y-80387941D01*
X63093288Y-80362330D01*
X62919375Y-80361250D01*
X62262234Y-80378807D01*
X61796877Y-80427095D01*
X61579185Y-80499539D01*
X61570000Y-80520000D01*
X60519784Y-80520000D01*
X60601513Y-80120844D01*
X60617500Y-79669061D01*
X60617500Y-79567500D01*
X61570000Y-79567500D01*
X61719234Y-79644810D01*
X62129682Y-79699558D01*
X62745461Y-79725169D01*
X62919375Y-79726250D01*
X63576515Y-79708692D01*
X64041872Y-79660404D01*
X64259564Y-79587960D01*
X64268750Y-79567500D01*
X64119515Y-79490189D01*
X63709067Y-79435441D01*
X63093288Y-79409830D01*
X62919375Y-79408750D01*
X62262234Y-79426307D01*
X61796877Y-79474595D01*
X61579185Y-79547039D01*
X61570000Y-79567500D01*
X60617500Y-79567500D01*
X60617500Y-78773750D01*
X65062500Y-78773750D01*
X65062500Y-80429285D01*
X65049031Y-81294178D01*
X64987921Y-81891175D01*
X64848115Y-82269450D01*
X64598555Y-82478174D01*
X64208187Y-82566520D01*
X63701785Y-82583750D01*
X63200109Y-82569041D01*
X62940293Y-82507027D01*
X62847358Y-82370879D01*
X62840000Y-82275377D01*
X62902294Y-82070790D01*
X63141032Y-81962842D01*
X63513317Y-81918190D01*
X63986644Y-81840739D01*
X64208404Y-81679920D01*
X64239333Y-81591562D01*
X64232461Y-81456587D01*
X64110537Y-81373725D01*
X63815566Y-81330661D01*
X63289557Y-81315082D01*
X62931015Y-81313750D01*
X61570000Y-81313750D01*
X61570000Y-81948750D01*
X61551193Y-82355916D01*
X61449278Y-82536919D01*
X61196015Y-82582748D01*
X61093750Y-82583750D01*
X60775285Y-82553430D01*
X60643525Y-82398633D01*
X60617500Y-82023599D01*
X60617500Y-81457247D01*
X59892074Y-81956352D01*
X59472888Y-82234267D01*
X59228475Y-82344986D01*
X59075830Y-82306669D01*
X58950261Y-82162416D01*
X58827695Y-81856165D01*
X58881937Y-81718562D01*
X58945287Y-81503515D01*
X58995103Y-81047961D01*
X59024711Y-80428820D01*
X59030000Y-80011999D01*
X59030000Y-78456250D01*
X58553750Y-78456250D01*
X58205149Y-78406355D01*
X58082413Y-78220708D01*
X58077500Y-78138750D01*
X58115397Y-77955267D01*
X58279252Y-77859683D01*
X58644308Y-77824636D01*
X58950625Y-77821250D01*
X59823750Y-77821250D01*
X59823750Y-79408750D01*
G36*
X122848716Y-75253787D02*
G01*
X123100126Y-75486846D01*
X123261198Y-75668143D01*
X123534583Y-75962823D01*
X123778031Y-76131909D01*
X124091758Y-76210234D01*
X124575980Y-76232633D01*
X124888386Y-76233750D01*
X126022500Y-76233750D01*
X126022500Y-79726250D01*
X125625625Y-79726250D01*
X125327284Y-79671907D01*
X125228750Y-79567500D01*
X125075133Y-79501192D01*
X124634180Y-79451205D01*
X123935740Y-79419678D01*
X123013443Y-79408750D01*
X120798136Y-79408750D01*
X120698200Y-80004062D01*
X120392871Y-81263524D01*
X119957799Y-82226562D01*
X119690884Y-82609420D01*
X119482789Y-82722707D01*
X119271359Y-82590403D01*
X119206290Y-82516472D01*
X119117450Y-82299538D01*
X119189962Y-81982946D01*
X119339047Y-81662519D01*
X119638158Y-80850661D01*
X119850261Y-79780884D01*
X119967380Y-78502774D01*
X119988800Y-77622812D01*
X119989314Y-77027500D01*
X120783750Y-77027500D01*
X120783750Y-78615000D01*
X125228750Y-78615000D01*
X125228750Y-77027500D01*
X120783750Y-77027500D01*
X119989314Y-77027500D01*
X119990000Y-76233750D01*
X122737958Y-76233750D01*
X122437649Y-75901911D01*
X122237126Y-75652860D01*
X122257143Y-75498157D01*
X122452732Y-75336305D01*
X122662957Y-75215936D01*
X122848716Y-75253787D01*
X122848716Y-75253787D01*
G37*
X122848716Y-75253787D02*
X123100126Y-75486846D01*
X123261198Y-75668143D01*
X123534583Y-75962823D01*
X123778031Y-76131909D01*
X124091758Y-76210234D01*
X124575980Y-76232633D01*
X124888386Y-76233750D01*
X126022500Y-76233750D01*
X126022500Y-79726250D01*
X125625625Y-79726250D01*
X125327284Y-79671907D01*
X125228750Y-79567500D01*
X125075133Y-79501192D01*
X124634180Y-79451205D01*
X123935740Y-79419678D01*
X123013443Y-79408750D01*
X120798136Y-79408750D01*
X120698200Y-80004062D01*
X120392871Y-81263524D01*
X119957799Y-82226562D01*
X119690884Y-82609420D01*
X119482789Y-82722707D01*
X119271359Y-82590403D01*
X119206290Y-82516472D01*
X119117450Y-82299538D01*
X119189962Y-81982946D01*
X119339047Y-81662519D01*
X119638158Y-80850661D01*
X119850261Y-79780884D01*
X119967380Y-78502774D01*
X119988800Y-77622812D01*
X119989314Y-77027500D01*
X120783750Y-77027500D01*
X120783750Y-78615000D01*
X125228750Y-78615000D01*
X125228750Y-77027500D01*
X120783750Y-77027500D01*
X119989314Y-77027500D01*
X119990000Y-76233750D01*
X122737958Y-76233750D01*
X122437649Y-75901911D01*
X122237126Y-75652860D01*
X122257143Y-75498157D01*
X122452732Y-75336305D01*
X122662957Y-75215936D01*
X122848716Y-75253787D01*
G36*
X117767500Y-81398107D02*
G01*
X117752750Y-82045385D01*
X117700527Y-82438262D01*
X117598869Y-82638812D01*
X117518704Y-82689186D01*
X117205825Y-82678825D01*
X117090079Y-82604829D01*
X116861872Y-82527556D01*
X116406235Y-82471435D01*
X115803557Y-82436926D01*
X115134225Y-82424488D01*
X114478627Y-82434581D01*
X113917152Y-82467663D01*
X113530187Y-82524195D01*
X113401875Y-82583750D01*
X113156991Y-82731589D01*
X112857075Y-82685289D01*
X112793333Y-82636666D01*
X112741768Y-82436596D01*
X112704103Y-82007346D01*
X112687692Y-81437168D01*
X112687500Y-81366666D01*
X112687500Y-80837500D01*
X113481250Y-80837500D01*
X113481250Y-81790000D01*
X116973750Y-81790000D01*
X116973750Y-80837500D01*
X113481250Y-80837500D01*
X112687500Y-80837500D01*
X112687500Y-80202500D01*
X117767500Y-80202500D01*
X117767500Y-81398107D01*
X117767500Y-81398107D01*
G37*
X117767500Y-81398107D02*
X117752750Y-82045385D01*
X117700527Y-82438262D01*
X117598869Y-82638812D01*
X117518704Y-82689186D01*
X117205825Y-82678825D01*
X117090079Y-82604829D01*
X116861872Y-82527556D01*
X116406235Y-82471435D01*
X115803557Y-82436926D01*
X115134225Y-82424488D01*
X114478627Y-82434581D01*
X113917152Y-82467663D01*
X113530187Y-82524195D01*
X113401875Y-82583750D01*
X113156991Y-82731589D01*
X112857075Y-82685289D01*
X112793333Y-82636666D01*
X112741768Y-82436596D01*
X112704103Y-82007346D01*
X112687692Y-81437168D01*
X112687500Y-81366666D01*
X112687500Y-80837500D01*
X113481250Y-80837500D01*
X113481250Y-81790000D01*
X116973750Y-81790000D01*
X116973750Y-80837500D01*
X113481250Y-80837500D01*
X112687500Y-80837500D01*
X112687500Y-80202500D01*
X117767500Y-80202500D01*
X117767500Y-81398107D01*
G36*
X103321250Y-77908377D02*
G01*
X97970550Y-77785685D01*
X97867775Y-78299561D01*
X97792154Y-78851555D01*
X97765000Y-79349218D01*
X97765000Y-79885000D01*
X100792890Y-79885000D01*
X101844883Y-79886934D01*
X102620062Y-79895271D01*
X103159098Y-79913807D01*
X103502667Y-79946341D01*
X103691443Y-79996671D01*
X103766098Y-80068596D01*
X103767909Y-80162812D01*
X103668922Y-80328718D01*
X103404624Y-80427432D01*
X102905766Y-80481774D01*
X102778085Y-80489001D01*
X101841132Y-80537377D01*
X102694708Y-81401689D01*
X103121588Y-81843821D01*
X103352139Y-82126339D01*
X103418101Y-82310512D01*
X103351217Y-82457610D01*
X103280958Y-82533327D01*
X103063938Y-82708198D01*
X102876793Y-82664522D01*
X102695340Y-82512601D01*
X102534291Y-82395958D01*
X102318648Y-82319461D01*
X101990873Y-82278055D01*
X101493426Y-82266686D01*
X100768770Y-82280300D01*
X100241024Y-82296994D01*
X99378088Y-82323187D01*
X98780955Y-82329645D01*
X98398265Y-82311250D01*
X98178658Y-82262886D01*
X98070774Y-82179436D01*
X98028406Y-82076540D01*
X98083994Y-81787665D01*
X98291636Y-81631250D01*
X99497714Y-81631250D01*
X100640336Y-81631250D01*
X101226707Y-81627596D01*
X101546640Y-81604158D01*
X101651194Y-81542217D01*
X101591430Y-81423056D01*
X101498319Y-81316727D01*
X101313309Y-81044107D01*
X101365813Y-80823747D01*
X101413778Y-80761102D01*
X101501398Y-80605977D01*
X101381837Y-80536217D01*
X101000368Y-80520004D01*
X100999125Y-80520004D01*
X100555937Y-80567727D01*
X100224972Y-80760990D01*
X99941044Y-81075629D01*
X99497714Y-81631250D01*
X98291636Y-81631250D01*
X98390456Y-81556810D01*
X98803728Y-81256327D01*
X99085051Y-80939348D01*
X99341002Y-80548717D01*
X98473409Y-80494671D01*
X97957679Y-80480609D01*
X97690158Y-80530089D01*
X97605468Y-80656960D01*
X97604482Y-80678750D01*
X97540052Y-80960658D01*
X97378865Y-81381008D01*
X97166032Y-81845541D01*
X96946665Y-82259994D01*
X96765873Y-82530108D01*
X96692803Y-82583750D01*
X96474432Y-82484085D01*
X96371751Y-82397001D01*
X96164934Y-82305878D01*
X95899640Y-82468532D01*
X95892118Y-82475308D01*
X95727457Y-82596718D01*
X95554466Y-82612203D01*
X95304304Y-82496687D01*
X94908133Y-82225089D01*
X94617837Y-82011077D01*
X93636440Y-81281789D01*
X93075435Y-81774358D01*
X92619494Y-82115506D01*
X92089260Y-82428735D01*
X91592987Y-82656798D01*
X91244751Y-82742500D01*
X91067653Y-82621407D01*
X90961432Y-82471168D01*
X90920219Y-82292028D01*
X91053565Y-82119335D01*
X91411900Y-81901484D01*
X91624484Y-81792658D01*
X92338595Y-81342206D01*
X92820978Y-80789200D01*
X93115255Y-80065225D01*
X93252587Y-79239209D01*
X93317121Y-78661933D01*
X93389231Y-78332280D01*
X93500722Y-78181300D01*
X93683401Y-78140041D01*
X93760211Y-78138750D01*
X94159398Y-78138749D01*
X94055520Y-79384342D01*
X93951641Y-80629934D01*
X95071036Y-81374281D01*
X96190430Y-82118628D01*
X96539279Y-81359001D01*
X96676373Y-81023614D01*
X96775700Y-80666248D01*
X96845031Y-80224249D01*
X96892140Y-79634958D01*
X96924797Y-78835720D01*
X96943637Y-78099062D01*
X96985046Y-76233750D01*
X97923750Y-76233750D01*
X97923750Y-77186250D01*
X102527500Y-77186250D01*
X102527500Y-76233750D01*
X97923750Y-76233750D01*
X96985046Y-76233750D01*
X96999144Y-75598750D01*
X103321250Y-75598750D01*
X103321250Y-77908377D01*
X103321250Y-77908377D01*
G37*
X103321250Y-77908377D02*
X97970550Y-77785685D01*
X97867775Y-78299561D01*
X97792154Y-78851555D01*
X97765000Y-79349218D01*
X97765000Y-79885000D01*
X100792890Y-79885000D01*
X101844883Y-79886934D01*
X102620062Y-79895271D01*
X103159098Y-79913807D01*
X103502667Y-79946341D01*
X103691443Y-79996671D01*
X103766098Y-80068596D01*
X103767909Y-80162812D01*
X103668922Y-80328718D01*
X103404624Y-80427432D01*
X102905766Y-80481774D01*
X102778085Y-80489001D01*
X101841132Y-80537377D01*
X102694708Y-81401689D01*
X103121588Y-81843821D01*
X103352139Y-82126339D01*
X103418101Y-82310512D01*
X103351217Y-82457610D01*
X103280958Y-82533327D01*
X103063938Y-82708198D01*
X102876793Y-82664522D01*
X102695340Y-82512601D01*
X102534291Y-82395958D01*
X102318648Y-82319461D01*
X101990873Y-82278055D01*
X101493426Y-82266686D01*
X100768770Y-82280300D01*
X100241024Y-82296994D01*
X99378088Y-82323187D01*
X98780955Y-82329645D01*
X98398265Y-82311250D01*
X98178658Y-82262886D01*
X98070774Y-82179436D01*
X98028406Y-82076540D01*
X98083994Y-81787665D01*
X98291636Y-81631250D01*
X99497714Y-81631250D01*
X100640336Y-81631250D01*
X101226707Y-81627596D01*
X101546640Y-81604158D01*
X101651194Y-81542217D01*
X101591430Y-81423056D01*
X101498319Y-81316727D01*
X101313309Y-81044107D01*
X101365813Y-80823747D01*
X101413778Y-80761102D01*
X101501398Y-80605977D01*
X101381837Y-80536217D01*
X101000368Y-80520004D01*
X100999125Y-80520004D01*
X100555937Y-80567727D01*
X100224972Y-80760990D01*
X99941044Y-81075629D01*
X99497714Y-81631250D01*
X98291636Y-81631250D01*
X98390456Y-81556810D01*
X98803728Y-81256327D01*
X99085051Y-80939348D01*
X99341002Y-80548717D01*
X98473409Y-80494671D01*
X97957679Y-80480609D01*
X97690158Y-80530089D01*
X97605468Y-80656960D01*
X97604482Y-80678750D01*
X97540052Y-80960658D01*
X97378865Y-81381008D01*
X97166032Y-81845541D01*
X96946665Y-82259994D01*
X96765873Y-82530108D01*
X96692803Y-82583750D01*
X96474432Y-82484085D01*
X96371751Y-82397001D01*
X96164934Y-82305878D01*
X95899640Y-82468532D01*
X95892118Y-82475308D01*
X95727457Y-82596718D01*
X95554466Y-82612203D01*
X95304304Y-82496687D01*
X94908133Y-82225089D01*
X94617837Y-82011077D01*
X93636440Y-81281789D01*
X93075435Y-81774358D01*
X92619494Y-82115506D01*
X92089260Y-82428735D01*
X91592987Y-82656798D01*
X91244751Y-82742500D01*
X91067653Y-82621407D01*
X90961432Y-82471168D01*
X90920219Y-82292028D01*
X91053565Y-82119335D01*
X91411900Y-81901484D01*
X91624484Y-81792658D01*
X92338595Y-81342206D01*
X92820978Y-80789200D01*
X93115255Y-80065225D01*
X93252587Y-79239209D01*
X93317121Y-78661933D01*
X93389231Y-78332280D01*
X93500722Y-78181300D01*
X93683401Y-78140041D01*
X93760211Y-78138750D01*
X94159398Y-78138749D01*
X94055520Y-79384342D01*
X93951641Y-80629934D01*
X95071036Y-81374281D01*
X96190430Y-82118628D01*
X96539279Y-81359001D01*
X96676373Y-81023614D01*
X96775700Y-80666248D01*
X96845031Y-80224249D01*
X96892140Y-79634958D01*
X96924797Y-78835720D01*
X96943637Y-78099062D01*
X96985046Y-76233750D01*
X97923750Y-76233750D01*
X97923750Y-77186250D01*
X102527500Y-77186250D01*
X102527500Y-76233750D01*
X97923750Y-76233750D01*
X96985046Y-76233750D01*
X96999144Y-75598750D01*
X103321250Y-75598750D01*
X103321250Y-77908377D01*
G36*
X84272666Y-75424937D02*
G01*
X84350625Y-75678125D01*
X84370696Y-75808628D01*
X84464524Y-75900897D01*
X84682527Y-75964628D01*
X85075125Y-76009516D01*
X85692737Y-76045257D01*
X86414375Y-76075000D01*
X87191217Y-76096299D01*
X87848133Y-76098101D01*
X88322979Y-76081427D01*
X88553610Y-76047295D01*
X88564148Y-76039713D01*
X88740513Y-76003091D01*
X89189327Y-75962009D01*
X89865615Y-75919081D01*
X90724404Y-75876916D01*
X91720722Y-75838127D01*
X92413836Y-75816162D01*
X96177500Y-75707273D01*
X96177500Y-76049886D01*
X96152578Y-76230480D01*
X96031762Y-76333327D01*
X95745980Y-76380054D01*
X95226155Y-76392288D01*
X95083234Y-76392500D01*
X94465499Y-76409758D01*
X94099691Y-76470552D01*
X93921657Y-76588414D01*
X93892609Y-76643608D01*
X93817036Y-76918867D01*
X93889348Y-77082496D01*
X94163639Y-77169200D01*
X94694001Y-77213686D01*
X94788437Y-77218362D01*
X95780625Y-77265625D01*
X95825511Y-79051562D01*
X95870398Y-80837500D01*
X94907500Y-80837500D01*
X94907500Y-77821250D01*
X92378997Y-77821250D01*
X92333561Y-79369062D01*
X92308326Y-80081000D01*
X92272990Y-80535981D01*
X92212313Y-80794504D01*
X92111057Y-80917073D01*
X91953984Y-80964186D01*
X91930937Y-80967603D01*
X91780821Y-80978456D01*
X91680047Y-80926213D01*
X91618783Y-80759537D01*
X91587199Y-80427091D01*
X91575465Y-79877538D01*
X91573750Y-79102291D01*
X91573750Y-77186250D01*
X92269618Y-77186249D01*
X92711678Y-77164408D01*
X92933370Y-77065985D01*
X93030657Y-76841630D01*
X93041354Y-76789374D01*
X93057916Y-76516302D01*
X92907181Y-76409115D01*
X92605767Y-76392499D01*
X92119897Y-76415055D01*
X91531457Y-76471351D01*
X91357781Y-76493452D01*
X90621250Y-76594405D01*
X90621250Y-79192202D01*
X90618592Y-80163632D01*
X90606798Y-80868884D01*
X90580142Y-81359261D01*
X90532892Y-81686066D01*
X90459321Y-81900602D01*
X90353701Y-82054174D01*
X90294706Y-82116543D01*
X89912171Y-82349133D01*
X89464616Y-82421704D01*
X89055746Y-82342828D01*
X88789265Y-82121077D01*
X88744896Y-81988437D01*
X88757429Y-81736811D01*
X88951080Y-81641706D01*
X89181458Y-81631250D01*
X89668750Y-81631250D01*
X89668750Y-76551250D01*
X89113125Y-76551250D01*
X88745873Y-76591122D01*
X88562298Y-76689166D01*
X88557500Y-76710000D01*
X88403665Y-76775564D01*
X87961209Y-76825192D01*
X87258705Y-76856903D01*
X86324724Y-76868716D01*
X86267275Y-76868750D01*
X83977051Y-76868750D01*
X83489150Y-77721511D01*
X83252706Y-78162788D01*
X83107810Y-78543757D01*
X83032406Y-78968474D01*
X83004440Y-79540995D01*
X83001250Y-80023386D01*
X83001250Y-81472500D01*
X85223750Y-81472500D01*
X85223750Y-79424594D01*
X84310937Y-79376984D01*
X83790244Y-79335554D01*
X83514000Y-79261395D01*
X83409174Y-79125296D01*
X83398125Y-79011875D01*
X83439157Y-78828624D01*
X83610941Y-78723579D01*
X83986508Y-78667529D01*
X84310937Y-78646765D01*
X85223750Y-78599155D01*
X85223750Y-77892702D01*
X85237969Y-77456556D01*
X85319558Y-77251162D01*
X85526910Y-77189901D01*
X85700000Y-77186250D01*
X85994024Y-77207342D01*
X86132489Y-77328368D01*
X86173788Y-77635947D01*
X86176250Y-77892702D01*
X86176250Y-78599155D01*
X87089062Y-78646765D01*
X87609755Y-78688195D01*
X87885999Y-78762354D01*
X87990825Y-78898453D01*
X88001875Y-79011875D01*
X87960842Y-79195125D01*
X87789058Y-79300170D01*
X87413491Y-79356220D01*
X87089062Y-79376984D01*
X86176250Y-79424594D01*
X86176250Y-81472500D01*
X87366875Y-81472500D01*
X87975626Y-81479998D01*
X88332806Y-81514192D01*
X88504209Y-81592627D01*
X88555632Y-81732847D01*
X88557500Y-81790000D01*
X88543668Y-81904249D01*
X88473035Y-81987209D01*
X88301889Y-82043875D01*
X87986523Y-82079241D01*
X87483225Y-82098303D01*
X86748286Y-82106058D01*
X85779375Y-82107500D01*
X84762972Y-82110981D01*
X84022838Y-82123779D01*
X83517794Y-82149423D01*
X83206661Y-82191442D01*
X83048261Y-82253366D01*
X83001415Y-82338725D01*
X83001250Y-82345625D01*
X82859259Y-82534673D01*
X82525000Y-82583750D01*
X82048750Y-82583750D01*
X82048750Y-81209770D01*
X82045773Y-80552770D01*
X82027604Y-80163888D01*
X81980386Y-79993744D01*
X81890260Y-79992960D01*
X81743369Y-80112157D01*
X81741253Y-80114072D01*
X81413675Y-80293285D01*
X81225315Y-80261167D01*
X80961602Y-80198430D01*
X80496430Y-80172510D01*
X80080374Y-80182211D01*
X79513243Y-80236135D01*
X79149233Y-80348243D01*
X78874294Y-80562283D01*
X78762425Y-80687769D01*
X78512153Y-81014693D01*
X78382737Y-81241249D01*
X78377981Y-81264929D01*
X78516357Y-81368958D01*
X78882856Y-81525016D01*
X79399671Y-81700196D01*
X79426669Y-81708444D01*
X79973520Y-81881457D01*
X80266352Y-82006968D01*
X80356412Y-82124762D01*
X80294948Y-82274625D01*
X80245535Y-82344171D01*
X80120980Y-82494511D01*
X79978558Y-82563927D01*
X79746910Y-82547743D01*
X79354680Y-82441282D01*
X78749621Y-82246132D01*
X77486522Y-81832047D01*
X76394198Y-82190855D01*
X75365417Y-82494859D01*
X74573471Y-82655151D01*
X74032079Y-82670145D01*
X73754959Y-82538256D01*
X73733964Y-82498180D01*
X73646525Y-82141581D01*
X73780935Y-81981282D01*
X74103436Y-81948750D01*
X74554273Y-81916597D01*
X75079506Y-81834195D01*
X75585965Y-81722627D01*
X75980479Y-81602977D01*
X76169880Y-81496327D01*
X76175000Y-81479976D01*
X76036677Y-81367565D01*
X75685733Y-81224421D01*
X75460625Y-81155000D01*
X74968188Y-80956854D01*
X74756109Y-80728614D01*
X74839800Y-80492532D01*
X74885448Y-80456746D01*
X75823317Y-80456746D01*
X75913349Y-80613187D01*
X76290356Y-80776935D01*
X76857857Y-80930907D01*
X77233312Y-80951550D01*
X77518177Y-80826628D01*
X77762500Y-80599375D01*
X78135344Y-80202500D01*
X77107547Y-80202500D01*
X76442452Y-80235912D01*
X76007030Y-80325825D01*
X75823317Y-80456746D01*
X74885448Y-80456746D01*
X74944687Y-80410306D01*
X74919035Y-80326920D01*
X74617165Y-80247963D01*
X74190625Y-80194623D01*
X73598762Y-80163552D01*
X73245108Y-80210943D01*
X73065532Y-80335529D01*
X72961252Y-80454576D01*
X72839835Y-80498218D01*
X72648775Y-80445187D01*
X72335568Y-80274217D01*
X71847709Y-79964042D01*
X71365338Y-79646875D01*
X70735045Y-79214807D01*
X70352307Y-78900633D01*
X70188343Y-78665900D01*
X70214373Y-78472156D01*
X70365028Y-78310443D01*
X70524412Y-78258602D01*
X70783337Y-78326175D01*
X71190481Y-78534500D01*
X71794518Y-78904913D01*
X71952528Y-79006316D01*
X72516467Y-79355766D01*
X72966979Y-79607617D01*
X73249220Y-79732905D01*
X73317500Y-79727185D01*
X73464564Y-79644568D01*
X73859838Y-79588026D01*
X74423164Y-79567500D01*
X75025917Y-79554438D01*
X75390838Y-79502133D01*
X75596991Y-79390906D01*
X75698750Y-79250000D01*
X75780685Y-79035335D01*
X75666464Y-78948132D01*
X75339210Y-78932500D01*
X74920724Y-78983253D01*
X74636557Y-79106016D01*
X74629920Y-79112329D01*
X74341496Y-79220309D01*
X74201295Y-79196686D01*
X74063326Y-79068035D01*
X73985396Y-78772301D01*
X73954563Y-78246454D01*
X73952500Y-77984982D01*
X73952500Y-77900625D01*
X74746250Y-77900625D01*
X74787762Y-78169015D01*
X74974571Y-78278889D01*
X75301875Y-78297500D01*
X75677621Y-78267848D01*
X75831445Y-78134413D01*
X75857500Y-77900625D01*
X76651250Y-77900625D01*
X76702507Y-78184260D01*
X76920397Y-78288022D01*
X77127500Y-78297500D01*
X77467862Y-78254785D01*
X77592376Y-78073210D01*
X77603750Y-77900625D01*
X78397500Y-77900625D01*
X78439012Y-78169015D01*
X78625821Y-78278889D01*
X78953125Y-78297500D01*
X79328871Y-78267848D01*
X79482695Y-78134413D01*
X79508750Y-77900625D01*
X79467237Y-77632234D01*
X79280428Y-77522360D01*
X78953125Y-77503750D01*
X78577378Y-77533401D01*
X78423554Y-77666836D01*
X78397500Y-77900625D01*
X77603750Y-77900625D01*
X77552492Y-77616989D01*
X77334602Y-77513227D01*
X77127500Y-77503750D01*
X76787137Y-77546464D01*
X76662623Y-77728039D01*
X76651250Y-77900625D01*
X75857500Y-77900625D01*
X75815987Y-77632234D01*
X75629178Y-77522360D01*
X75301875Y-77503750D01*
X74926128Y-77533401D01*
X74772304Y-77666836D01*
X74746250Y-77900625D01*
X73952500Y-77900625D01*
X73952500Y-76868750D01*
X74905000Y-76868750D01*
X75432887Y-76860346D01*
X75717894Y-76814427D01*
X75834573Y-76699928D01*
X75857478Y-76485785D01*
X75857500Y-76471875D01*
X76651250Y-76471875D01*
X76702507Y-76755510D01*
X76920397Y-76859272D01*
X77127500Y-76868750D01*
X77467862Y-76826035D01*
X77592376Y-76644460D01*
X77603750Y-76471875D01*
X77552492Y-76188239D01*
X77334602Y-76084477D01*
X77127500Y-76075000D01*
X76787137Y-76117714D01*
X76662623Y-76299289D01*
X76651250Y-76471875D01*
X75857500Y-76471875D01*
X75841158Y-76264529D01*
X75746012Y-76145861D01*
X75502876Y-76091162D01*
X75042566Y-76075722D01*
X74746250Y-76075000D01*
X74162254Y-76066434D01*
X73827690Y-76027805D01*
X73674672Y-75939717D01*
X73635309Y-75782772D01*
X73635000Y-75757500D01*
X73646624Y-75654038D01*
X73707512Y-75575893D01*
X73856685Y-75519517D01*
X74133165Y-75481362D01*
X74575972Y-75457881D01*
X75224130Y-75445526D01*
X76116658Y-75440750D01*
X77127500Y-75440000D01*
X78265572Y-75441056D01*
X79125168Y-75446592D01*
X79745308Y-75460153D01*
X80165014Y-75485287D01*
X80423308Y-75525542D01*
X80559211Y-75584466D01*
X80611745Y-75665605D01*
X80620000Y-75757500D01*
X80590019Y-75924355D01*
X80454818Y-76019945D01*
X80146510Y-76063665D01*
X79597205Y-76074911D01*
X79508750Y-76075000D01*
X78928182Y-76080836D01*
X78595911Y-76114816D01*
X78442753Y-76201651D01*
X78399523Y-76366047D01*
X78397500Y-76471875D01*
X78417667Y-76691828D01*
X78527873Y-76810580D01*
X78802671Y-76859197D01*
X79316614Y-76868741D01*
X79350000Y-76868750D01*
X80302500Y-76868750D01*
X80302500Y-77984982D01*
X80285625Y-78610460D01*
X80226375Y-78982835D01*
X80111806Y-79165134D01*
X80053704Y-79196686D01*
X79740825Y-79186325D01*
X79625079Y-79112329D01*
X79377066Y-79022772D01*
X78878579Y-78960482D01*
X78196038Y-78933125D01*
X78066765Y-78932500D01*
X77395649Y-78939593D01*
X76976936Y-78970059D01*
X76745673Y-79037673D01*
X76636909Y-79156210D01*
X76607335Y-79242033D01*
X76592102Y-79362681D01*
X76650527Y-79448652D01*
X76828619Y-79507304D01*
X77172386Y-79545994D01*
X77727840Y-79572077D01*
X78540987Y-79592911D01*
X78841240Y-79599220D01*
X81156089Y-79646875D01*
X81856952Y-78694375D01*
X82238067Y-78158911D01*
X82569452Y-77662575D01*
X82780687Y-77310928D01*
X82783609Y-77305312D01*
X83009403Y-76868749D01*
X82041785Y-76868749D01*
X81510054Y-76860491D01*
X81226175Y-76817651D01*
X81120587Y-76713132D01*
X81123733Y-76519834D01*
X81124896Y-76511562D01*
X81181177Y-76320112D01*
X81330710Y-76206717D01*
X81646440Y-76145256D01*
X82201310Y-76109612D01*
X82253966Y-76107279D01*
X82837131Y-76070555D01*
X83185764Y-76004482D01*
X83382834Y-75879815D01*
X83511310Y-75667306D01*
X83513071Y-75663449D01*
X83748623Y-75384025D01*
X84037449Y-75305145D01*
X84272666Y-75424937D01*
X84272666Y-75424937D01*
G37*
X84272666Y-75424937D02*
X84350625Y-75678125D01*
X84370696Y-75808628D01*
X84464524Y-75900897D01*
X84682527Y-75964628D01*
X85075125Y-76009516D01*
X85692737Y-76045257D01*
X86414375Y-76075000D01*
X87191217Y-76096299D01*
X87848133Y-76098101D01*
X88322979Y-76081427D01*
X88553610Y-76047295D01*
X88564148Y-76039713D01*
X88740513Y-76003091D01*
X89189327Y-75962009D01*
X89865615Y-75919081D01*
X90724404Y-75876916D01*
X91720722Y-75838127D01*
X92413836Y-75816162D01*
X96177500Y-75707273D01*
X96177500Y-76049886D01*
X96152578Y-76230480D01*
X96031762Y-76333327D01*
X95745980Y-76380054D01*
X95226155Y-76392288D01*
X95083234Y-76392500D01*
X94465499Y-76409758D01*
X94099691Y-76470552D01*
X93921657Y-76588414D01*
X93892609Y-76643608D01*
X93817036Y-76918867D01*
X93889348Y-77082496D01*
X94163639Y-77169200D01*
X94694001Y-77213686D01*
X94788437Y-77218362D01*
X95780625Y-77265625D01*
X95825511Y-79051562D01*
X95870398Y-80837500D01*
X94907500Y-80837500D01*
X94907500Y-77821250D01*
X92378997Y-77821250D01*
X92333561Y-79369062D01*
X92308326Y-80081000D01*
X92272990Y-80535981D01*
X92212313Y-80794504D01*
X92111057Y-80917073D01*
X91953984Y-80964186D01*
X91930937Y-80967603D01*
X91780821Y-80978456D01*
X91680047Y-80926213D01*
X91618783Y-80759537D01*
X91587199Y-80427091D01*
X91575465Y-79877538D01*
X91573750Y-79102291D01*
X91573750Y-77186250D01*
X92269618Y-77186249D01*
X92711678Y-77164408D01*
X92933370Y-77065985D01*
X93030657Y-76841630D01*
X93041354Y-76789374D01*
X93057916Y-76516302D01*
X92907181Y-76409115D01*
X92605767Y-76392499D01*
X92119897Y-76415055D01*
X91531457Y-76471351D01*
X91357781Y-76493452D01*
X90621250Y-76594405D01*
X90621250Y-79192202D01*
X90618592Y-80163632D01*
X90606798Y-80868884D01*
X90580142Y-81359261D01*
X90532892Y-81686066D01*
X90459321Y-81900602D01*
X90353701Y-82054174D01*
X90294706Y-82116543D01*
X89912171Y-82349133D01*
X89464616Y-82421704D01*
X89055746Y-82342828D01*
X88789265Y-82121077D01*
X88744896Y-81988437D01*
X88757429Y-81736811D01*
X88951080Y-81641706D01*
X89181458Y-81631250D01*
X89668750Y-81631250D01*
X89668750Y-76551250D01*
X89113125Y-76551250D01*
X88745873Y-76591122D01*
X88562298Y-76689166D01*
X88557500Y-76710000D01*
X88403665Y-76775564D01*
X87961209Y-76825192D01*
X87258705Y-76856903D01*
X86324724Y-76868716D01*
X86267275Y-76868750D01*
X83977051Y-76868750D01*
X83489150Y-77721511D01*
X83252706Y-78162788D01*
X83107810Y-78543757D01*
X83032406Y-78968474D01*
X83004440Y-79540995D01*
X83001250Y-80023386D01*
X83001250Y-81472500D01*
X85223750Y-81472500D01*
X85223750Y-79424594D01*
X84310937Y-79376984D01*
X83790244Y-79335554D01*
X83514000Y-79261395D01*
X83409174Y-79125296D01*
X83398125Y-79011875D01*
X83439157Y-78828624D01*
X83610941Y-78723579D01*
X83986508Y-78667529D01*
X84310937Y-78646765D01*
X85223750Y-78599155D01*
X85223750Y-77892702D01*
X85237969Y-77456556D01*
X85319558Y-77251162D01*
X85526910Y-77189901D01*
X85700000Y-77186250D01*
X85994024Y-77207342D01*
X86132489Y-77328368D01*
X86173788Y-77635947D01*
X86176250Y-77892702D01*
X86176250Y-78599155D01*
X87089062Y-78646765D01*
X87609755Y-78688195D01*
X87885999Y-78762354D01*
X87990825Y-78898453D01*
X88001875Y-79011875D01*
X87960842Y-79195125D01*
X87789058Y-79300170D01*
X87413491Y-79356220D01*
X87089062Y-79376984D01*
X86176250Y-79424594D01*
X86176250Y-81472500D01*
X87366875Y-81472500D01*
X87975626Y-81479998D01*
X88332806Y-81514192D01*
X88504209Y-81592627D01*
X88555632Y-81732847D01*
X88557500Y-81790000D01*
X88543668Y-81904249D01*
X88473035Y-81987209D01*
X88301889Y-82043875D01*
X87986523Y-82079241D01*
X87483225Y-82098303D01*
X86748286Y-82106058D01*
X85779375Y-82107500D01*
X84762972Y-82110981D01*
X84022838Y-82123779D01*
X83517794Y-82149423D01*
X83206661Y-82191442D01*
X83048261Y-82253366D01*
X83001415Y-82338725D01*
X83001250Y-82345625D01*
X82859259Y-82534673D01*
X82525000Y-82583750D01*
X82048750Y-82583750D01*
X82048750Y-81209770D01*
X82045773Y-80552770D01*
X82027604Y-80163888D01*
X81980386Y-79993744D01*
X81890260Y-79992960D01*
X81743369Y-80112157D01*
X81741253Y-80114072D01*
X81413675Y-80293285D01*
X81225315Y-80261167D01*
X80961602Y-80198430D01*
X80496430Y-80172510D01*
X80080374Y-80182211D01*
X79513243Y-80236135D01*
X79149233Y-80348243D01*
X78874294Y-80562283D01*
X78762425Y-80687769D01*
X78512153Y-81014693D01*
X78382737Y-81241249D01*
X78377981Y-81264929D01*
X78516357Y-81368958D01*
X78882856Y-81525016D01*
X79399671Y-81700196D01*
X79426669Y-81708444D01*
X79973520Y-81881457D01*
X80266352Y-82006968D01*
X80356412Y-82124762D01*
X80294948Y-82274625D01*
X80245535Y-82344171D01*
X80120980Y-82494511D01*
X79978558Y-82563927D01*
X79746910Y-82547743D01*
X79354680Y-82441282D01*
X78749621Y-82246132D01*
X77486522Y-81832047D01*
X76394198Y-82190855D01*
X75365417Y-82494859D01*
X74573471Y-82655151D01*
X74032079Y-82670145D01*
X73754959Y-82538256D01*
X73733964Y-82498180D01*
X73646525Y-82141581D01*
X73780935Y-81981282D01*
X74103436Y-81948750D01*
X74554273Y-81916597D01*
X75079506Y-81834195D01*
X75585965Y-81722627D01*
X75980479Y-81602977D01*
X76169880Y-81496327D01*
X76175000Y-81479976D01*
X76036677Y-81367565D01*
X75685733Y-81224421D01*
X75460625Y-81155000D01*
X74968188Y-80956854D01*
X74756109Y-80728614D01*
X74839800Y-80492532D01*
X74885448Y-80456746D01*
X75823317Y-80456746D01*
X75913349Y-80613187D01*
X76290356Y-80776935D01*
X76857857Y-80930907D01*
X77233312Y-80951550D01*
X77518177Y-80826628D01*
X77762500Y-80599375D01*
X78135344Y-80202500D01*
X77107547Y-80202500D01*
X76442452Y-80235912D01*
X76007030Y-80325825D01*
X75823317Y-80456746D01*
X74885448Y-80456746D01*
X74944687Y-80410306D01*
X74919035Y-80326920D01*
X74617165Y-80247963D01*
X74190625Y-80194623D01*
X73598762Y-80163552D01*
X73245108Y-80210943D01*
X73065532Y-80335529D01*
X72961252Y-80454576D01*
X72839835Y-80498218D01*
X72648775Y-80445187D01*
X72335568Y-80274217D01*
X71847709Y-79964042D01*
X71365338Y-79646875D01*
X70735045Y-79214807D01*
X70352307Y-78900633D01*
X70188343Y-78665900D01*
X70214373Y-78472156D01*
X70365028Y-78310443D01*
X70524412Y-78258602D01*
X70783337Y-78326175D01*
X71190481Y-78534500D01*
X71794518Y-78904913D01*
X71952528Y-79006316D01*
X72516467Y-79355766D01*
X72966979Y-79607617D01*
X73249220Y-79732905D01*
X73317500Y-79727185D01*
X73464564Y-79644568D01*
X73859838Y-79588026D01*
X74423164Y-79567500D01*
X75025917Y-79554438D01*
X75390838Y-79502133D01*
X75596991Y-79390906D01*
X75698750Y-79250000D01*
X75780685Y-79035335D01*
X75666464Y-78948132D01*
X75339210Y-78932500D01*
X74920724Y-78983253D01*
X74636557Y-79106016D01*
X74629920Y-79112329D01*
X74341496Y-79220309D01*
X74201295Y-79196686D01*
X74063326Y-79068035D01*
X73985396Y-78772301D01*
X73954563Y-78246454D01*
X73952500Y-77984982D01*
X73952500Y-77900625D01*
X74746250Y-77900625D01*
X74787762Y-78169015D01*
X74974571Y-78278889D01*
X75301875Y-78297500D01*
X75677621Y-78267848D01*
X75831445Y-78134413D01*
X75857500Y-77900625D01*
X76651250Y-77900625D01*
X76702507Y-78184260D01*
X76920397Y-78288022D01*
X77127500Y-78297500D01*
X77467862Y-78254785D01*
X77592376Y-78073210D01*
X77603750Y-77900625D01*
X78397500Y-77900625D01*
X78439012Y-78169015D01*
X78625821Y-78278889D01*
X78953125Y-78297500D01*
X79328871Y-78267848D01*
X79482695Y-78134413D01*
X79508750Y-77900625D01*
X79467237Y-77632234D01*
X79280428Y-77522360D01*
X78953125Y-77503750D01*
X78577378Y-77533401D01*
X78423554Y-77666836D01*
X78397500Y-77900625D01*
X77603750Y-77900625D01*
X77552492Y-77616989D01*
X77334602Y-77513227D01*
X77127500Y-77503750D01*
X76787137Y-77546464D01*
X76662623Y-77728039D01*
X76651250Y-77900625D01*
X75857500Y-77900625D01*
X75815987Y-77632234D01*
X75629178Y-77522360D01*
X75301875Y-77503750D01*
X74926128Y-77533401D01*
X74772304Y-77666836D01*
X74746250Y-77900625D01*
X73952500Y-77900625D01*
X73952500Y-76868750D01*
X74905000Y-76868750D01*
X75432887Y-76860346D01*
X75717894Y-76814427D01*
X75834573Y-76699928D01*
X75857478Y-76485785D01*
X75857500Y-76471875D01*
X76651250Y-76471875D01*
X76702507Y-76755510D01*
X76920397Y-76859272D01*
X77127500Y-76868750D01*
X77467862Y-76826035D01*
X77592376Y-76644460D01*
X77603750Y-76471875D01*
X77552492Y-76188239D01*
X77334602Y-76084477D01*
X77127500Y-76075000D01*
X76787137Y-76117714D01*
X76662623Y-76299289D01*
X76651250Y-76471875D01*
X75857500Y-76471875D01*
X75841158Y-76264529D01*
X75746012Y-76145861D01*
X75502876Y-76091162D01*
X75042566Y-76075722D01*
X74746250Y-76075000D01*
X74162254Y-76066434D01*
X73827690Y-76027805D01*
X73674672Y-75939717D01*
X73635309Y-75782772D01*
X73635000Y-75757500D01*
X73646624Y-75654038D01*
X73707512Y-75575893D01*
X73856685Y-75519517D01*
X74133165Y-75481362D01*
X74575972Y-75457881D01*
X75224130Y-75445526D01*
X76116658Y-75440750D01*
X77127500Y-75440000D01*
X78265572Y-75441056D01*
X79125168Y-75446592D01*
X79745308Y-75460153D01*
X80165014Y-75485287D01*
X80423308Y-75525542D01*
X80559211Y-75584466D01*
X80611745Y-75665605D01*
X80620000Y-75757500D01*
X80590019Y-75924355D01*
X80454818Y-76019945D01*
X80146510Y-76063665D01*
X79597205Y-76074911D01*
X79508750Y-76075000D01*
X78928182Y-76080836D01*
X78595911Y-76114816D01*
X78442753Y-76201651D01*
X78399523Y-76366047D01*
X78397500Y-76471875D01*
X78417667Y-76691828D01*
X78527873Y-76810580D01*
X78802671Y-76859197D01*
X79316614Y-76868741D01*
X79350000Y-76868750D01*
X80302500Y-76868750D01*
X80302500Y-77984982D01*
X80285625Y-78610460D01*
X80226375Y-78982835D01*
X80111806Y-79165134D01*
X80053704Y-79196686D01*
X79740825Y-79186325D01*
X79625079Y-79112329D01*
X79377066Y-79022772D01*
X78878579Y-78960482D01*
X78196038Y-78933125D01*
X78066765Y-78932500D01*
X77395649Y-78939593D01*
X76976936Y-78970059D01*
X76745673Y-79037673D01*
X76636909Y-79156210D01*
X76607335Y-79242033D01*
X76592102Y-79362681D01*
X76650527Y-79448652D01*
X76828619Y-79507304D01*
X77172386Y-79545994D01*
X77727840Y-79572077D01*
X78540987Y-79592911D01*
X78841240Y-79599220D01*
X81156089Y-79646875D01*
X81856952Y-78694375D01*
X82238067Y-78158911D01*
X82569452Y-77662575D01*
X82780687Y-77310928D01*
X82783609Y-77305312D01*
X83009403Y-76868749D01*
X82041785Y-76868749D01*
X81510054Y-76860491D01*
X81226175Y-76817651D01*
X81120587Y-76713132D01*
X81123733Y-76519834D01*
X81124896Y-76511562D01*
X81181177Y-76320112D01*
X81330710Y-76206717D01*
X81646440Y-76145256D01*
X82201310Y-76109612D01*
X82253966Y-76107279D01*
X82837131Y-76070555D01*
X83185764Y-76004482D01*
X83382834Y-75879815D01*
X83511310Y-75667306D01*
X83513071Y-75663449D01*
X83748623Y-75384025D01*
X84037449Y-75305145D01*
X84272666Y-75424937D01*
G36*
X70674374Y-75917227D02*
G01*
X71561918Y-75922374D01*
X72208302Y-75935008D01*
X72651694Y-75958449D01*
X72930264Y-75996015D01*
X73082180Y-76051026D01*
X73145612Y-76126801D01*
X73158729Y-76226659D01*
X73158750Y-76233750D01*
X73134012Y-76386443D01*
X73018986Y-76480896D01*
X72752452Y-76531321D01*
X72273191Y-76551934D01*
X71769687Y-76556267D01*
X70380625Y-76561285D01*
X69950170Y-77270642D01*
X69712509Y-77697925D01*
X69653724Y-77918793D01*
X69755977Y-77980000D01*
X69848181Y-78021897D01*
X69910755Y-78177384D01*
X69947370Y-78491155D01*
X69961696Y-79007902D01*
X69957404Y-79772319D01*
X69948306Y-80321562D01*
X69904375Y-82663125D01*
X69467812Y-82713357D01*
X69031250Y-82763589D01*
X69031250Y-78566670D01*
X68118437Y-79430383D01*
X67598310Y-79905345D01*
X67087194Y-80343732D01*
X66689836Y-80655926D01*
X66667386Y-80671863D01*
X66319804Y-80901578D01*
X66125130Y-80954790D01*
X65980265Y-80842793D01*
X65913323Y-80754472D01*
X65738018Y-80475074D01*
X65759052Y-80286173D01*
X66011426Y-80087579D01*
X66182303Y-79984574D01*
X66582127Y-79690009D01*
X67109634Y-79223516D01*
X67692617Y-78658144D01*
X68258868Y-78066943D01*
X68736179Y-77522960D01*
X69052342Y-77099247D01*
X69079912Y-77053199D01*
X69366700Y-76551249D01*
X67611475Y-76551249D01*
X66844945Y-76547630D01*
X66341141Y-76530170D01*
X66045314Y-76488965D01*
X65902713Y-76414111D01*
X65858589Y-76295706D01*
X65856250Y-76233750D01*
X65867496Y-76132282D01*
X65926680Y-76055104D01*
X66071972Y-75998897D01*
X66341540Y-75960341D01*
X66773554Y-75936118D01*
X67406183Y-75922908D01*
X68277595Y-75917392D01*
X69425960Y-75916251D01*
X69507500Y-75916250D01*
X70674374Y-75917227D01*
X70674374Y-75917227D01*
G37*
X70674374Y-75917227D02*
X71561918Y-75922374D01*
X72208302Y-75935008D01*
X72651694Y-75958449D01*
X72930264Y-75996015D01*
X73082180Y-76051026D01*
X73145612Y-76126801D01*
X73158729Y-76226659D01*
X73158750Y-76233750D01*
X73134012Y-76386443D01*
X73018986Y-76480896D01*
X72752452Y-76531321D01*
X72273191Y-76551934D01*
X71769687Y-76556267D01*
X70380625Y-76561285D01*
X69950170Y-77270642D01*
X69712509Y-77697925D01*
X69653724Y-77918793D01*
X69755977Y-77980000D01*
X69848181Y-78021897D01*
X69910755Y-78177384D01*
X69947370Y-78491155D01*
X69961696Y-79007902D01*
X69957404Y-79772319D01*
X69948306Y-80321562D01*
X69904375Y-82663125D01*
X69467812Y-82713357D01*
X69031250Y-82763589D01*
X69031250Y-78566670D01*
X68118437Y-79430383D01*
X67598310Y-79905345D01*
X67087194Y-80343732D01*
X66689836Y-80655926D01*
X66667386Y-80671863D01*
X66319804Y-80901578D01*
X66125130Y-80954790D01*
X65980265Y-80842793D01*
X65913323Y-80754472D01*
X65738018Y-80475074D01*
X65759052Y-80286173D01*
X66011426Y-80087579D01*
X66182303Y-79984574D01*
X66582127Y-79690009D01*
X67109634Y-79223516D01*
X67692617Y-78658144D01*
X68258868Y-78066943D01*
X68736179Y-77522960D01*
X69052342Y-77099247D01*
X69079912Y-77053199D01*
X69366700Y-76551249D01*
X67611475Y-76551249D01*
X66844945Y-76547630D01*
X66341141Y-76530170D01*
X66045314Y-76488965D01*
X65902713Y-76414111D01*
X65858589Y-76295706D01*
X65856250Y-76233750D01*
X65867496Y-76132282D01*
X65926680Y-76055104D01*
X66071972Y-75998897D01*
X66341540Y-75960341D01*
X66773554Y-75936118D01*
X67406183Y-75922908D01*
X68277595Y-75917392D01*
X69425960Y-75916251D01*
X69507500Y-75916250D01*
X70674374Y-75917227D01*
M02*
