M48
; DRILL file {KiCad (5.1.4)-1} date 2020/2/22 21:07:10
; FORMAT={-:-/ absolute / inch / decimal}
; #@! TF.CreationDate,2020-02-22T21:07:10+08:00
; #@! TF.GenerationSoftware,Kicad,Pcbnew,(5.1.4)-1
; #@! TF.FileFunction,Plated,1,2,PTH
FMAT,2
INCH
T1C0.0138
T2C0.0512
T3C0.1008
%
G90
G05
T1
X2.4102Y-3.5433
X2.4307Y-3.4937
X2.4307Y-3.5929
X2.4803Y-3.4732
X2.4803Y-3.6134
X2.5299Y-3.4937
X2.5299Y-3.5929
X2.5504Y-3.5433
X5.3236Y-4.3307
X5.3441Y-4.2811
X5.3441Y-4.3803
X5.3937Y-4.2606
X5.3937Y-4.4008
X5.4433Y-4.2811
X5.4433Y-4.3803
X5.4638Y-4.3307
X2.4102Y-4.3307
X2.4307Y-4.2811
X2.4307Y-4.3803
X2.4803Y-4.2606
X2.4803Y-4.4008
X2.5299Y-4.2811
X2.5299Y-4.3803
X2.5504Y-4.3307
X5.3236Y-3.5433
X5.3441Y-3.4937
X5.3441Y-3.5929
X5.3937Y-3.4732
X5.3937Y-3.6134
X5.4433Y-3.4937
X5.4433Y-3.5929
X5.4638Y-3.5433
T3
X2.4803Y-3.5433
X5.3937Y-4.3307
X2.4803Y-4.3307
X5.3937Y-3.5433
T2
G00X4.8622Y-4.1545
M15
G01X4.9016Y-4.1545
M16
G05
T0
M30
