G04 #@! TF.GenerationSoftware,KiCad,Pcbnew,(5.1.4)-1*
G04 #@! TF.CreationDate,2020-02-22T21:07:06+08:00*
G04 #@! TF.ProjectId,parts,70617274-732e-46b6-9963-61645f706362,rev?*
G04 #@! TF.SameCoordinates,Original*
G04 #@! TF.FileFunction,Copper,L2,Bot*
G04 #@! TF.FilePolarity,Positive*
%FSLAX46Y46*%
G04 Gerber Fmt 4.6, Leading zero omitted, Abs format (unit mm)*
G04 Created by KiCad (PCBNEW (5.1.4)-1) date 2020-02-22 21:07:06*
%MOMM*%
%LPD*%
G04 APERTURE LIST*
%ADD10C,0.150000*%
%ADD11C,0.300000*%
%ADD12C,0.400000*%
%ADD13O,2.500000X1.500000*%
%ADD14C,0.600000*%
%ADD15C,4.560000*%
%ADD16C,0.250000*%
%ADD17C,0.800000*%
%ADD18C,0.600000*%
%ADD19C,0.254000*%
G04 APERTURE END LIST*
D10*
X177002200Y-166007200D02*
X177002200Y-198007200D01*
X285002200Y-198007200D01*
X285002200Y-166007200D01*
X177002200Y-166007200D01*
X10000000Y-10000000D02*
X10000000Y-200007200D01*
X287002200Y-200007200D01*
X287002200Y-10000000D01*
X10000000Y-10000000D01*
X12000000Y-12000000D02*
X12000000Y-198007200D01*
X285002200Y-198007200D01*
X285002200Y-12000000D01*
X12000000Y-12000000D01*
X60000000Y-12000000D02*
X60000000Y-10000000D01*
X110000000Y-12000000D02*
X110000000Y-10000000D01*
X160000000Y-12000000D02*
X160000000Y-10000000D01*
X210000000Y-12000000D02*
X210000000Y-10000000D01*
X260000000Y-12000000D02*
X260000000Y-10000000D01*
X36065476Y-11588095D02*
X35322619Y-11588095D01*
X35694047Y-11588095D02*
X35694047Y-10288095D01*
X35570238Y-10473809D01*
X35446428Y-10597619D01*
X35322619Y-10659523D01*
X85322619Y-10411904D02*
X85384523Y-10350000D01*
X85508333Y-10288095D01*
X85817857Y-10288095D01*
X85941666Y-10350000D01*
X86003571Y-10411904D01*
X86065476Y-10535714D01*
X86065476Y-10659523D01*
X86003571Y-10845238D01*
X85260714Y-11588095D01*
X86065476Y-11588095D01*
X135260714Y-10288095D02*
X136065476Y-10288095D01*
X135632142Y-10783333D01*
X135817857Y-10783333D01*
X135941666Y-10845238D01*
X136003571Y-10907142D01*
X136065476Y-11030952D01*
X136065476Y-11340476D01*
X136003571Y-11464285D01*
X135941666Y-11526190D01*
X135817857Y-11588095D01*
X135446428Y-11588095D01*
X135322619Y-11526190D01*
X135260714Y-11464285D01*
X185941666Y-10721428D02*
X185941666Y-11588095D01*
X185632142Y-10226190D02*
X185322619Y-11154761D01*
X186127380Y-11154761D01*
X236003571Y-10288095D02*
X235384523Y-10288095D01*
X235322619Y-10907142D01*
X235384523Y-10845238D01*
X235508333Y-10783333D01*
X235817857Y-10783333D01*
X235941666Y-10845238D01*
X236003571Y-10907142D01*
X236065476Y-11030952D01*
X236065476Y-11340476D01*
X236003571Y-11464285D01*
X235941666Y-11526190D01*
X235817857Y-11588095D01*
X235508333Y-11588095D01*
X235384523Y-11526190D01*
X235322619Y-11464285D01*
X285941666Y-10288095D02*
X285694047Y-10288095D01*
X285570238Y-10350000D01*
X285508333Y-10411904D01*
X285384523Y-10597619D01*
X285322619Y-10845238D01*
X285322619Y-11340476D01*
X285384523Y-11464285D01*
X285446428Y-11526190D01*
X285570238Y-11588095D01*
X285817857Y-11588095D01*
X285941666Y-11526190D01*
X286003571Y-11464285D01*
X286065476Y-11340476D01*
X286065476Y-11030952D01*
X286003571Y-10907142D01*
X285941666Y-10845238D01*
X285817857Y-10783333D01*
X285570238Y-10783333D01*
X285446428Y-10845238D01*
X285384523Y-10907142D01*
X285322619Y-11030952D01*
X60000000Y-198007200D02*
X60000000Y-200007200D01*
X110000000Y-198007200D02*
X110000000Y-200007200D01*
X160000000Y-198007200D02*
X160000000Y-200007200D01*
X210000000Y-198007200D02*
X210000000Y-200007200D01*
X260000000Y-198007200D02*
X260000000Y-200007200D01*
X36065476Y-199595295D02*
X35322619Y-199595295D01*
X35694047Y-199595295D02*
X35694047Y-198295295D01*
X35570238Y-198481009D01*
X35446428Y-198604819D01*
X35322619Y-198666723D01*
X85322619Y-198419104D02*
X85384523Y-198357200D01*
X85508333Y-198295295D01*
X85817857Y-198295295D01*
X85941666Y-198357200D01*
X86003571Y-198419104D01*
X86065476Y-198542914D01*
X86065476Y-198666723D01*
X86003571Y-198852438D01*
X85260714Y-199595295D01*
X86065476Y-199595295D01*
X135260714Y-198295295D02*
X136065476Y-198295295D01*
X135632142Y-198790533D01*
X135817857Y-198790533D01*
X135941666Y-198852438D01*
X136003571Y-198914342D01*
X136065476Y-199038152D01*
X136065476Y-199347676D01*
X136003571Y-199471485D01*
X135941666Y-199533390D01*
X135817857Y-199595295D01*
X135446428Y-199595295D01*
X135322619Y-199533390D01*
X135260714Y-199471485D01*
X185941666Y-198728628D02*
X185941666Y-199595295D01*
X185632142Y-198233390D02*
X185322619Y-199161961D01*
X186127380Y-199161961D01*
X236003571Y-198295295D02*
X235384523Y-198295295D01*
X235322619Y-198914342D01*
X235384523Y-198852438D01*
X235508333Y-198790533D01*
X235817857Y-198790533D01*
X235941666Y-198852438D01*
X236003571Y-198914342D01*
X236065476Y-199038152D01*
X236065476Y-199347676D01*
X236003571Y-199471485D01*
X235941666Y-199533390D01*
X235817857Y-199595295D01*
X235508333Y-199595295D01*
X235384523Y-199533390D01*
X235322619Y-199471485D01*
X285941666Y-198295295D02*
X285694047Y-198295295D01*
X285570238Y-198357200D01*
X285508333Y-198419104D01*
X285384523Y-198604819D01*
X285322619Y-198852438D01*
X285322619Y-199347676D01*
X285384523Y-199471485D01*
X285446428Y-199533390D01*
X285570238Y-199595295D01*
X285817857Y-199595295D01*
X285941666Y-199533390D01*
X286003571Y-199471485D01*
X286065476Y-199347676D01*
X286065476Y-199038152D01*
X286003571Y-198914342D01*
X285941666Y-198852438D01*
X285817857Y-198790533D01*
X285570238Y-198790533D01*
X285446428Y-198852438D01*
X285384523Y-198914342D01*
X285322619Y-199038152D01*
X10000000Y-60000000D02*
X12000000Y-60000000D01*
X10000000Y-110000000D02*
X12000000Y-110000000D01*
X10000000Y-160000000D02*
X12000000Y-160000000D01*
X10690476Y-35216666D02*
X11309523Y-35216666D01*
X10566666Y-35588095D02*
X11000000Y-34288095D01*
X11433333Y-35588095D01*
X11092857Y-84907142D02*
X11278571Y-84969047D01*
X11340476Y-85030952D01*
X11402380Y-85154761D01*
X11402380Y-85340476D01*
X11340476Y-85464285D01*
X11278571Y-85526190D01*
X11154761Y-85588095D01*
X10659523Y-85588095D01*
X10659523Y-84288095D01*
X11092857Y-84288095D01*
X11216666Y-84350000D01*
X11278571Y-84411904D01*
X11340476Y-84535714D01*
X11340476Y-84659523D01*
X11278571Y-84783333D01*
X11216666Y-84845238D01*
X11092857Y-84907142D01*
X10659523Y-84907142D01*
X11402380Y-135464285D02*
X11340476Y-135526190D01*
X11154761Y-135588095D01*
X11030952Y-135588095D01*
X10845238Y-135526190D01*
X10721428Y-135402380D01*
X10659523Y-135278571D01*
X10597619Y-135030952D01*
X10597619Y-134845238D01*
X10659523Y-134597619D01*
X10721428Y-134473809D01*
X10845238Y-134350000D01*
X11030952Y-134288095D01*
X11154761Y-134288095D01*
X11340476Y-134350000D01*
X11402380Y-134411904D01*
X10659523Y-185588095D02*
X10659523Y-184288095D01*
X10969047Y-184288095D01*
X11154761Y-184350000D01*
X11278571Y-184473809D01*
X11340476Y-184597619D01*
X11402380Y-184845238D01*
X11402380Y-185030952D01*
X11340476Y-185278571D01*
X11278571Y-185402380D01*
X11154761Y-185526190D01*
X10969047Y-185588095D01*
X10659523Y-185588095D01*
X287002200Y-60000000D02*
X285002200Y-60000000D01*
X287002200Y-110000000D02*
X285002200Y-110000000D01*
X287002200Y-160000000D02*
X285002200Y-160000000D01*
X285692676Y-35216666D02*
X286311723Y-35216666D01*
X285568866Y-35588095D02*
X286002200Y-34288095D01*
X286435533Y-35588095D01*
X286095057Y-84907142D02*
X286280771Y-84969047D01*
X286342676Y-85030952D01*
X286404580Y-85154761D01*
X286404580Y-85340476D01*
X286342676Y-85464285D01*
X286280771Y-85526190D01*
X286156961Y-85588095D01*
X285661723Y-85588095D01*
X285661723Y-84288095D01*
X286095057Y-84288095D01*
X286218866Y-84350000D01*
X286280771Y-84411904D01*
X286342676Y-84535714D01*
X286342676Y-84659523D01*
X286280771Y-84783333D01*
X286218866Y-84845238D01*
X286095057Y-84907142D01*
X285661723Y-84907142D01*
X286404580Y-135464285D02*
X286342676Y-135526190D01*
X286156961Y-135588095D01*
X286033152Y-135588095D01*
X285847438Y-135526190D01*
X285723628Y-135402380D01*
X285661723Y-135278571D01*
X285599819Y-135030952D01*
X285599819Y-134845238D01*
X285661723Y-134597619D01*
X285723628Y-134473809D01*
X285847438Y-134350000D01*
X286033152Y-134288095D01*
X286156961Y-134288095D01*
X286342676Y-134350000D01*
X286404580Y-134411904D01*
X285661723Y-185588095D02*
X285661723Y-184288095D01*
X285971247Y-184288095D01*
X286156961Y-184350000D01*
X286280771Y-184473809D01*
X286342676Y-184597619D01*
X286404580Y-184845238D01*
X286404580Y-185030952D01*
X286342676Y-185278571D01*
X286280771Y-185402380D01*
X286156961Y-185526190D01*
X285971247Y-185588095D01*
X285661723Y-185588095D01*
X200434342Y-193785771D02*
X200434342Y-192285771D01*
X200791485Y-192285771D01*
X201005771Y-192357200D01*
X201148628Y-192500057D01*
X201220057Y-192642914D01*
X201291485Y-192928628D01*
X201291485Y-193142914D01*
X201220057Y-193428628D01*
X201148628Y-193571485D01*
X201005771Y-193714342D01*
X200791485Y-193785771D01*
X200434342Y-193785771D01*
X202577200Y-193785771D02*
X202577200Y-193000057D01*
X202505771Y-192857200D01*
X202362914Y-192785771D01*
X202077200Y-192785771D01*
X201934342Y-192857200D01*
X202577200Y-193714342D02*
X202434342Y-193785771D01*
X202077200Y-193785771D01*
X201934342Y-193714342D01*
X201862914Y-193571485D01*
X201862914Y-193428628D01*
X201934342Y-193285771D01*
X202077200Y-193214342D01*
X202434342Y-193214342D01*
X202577200Y-193142914D01*
X203077200Y-192785771D02*
X203648628Y-192785771D01*
X203291485Y-192285771D02*
X203291485Y-193571485D01*
X203362914Y-193714342D01*
X203505771Y-193785771D01*
X203648628Y-193785771D01*
X204720057Y-193714342D02*
X204577200Y-193785771D01*
X204291485Y-193785771D01*
X204148628Y-193714342D01*
X204077200Y-193571485D01*
X204077200Y-193000057D01*
X204148628Y-192857200D01*
X204291485Y-192785771D01*
X204577200Y-192785771D01*
X204720057Y-192857200D01*
X204791485Y-193000057D01*
X204791485Y-193142914D01*
X204077200Y-193285771D01*
X205434342Y-193642914D02*
X205505771Y-193714342D01*
X205434342Y-193785771D01*
X205362914Y-193714342D01*
X205434342Y-193642914D01*
X205434342Y-193785771D01*
X205434342Y-192857200D02*
X205505771Y-192928628D01*
X205434342Y-193000057D01*
X205362914Y-192928628D01*
X205434342Y-192857200D01*
X205434342Y-193000057D01*
X177002200Y-194507200D02*
X285002200Y-194507200D01*
X178434342Y-196585771D02*
X178434342Y-195085771D01*
X179291485Y-196585771D02*
X178648628Y-195728628D01*
X179291485Y-195085771D02*
X178434342Y-195942914D01*
X179934342Y-196585771D02*
X179934342Y-195585771D01*
X179934342Y-195085771D02*
X179862914Y-195157200D01*
X179934342Y-195228628D01*
X180005771Y-195157200D01*
X179934342Y-195085771D01*
X179934342Y-195228628D01*
X181505771Y-196442914D02*
X181434342Y-196514342D01*
X181220057Y-196585771D01*
X181077200Y-196585771D01*
X180862914Y-196514342D01*
X180720057Y-196371485D01*
X180648628Y-196228628D01*
X180577200Y-195942914D01*
X180577200Y-195728628D01*
X180648628Y-195442914D01*
X180720057Y-195300057D01*
X180862914Y-195157200D01*
X181077200Y-195085771D01*
X181220057Y-195085771D01*
X181434342Y-195157200D01*
X181505771Y-195228628D01*
X182791485Y-196585771D02*
X182791485Y-195800057D01*
X182720057Y-195657200D01*
X182577200Y-195585771D01*
X182291485Y-195585771D01*
X182148628Y-195657200D01*
X182791485Y-196514342D02*
X182648628Y-196585771D01*
X182291485Y-196585771D01*
X182148628Y-196514342D01*
X182077200Y-196371485D01*
X182077200Y-196228628D01*
X182148628Y-196085771D01*
X182291485Y-196014342D01*
X182648628Y-196014342D01*
X182791485Y-195942914D01*
X184148628Y-196585771D02*
X184148628Y-195085771D01*
X184148628Y-196514342D02*
X184005771Y-196585771D01*
X183720057Y-196585771D01*
X183577200Y-196514342D01*
X183505771Y-196442914D01*
X183434342Y-196300057D01*
X183434342Y-195871485D01*
X183505771Y-195728628D01*
X183577200Y-195657200D01*
X183720057Y-195585771D01*
X184005771Y-195585771D01*
X184148628Y-195657200D01*
X186005771Y-195800057D02*
X186505771Y-195800057D01*
X186720057Y-196585771D02*
X186005771Y-196585771D01*
X186005771Y-195085771D01*
X186720057Y-195085771D01*
X187362914Y-196442914D02*
X187434342Y-196514342D01*
X187362914Y-196585771D01*
X187291485Y-196514342D01*
X187362914Y-196442914D01*
X187362914Y-196585771D01*
X188077200Y-196585771D02*
X188077200Y-195085771D01*
X188434342Y-195085771D01*
X188648628Y-195157200D01*
X188791485Y-195300057D01*
X188862914Y-195442914D01*
X188934342Y-195728628D01*
X188934342Y-195942914D01*
X188862914Y-196228628D01*
X188791485Y-196371485D01*
X188648628Y-196514342D01*
X188434342Y-196585771D01*
X188077200Y-196585771D01*
X189577200Y-196442914D02*
X189648628Y-196514342D01*
X189577200Y-196585771D01*
X189505771Y-196514342D01*
X189577200Y-196442914D01*
X189577200Y-196585771D01*
X190220057Y-196157200D02*
X190934342Y-196157200D01*
X190077200Y-196585771D02*
X190577200Y-195085771D01*
X191077200Y-196585771D01*
X191577200Y-196442914D02*
X191648628Y-196514342D01*
X191577200Y-196585771D01*
X191505771Y-196514342D01*
X191577200Y-196442914D01*
X191577200Y-196585771D01*
X194577200Y-196585771D02*
X194577200Y-195085771D01*
X194720057Y-196014342D02*
X195148628Y-196585771D01*
X195148628Y-195585771D02*
X194577200Y-196157200D01*
X195791485Y-196585771D02*
X195791485Y-195585771D01*
X195791485Y-195085771D02*
X195720057Y-195157200D01*
X195791485Y-195228628D01*
X195862914Y-195157200D01*
X195791485Y-195085771D01*
X195791485Y-195228628D01*
X197148628Y-196514342D02*
X197005771Y-196585771D01*
X196720057Y-196585771D01*
X196577200Y-196514342D01*
X196505771Y-196442914D01*
X196434342Y-196300057D01*
X196434342Y-195871485D01*
X196505771Y-195728628D01*
X196577200Y-195657200D01*
X196720057Y-195585771D01*
X197005771Y-195585771D01*
X197148628Y-195657200D01*
X198434342Y-196585771D02*
X198434342Y-195800057D01*
X198362914Y-195657200D01*
X198220057Y-195585771D01*
X197934342Y-195585771D01*
X197791485Y-195657200D01*
X198434342Y-196514342D02*
X198291485Y-196585771D01*
X197934342Y-196585771D01*
X197791485Y-196514342D01*
X197720057Y-196371485D01*
X197720057Y-196228628D01*
X197791485Y-196085771D01*
X197934342Y-196014342D01*
X198291485Y-196014342D01*
X198434342Y-195942914D01*
X199791485Y-196585771D02*
X199791485Y-195085771D01*
X199791485Y-196514342D02*
X199648628Y-196585771D01*
X199362914Y-196585771D01*
X199220057Y-196514342D01*
X199148628Y-196442914D01*
X199077200Y-196300057D01*
X199077200Y-195871485D01*
X199148628Y-195728628D01*
X199220057Y-195657200D01*
X199362914Y-195585771D01*
X199648628Y-195585771D01*
X199791485Y-195657200D01*
X202077200Y-197157200D02*
X202005771Y-197085771D01*
X201862914Y-196871485D01*
X201791485Y-196728628D01*
X201720057Y-196514342D01*
X201648628Y-196157200D01*
X201648628Y-195871485D01*
X201720057Y-195514342D01*
X201791485Y-195300057D01*
X201862914Y-195157200D01*
X202005771Y-194942914D01*
X202077200Y-194871485D01*
X203362914Y-195085771D02*
X202648628Y-195085771D01*
X202577200Y-195800057D01*
X202648628Y-195728628D01*
X202791485Y-195657200D01*
X203148628Y-195657200D01*
X203291485Y-195728628D01*
X203362914Y-195800057D01*
X203434342Y-195942914D01*
X203434342Y-196300057D01*
X203362914Y-196442914D01*
X203291485Y-196514342D01*
X203148628Y-196585771D01*
X202791485Y-196585771D01*
X202648628Y-196514342D01*
X202577200Y-196442914D01*
X204077200Y-196442914D02*
X204148628Y-196514342D01*
X204077200Y-196585771D01*
X204005771Y-196514342D01*
X204077200Y-196442914D01*
X204077200Y-196585771D01*
X205577200Y-196585771D02*
X204720057Y-196585771D01*
X205148628Y-196585771D02*
X205148628Y-195085771D01*
X205005771Y-195300057D01*
X204862914Y-195442914D01*
X204720057Y-195514342D01*
X206220057Y-196442914D02*
X206291485Y-196514342D01*
X206220057Y-196585771D01*
X206148628Y-196514342D01*
X206220057Y-196442914D01*
X206220057Y-196585771D01*
X207577200Y-195585771D02*
X207577200Y-196585771D01*
X207220057Y-195014342D02*
X206862914Y-196085771D01*
X207791485Y-196085771D01*
X208220057Y-197157200D02*
X208291485Y-197085771D01*
X208434342Y-196871485D01*
X208505771Y-196728628D01*
X208577200Y-196514342D01*
X208648628Y-196157200D01*
X208648628Y-195871485D01*
X208577200Y-195514342D01*
X208505771Y-195300057D01*
X208434342Y-195157200D01*
X208291485Y-194942914D01*
X208220057Y-194871485D01*
X209362914Y-196014342D02*
X210505771Y-196014342D01*
X212005771Y-196585771D02*
X211148628Y-196585771D01*
X211577200Y-196585771D02*
X211577200Y-195085771D01*
X211434342Y-195300057D01*
X211291485Y-195442914D01*
X211148628Y-195514342D01*
X177002200Y-191507200D02*
X285002200Y-191507200D01*
D11*
X264411485Y-193785771D02*
X263911485Y-193071485D01*
X263554342Y-193785771D02*
X263554342Y-192285771D01*
X264125771Y-192285771D01*
X264268628Y-192357200D01*
X264340057Y-192428628D01*
X264411485Y-192571485D01*
X264411485Y-192785771D01*
X264340057Y-192928628D01*
X264268628Y-193000057D01*
X264125771Y-193071485D01*
X263554342Y-193071485D01*
X265625771Y-193714342D02*
X265482914Y-193785771D01*
X265197200Y-193785771D01*
X265054342Y-193714342D01*
X264982914Y-193571485D01*
X264982914Y-193000057D01*
X265054342Y-192857200D01*
X265197200Y-192785771D01*
X265482914Y-192785771D01*
X265625771Y-192857200D01*
X265697200Y-193000057D01*
X265697200Y-193142914D01*
X264982914Y-193285771D01*
X266197200Y-192785771D02*
X266554342Y-193785771D01*
X266911485Y-192785771D01*
X267482914Y-193642914D02*
X267554342Y-193714342D01*
X267482914Y-193785771D01*
X267411485Y-193714342D01*
X267482914Y-193642914D01*
X267482914Y-193785771D01*
X267482914Y-192857200D02*
X267554342Y-192928628D01*
X267482914Y-193000057D01*
X267411485Y-192928628D01*
X267482914Y-192857200D01*
X267482914Y-193000057D01*
D10*
X178362914Y-193714342D02*
X178577200Y-193785771D01*
X178934342Y-193785771D01*
X179077200Y-193714342D01*
X179148628Y-193642914D01*
X179220057Y-193500057D01*
X179220057Y-193357200D01*
X179148628Y-193214342D01*
X179077200Y-193142914D01*
X178934342Y-193071485D01*
X178648628Y-193000057D01*
X178505771Y-192928628D01*
X178434342Y-192857200D01*
X178362914Y-192714342D01*
X178362914Y-192571485D01*
X178434342Y-192428628D01*
X178505771Y-192357200D01*
X178648628Y-192285771D01*
X179005771Y-192285771D01*
X179220057Y-192357200D01*
X179862914Y-193785771D02*
X179862914Y-192785771D01*
X179862914Y-192285771D02*
X179791485Y-192357200D01*
X179862914Y-192428628D01*
X179934342Y-192357200D01*
X179862914Y-192285771D01*
X179862914Y-192428628D01*
X180434342Y-192785771D02*
X181220057Y-192785771D01*
X180434342Y-193785771D01*
X181220057Y-193785771D01*
X182362914Y-193714342D02*
X182220057Y-193785771D01*
X181934342Y-193785771D01*
X181791485Y-193714342D01*
X181720057Y-193571485D01*
X181720057Y-193000057D01*
X181791485Y-192857200D01*
X181934342Y-192785771D01*
X182220057Y-192785771D01*
X182362914Y-192857200D01*
X182434342Y-193000057D01*
X182434342Y-193142914D01*
X181720057Y-193285771D01*
X183077200Y-193642914D02*
X183148628Y-193714342D01*
X183077200Y-193785771D01*
X183005771Y-193714342D01*
X183077200Y-193642914D01*
X183077200Y-193785771D01*
X183077200Y-192857200D02*
X183148628Y-192928628D01*
X183077200Y-193000057D01*
X183005771Y-192928628D01*
X183077200Y-192857200D01*
X183077200Y-193000057D01*
X184862914Y-193357200D02*
X185577200Y-193357200D01*
X184720057Y-193785771D02*
X185220057Y-192285771D01*
X185720057Y-193785771D01*
X186862914Y-192785771D02*
X186862914Y-193785771D01*
X186505771Y-192214342D02*
X186148628Y-193285771D01*
X187077200Y-193285771D01*
X263434342Y-196585771D02*
X263434342Y-195085771D01*
X264791485Y-196585771D02*
X264791485Y-195085771D01*
X264791485Y-196514342D02*
X264648628Y-196585771D01*
X264362914Y-196585771D01*
X264220057Y-196514342D01*
X264148628Y-196442914D01*
X264077200Y-196300057D01*
X264077200Y-195871485D01*
X264148628Y-195728628D01*
X264220057Y-195657200D01*
X264362914Y-195585771D01*
X264648628Y-195585771D01*
X264791485Y-195657200D01*
X265505771Y-196442914D02*
X265577200Y-196514342D01*
X265505771Y-196585771D01*
X265434342Y-196514342D01*
X265505771Y-196442914D01*
X265505771Y-196585771D01*
X265505771Y-195657200D02*
X265577200Y-195728628D01*
X265505771Y-195800057D01*
X265434342Y-195728628D01*
X265505771Y-195657200D01*
X265505771Y-195800057D01*
X268148628Y-196585771D02*
X267291485Y-196585771D01*
X267720057Y-196585771D02*
X267720057Y-195085771D01*
X267577200Y-195300057D01*
X267434342Y-195442914D01*
X267291485Y-195514342D01*
X269862914Y-195014342D02*
X268577200Y-196942914D01*
X271148628Y-196585771D02*
X270291485Y-196585771D01*
X270720057Y-196585771D02*
X270720057Y-195085771D01*
X270577200Y-195300057D01*
X270434342Y-195442914D01*
X270291485Y-195514342D01*
X177002200Y-187507200D02*
X285002200Y-187507200D01*
D12*
X178714580Y-188211961D02*
X179857438Y-188211961D01*
X179036009Y-190211961D02*
X179286009Y-188211961D01*
X180274104Y-190211961D02*
X180440771Y-188878628D01*
X180524104Y-188211961D02*
X180416961Y-188307200D01*
X180500295Y-188402438D01*
X180607438Y-188307200D01*
X180524104Y-188211961D01*
X180500295Y-188402438D01*
X181107438Y-188878628D02*
X181869342Y-188878628D01*
X181476485Y-188211961D02*
X181262200Y-189926247D01*
X181333628Y-190116723D01*
X181512200Y-190211961D01*
X181702676Y-190211961D01*
X182655057Y-190211961D02*
X182476485Y-190116723D01*
X182405057Y-189926247D01*
X182619342Y-188211961D01*
X184190771Y-190116723D02*
X183988390Y-190211961D01*
X183607438Y-190211961D01*
X183428866Y-190116723D01*
X183357438Y-189926247D01*
X183452676Y-189164342D01*
X183571723Y-188973866D01*
X183774104Y-188878628D01*
X184155057Y-188878628D01*
X184333628Y-188973866D01*
X184405057Y-189164342D01*
X184381247Y-189354819D01*
X183405057Y-189545295D01*
X185155057Y-190021485D02*
X185238390Y-190116723D01*
X185131247Y-190211961D01*
X185047914Y-190116723D01*
X185155057Y-190021485D01*
X185131247Y-190211961D01*
X185286009Y-188973866D02*
X185369342Y-189069104D01*
X185262200Y-189164342D01*
X185178866Y-189069104D01*
X185286009Y-188973866D01*
X185262200Y-189164342D01*
D10*
X178934342Y-185600057D02*
X178434342Y-185600057D01*
X178434342Y-186385771D02*
X178434342Y-184885771D01*
X179148628Y-184885771D01*
X179720057Y-186385771D02*
X179720057Y-185385771D01*
X179720057Y-184885771D02*
X179648628Y-184957200D01*
X179720057Y-185028628D01*
X179791485Y-184957200D01*
X179720057Y-184885771D01*
X179720057Y-185028628D01*
X180648628Y-186385771D02*
X180505771Y-186314342D01*
X180434342Y-186171485D01*
X180434342Y-184885771D01*
X181791485Y-186314342D02*
X181648628Y-186385771D01*
X181362914Y-186385771D01*
X181220057Y-186314342D01*
X181148628Y-186171485D01*
X181148628Y-185600057D01*
X181220057Y-185457200D01*
X181362914Y-185385771D01*
X181648628Y-185385771D01*
X181791485Y-185457200D01*
X181862914Y-185600057D01*
X181862914Y-185742914D01*
X181148628Y-185885771D01*
X182505771Y-186242914D02*
X182577200Y-186314342D01*
X182505771Y-186385771D01*
X182434342Y-186314342D01*
X182505771Y-186242914D01*
X182505771Y-186385771D01*
X182505771Y-185457200D02*
X182577200Y-185528628D01*
X182505771Y-185600057D01*
X182434342Y-185528628D01*
X182505771Y-185457200D01*
X182505771Y-185600057D01*
X184362914Y-185385771D02*
X184362914Y-186885771D01*
X184362914Y-185457200D02*
X184505771Y-185385771D01*
X184791485Y-185385771D01*
X184934342Y-185457200D01*
X185005771Y-185528628D01*
X185077200Y-185671485D01*
X185077200Y-186100057D01*
X185005771Y-186242914D01*
X184934342Y-186314342D01*
X184791485Y-186385771D01*
X184505771Y-186385771D01*
X184362914Y-186314342D01*
X186362914Y-186385771D02*
X186362914Y-185600057D01*
X186291485Y-185457200D01*
X186148628Y-185385771D01*
X185862914Y-185385771D01*
X185720057Y-185457200D01*
X186362914Y-186314342D02*
X186220057Y-186385771D01*
X185862914Y-186385771D01*
X185720057Y-186314342D01*
X185648628Y-186171485D01*
X185648628Y-186028628D01*
X185720057Y-185885771D01*
X185862914Y-185814342D01*
X186220057Y-185814342D01*
X186362914Y-185742914D01*
X187077200Y-186385771D02*
X187077200Y-185385771D01*
X187077200Y-185671485D02*
X187148628Y-185528628D01*
X187220057Y-185457200D01*
X187362914Y-185385771D01*
X187505771Y-185385771D01*
X187791485Y-185385771D02*
X188362914Y-185385771D01*
X188005771Y-184885771D02*
X188005771Y-186171485D01*
X188077200Y-186314342D01*
X188220057Y-186385771D01*
X188362914Y-186385771D01*
X188791485Y-186314342D02*
X188934342Y-186385771D01*
X189220057Y-186385771D01*
X189362914Y-186314342D01*
X189434342Y-186171485D01*
X189434342Y-186100057D01*
X189362914Y-185957200D01*
X189220057Y-185885771D01*
X189005771Y-185885771D01*
X188862914Y-185814342D01*
X188791485Y-185671485D01*
X188791485Y-185600057D01*
X188862914Y-185457200D01*
X189005771Y-185385771D01*
X189220057Y-185385771D01*
X189362914Y-185457200D01*
X190077200Y-186242914D02*
X190148628Y-186314342D01*
X190077200Y-186385771D01*
X190005771Y-186314342D01*
X190077200Y-186242914D01*
X190077200Y-186385771D01*
X190791485Y-186385771D02*
X190791485Y-184885771D01*
X190934342Y-185814342D02*
X191362914Y-186385771D01*
X191362914Y-185385771D02*
X190791485Y-185957200D01*
X192005771Y-186385771D02*
X192005771Y-185385771D01*
X192005771Y-184885771D02*
X191934342Y-184957200D01*
X192005771Y-185028628D01*
X192077200Y-184957200D01*
X192005771Y-184885771D01*
X192005771Y-185028628D01*
X193362914Y-186314342D02*
X193220057Y-186385771D01*
X192934342Y-186385771D01*
X192791485Y-186314342D01*
X192720057Y-186242914D01*
X192648628Y-186100057D01*
X192648628Y-185671485D01*
X192720057Y-185528628D01*
X192791485Y-185457200D01*
X192934342Y-185385771D01*
X193220057Y-185385771D01*
X193362914Y-185457200D01*
X194648628Y-186385771D02*
X194648628Y-185600057D01*
X194577200Y-185457200D01*
X194434342Y-185385771D01*
X194148628Y-185385771D01*
X194005771Y-185457200D01*
X194648628Y-186314342D02*
X194505771Y-186385771D01*
X194148628Y-186385771D01*
X194005771Y-186314342D01*
X193934342Y-186171485D01*
X193934342Y-186028628D01*
X194005771Y-185885771D01*
X194148628Y-185814342D01*
X194505771Y-185814342D01*
X194648628Y-185742914D01*
X196005771Y-186385771D02*
X196005771Y-184885771D01*
X196005771Y-186314342D02*
X195862914Y-186385771D01*
X195577200Y-186385771D01*
X195434342Y-186314342D01*
X195362914Y-186242914D01*
X195291485Y-186100057D01*
X195291485Y-185671485D01*
X195362914Y-185528628D01*
X195434342Y-185457200D01*
X195577200Y-185385771D01*
X195862914Y-185385771D01*
X196005771Y-185457200D01*
X196362914Y-186528628D02*
X197505771Y-186528628D01*
X197862914Y-185385771D02*
X197862914Y-186885771D01*
X197862914Y-185457200D02*
X198005771Y-185385771D01*
X198291485Y-185385771D01*
X198434342Y-185457200D01*
X198505771Y-185528628D01*
X198577200Y-185671485D01*
X198577200Y-186100057D01*
X198505771Y-186242914D01*
X198434342Y-186314342D01*
X198291485Y-186385771D01*
X198005771Y-186385771D01*
X197862914Y-186314342D01*
X199862914Y-186314342D02*
X199720057Y-186385771D01*
X199434342Y-186385771D01*
X199291485Y-186314342D01*
X199220057Y-186242914D01*
X199148628Y-186100057D01*
X199148628Y-185671485D01*
X199220057Y-185528628D01*
X199291485Y-185457200D01*
X199434342Y-185385771D01*
X199720057Y-185385771D01*
X199862914Y-185457200D01*
X200505771Y-186385771D02*
X200505771Y-184885771D01*
X200505771Y-185457200D02*
X200648628Y-185385771D01*
X200934342Y-185385771D01*
X201077200Y-185457200D01*
X201148628Y-185528628D01*
X201220057Y-185671485D01*
X201220057Y-186100057D01*
X201148628Y-186242914D01*
X201077200Y-186314342D01*
X200934342Y-186385771D01*
X200648628Y-186385771D01*
X200505771Y-186314342D01*
X177002200Y-181507200D02*
X285002200Y-181507200D01*
X178362914Y-183614342D02*
X178577200Y-183685771D01*
X178934342Y-183685771D01*
X179077200Y-183614342D01*
X179148628Y-183542914D01*
X179220057Y-183400057D01*
X179220057Y-183257200D01*
X179148628Y-183114342D01*
X179077200Y-183042914D01*
X178934342Y-182971485D01*
X178648628Y-182900057D01*
X178505771Y-182828628D01*
X178434342Y-182757200D01*
X178362914Y-182614342D01*
X178362914Y-182471485D01*
X178434342Y-182328628D01*
X178505771Y-182257200D01*
X178648628Y-182185771D01*
X179005771Y-182185771D01*
X179220057Y-182257200D01*
X179862914Y-183685771D02*
X179862914Y-182185771D01*
X180505771Y-183685771D02*
X180505771Y-182900057D01*
X180434342Y-182757200D01*
X180291485Y-182685771D01*
X180077200Y-182685771D01*
X179934342Y-182757200D01*
X179862914Y-182828628D01*
X181791485Y-183614342D02*
X181648628Y-183685771D01*
X181362914Y-183685771D01*
X181220057Y-183614342D01*
X181148628Y-183471485D01*
X181148628Y-182900057D01*
X181220057Y-182757200D01*
X181362914Y-182685771D01*
X181648628Y-182685771D01*
X181791485Y-182757200D01*
X181862914Y-182900057D01*
X181862914Y-183042914D01*
X181148628Y-183185771D01*
X183077200Y-183614342D02*
X182934342Y-183685771D01*
X182648628Y-183685771D01*
X182505771Y-183614342D01*
X182434342Y-183471485D01*
X182434342Y-182900057D01*
X182505771Y-182757200D01*
X182648628Y-182685771D01*
X182934342Y-182685771D01*
X183077200Y-182757200D01*
X183148628Y-182900057D01*
X183148628Y-183042914D01*
X182434342Y-183185771D01*
X183577200Y-182685771D02*
X184148628Y-182685771D01*
X183791485Y-182185771D02*
X183791485Y-183471485D01*
X183862914Y-183614342D01*
X184005771Y-183685771D01*
X184148628Y-183685771D01*
X184648628Y-183542914D02*
X184720057Y-183614342D01*
X184648628Y-183685771D01*
X184577200Y-183614342D01*
X184648628Y-183542914D01*
X184648628Y-183685771D01*
X184648628Y-182757200D02*
X184720057Y-182828628D01*
X184648628Y-182900057D01*
X184577200Y-182828628D01*
X184648628Y-182757200D01*
X184648628Y-182900057D01*
X197002200Y-191507200D02*
X197002200Y-194507200D01*
X261002200Y-191507200D02*
X261002200Y-198007200D01*
D13*
X124000000Y-105525000D03*
D14*
X138260000Y-108740000D03*
X138780000Y-110000000D03*
D15*
X137000000Y-110000000D03*
D14*
X138260000Y-111260000D03*
X137000000Y-111780000D03*
X135220000Y-110000000D03*
X135740000Y-111260000D03*
X137000000Y-108220000D03*
X135740000Y-108740000D03*
X138260000Y-88740000D03*
X138780000Y-90000000D03*
D15*
X137000000Y-90000000D03*
D14*
X138260000Y-91260000D03*
X137000000Y-91780000D03*
X135220000Y-90000000D03*
X135740000Y-91260000D03*
X137000000Y-88220000D03*
X135740000Y-88740000D03*
X64260000Y-88740000D03*
X64780000Y-90000000D03*
D15*
X63000000Y-90000000D03*
D14*
X64260000Y-91260000D03*
X63000000Y-91780000D03*
X61220000Y-90000000D03*
X61740000Y-91260000D03*
X63000000Y-88220000D03*
X61740000Y-88740000D03*
X64260000Y-108740000D03*
X64780000Y-110000000D03*
D15*
X63000000Y-110000000D03*
D14*
X64260000Y-111260000D03*
X63000000Y-111780000D03*
X61220000Y-110000000D03*
X61740000Y-111260000D03*
X63000000Y-108220000D03*
X61740000Y-108740000D03*
D16*
X73657460Y-97002600D02*
X72989440Y-97002600D01*
X72989440Y-97002600D02*
X73177400Y-97190560D01*
X73177400Y-97190560D02*
X73177400Y-97205800D01*
X73177400Y-97205800D02*
X73177400Y-97190560D01*
X73432670Y-97483930D02*
X73432670Y-97445830D01*
X73432670Y-97445830D02*
X73177400Y-97190560D01*
X73177400Y-97190560D02*
X72941180Y-96954340D01*
X72958960Y-96276160D02*
X72958960Y-96319340D01*
X73657460Y-97259140D02*
X73657460Y-97002600D01*
X72872600Y-96474280D02*
X73657460Y-97259140D01*
X72872600Y-96405700D02*
X72872600Y-96474280D01*
X72958960Y-96319340D02*
X72872600Y-96405700D01*
D17*
X74615040Y-98800920D02*
X74965560Y-98800920D01*
X74965560Y-98800920D02*
X75813920Y-99649280D01*
X75813920Y-99649280D02*
X75813920Y-100909120D01*
X73914000Y-97002600D02*
X73657460Y-97002600D01*
X73657460Y-97002600D02*
X74188320Y-97002600D01*
X74188320Y-97002600D02*
X74477880Y-96713040D01*
X74477880Y-96713040D02*
X77434440Y-96713040D01*
X77434440Y-96713040D02*
X78806040Y-98084640D01*
X78806040Y-98084640D02*
X78806040Y-100660200D01*
X78806040Y-100660200D02*
X77317600Y-102148640D01*
X77317600Y-102148640D02*
X74879200Y-102148640D01*
X74879200Y-102148640D02*
X73334880Y-100604320D01*
X73334880Y-100604320D02*
X73334880Y-98267520D01*
X73334880Y-98267520D02*
X74391520Y-97210880D01*
X74391520Y-97210880D02*
X77297280Y-97210880D01*
X77297280Y-97210880D02*
X78414880Y-98328480D01*
X78414880Y-98328480D02*
X78414880Y-100340160D01*
X78414880Y-100340160D02*
X77053440Y-101701600D01*
X77053440Y-101701600D02*
X75041760Y-101701600D01*
X75041760Y-101701600D02*
X73924160Y-100584000D01*
X73924160Y-100584000D02*
X73924160Y-98308160D01*
X73924160Y-98308160D02*
X74452480Y-97779840D01*
X74452480Y-97779840D02*
X77094080Y-97779840D01*
X77094080Y-97779840D02*
X77784960Y-98470720D01*
X77784960Y-98470720D02*
X77784960Y-100279200D01*
X77784960Y-100279200D02*
X76626720Y-101437440D01*
X76626720Y-101437440D02*
X75529440Y-101437440D01*
X75529440Y-101437440D02*
X74615040Y-100523040D01*
X74615040Y-100523040D02*
X74615040Y-98800920D01*
X74615040Y-98800920D02*
X74615040Y-98592640D01*
X74615040Y-98592640D02*
X74858880Y-98348800D01*
X74858880Y-98348800D02*
X76890880Y-98348800D01*
X76890880Y-98348800D02*
X77297280Y-98755200D01*
X77297280Y-98755200D02*
X77297280Y-100076000D01*
X77297280Y-100076000D02*
X76464160Y-100909120D01*
X76464160Y-100909120D02*
X75813920Y-100909120D01*
X75813920Y-100909120D02*
X75184000Y-100279200D01*
X75184000Y-100279200D02*
X75184000Y-99120960D01*
X75184000Y-99120960D02*
X75427840Y-98877120D01*
X75427840Y-98877120D02*
X76423520Y-98877120D01*
X76423520Y-98877120D02*
X76728320Y-99181920D01*
X76728320Y-99181920D02*
X76728320Y-99730560D01*
X76728320Y-99730560D02*
X76362560Y-100096320D01*
X76362560Y-100096320D02*
X76260960Y-100096320D01*
X76260960Y-100096320D02*
X75996800Y-99832160D01*
X75996800Y-99832160D02*
X75996800Y-99202240D01*
X70370700Y-95288100D02*
X72999600Y-95288100D01*
X72999600Y-95288100D02*
X73799700Y-96088200D01*
X73799700Y-96088200D02*
X77381100Y-96088200D01*
X77381100Y-96088200D02*
X79270860Y-97977960D01*
X79270860Y-97977960D02*
X79270860Y-100904040D01*
X79270860Y-100904040D02*
X77533500Y-102641400D01*
X77533500Y-102641400D02*
X74714100Y-102641400D01*
X74714100Y-102641400D02*
X72847200Y-100774500D01*
X72847200Y-100774500D02*
X72847200Y-98069400D01*
X72847200Y-98069400D02*
X73432670Y-97483930D01*
X73432670Y-97483930D02*
X73914000Y-97002600D01*
X73914000Y-97002600D02*
X73914000Y-96321880D01*
X73914000Y-96321880D02*
X73814940Y-96222820D01*
D18*
X72176640Y-99176840D02*
X72176640Y-99720400D01*
X72671940Y-101048820D02*
X72671940Y-102336600D01*
X72400160Y-100777040D02*
X72671940Y-101048820D01*
X72400160Y-100446840D02*
X72400160Y-100777040D01*
X72263000Y-100309680D02*
X72400160Y-100446840D01*
X72263000Y-99806760D02*
X72263000Y-100309680D01*
X72176640Y-99720400D02*
X72263000Y-99806760D01*
X73267570Y-96589850D02*
X73267570Y-96627950D01*
X72163940Y-99743260D02*
X72163940Y-100426520D01*
X72176640Y-99730560D02*
X72163940Y-99743260D01*
X72176640Y-99113340D02*
X72176640Y-99176840D01*
X72176640Y-99176840D02*
X72176640Y-99730560D01*
X72245220Y-99044760D02*
X72176640Y-99113340D01*
X72245220Y-98310700D02*
X72245220Y-99044760D01*
X72450960Y-98104960D02*
X72245220Y-98310700D01*
X72450960Y-97698560D02*
X72450960Y-98104960D01*
X72704960Y-97444560D02*
X72450960Y-97698560D01*
X72704960Y-97190560D02*
X72704960Y-97444560D01*
X73267570Y-96627950D02*
X72941180Y-96954340D01*
X72941180Y-96954340D02*
X72704960Y-97190560D01*
X72872600Y-96840040D02*
X72872600Y-97073720D01*
X72872600Y-97073720D02*
X72557640Y-97388680D01*
X72044560Y-100426520D02*
X72163940Y-100426520D01*
X72044560Y-100426520D02*
X72024240Y-100406200D01*
X72541130Y-100803710D02*
X72541130Y-101113590D01*
X72163940Y-100426520D02*
X72541130Y-100803710D01*
X73065640Y-101655880D02*
X73065640Y-101638100D01*
X73065640Y-101638100D02*
X72541130Y-101113590D01*
X72541130Y-101113590D02*
X72161400Y-100733860D01*
X73065640Y-101732080D02*
X73065640Y-101655880D01*
X73487280Y-102153720D02*
X73065640Y-101732080D01*
X73902570Y-102408990D02*
X73762870Y-102408990D01*
X73762870Y-102408990D02*
X73507600Y-102153720D01*
X73507600Y-102153720D02*
X73487280Y-102153720D01*
X73065640Y-101655880D02*
X72595740Y-101185980D01*
X74399140Y-102809040D02*
X74302620Y-102809040D01*
X74302620Y-102809040D02*
X73902570Y-102408990D01*
X73902570Y-102408990D02*
X73896220Y-102402640D01*
X74734420Y-102809040D02*
X74399140Y-102809040D01*
X74399140Y-102809040D02*
X74201020Y-102610920D01*
X74637900Y-102809040D02*
X74734420Y-102809040D01*
X74904600Y-103075740D02*
X74637900Y-102809040D01*
X74734420Y-102809040D02*
X74952860Y-103027480D01*
X76489560Y-103027480D02*
X74952860Y-103027480D01*
X75529440Y-103075740D02*
X74904600Y-103075740D01*
X75839320Y-103586280D02*
X75839320Y-103172260D01*
X75742800Y-103075740D02*
X75529440Y-103075740D01*
X75529440Y-103075740D02*
X75247500Y-103075740D01*
X75839320Y-103172260D02*
X75742800Y-103075740D01*
X75839320Y-103845360D02*
X75839320Y-103586280D01*
X75839320Y-103586280D02*
X75839320Y-103324660D01*
X76106020Y-103057960D02*
X76106020Y-103411020D01*
X75839320Y-103324660D02*
X76106020Y-103057960D01*
X75839320Y-103997760D02*
X75839320Y-103845360D01*
X76489560Y-103027480D02*
X76489560Y-103347520D01*
X76106020Y-103411020D02*
X76489560Y-103027480D01*
X77345540Y-102892860D02*
X76944220Y-102892860D01*
X76944220Y-102892860D02*
X76489560Y-103347520D01*
X75839320Y-103997760D02*
X75834240Y-104002840D01*
X77129640Y-102892860D02*
X76984860Y-102892860D01*
X76984860Y-102892860D02*
X76382880Y-103494840D01*
X77345540Y-102892860D02*
X77129640Y-102892860D01*
X77129640Y-102892860D02*
X77050900Y-102892860D01*
X77050900Y-102892860D02*
X76708000Y-103235760D01*
X77659230Y-102673150D02*
X77565250Y-102673150D01*
X77565250Y-102673150D02*
X77345540Y-102892860D01*
X77345540Y-102892860D02*
X77068680Y-103169720D01*
X77890370Y-102673150D02*
X77659230Y-102673150D01*
X77659230Y-102673150D02*
X77426820Y-102905560D01*
X78257400Y-102372160D02*
X78191360Y-102372160D01*
X78803500Y-101826060D02*
X78257400Y-102372160D01*
X78849220Y-101826060D02*
X78803500Y-101826060D01*
X78191360Y-102372160D02*
X77890370Y-102673150D01*
X77890370Y-102673150D02*
X77884020Y-102679500D01*
X79270860Y-101302820D02*
X79270860Y-101404420D01*
X79270860Y-101404420D02*
X78849220Y-101826060D01*
X78849220Y-101826060D02*
X78694280Y-101981000D01*
X79270860Y-101099620D02*
X79270860Y-101302820D01*
X79547720Y-100822760D02*
X79270860Y-101099620D01*
X79547720Y-100642420D02*
X79547720Y-100822760D01*
X79270860Y-101302820D02*
X79054960Y-101518720D01*
X79547720Y-100457000D02*
X79547720Y-100642420D01*
X79547720Y-100642420D02*
X79547720Y-100799900D01*
X79547720Y-100799900D02*
X79629000Y-100881180D01*
X79766160Y-99517200D02*
X79766160Y-100238560D01*
X79766160Y-100238560D02*
X79547720Y-100457000D01*
X79547720Y-100457000D02*
X79542640Y-100462080D01*
X79766160Y-99255580D02*
X79766160Y-99517200D01*
X79766160Y-99517200D02*
X79766160Y-100167440D01*
X79766160Y-100167440D02*
X79816960Y-100218240D01*
X79766160Y-99004120D02*
X79766160Y-99255580D01*
X79446120Y-97612200D02*
X79766160Y-97932240D01*
X79766160Y-97932240D02*
X79766160Y-99004120D01*
X79364840Y-97612200D02*
X79446120Y-97612200D01*
X79766160Y-99255580D02*
X79994760Y-99484180D01*
X79611220Y-97858580D02*
X79611220Y-98249740D01*
X79611220Y-98249740D02*
X79852520Y-98491040D01*
X79364840Y-97612200D02*
X79364840Y-97612200D01*
X79364840Y-97612200D02*
X79611220Y-97858580D01*
X79611220Y-97858580D02*
X79852520Y-98099880D01*
X79852520Y-98099880D02*
X79580740Y-98099880D01*
X79535020Y-98054160D02*
X79535020Y-97782380D01*
X79580740Y-98099880D02*
X79535020Y-98054160D01*
X79364840Y-97612200D02*
X79535020Y-97782380D01*
X79535020Y-97782380D02*
X79852520Y-98099880D01*
X79852520Y-98099880D02*
X79852520Y-98491040D01*
X79852520Y-98491040D02*
X79964280Y-98602800D01*
X79364840Y-97475040D02*
X79364840Y-97612200D01*
X79364840Y-97348040D02*
X79364840Y-97475040D01*
X79364840Y-97475040D02*
X79618840Y-97729040D01*
X79049880Y-96972120D02*
X79049880Y-97033080D01*
X78501240Y-96423480D02*
X79049880Y-96972120D01*
X78501240Y-96403160D02*
X78501240Y-96423480D01*
X79049880Y-97033080D02*
X79364840Y-97348040D01*
X79364840Y-97348040D02*
X79375000Y-97358200D01*
X78105000Y-96072960D02*
X78171040Y-96072960D01*
X78171040Y-96072960D02*
X78501240Y-96403160D01*
X78501240Y-96403160D02*
X78719680Y-96621600D01*
X77924660Y-96072960D02*
X78105000Y-96072960D01*
X78105000Y-96072960D02*
X78333600Y-96301560D01*
X72872600Y-96840040D02*
X73017380Y-96840040D01*
X73017380Y-96840040D02*
X73267570Y-96589850D01*
X73267570Y-96589850D02*
X73634600Y-96222820D01*
X73634600Y-96222820D02*
X73814940Y-96222820D01*
X73814940Y-96222820D02*
X74162920Y-95874840D01*
X74162920Y-95874840D02*
X74386440Y-95874840D01*
X74386440Y-95874840D02*
X74592180Y-95669100D01*
X74592180Y-95669100D02*
X74993500Y-95669100D01*
X74993500Y-95669100D02*
X75130660Y-95531940D01*
X75130660Y-95531940D02*
X75656440Y-95531940D01*
X75656440Y-95531940D02*
X75709780Y-95478600D01*
X75709780Y-95478600D02*
X76314300Y-95478600D01*
X76314300Y-95478600D02*
X76352400Y-95516700D01*
X76352400Y-95516700D02*
X76664820Y-95516700D01*
X76664820Y-95516700D02*
X76738480Y-95590360D01*
X76738480Y-95590360D02*
X76987400Y-95590360D01*
X76987400Y-95590360D02*
X77066140Y-95669100D01*
X77066140Y-95669100D02*
X77320140Y-95669100D01*
X77320140Y-95669100D02*
X77447140Y-95796100D01*
X77447140Y-95796100D02*
X77647800Y-95796100D01*
X77647800Y-95796100D02*
X77924660Y-96072960D01*
X77924660Y-96072960D02*
X77980540Y-96072960D01*
D19*
G36*
X138493709Y-87006596D02*
G01*
X138968611Y-87149977D01*
X139406614Y-87382866D01*
X139791050Y-87696405D01*
X140107260Y-88078638D01*
X140343203Y-88515007D01*
X140489898Y-88988899D01*
X140544000Y-89503648D01*
X140544001Y-110477684D01*
X140493404Y-110993708D01*
X140350023Y-111468611D01*
X140117131Y-111906618D01*
X139803593Y-112291052D01*
X139421365Y-112607259D01*
X138984993Y-112843203D01*
X138511102Y-112989898D01*
X137996351Y-113044000D01*
X62022306Y-113044000D01*
X61506292Y-112993404D01*
X61031389Y-112850023D01*
X60593382Y-112617131D01*
X60208948Y-112303593D01*
X59892741Y-111921365D01*
X59656797Y-111484993D01*
X59510102Y-111011102D01*
X59456000Y-110496351D01*
X59456000Y-99247530D01*
X72421316Y-99247530D01*
X72421316Y-99952470D01*
X72558843Y-100643864D01*
X72828611Y-101295143D01*
X73220254Y-101881278D01*
X73718722Y-102379746D01*
X74304857Y-102771389D01*
X74956136Y-103041157D01*
X75647530Y-103178684D01*
X76352470Y-103178684D01*
X77043864Y-103041157D01*
X77695143Y-102771389D01*
X78281278Y-102379746D01*
X78779746Y-101881278D01*
X79171389Y-101295143D01*
X79441157Y-100643864D01*
X79578684Y-99952470D01*
X79578684Y-99932477D01*
X81010766Y-99932477D01*
X81012315Y-99953572D01*
X81018590Y-99977665D01*
X81029446Y-100000070D01*
X81044463Y-100019927D01*
X81063066Y-100036472D01*
X81084540Y-100049071D01*
X81117560Y-100064311D01*
X81142807Y-100072881D01*
X81221374Y-100090622D01*
X81277254Y-100103322D01*
X81282057Y-100104316D01*
X81594069Y-100162660D01*
X81765125Y-100195333D01*
X81769968Y-100204647D01*
X81843689Y-100371747D01*
X81926407Y-100577290D01*
X81947731Y-100632375D01*
X81886945Y-100719755D01*
X81885530Y-100721833D01*
X81748810Y-100926913D01*
X81683186Y-101022825D01*
X81681960Y-101024650D01*
X81608300Y-101136410D01*
X81607510Y-101137624D01*
X81584650Y-101173184D01*
X81570997Y-101201699D01*
X81565477Y-101225976D01*
X81564800Y-101250863D01*
X81568990Y-101275404D01*
X81577888Y-101298656D01*
X81590588Y-101324056D01*
X81606935Y-101348945D01*
X81660275Y-101412445D01*
X81667717Y-101420563D01*
X81784557Y-101537403D01*
X81785290Y-101538130D01*
X81942770Y-101693070D01*
X81945822Y-101695974D01*
X82105842Y-101843294D01*
X82108230Y-101845437D01*
X82148870Y-101880997D01*
X82166190Y-101893734D01*
X82188595Y-101904590D01*
X82212688Y-101910865D01*
X82237542Y-101912320D01*
X82262202Y-101908898D01*
X82285720Y-101900731D01*
X82318740Y-101885491D01*
X82337064Y-101875111D01*
X82391111Y-101838261D01*
X82485737Y-101778497D01*
X82496383Y-101770982D01*
X82527209Y-101746762D01*
X82664396Y-101658570D01*
X82668245Y-101655995D01*
X82783262Y-101575983D01*
X82828740Y-101546642D01*
X82874118Y-101568778D01*
X82961817Y-101613880D01*
X82969262Y-101617408D01*
X83027682Y-101642808D01*
X83059009Y-101651863D01*
X83092029Y-101656943D01*
X83111473Y-101658420D01*
X83136247Y-101655954D01*
X83148947Y-101653414D01*
X83172045Y-101646458D01*
X83194061Y-101634833D01*
X83213386Y-101619137D01*
X83229277Y-101599972D01*
X83241125Y-101578075D01*
X83622125Y-100671295D01*
X83622825Y-100669594D01*
X83686325Y-100512114D01*
X83687220Y-100509831D01*
X83727860Y-100403151D01*
X83728350Y-100401845D01*
X83746130Y-100353585D01*
X83751520Y-100334456D01*
X83753960Y-100309680D01*
X83753960Y-100304600D01*
X83750656Y-100275820D01*
X83742665Y-100252242D01*
X83730227Y-100230675D01*
X83713821Y-100211949D01*
X83673181Y-100173849D01*
X83665182Y-100166952D01*
X83481594Y-100021512D01*
X83376699Y-99886647D01*
X83311007Y-99731954D01*
X83287643Y-99564151D01*
X83306460Y-99405252D01*
X83369098Y-99257007D01*
X83476513Y-99119516D01*
X83603366Y-99018464D01*
X83753427Y-98953220D01*
X83921349Y-98936215D01*
X84085865Y-98953533D01*
X84152647Y-98977817D01*
X84234302Y-99011316D01*
X84311979Y-99069574D01*
X84379164Y-99121588D01*
X84428184Y-99180036D01*
X84455090Y-99229708D01*
X84457157Y-99233378D01*
X84511140Y-99325599D01*
X84533497Y-99394702D01*
X84559140Y-99497274D01*
X84559140Y-99571480D01*
X84552758Y-99669340D01*
X84546976Y-99688131D01*
X84546487Y-99689759D01*
X84508040Y-99820932D01*
X84489214Y-99851738D01*
X84423641Y-99956656D01*
X84420609Y-99959254D01*
X84413457Y-99965877D01*
X84338979Y-100040355D01*
X84279614Y-100095323D01*
X84242313Y-100120190D01*
X84238062Y-100123151D01*
X84210122Y-100143471D01*
X84204085Y-100148145D01*
X84160905Y-100183705D01*
X84160337Y-100184176D01*
X84129857Y-100209576D01*
X84105711Y-100236362D01*
X84093929Y-100258294D01*
X84086652Y-100282103D01*
X84084160Y-100306874D01*
X84086549Y-100331656D01*
X84093726Y-100355495D01*
X84289306Y-100830475D01*
X84289835Y-100831741D01*
X84589555Y-101537861D01*
X84592868Y-101545036D01*
X84610648Y-101580596D01*
X84618570Y-101594247D01*
X84634344Y-101613509D01*
X84653572Y-101629323D01*
X84675516Y-101641082D01*
X84699333Y-101648334D01*
X84724733Y-101653414D01*
X84745993Y-101655828D01*
X84770829Y-101654100D01*
X84794851Y-101647560D01*
X84848191Y-101627240D01*
X84859776Y-101622152D01*
X84920298Y-101591891D01*
X85015779Y-101545051D01*
X85036748Y-101557227D01*
X85177068Y-101655697D01*
X85180130Y-101657780D01*
X85403474Y-101804984D01*
X85471673Y-101850450D01*
X85480067Y-101855588D01*
X85543567Y-101891148D01*
X85565459Y-101900823D01*
X85589736Y-101906343D01*
X85614623Y-101907020D01*
X85639164Y-101902830D01*
X85662416Y-101893932D01*
X85697976Y-101876152D01*
X85722483Y-101860124D01*
X85752963Y-101834724D01*
X85759131Y-101829235D01*
X85962331Y-101636195D01*
X85966389Y-101632162D01*
X86222929Y-101365462D01*
X86234109Y-101352118D01*
X86254429Y-101324178D01*
X86262053Y-101312374D01*
X86272203Y-101289641D01*
X86277723Y-101265364D01*
X86278400Y-101240477D01*
X86274210Y-101215936D01*
X86265312Y-101192684D01*
X86244992Y-101152044D01*
X86238368Y-101140380D01*
X86197728Y-101076880D01*
X86196650Y-101075224D01*
X86072190Y-100887264D01*
X86071041Y-100885558D01*
X85949121Y-100707758D01*
X85948536Y-100706913D01*
X85899165Y-100636148D01*
X86007440Y-100363379D01*
X86078045Y-100199873D01*
X86213111Y-100167389D01*
X86557174Y-100107115D01*
X86560572Y-100106472D01*
X86710432Y-100075992D01*
X86741916Y-100065132D01*
X86762986Y-100051869D01*
X86781063Y-100034751D01*
X86795453Y-100014434D01*
X86805603Y-99991701D01*
X86815763Y-99961221D01*
X86821876Y-99931188D01*
X86826956Y-99867688D01*
X86827354Y-99858843D01*
X86829894Y-99607383D01*
X86829882Y-99603966D01*
X86824802Y-99301706D01*
X86824768Y-99300213D01*
X86822228Y-99211313D01*
X86817394Y-99180050D01*
X86807234Y-99144490D01*
X86795570Y-99116692D01*
X86781218Y-99096349D01*
X86763173Y-99079197D01*
X86742128Y-99065894D01*
X86718893Y-99056953D01*
X86645233Y-99036633D01*
X86635444Y-99034345D01*
X86305881Y-98970967D01*
X86059529Y-98920785D01*
X86028440Y-98857193D01*
X85916338Y-98595621D01*
X85883827Y-98511092D01*
X85972224Y-98379630D01*
X86124188Y-98159282D01*
X86126721Y-98155464D01*
X86238481Y-97980204D01*
X86244992Y-97968716D01*
X86265312Y-97928076D01*
X86271524Y-97913423D01*
X86277444Y-97889241D01*
X86277629Y-97885000D01*
X91924000Y-97885000D01*
X92011398Y-98911849D01*
X92271077Y-99909157D01*
X92695566Y-100848234D01*
X93272655Y-101702065D01*
X93985740Y-102446085D01*
X94814309Y-103058891D01*
X95734524Y-103522854D01*
X96719913Y-103824626D01*
X97742127Y-103955525D01*
X98771760Y-103911787D01*
X99779191Y-103694669D01*
X100735438Y-103310418D01*
X101612991Y-102770087D01*
X102386605Y-102089221D01*
X103034025Y-101287407D01*
X103536624Y-100387712D01*
X103879945Y-99416019D01*
X103928081Y-99135284D01*
X120043146Y-99135284D01*
X120043146Y-99914716D01*
X120195205Y-100679172D01*
X120493481Y-101399273D01*
X120926510Y-102047348D01*
X121477652Y-102598490D01*
X122125727Y-103031519D01*
X122845828Y-103329795D01*
X123610284Y-103481854D01*
X124389716Y-103481854D01*
X125154172Y-103329795D01*
X125874273Y-103031519D01*
X126522348Y-102598490D01*
X127073490Y-102047348D01*
X127506519Y-101399273D01*
X127804795Y-100679172D01*
X127956854Y-99914716D01*
X127956854Y-99135284D01*
X127804795Y-98370828D01*
X127506519Y-97650727D01*
X127073490Y-97002652D01*
X126522348Y-96451510D01*
X125874273Y-96018481D01*
X125154172Y-95720205D01*
X124389716Y-95568146D01*
X123610284Y-95568146D01*
X122845828Y-95720205D01*
X122125727Y-96018481D01*
X121477652Y-96451510D01*
X120926510Y-97002652D01*
X120493481Y-97650727D01*
X120195205Y-98370828D01*
X120043146Y-99135284D01*
X103928081Y-99135284D01*
X104054111Y-98400281D01*
X104054111Y-97369719D01*
X103879945Y-96353981D01*
X103536624Y-95382288D01*
X103034025Y-94482593D01*
X102386605Y-93680779D01*
X101612991Y-92999913D01*
X100735438Y-92459582D01*
X99779191Y-92075331D01*
X98771760Y-91858213D01*
X97742127Y-91814475D01*
X96719913Y-91945374D01*
X95734524Y-92247146D01*
X94814309Y-92711109D01*
X93985740Y-93323915D01*
X93272655Y-94067935D01*
X92695566Y-94921766D01*
X92271077Y-95860843D01*
X92011398Y-96858151D01*
X91924000Y-97885000D01*
X86277629Y-97885000D01*
X86278532Y-97864368D01*
X86274747Y-97839761D01*
X86266234Y-97816365D01*
X86253320Y-97795080D01*
X86222840Y-97754440D01*
X86215800Y-97745862D01*
X86149760Y-97672202D01*
X86145943Y-97668128D01*
X86026563Y-97546208D01*
X86025623Y-97545257D01*
X85939263Y-97458897D01*
X85936890Y-97456586D01*
X85787030Y-97314346D01*
X85785417Y-97312841D01*
X85754937Y-97284901D01*
X85748456Y-97279350D01*
X85710356Y-97248870D01*
X85678187Y-97230123D01*
X85665487Y-97225043D01*
X85639199Y-97217688D01*
X85623959Y-97215148D01*
X85606189Y-97213458D01*
X85581360Y-97215291D01*
X85557366Y-97221933D01*
X85535128Y-97233128D01*
X85458928Y-97281388D01*
X85456100Y-97283232D01*
X85270680Y-97407692D01*
X85269300Y-97408632D01*
X85163031Y-97482008D01*
X85022277Y-97577520D01*
X84965291Y-97614560D01*
X84957207Y-97611866D01*
X84766675Y-97540107D01*
X84572038Y-97456339D01*
X84568431Y-97454536D01*
X84538798Y-97320047D01*
X84470575Y-96958717D01*
X84470407Y-96957843D01*
X84445007Y-96828303D01*
X84444222Y-96824594D01*
X84431522Y-96768714D01*
X84421272Y-96740064D01*
X84408009Y-96718994D01*
X84390891Y-96700917D01*
X84370574Y-96686527D01*
X84347841Y-96676377D01*
X84324981Y-96668757D01*
X84294202Y-96662587D01*
X84225622Y-96657507D01*
X84218029Y-96657173D01*
X84037689Y-96654633D01*
X84034351Y-96654629D01*
X83826071Y-96657169D01*
X83823458Y-96657228D01*
X83668518Y-96662308D01*
X83665635Y-96662436D01*
X83574195Y-96667516D01*
X83556333Y-96669786D01*
X83518233Y-96677406D01*
X83505245Y-96680725D01*
X83482326Y-96690447D01*
X83461743Y-96704454D01*
X83444289Y-96722207D01*
X83430633Y-96743024D01*
X83421301Y-96766105D01*
X83408601Y-96809285D01*
X83406816Y-96816032D01*
X83396656Y-96859212D01*
X83395800Y-96863124D01*
X83350080Y-97089184D01*
X83349708Y-97091103D01*
X83301682Y-97348929D01*
X83278974Y-97458682D01*
X83058737Y-97547767D01*
X83058737Y-97547766D01*
X82913957Y-97606186D01*
X82913765Y-97606264D01*
X82882148Y-97619082D01*
X82719138Y-97505469D01*
X82716967Y-97503990D01*
X82603269Y-97428191D01*
X82443795Y-97319344D01*
X82443359Y-97319048D01*
X82356999Y-97260628D01*
X82352687Y-97257836D01*
X82299347Y-97224816D01*
X82268452Y-97210995D01*
X82243998Y-97206322D01*
X82219102Y-97206509D01*
X82194722Y-97211549D01*
X82171793Y-97221249D01*
X82151197Y-97235236D01*
X82135957Y-97247936D01*
X82129201Y-97253987D01*
X81994581Y-97383527D01*
X81993390Y-97384688D01*
X81785110Y-97590428D01*
X81784557Y-97590977D01*
X81682957Y-97692577D01*
X81676569Y-97699457D01*
X81613069Y-97773117D01*
X81593206Y-97804460D01*
X81583046Y-97827320D01*
X81576645Y-97845228D01*
X81572429Y-97869765D01*
X81573081Y-97894652D01*
X81575621Y-97914972D01*
X81582084Y-97942060D01*
X81592738Y-97964561D01*
X81600358Y-97977261D01*
X81603162Y-97981721D01*
X81666662Y-98078241D01*
X81667981Y-98080206D01*
X81794981Y-98265626D01*
X81795047Y-98265722D01*
X81882020Y-98392454D01*
X81959811Y-98519944D01*
X81934027Y-98591565D01*
X81789665Y-98924872D01*
X81762102Y-98930087D01*
X81515909Y-98975772D01*
X81514872Y-98975969D01*
X81253252Y-99026769D01*
X81251297Y-99027164D01*
X81158179Y-99046768D01*
X81128609Y-99051317D01*
X81099319Y-99059507D01*
X81077363Y-99071243D01*
X81058117Y-99087037D01*
X81055577Y-99089577D01*
X81040501Y-99107760D01*
X81028544Y-99129597D01*
X81021077Y-99153347D01*
X81018386Y-99178097D01*
X81010766Y-99932477D01*
X79578684Y-99932477D01*
X79578684Y-99247530D01*
X79441157Y-98556136D01*
X79171389Y-97904857D01*
X78779746Y-97318722D01*
X78281278Y-96820254D01*
X77695143Y-96428611D01*
X77043864Y-96158843D01*
X76352470Y-96021316D01*
X75647530Y-96021316D01*
X74956136Y-96158843D01*
X74304857Y-96428611D01*
X73718722Y-96820254D01*
X73220254Y-97318722D01*
X72828611Y-97904857D01*
X72558843Y-98556136D01*
X72421316Y-99247530D01*
X59456000Y-99247530D01*
X59456000Y-89522306D01*
X59506596Y-89006291D01*
X59649977Y-88531389D01*
X59882866Y-88093386D01*
X60196405Y-87708950D01*
X60578638Y-87392740D01*
X61015007Y-87156797D01*
X61488899Y-87010102D01*
X62003648Y-86956000D01*
X137977694Y-86956000D01*
X138493709Y-87006596D01*
X138493709Y-87006596D01*
G37*
X138493709Y-87006596D02*
X138968611Y-87149977D01*
X139406614Y-87382866D01*
X139791050Y-87696405D01*
X140107260Y-88078638D01*
X140343203Y-88515007D01*
X140489898Y-88988899D01*
X140544000Y-89503648D01*
X140544001Y-110477684D01*
X140493404Y-110993708D01*
X140350023Y-111468611D01*
X140117131Y-111906618D01*
X139803593Y-112291052D01*
X139421365Y-112607259D01*
X138984993Y-112843203D01*
X138511102Y-112989898D01*
X137996351Y-113044000D01*
X62022306Y-113044000D01*
X61506292Y-112993404D01*
X61031389Y-112850023D01*
X60593382Y-112617131D01*
X60208948Y-112303593D01*
X59892741Y-111921365D01*
X59656797Y-111484993D01*
X59510102Y-111011102D01*
X59456000Y-110496351D01*
X59456000Y-99247530D01*
X72421316Y-99247530D01*
X72421316Y-99952470D01*
X72558843Y-100643864D01*
X72828611Y-101295143D01*
X73220254Y-101881278D01*
X73718722Y-102379746D01*
X74304857Y-102771389D01*
X74956136Y-103041157D01*
X75647530Y-103178684D01*
X76352470Y-103178684D01*
X77043864Y-103041157D01*
X77695143Y-102771389D01*
X78281278Y-102379746D01*
X78779746Y-101881278D01*
X79171389Y-101295143D01*
X79441157Y-100643864D01*
X79578684Y-99952470D01*
X79578684Y-99932477D01*
X81010766Y-99932477D01*
X81012315Y-99953572D01*
X81018590Y-99977665D01*
X81029446Y-100000070D01*
X81044463Y-100019927D01*
X81063066Y-100036472D01*
X81084540Y-100049071D01*
X81117560Y-100064311D01*
X81142807Y-100072881D01*
X81221374Y-100090622D01*
X81277254Y-100103322D01*
X81282057Y-100104316D01*
X81594069Y-100162660D01*
X81765125Y-100195333D01*
X81769968Y-100204647D01*
X81843689Y-100371747D01*
X81926407Y-100577290D01*
X81947731Y-100632375D01*
X81886945Y-100719755D01*
X81885530Y-100721833D01*
X81748810Y-100926913D01*
X81683186Y-101022825D01*
X81681960Y-101024650D01*
X81608300Y-101136410D01*
X81607510Y-101137624D01*
X81584650Y-101173184D01*
X81570997Y-101201699D01*
X81565477Y-101225976D01*
X81564800Y-101250863D01*
X81568990Y-101275404D01*
X81577888Y-101298656D01*
X81590588Y-101324056D01*
X81606935Y-101348945D01*
X81660275Y-101412445D01*
X81667717Y-101420563D01*
X81784557Y-101537403D01*
X81785290Y-101538130D01*
X81942770Y-101693070D01*
X81945822Y-101695974D01*
X82105842Y-101843294D01*
X82108230Y-101845437D01*
X82148870Y-101880997D01*
X82166190Y-101893734D01*
X82188595Y-101904590D01*
X82212688Y-101910865D01*
X82237542Y-101912320D01*
X82262202Y-101908898D01*
X82285720Y-101900731D01*
X82318740Y-101885491D01*
X82337064Y-101875111D01*
X82391111Y-101838261D01*
X82485737Y-101778497D01*
X82496383Y-101770982D01*
X82527209Y-101746762D01*
X82664396Y-101658570D01*
X82668245Y-101655995D01*
X82783262Y-101575983D01*
X82828740Y-101546642D01*
X82874118Y-101568778D01*
X82961817Y-101613880D01*
X82969262Y-101617408D01*
X83027682Y-101642808D01*
X83059009Y-101651863D01*
X83092029Y-101656943D01*
X83111473Y-101658420D01*
X83136247Y-101655954D01*
X83148947Y-101653414D01*
X83172045Y-101646458D01*
X83194061Y-101634833D01*
X83213386Y-101619137D01*
X83229277Y-101599972D01*
X83241125Y-101578075D01*
X83622125Y-100671295D01*
X83622825Y-100669594D01*
X83686325Y-100512114D01*
X83687220Y-100509831D01*
X83727860Y-100403151D01*
X83728350Y-100401845D01*
X83746130Y-100353585D01*
X83751520Y-100334456D01*
X83753960Y-100309680D01*
X83753960Y-100304600D01*
X83750656Y-100275820D01*
X83742665Y-100252242D01*
X83730227Y-100230675D01*
X83713821Y-100211949D01*
X83673181Y-100173849D01*
X83665182Y-100166952D01*
X83481594Y-100021512D01*
X83376699Y-99886647D01*
X83311007Y-99731954D01*
X83287643Y-99564151D01*
X83306460Y-99405252D01*
X83369098Y-99257007D01*
X83476513Y-99119516D01*
X83603366Y-99018464D01*
X83753427Y-98953220D01*
X83921349Y-98936215D01*
X84085865Y-98953533D01*
X84152647Y-98977817D01*
X84234302Y-99011316D01*
X84311979Y-99069574D01*
X84379164Y-99121588D01*
X84428184Y-99180036D01*
X84455090Y-99229708D01*
X84457157Y-99233378D01*
X84511140Y-99325599D01*
X84533497Y-99394702D01*
X84559140Y-99497274D01*
X84559140Y-99571480D01*
X84552758Y-99669340D01*
X84546976Y-99688131D01*
X84546487Y-99689759D01*
X84508040Y-99820932D01*
X84489214Y-99851738D01*
X84423641Y-99956656D01*
X84420609Y-99959254D01*
X84413457Y-99965877D01*
X84338979Y-100040355D01*
X84279614Y-100095323D01*
X84242313Y-100120190D01*
X84238062Y-100123151D01*
X84210122Y-100143471D01*
X84204085Y-100148145D01*
X84160905Y-100183705D01*
X84160337Y-100184176D01*
X84129857Y-100209576D01*
X84105711Y-100236362D01*
X84093929Y-100258294D01*
X84086652Y-100282103D01*
X84084160Y-100306874D01*
X84086549Y-100331656D01*
X84093726Y-100355495D01*
X84289306Y-100830475D01*
X84289835Y-100831741D01*
X84589555Y-101537861D01*
X84592868Y-101545036D01*
X84610648Y-101580596D01*
X84618570Y-101594247D01*
X84634344Y-101613509D01*
X84653572Y-101629323D01*
X84675516Y-101641082D01*
X84699333Y-101648334D01*
X84724733Y-101653414D01*
X84745993Y-101655828D01*
X84770829Y-101654100D01*
X84794851Y-101647560D01*
X84848191Y-101627240D01*
X84859776Y-101622152D01*
X84920298Y-101591891D01*
X85015779Y-101545051D01*
X85036748Y-101557227D01*
X85177068Y-101655697D01*
X85180130Y-101657780D01*
X85403474Y-101804984D01*
X85471673Y-101850450D01*
X85480067Y-101855588D01*
X85543567Y-101891148D01*
X85565459Y-101900823D01*
X85589736Y-101906343D01*
X85614623Y-101907020D01*
X85639164Y-101902830D01*
X85662416Y-101893932D01*
X85697976Y-101876152D01*
X85722483Y-101860124D01*
X85752963Y-101834724D01*
X85759131Y-101829235D01*
X85962331Y-101636195D01*
X85966389Y-101632162D01*
X86222929Y-101365462D01*
X86234109Y-101352118D01*
X86254429Y-101324178D01*
X86262053Y-101312374D01*
X86272203Y-101289641D01*
X86277723Y-101265364D01*
X86278400Y-101240477D01*
X86274210Y-101215936D01*
X86265312Y-101192684D01*
X86244992Y-101152044D01*
X86238368Y-101140380D01*
X86197728Y-101076880D01*
X86196650Y-101075224D01*
X86072190Y-100887264D01*
X86071041Y-100885558D01*
X85949121Y-100707758D01*
X85948536Y-100706913D01*
X85899165Y-100636148D01*
X86007440Y-100363379D01*
X86078045Y-100199873D01*
X86213111Y-100167389D01*
X86557174Y-100107115D01*
X86560572Y-100106472D01*
X86710432Y-100075992D01*
X86741916Y-100065132D01*
X86762986Y-100051869D01*
X86781063Y-100034751D01*
X86795453Y-100014434D01*
X86805603Y-99991701D01*
X86815763Y-99961221D01*
X86821876Y-99931188D01*
X86826956Y-99867688D01*
X86827354Y-99858843D01*
X86829894Y-99607383D01*
X86829882Y-99603966D01*
X86824802Y-99301706D01*
X86824768Y-99300213D01*
X86822228Y-99211313D01*
X86817394Y-99180050D01*
X86807234Y-99144490D01*
X86795570Y-99116692D01*
X86781218Y-99096349D01*
X86763173Y-99079197D01*
X86742128Y-99065894D01*
X86718893Y-99056953D01*
X86645233Y-99036633D01*
X86635444Y-99034345D01*
X86305881Y-98970967D01*
X86059529Y-98920785D01*
X86028440Y-98857193D01*
X85916338Y-98595621D01*
X85883827Y-98511092D01*
X85972224Y-98379630D01*
X86124188Y-98159282D01*
X86126721Y-98155464D01*
X86238481Y-97980204D01*
X86244992Y-97968716D01*
X86265312Y-97928076D01*
X86271524Y-97913423D01*
X86277444Y-97889241D01*
X86277629Y-97885000D01*
X91924000Y-97885000D01*
X92011398Y-98911849D01*
X92271077Y-99909157D01*
X92695566Y-100848234D01*
X93272655Y-101702065D01*
X93985740Y-102446085D01*
X94814309Y-103058891D01*
X95734524Y-103522854D01*
X96719913Y-103824626D01*
X97742127Y-103955525D01*
X98771760Y-103911787D01*
X99779191Y-103694669D01*
X100735438Y-103310418D01*
X101612991Y-102770087D01*
X102386605Y-102089221D01*
X103034025Y-101287407D01*
X103536624Y-100387712D01*
X103879945Y-99416019D01*
X103928081Y-99135284D01*
X120043146Y-99135284D01*
X120043146Y-99914716D01*
X120195205Y-100679172D01*
X120493481Y-101399273D01*
X120926510Y-102047348D01*
X121477652Y-102598490D01*
X122125727Y-103031519D01*
X122845828Y-103329795D01*
X123610284Y-103481854D01*
X124389716Y-103481854D01*
X125154172Y-103329795D01*
X125874273Y-103031519D01*
X126522348Y-102598490D01*
X127073490Y-102047348D01*
X127506519Y-101399273D01*
X127804795Y-100679172D01*
X127956854Y-99914716D01*
X127956854Y-99135284D01*
X127804795Y-98370828D01*
X127506519Y-97650727D01*
X127073490Y-97002652D01*
X126522348Y-96451510D01*
X125874273Y-96018481D01*
X125154172Y-95720205D01*
X124389716Y-95568146D01*
X123610284Y-95568146D01*
X122845828Y-95720205D01*
X122125727Y-96018481D01*
X121477652Y-96451510D01*
X120926510Y-97002652D01*
X120493481Y-97650727D01*
X120195205Y-98370828D01*
X120043146Y-99135284D01*
X103928081Y-99135284D01*
X104054111Y-98400281D01*
X104054111Y-97369719D01*
X103879945Y-96353981D01*
X103536624Y-95382288D01*
X103034025Y-94482593D01*
X102386605Y-93680779D01*
X101612991Y-92999913D01*
X100735438Y-92459582D01*
X99779191Y-92075331D01*
X98771760Y-91858213D01*
X97742127Y-91814475D01*
X96719913Y-91945374D01*
X95734524Y-92247146D01*
X94814309Y-92711109D01*
X93985740Y-93323915D01*
X93272655Y-94067935D01*
X92695566Y-94921766D01*
X92271077Y-95860843D01*
X92011398Y-96858151D01*
X91924000Y-97885000D01*
X86277629Y-97885000D01*
X86278532Y-97864368D01*
X86274747Y-97839761D01*
X86266234Y-97816365D01*
X86253320Y-97795080D01*
X86222840Y-97754440D01*
X86215800Y-97745862D01*
X86149760Y-97672202D01*
X86145943Y-97668128D01*
X86026563Y-97546208D01*
X86025623Y-97545257D01*
X85939263Y-97458897D01*
X85936890Y-97456586D01*
X85787030Y-97314346D01*
X85785417Y-97312841D01*
X85754937Y-97284901D01*
X85748456Y-97279350D01*
X85710356Y-97248870D01*
X85678187Y-97230123D01*
X85665487Y-97225043D01*
X85639199Y-97217688D01*
X85623959Y-97215148D01*
X85606189Y-97213458D01*
X85581360Y-97215291D01*
X85557366Y-97221933D01*
X85535128Y-97233128D01*
X85458928Y-97281388D01*
X85456100Y-97283232D01*
X85270680Y-97407692D01*
X85269300Y-97408632D01*
X85163031Y-97482008D01*
X85022277Y-97577520D01*
X84965291Y-97614560D01*
X84957207Y-97611866D01*
X84766675Y-97540107D01*
X84572038Y-97456339D01*
X84568431Y-97454536D01*
X84538798Y-97320047D01*
X84470575Y-96958717D01*
X84470407Y-96957843D01*
X84445007Y-96828303D01*
X84444222Y-96824594D01*
X84431522Y-96768714D01*
X84421272Y-96740064D01*
X84408009Y-96718994D01*
X84390891Y-96700917D01*
X84370574Y-96686527D01*
X84347841Y-96676377D01*
X84324981Y-96668757D01*
X84294202Y-96662587D01*
X84225622Y-96657507D01*
X84218029Y-96657173D01*
X84037689Y-96654633D01*
X84034351Y-96654629D01*
X83826071Y-96657169D01*
X83823458Y-96657228D01*
X83668518Y-96662308D01*
X83665635Y-96662436D01*
X83574195Y-96667516D01*
X83556333Y-96669786D01*
X83518233Y-96677406D01*
X83505245Y-96680725D01*
X83482326Y-96690447D01*
X83461743Y-96704454D01*
X83444289Y-96722207D01*
X83430633Y-96743024D01*
X83421301Y-96766105D01*
X83408601Y-96809285D01*
X83406816Y-96816032D01*
X83396656Y-96859212D01*
X83395800Y-96863124D01*
X83350080Y-97089184D01*
X83349708Y-97091103D01*
X83301682Y-97348929D01*
X83278974Y-97458682D01*
X83058737Y-97547767D01*
X83058737Y-97547766D01*
X82913957Y-97606186D01*
X82913765Y-97606264D01*
X82882148Y-97619082D01*
X82719138Y-97505469D01*
X82716967Y-97503990D01*
X82603269Y-97428191D01*
X82443795Y-97319344D01*
X82443359Y-97319048D01*
X82356999Y-97260628D01*
X82352687Y-97257836D01*
X82299347Y-97224816D01*
X82268452Y-97210995D01*
X82243998Y-97206322D01*
X82219102Y-97206509D01*
X82194722Y-97211549D01*
X82171793Y-97221249D01*
X82151197Y-97235236D01*
X82135957Y-97247936D01*
X82129201Y-97253987D01*
X81994581Y-97383527D01*
X81993390Y-97384688D01*
X81785110Y-97590428D01*
X81784557Y-97590977D01*
X81682957Y-97692577D01*
X81676569Y-97699457D01*
X81613069Y-97773117D01*
X81593206Y-97804460D01*
X81583046Y-97827320D01*
X81576645Y-97845228D01*
X81572429Y-97869765D01*
X81573081Y-97894652D01*
X81575621Y-97914972D01*
X81582084Y-97942060D01*
X81592738Y-97964561D01*
X81600358Y-97977261D01*
X81603162Y-97981721D01*
X81666662Y-98078241D01*
X81667981Y-98080206D01*
X81794981Y-98265626D01*
X81795047Y-98265722D01*
X81882020Y-98392454D01*
X81959811Y-98519944D01*
X81934027Y-98591565D01*
X81789665Y-98924872D01*
X81762102Y-98930087D01*
X81515909Y-98975772D01*
X81514872Y-98975969D01*
X81253252Y-99026769D01*
X81251297Y-99027164D01*
X81158179Y-99046768D01*
X81128609Y-99051317D01*
X81099319Y-99059507D01*
X81077363Y-99071243D01*
X81058117Y-99087037D01*
X81055577Y-99089577D01*
X81040501Y-99107760D01*
X81028544Y-99129597D01*
X81021077Y-99153347D01*
X81018386Y-99178097D01*
X81010766Y-99932477D01*
X79578684Y-99932477D01*
X79578684Y-99247530D01*
X79441157Y-98556136D01*
X79171389Y-97904857D01*
X78779746Y-97318722D01*
X78281278Y-96820254D01*
X77695143Y-96428611D01*
X77043864Y-96158843D01*
X76352470Y-96021316D01*
X75647530Y-96021316D01*
X74956136Y-96158843D01*
X74304857Y-96428611D01*
X73718722Y-96820254D01*
X73220254Y-97318722D01*
X72828611Y-97904857D01*
X72558843Y-98556136D01*
X72421316Y-99247530D01*
X59456000Y-99247530D01*
X59456000Y-89522306D01*
X59506596Y-89006291D01*
X59649977Y-88531389D01*
X59882866Y-88093386D01*
X60196405Y-87708950D01*
X60578638Y-87392740D01*
X61015007Y-87156797D01*
X61488899Y-87010102D01*
X62003648Y-86956000D01*
X137977694Y-86956000D01*
X138493709Y-87006596D01*
G36*
X76773318Y-97050711D02*
G01*
X77255801Y-97250562D01*
X77690024Y-97540700D01*
X78059300Y-97909976D01*
X78349438Y-98344199D01*
X78549289Y-98826682D01*
X78651172Y-99338882D01*
X78651172Y-99861118D01*
X78549289Y-100373318D01*
X78349438Y-100855801D01*
X78059300Y-101290024D01*
X77690024Y-101659300D01*
X77255801Y-101949438D01*
X76773318Y-102149289D01*
X76261118Y-102251172D01*
X75738882Y-102251172D01*
X75226682Y-102149289D01*
X74744199Y-101949438D01*
X74309976Y-101659300D01*
X73940700Y-101290024D01*
X73650562Y-100855801D01*
X73450711Y-100373318D01*
X73348828Y-99861118D01*
X73348828Y-99338882D01*
X73450711Y-98826682D01*
X73650562Y-98344199D01*
X73940700Y-97909976D01*
X74309976Y-97540700D01*
X74744199Y-97250562D01*
X75226682Y-97050711D01*
X75738882Y-96948828D01*
X76261118Y-96948828D01*
X76773318Y-97050711D01*
X76773318Y-97050711D01*
G37*
X76773318Y-97050711D02*
X77255801Y-97250562D01*
X77690024Y-97540700D01*
X78059300Y-97909976D01*
X78349438Y-98344199D01*
X78549289Y-98826682D01*
X78651172Y-99338882D01*
X78651172Y-99861118D01*
X78549289Y-100373318D01*
X78349438Y-100855801D01*
X78059300Y-101290024D01*
X77690024Y-101659300D01*
X77255801Y-101949438D01*
X76773318Y-102149289D01*
X76261118Y-102251172D01*
X75738882Y-102251172D01*
X75226682Y-102149289D01*
X74744199Y-101949438D01*
X74309976Y-101659300D01*
X73940700Y-101290024D01*
X73650562Y-100855801D01*
X73450711Y-100373318D01*
X73348828Y-99861118D01*
X73348828Y-99338882D01*
X73450711Y-98826682D01*
X73650562Y-98344199D01*
X73940700Y-97909976D01*
X74309976Y-97540700D01*
X74744199Y-97250562D01*
X75226682Y-97050711D01*
X75738882Y-96948828D01*
X76261118Y-96948828D01*
X76773318Y-97050711D01*
M02*
