G04 #@! TF.GenerationSoftware,KiCad,Pcbnew,(5.1.4)-1*
G04 #@! TF.CreationDate,2020-02-22T21:07:06+08:00*
G04 #@! TF.ProjectId,parts,70617274-732e-46b6-9963-61645f706362,rev?*
G04 #@! TF.SameCoordinates,Original*
G04 #@! TF.FileFunction,Soldermask,Top*
G04 #@! TF.FilePolarity,Negative*
%FSLAX46Y46*%
G04 Gerber Fmt 4.6, Leading zero omitted, Abs format (unit mm)*
G04 Created by KiCad (PCBNEW (5.1.4)-1) date 2020-02-22 21:07:06*
%MOMM*%
%LPD*%
G04 APERTURE LIST*
%ADD10C,0.150000*%
%ADD11C,0.300000*%
%ADD12C,0.400000*%
%ADD13C,0.200000*%
%ADD14C,0.280000*%
%ADD15C,0.320000*%
%ADD16C,0.010000*%
%ADD17C,0.002540*%
%ADD18O,2.900000X1.900000*%
%ADD19C,1.000000*%
%ADD20C,4.960000*%
G04 APERTURE END LIST*
D10*
X177002200Y-166007200D02*
X177002200Y-198007200D01*
X285002200Y-198007200D01*
X285002200Y-166007200D01*
X177002200Y-166007200D01*
X10000000Y-10000000D02*
X10000000Y-200007200D01*
X287002200Y-200007200D01*
X287002200Y-10000000D01*
X10000000Y-10000000D01*
X12000000Y-12000000D02*
X12000000Y-198007200D01*
X285002200Y-198007200D01*
X285002200Y-12000000D01*
X12000000Y-12000000D01*
X60000000Y-12000000D02*
X60000000Y-10000000D01*
X110000000Y-12000000D02*
X110000000Y-10000000D01*
X160000000Y-12000000D02*
X160000000Y-10000000D01*
X210000000Y-12000000D02*
X210000000Y-10000000D01*
X260000000Y-12000000D02*
X260000000Y-10000000D01*
X36065476Y-11588095D02*
X35322619Y-11588095D01*
X35694047Y-11588095D02*
X35694047Y-10288095D01*
X35570238Y-10473809D01*
X35446428Y-10597619D01*
X35322619Y-10659523D01*
X85322619Y-10411904D02*
X85384523Y-10350000D01*
X85508333Y-10288095D01*
X85817857Y-10288095D01*
X85941666Y-10350000D01*
X86003571Y-10411904D01*
X86065476Y-10535714D01*
X86065476Y-10659523D01*
X86003571Y-10845238D01*
X85260714Y-11588095D01*
X86065476Y-11588095D01*
X135260714Y-10288095D02*
X136065476Y-10288095D01*
X135632142Y-10783333D01*
X135817857Y-10783333D01*
X135941666Y-10845238D01*
X136003571Y-10907142D01*
X136065476Y-11030952D01*
X136065476Y-11340476D01*
X136003571Y-11464285D01*
X135941666Y-11526190D01*
X135817857Y-11588095D01*
X135446428Y-11588095D01*
X135322619Y-11526190D01*
X135260714Y-11464285D01*
X185941666Y-10721428D02*
X185941666Y-11588095D01*
X185632142Y-10226190D02*
X185322619Y-11154761D01*
X186127380Y-11154761D01*
X236003571Y-10288095D02*
X235384523Y-10288095D01*
X235322619Y-10907142D01*
X235384523Y-10845238D01*
X235508333Y-10783333D01*
X235817857Y-10783333D01*
X235941666Y-10845238D01*
X236003571Y-10907142D01*
X236065476Y-11030952D01*
X236065476Y-11340476D01*
X236003571Y-11464285D01*
X235941666Y-11526190D01*
X235817857Y-11588095D01*
X235508333Y-11588095D01*
X235384523Y-11526190D01*
X235322619Y-11464285D01*
X285941666Y-10288095D02*
X285694047Y-10288095D01*
X285570238Y-10350000D01*
X285508333Y-10411904D01*
X285384523Y-10597619D01*
X285322619Y-10845238D01*
X285322619Y-11340476D01*
X285384523Y-11464285D01*
X285446428Y-11526190D01*
X285570238Y-11588095D01*
X285817857Y-11588095D01*
X285941666Y-11526190D01*
X286003571Y-11464285D01*
X286065476Y-11340476D01*
X286065476Y-11030952D01*
X286003571Y-10907142D01*
X285941666Y-10845238D01*
X285817857Y-10783333D01*
X285570238Y-10783333D01*
X285446428Y-10845238D01*
X285384523Y-10907142D01*
X285322619Y-11030952D01*
X60000000Y-198007200D02*
X60000000Y-200007200D01*
X110000000Y-198007200D02*
X110000000Y-200007200D01*
X160000000Y-198007200D02*
X160000000Y-200007200D01*
X210000000Y-198007200D02*
X210000000Y-200007200D01*
X260000000Y-198007200D02*
X260000000Y-200007200D01*
X36065476Y-199595295D02*
X35322619Y-199595295D01*
X35694047Y-199595295D02*
X35694047Y-198295295D01*
X35570238Y-198481009D01*
X35446428Y-198604819D01*
X35322619Y-198666723D01*
X85322619Y-198419104D02*
X85384523Y-198357200D01*
X85508333Y-198295295D01*
X85817857Y-198295295D01*
X85941666Y-198357200D01*
X86003571Y-198419104D01*
X86065476Y-198542914D01*
X86065476Y-198666723D01*
X86003571Y-198852438D01*
X85260714Y-199595295D01*
X86065476Y-199595295D01*
X135260714Y-198295295D02*
X136065476Y-198295295D01*
X135632142Y-198790533D01*
X135817857Y-198790533D01*
X135941666Y-198852438D01*
X136003571Y-198914342D01*
X136065476Y-199038152D01*
X136065476Y-199347676D01*
X136003571Y-199471485D01*
X135941666Y-199533390D01*
X135817857Y-199595295D01*
X135446428Y-199595295D01*
X135322619Y-199533390D01*
X135260714Y-199471485D01*
X185941666Y-198728628D02*
X185941666Y-199595295D01*
X185632142Y-198233390D02*
X185322619Y-199161961D01*
X186127380Y-199161961D01*
X236003571Y-198295295D02*
X235384523Y-198295295D01*
X235322619Y-198914342D01*
X235384523Y-198852438D01*
X235508333Y-198790533D01*
X235817857Y-198790533D01*
X235941666Y-198852438D01*
X236003571Y-198914342D01*
X236065476Y-199038152D01*
X236065476Y-199347676D01*
X236003571Y-199471485D01*
X235941666Y-199533390D01*
X235817857Y-199595295D01*
X235508333Y-199595295D01*
X235384523Y-199533390D01*
X235322619Y-199471485D01*
X285941666Y-198295295D02*
X285694047Y-198295295D01*
X285570238Y-198357200D01*
X285508333Y-198419104D01*
X285384523Y-198604819D01*
X285322619Y-198852438D01*
X285322619Y-199347676D01*
X285384523Y-199471485D01*
X285446428Y-199533390D01*
X285570238Y-199595295D01*
X285817857Y-199595295D01*
X285941666Y-199533390D01*
X286003571Y-199471485D01*
X286065476Y-199347676D01*
X286065476Y-199038152D01*
X286003571Y-198914342D01*
X285941666Y-198852438D01*
X285817857Y-198790533D01*
X285570238Y-198790533D01*
X285446428Y-198852438D01*
X285384523Y-198914342D01*
X285322619Y-199038152D01*
X10000000Y-60000000D02*
X12000000Y-60000000D01*
X10000000Y-110000000D02*
X12000000Y-110000000D01*
X10000000Y-160000000D02*
X12000000Y-160000000D01*
X10690476Y-35216666D02*
X11309523Y-35216666D01*
X10566666Y-35588095D02*
X11000000Y-34288095D01*
X11433333Y-35588095D01*
X11092857Y-84907142D02*
X11278571Y-84969047D01*
X11340476Y-85030952D01*
X11402380Y-85154761D01*
X11402380Y-85340476D01*
X11340476Y-85464285D01*
X11278571Y-85526190D01*
X11154761Y-85588095D01*
X10659523Y-85588095D01*
X10659523Y-84288095D01*
X11092857Y-84288095D01*
X11216666Y-84350000D01*
X11278571Y-84411904D01*
X11340476Y-84535714D01*
X11340476Y-84659523D01*
X11278571Y-84783333D01*
X11216666Y-84845238D01*
X11092857Y-84907142D01*
X10659523Y-84907142D01*
X11402380Y-135464285D02*
X11340476Y-135526190D01*
X11154761Y-135588095D01*
X11030952Y-135588095D01*
X10845238Y-135526190D01*
X10721428Y-135402380D01*
X10659523Y-135278571D01*
X10597619Y-135030952D01*
X10597619Y-134845238D01*
X10659523Y-134597619D01*
X10721428Y-134473809D01*
X10845238Y-134350000D01*
X11030952Y-134288095D01*
X11154761Y-134288095D01*
X11340476Y-134350000D01*
X11402380Y-134411904D01*
X10659523Y-185588095D02*
X10659523Y-184288095D01*
X10969047Y-184288095D01*
X11154761Y-184350000D01*
X11278571Y-184473809D01*
X11340476Y-184597619D01*
X11402380Y-184845238D01*
X11402380Y-185030952D01*
X11340476Y-185278571D01*
X11278571Y-185402380D01*
X11154761Y-185526190D01*
X10969047Y-185588095D01*
X10659523Y-185588095D01*
X287002200Y-60000000D02*
X285002200Y-60000000D01*
X287002200Y-110000000D02*
X285002200Y-110000000D01*
X287002200Y-160000000D02*
X285002200Y-160000000D01*
X285692676Y-35216666D02*
X286311723Y-35216666D01*
X285568866Y-35588095D02*
X286002200Y-34288095D01*
X286435533Y-35588095D01*
X286095057Y-84907142D02*
X286280771Y-84969047D01*
X286342676Y-85030952D01*
X286404580Y-85154761D01*
X286404580Y-85340476D01*
X286342676Y-85464285D01*
X286280771Y-85526190D01*
X286156961Y-85588095D01*
X285661723Y-85588095D01*
X285661723Y-84288095D01*
X286095057Y-84288095D01*
X286218866Y-84350000D01*
X286280771Y-84411904D01*
X286342676Y-84535714D01*
X286342676Y-84659523D01*
X286280771Y-84783333D01*
X286218866Y-84845238D01*
X286095057Y-84907142D01*
X285661723Y-84907142D01*
X286404580Y-135464285D02*
X286342676Y-135526190D01*
X286156961Y-135588095D01*
X286033152Y-135588095D01*
X285847438Y-135526190D01*
X285723628Y-135402380D01*
X285661723Y-135278571D01*
X285599819Y-135030952D01*
X285599819Y-134845238D01*
X285661723Y-134597619D01*
X285723628Y-134473809D01*
X285847438Y-134350000D01*
X286033152Y-134288095D01*
X286156961Y-134288095D01*
X286342676Y-134350000D01*
X286404580Y-134411904D01*
X285661723Y-185588095D02*
X285661723Y-184288095D01*
X285971247Y-184288095D01*
X286156961Y-184350000D01*
X286280771Y-184473809D01*
X286342676Y-184597619D01*
X286404580Y-184845238D01*
X286404580Y-185030952D01*
X286342676Y-185278571D01*
X286280771Y-185402380D01*
X286156961Y-185526190D01*
X285971247Y-185588095D01*
X285661723Y-185588095D01*
X200434342Y-193785771D02*
X200434342Y-192285771D01*
X200791485Y-192285771D01*
X201005771Y-192357200D01*
X201148628Y-192500057D01*
X201220057Y-192642914D01*
X201291485Y-192928628D01*
X201291485Y-193142914D01*
X201220057Y-193428628D01*
X201148628Y-193571485D01*
X201005771Y-193714342D01*
X200791485Y-193785771D01*
X200434342Y-193785771D01*
X202577200Y-193785771D02*
X202577200Y-193000057D01*
X202505771Y-192857200D01*
X202362914Y-192785771D01*
X202077200Y-192785771D01*
X201934342Y-192857200D01*
X202577200Y-193714342D02*
X202434342Y-193785771D01*
X202077200Y-193785771D01*
X201934342Y-193714342D01*
X201862914Y-193571485D01*
X201862914Y-193428628D01*
X201934342Y-193285771D01*
X202077200Y-193214342D01*
X202434342Y-193214342D01*
X202577200Y-193142914D01*
X203077200Y-192785771D02*
X203648628Y-192785771D01*
X203291485Y-192285771D02*
X203291485Y-193571485D01*
X203362914Y-193714342D01*
X203505771Y-193785771D01*
X203648628Y-193785771D01*
X204720057Y-193714342D02*
X204577200Y-193785771D01*
X204291485Y-193785771D01*
X204148628Y-193714342D01*
X204077200Y-193571485D01*
X204077200Y-193000057D01*
X204148628Y-192857200D01*
X204291485Y-192785771D01*
X204577200Y-192785771D01*
X204720057Y-192857200D01*
X204791485Y-193000057D01*
X204791485Y-193142914D01*
X204077200Y-193285771D01*
X205434342Y-193642914D02*
X205505771Y-193714342D01*
X205434342Y-193785771D01*
X205362914Y-193714342D01*
X205434342Y-193642914D01*
X205434342Y-193785771D01*
X205434342Y-192857200D02*
X205505771Y-192928628D01*
X205434342Y-193000057D01*
X205362914Y-192928628D01*
X205434342Y-192857200D01*
X205434342Y-193000057D01*
X177002200Y-194507200D02*
X285002200Y-194507200D01*
X178434342Y-196585771D02*
X178434342Y-195085771D01*
X179291485Y-196585771D02*
X178648628Y-195728628D01*
X179291485Y-195085771D02*
X178434342Y-195942914D01*
X179934342Y-196585771D02*
X179934342Y-195585771D01*
X179934342Y-195085771D02*
X179862914Y-195157200D01*
X179934342Y-195228628D01*
X180005771Y-195157200D01*
X179934342Y-195085771D01*
X179934342Y-195228628D01*
X181505771Y-196442914D02*
X181434342Y-196514342D01*
X181220057Y-196585771D01*
X181077200Y-196585771D01*
X180862914Y-196514342D01*
X180720057Y-196371485D01*
X180648628Y-196228628D01*
X180577200Y-195942914D01*
X180577200Y-195728628D01*
X180648628Y-195442914D01*
X180720057Y-195300057D01*
X180862914Y-195157200D01*
X181077200Y-195085771D01*
X181220057Y-195085771D01*
X181434342Y-195157200D01*
X181505771Y-195228628D01*
X182791485Y-196585771D02*
X182791485Y-195800057D01*
X182720057Y-195657200D01*
X182577200Y-195585771D01*
X182291485Y-195585771D01*
X182148628Y-195657200D01*
X182791485Y-196514342D02*
X182648628Y-196585771D01*
X182291485Y-196585771D01*
X182148628Y-196514342D01*
X182077200Y-196371485D01*
X182077200Y-196228628D01*
X182148628Y-196085771D01*
X182291485Y-196014342D01*
X182648628Y-196014342D01*
X182791485Y-195942914D01*
X184148628Y-196585771D02*
X184148628Y-195085771D01*
X184148628Y-196514342D02*
X184005771Y-196585771D01*
X183720057Y-196585771D01*
X183577200Y-196514342D01*
X183505771Y-196442914D01*
X183434342Y-196300057D01*
X183434342Y-195871485D01*
X183505771Y-195728628D01*
X183577200Y-195657200D01*
X183720057Y-195585771D01*
X184005771Y-195585771D01*
X184148628Y-195657200D01*
X186005771Y-195800057D02*
X186505771Y-195800057D01*
X186720057Y-196585771D02*
X186005771Y-196585771D01*
X186005771Y-195085771D01*
X186720057Y-195085771D01*
X187362914Y-196442914D02*
X187434342Y-196514342D01*
X187362914Y-196585771D01*
X187291485Y-196514342D01*
X187362914Y-196442914D01*
X187362914Y-196585771D01*
X188077200Y-196585771D02*
X188077200Y-195085771D01*
X188434342Y-195085771D01*
X188648628Y-195157200D01*
X188791485Y-195300057D01*
X188862914Y-195442914D01*
X188934342Y-195728628D01*
X188934342Y-195942914D01*
X188862914Y-196228628D01*
X188791485Y-196371485D01*
X188648628Y-196514342D01*
X188434342Y-196585771D01*
X188077200Y-196585771D01*
X189577200Y-196442914D02*
X189648628Y-196514342D01*
X189577200Y-196585771D01*
X189505771Y-196514342D01*
X189577200Y-196442914D01*
X189577200Y-196585771D01*
X190220057Y-196157200D02*
X190934342Y-196157200D01*
X190077200Y-196585771D02*
X190577200Y-195085771D01*
X191077200Y-196585771D01*
X191577200Y-196442914D02*
X191648628Y-196514342D01*
X191577200Y-196585771D01*
X191505771Y-196514342D01*
X191577200Y-196442914D01*
X191577200Y-196585771D01*
X194577200Y-196585771D02*
X194577200Y-195085771D01*
X194720057Y-196014342D02*
X195148628Y-196585771D01*
X195148628Y-195585771D02*
X194577200Y-196157200D01*
X195791485Y-196585771D02*
X195791485Y-195585771D01*
X195791485Y-195085771D02*
X195720057Y-195157200D01*
X195791485Y-195228628D01*
X195862914Y-195157200D01*
X195791485Y-195085771D01*
X195791485Y-195228628D01*
X197148628Y-196514342D02*
X197005771Y-196585771D01*
X196720057Y-196585771D01*
X196577200Y-196514342D01*
X196505771Y-196442914D01*
X196434342Y-196300057D01*
X196434342Y-195871485D01*
X196505771Y-195728628D01*
X196577200Y-195657200D01*
X196720057Y-195585771D01*
X197005771Y-195585771D01*
X197148628Y-195657200D01*
X198434342Y-196585771D02*
X198434342Y-195800057D01*
X198362914Y-195657200D01*
X198220057Y-195585771D01*
X197934342Y-195585771D01*
X197791485Y-195657200D01*
X198434342Y-196514342D02*
X198291485Y-196585771D01*
X197934342Y-196585771D01*
X197791485Y-196514342D01*
X197720057Y-196371485D01*
X197720057Y-196228628D01*
X197791485Y-196085771D01*
X197934342Y-196014342D01*
X198291485Y-196014342D01*
X198434342Y-195942914D01*
X199791485Y-196585771D02*
X199791485Y-195085771D01*
X199791485Y-196514342D02*
X199648628Y-196585771D01*
X199362914Y-196585771D01*
X199220057Y-196514342D01*
X199148628Y-196442914D01*
X199077200Y-196300057D01*
X199077200Y-195871485D01*
X199148628Y-195728628D01*
X199220057Y-195657200D01*
X199362914Y-195585771D01*
X199648628Y-195585771D01*
X199791485Y-195657200D01*
X202077200Y-197157200D02*
X202005771Y-197085771D01*
X201862914Y-196871485D01*
X201791485Y-196728628D01*
X201720057Y-196514342D01*
X201648628Y-196157200D01*
X201648628Y-195871485D01*
X201720057Y-195514342D01*
X201791485Y-195300057D01*
X201862914Y-195157200D01*
X202005771Y-194942914D01*
X202077200Y-194871485D01*
X203362914Y-195085771D02*
X202648628Y-195085771D01*
X202577200Y-195800057D01*
X202648628Y-195728628D01*
X202791485Y-195657200D01*
X203148628Y-195657200D01*
X203291485Y-195728628D01*
X203362914Y-195800057D01*
X203434342Y-195942914D01*
X203434342Y-196300057D01*
X203362914Y-196442914D01*
X203291485Y-196514342D01*
X203148628Y-196585771D01*
X202791485Y-196585771D01*
X202648628Y-196514342D01*
X202577200Y-196442914D01*
X204077200Y-196442914D02*
X204148628Y-196514342D01*
X204077200Y-196585771D01*
X204005771Y-196514342D01*
X204077200Y-196442914D01*
X204077200Y-196585771D01*
X205577200Y-196585771D02*
X204720057Y-196585771D01*
X205148628Y-196585771D02*
X205148628Y-195085771D01*
X205005771Y-195300057D01*
X204862914Y-195442914D01*
X204720057Y-195514342D01*
X206220057Y-196442914D02*
X206291485Y-196514342D01*
X206220057Y-196585771D01*
X206148628Y-196514342D01*
X206220057Y-196442914D01*
X206220057Y-196585771D01*
X207577200Y-195585771D02*
X207577200Y-196585771D01*
X207220057Y-195014342D02*
X206862914Y-196085771D01*
X207791485Y-196085771D01*
X208220057Y-197157200D02*
X208291485Y-197085771D01*
X208434342Y-196871485D01*
X208505771Y-196728628D01*
X208577200Y-196514342D01*
X208648628Y-196157200D01*
X208648628Y-195871485D01*
X208577200Y-195514342D01*
X208505771Y-195300057D01*
X208434342Y-195157200D01*
X208291485Y-194942914D01*
X208220057Y-194871485D01*
X209362914Y-196014342D02*
X210505771Y-196014342D01*
X212005771Y-196585771D02*
X211148628Y-196585771D01*
X211577200Y-196585771D02*
X211577200Y-195085771D01*
X211434342Y-195300057D01*
X211291485Y-195442914D01*
X211148628Y-195514342D01*
X177002200Y-191507200D02*
X285002200Y-191507200D01*
D11*
X264411485Y-193785771D02*
X263911485Y-193071485D01*
X263554342Y-193785771D02*
X263554342Y-192285771D01*
X264125771Y-192285771D01*
X264268628Y-192357200D01*
X264340057Y-192428628D01*
X264411485Y-192571485D01*
X264411485Y-192785771D01*
X264340057Y-192928628D01*
X264268628Y-193000057D01*
X264125771Y-193071485D01*
X263554342Y-193071485D01*
X265625771Y-193714342D02*
X265482914Y-193785771D01*
X265197200Y-193785771D01*
X265054342Y-193714342D01*
X264982914Y-193571485D01*
X264982914Y-193000057D01*
X265054342Y-192857200D01*
X265197200Y-192785771D01*
X265482914Y-192785771D01*
X265625771Y-192857200D01*
X265697200Y-193000057D01*
X265697200Y-193142914D01*
X264982914Y-193285771D01*
X266197200Y-192785771D02*
X266554342Y-193785771D01*
X266911485Y-192785771D01*
X267482914Y-193642914D02*
X267554342Y-193714342D01*
X267482914Y-193785771D01*
X267411485Y-193714342D01*
X267482914Y-193642914D01*
X267482914Y-193785771D01*
X267482914Y-192857200D02*
X267554342Y-192928628D01*
X267482914Y-193000057D01*
X267411485Y-192928628D01*
X267482914Y-192857200D01*
X267482914Y-193000057D01*
D10*
X178362914Y-193714342D02*
X178577200Y-193785771D01*
X178934342Y-193785771D01*
X179077200Y-193714342D01*
X179148628Y-193642914D01*
X179220057Y-193500057D01*
X179220057Y-193357200D01*
X179148628Y-193214342D01*
X179077200Y-193142914D01*
X178934342Y-193071485D01*
X178648628Y-193000057D01*
X178505771Y-192928628D01*
X178434342Y-192857200D01*
X178362914Y-192714342D01*
X178362914Y-192571485D01*
X178434342Y-192428628D01*
X178505771Y-192357200D01*
X178648628Y-192285771D01*
X179005771Y-192285771D01*
X179220057Y-192357200D01*
X179862914Y-193785771D02*
X179862914Y-192785771D01*
X179862914Y-192285771D02*
X179791485Y-192357200D01*
X179862914Y-192428628D01*
X179934342Y-192357200D01*
X179862914Y-192285771D01*
X179862914Y-192428628D01*
X180434342Y-192785771D02*
X181220057Y-192785771D01*
X180434342Y-193785771D01*
X181220057Y-193785771D01*
X182362914Y-193714342D02*
X182220057Y-193785771D01*
X181934342Y-193785771D01*
X181791485Y-193714342D01*
X181720057Y-193571485D01*
X181720057Y-193000057D01*
X181791485Y-192857200D01*
X181934342Y-192785771D01*
X182220057Y-192785771D01*
X182362914Y-192857200D01*
X182434342Y-193000057D01*
X182434342Y-193142914D01*
X181720057Y-193285771D01*
X183077200Y-193642914D02*
X183148628Y-193714342D01*
X183077200Y-193785771D01*
X183005771Y-193714342D01*
X183077200Y-193642914D01*
X183077200Y-193785771D01*
X183077200Y-192857200D02*
X183148628Y-192928628D01*
X183077200Y-193000057D01*
X183005771Y-192928628D01*
X183077200Y-192857200D01*
X183077200Y-193000057D01*
X184862914Y-193357200D02*
X185577200Y-193357200D01*
X184720057Y-193785771D02*
X185220057Y-192285771D01*
X185720057Y-193785771D01*
X186862914Y-192785771D02*
X186862914Y-193785771D01*
X186505771Y-192214342D02*
X186148628Y-193285771D01*
X187077200Y-193285771D01*
X263434342Y-196585771D02*
X263434342Y-195085771D01*
X264791485Y-196585771D02*
X264791485Y-195085771D01*
X264791485Y-196514342D02*
X264648628Y-196585771D01*
X264362914Y-196585771D01*
X264220057Y-196514342D01*
X264148628Y-196442914D01*
X264077200Y-196300057D01*
X264077200Y-195871485D01*
X264148628Y-195728628D01*
X264220057Y-195657200D01*
X264362914Y-195585771D01*
X264648628Y-195585771D01*
X264791485Y-195657200D01*
X265505771Y-196442914D02*
X265577200Y-196514342D01*
X265505771Y-196585771D01*
X265434342Y-196514342D01*
X265505771Y-196442914D01*
X265505771Y-196585771D01*
X265505771Y-195657200D02*
X265577200Y-195728628D01*
X265505771Y-195800057D01*
X265434342Y-195728628D01*
X265505771Y-195657200D01*
X265505771Y-195800057D01*
X268148628Y-196585771D02*
X267291485Y-196585771D01*
X267720057Y-196585771D02*
X267720057Y-195085771D01*
X267577200Y-195300057D01*
X267434342Y-195442914D01*
X267291485Y-195514342D01*
X269862914Y-195014342D02*
X268577200Y-196942914D01*
X271148628Y-196585771D02*
X270291485Y-196585771D01*
X270720057Y-196585771D02*
X270720057Y-195085771D01*
X270577200Y-195300057D01*
X270434342Y-195442914D01*
X270291485Y-195514342D01*
X177002200Y-187507200D02*
X285002200Y-187507200D01*
D12*
X178714580Y-188211961D02*
X179857438Y-188211961D01*
X179036009Y-190211961D02*
X179286009Y-188211961D01*
X180274104Y-190211961D02*
X180440771Y-188878628D01*
X180524104Y-188211961D02*
X180416961Y-188307200D01*
X180500295Y-188402438D01*
X180607438Y-188307200D01*
X180524104Y-188211961D01*
X180500295Y-188402438D01*
X181107438Y-188878628D02*
X181869342Y-188878628D01*
X181476485Y-188211961D02*
X181262200Y-189926247D01*
X181333628Y-190116723D01*
X181512200Y-190211961D01*
X181702676Y-190211961D01*
X182655057Y-190211961D02*
X182476485Y-190116723D01*
X182405057Y-189926247D01*
X182619342Y-188211961D01*
X184190771Y-190116723D02*
X183988390Y-190211961D01*
X183607438Y-190211961D01*
X183428866Y-190116723D01*
X183357438Y-189926247D01*
X183452676Y-189164342D01*
X183571723Y-188973866D01*
X183774104Y-188878628D01*
X184155057Y-188878628D01*
X184333628Y-188973866D01*
X184405057Y-189164342D01*
X184381247Y-189354819D01*
X183405057Y-189545295D01*
X185155057Y-190021485D02*
X185238390Y-190116723D01*
X185131247Y-190211961D01*
X185047914Y-190116723D01*
X185155057Y-190021485D01*
X185131247Y-190211961D01*
X185286009Y-188973866D02*
X185369342Y-189069104D01*
X185262200Y-189164342D01*
X185178866Y-189069104D01*
X185286009Y-188973866D01*
X185262200Y-189164342D01*
D10*
X178934342Y-185600057D02*
X178434342Y-185600057D01*
X178434342Y-186385771D02*
X178434342Y-184885771D01*
X179148628Y-184885771D01*
X179720057Y-186385771D02*
X179720057Y-185385771D01*
X179720057Y-184885771D02*
X179648628Y-184957200D01*
X179720057Y-185028628D01*
X179791485Y-184957200D01*
X179720057Y-184885771D01*
X179720057Y-185028628D01*
X180648628Y-186385771D02*
X180505771Y-186314342D01*
X180434342Y-186171485D01*
X180434342Y-184885771D01*
X181791485Y-186314342D02*
X181648628Y-186385771D01*
X181362914Y-186385771D01*
X181220057Y-186314342D01*
X181148628Y-186171485D01*
X181148628Y-185600057D01*
X181220057Y-185457200D01*
X181362914Y-185385771D01*
X181648628Y-185385771D01*
X181791485Y-185457200D01*
X181862914Y-185600057D01*
X181862914Y-185742914D01*
X181148628Y-185885771D01*
X182505771Y-186242914D02*
X182577200Y-186314342D01*
X182505771Y-186385771D01*
X182434342Y-186314342D01*
X182505771Y-186242914D01*
X182505771Y-186385771D01*
X182505771Y-185457200D02*
X182577200Y-185528628D01*
X182505771Y-185600057D01*
X182434342Y-185528628D01*
X182505771Y-185457200D01*
X182505771Y-185600057D01*
X184362914Y-185385771D02*
X184362914Y-186885771D01*
X184362914Y-185457200D02*
X184505771Y-185385771D01*
X184791485Y-185385771D01*
X184934342Y-185457200D01*
X185005771Y-185528628D01*
X185077200Y-185671485D01*
X185077200Y-186100057D01*
X185005771Y-186242914D01*
X184934342Y-186314342D01*
X184791485Y-186385771D01*
X184505771Y-186385771D01*
X184362914Y-186314342D01*
X186362914Y-186385771D02*
X186362914Y-185600057D01*
X186291485Y-185457200D01*
X186148628Y-185385771D01*
X185862914Y-185385771D01*
X185720057Y-185457200D01*
X186362914Y-186314342D02*
X186220057Y-186385771D01*
X185862914Y-186385771D01*
X185720057Y-186314342D01*
X185648628Y-186171485D01*
X185648628Y-186028628D01*
X185720057Y-185885771D01*
X185862914Y-185814342D01*
X186220057Y-185814342D01*
X186362914Y-185742914D01*
X187077200Y-186385771D02*
X187077200Y-185385771D01*
X187077200Y-185671485D02*
X187148628Y-185528628D01*
X187220057Y-185457200D01*
X187362914Y-185385771D01*
X187505771Y-185385771D01*
X187791485Y-185385771D02*
X188362914Y-185385771D01*
X188005771Y-184885771D02*
X188005771Y-186171485D01*
X188077200Y-186314342D01*
X188220057Y-186385771D01*
X188362914Y-186385771D01*
X188791485Y-186314342D02*
X188934342Y-186385771D01*
X189220057Y-186385771D01*
X189362914Y-186314342D01*
X189434342Y-186171485D01*
X189434342Y-186100057D01*
X189362914Y-185957200D01*
X189220057Y-185885771D01*
X189005771Y-185885771D01*
X188862914Y-185814342D01*
X188791485Y-185671485D01*
X188791485Y-185600057D01*
X188862914Y-185457200D01*
X189005771Y-185385771D01*
X189220057Y-185385771D01*
X189362914Y-185457200D01*
X190077200Y-186242914D02*
X190148628Y-186314342D01*
X190077200Y-186385771D01*
X190005771Y-186314342D01*
X190077200Y-186242914D01*
X190077200Y-186385771D01*
X190791485Y-186385771D02*
X190791485Y-184885771D01*
X190934342Y-185814342D02*
X191362914Y-186385771D01*
X191362914Y-185385771D02*
X190791485Y-185957200D01*
X192005771Y-186385771D02*
X192005771Y-185385771D01*
X192005771Y-184885771D02*
X191934342Y-184957200D01*
X192005771Y-185028628D01*
X192077200Y-184957200D01*
X192005771Y-184885771D01*
X192005771Y-185028628D01*
X193362914Y-186314342D02*
X193220057Y-186385771D01*
X192934342Y-186385771D01*
X192791485Y-186314342D01*
X192720057Y-186242914D01*
X192648628Y-186100057D01*
X192648628Y-185671485D01*
X192720057Y-185528628D01*
X192791485Y-185457200D01*
X192934342Y-185385771D01*
X193220057Y-185385771D01*
X193362914Y-185457200D01*
X194648628Y-186385771D02*
X194648628Y-185600057D01*
X194577200Y-185457200D01*
X194434342Y-185385771D01*
X194148628Y-185385771D01*
X194005771Y-185457200D01*
X194648628Y-186314342D02*
X194505771Y-186385771D01*
X194148628Y-186385771D01*
X194005771Y-186314342D01*
X193934342Y-186171485D01*
X193934342Y-186028628D01*
X194005771Y-185885771D01*
X194148628Y-185814342D01*
X194505771Y-185814342D01*
X194648628Y-185742914D01*
X196005771Y-186385771D02*
X196005771Y-184885771D01*
X196005771Y-186314342D02*
X195862914Y-186385771D01*
X195577200Y-186385771D01*
X195434342Y-186314342D01*
X195362914Y-186242914D01*
X195291485Y-186100057D01*
X195291485Y-185671485D01*
X195362914Y-185528628D01*
X195434342Y-185457200D01*
X195577200Y-185385771D01*
X195862914Y-185385771D01*
X196005771Y-185457200D01*
X196362914Y-186528628D02*
X197505771Y-186528628D01*
X197862914Y-185385771D02*
X197862914Y-186885771D01*
X197862914Y-185457200D02*
X198005771Y-185385771D01*
X198291485Y-185385771D01*
X198434342Y-185457200D01*
X198505771Y-185528628D01*
X198577200Y-185671485D01*
X198577200Y-186100057D01*
X198505771Y-186242914D01*
X198434342Y-186314342D01*
X198291485Y-186385771D01*
X198005771Y-186385771D01*
X197862914Y-186314342D01*
X199862914Y-186314342D02*
X199720057Y-186385771D01*
X199434342Y-186385771D01*
X199291485Y-186314342D01*
X199220057Y-186242914D01*
X199148628Y-186100057D01*
X199148628Y-185671485D01*
X199220057Y-185528628D01*
X199291485Y-185457200D01*
X199434342Y-185385771D01*
X199720057Y-185385771D01*
X199862914Y-185457200D01*
X200505771Y-186385771D02*
X200505771Y-184885771D01*
X200505771Y-185457200D02*
X200648628Y-185385771D01*
X200934342Y-185385771D01*
X201077200Y-185457200D01*
X201148628Y-185528628D01*
X201220057Y-185671485D01*
X201220057Y-186100057D01*
X201148628Y-186242914D01*
X201077200Y-186314342D01*
X200934342Y-186385771D01*
X200648628Y-186385771D01*
X200505771Y-186314342D01*
X177002200Y-181507200D02*
X285002200Y-181507200D01*
X178362914Y-183614342D02*
X178577200Y-183685771D01*
X178934342Y-183685771D01*
X179077200Y-183614342D01*
X179148628Y-183542914D01*
X179220057Y-183400057D01*
X179220057Y-183257200D01*
X179148628Y-183114342D01*
X179077200Y-183042914D01*
X178934342Y-182971485D01*
X178648628Y-182900057D01*
X178505771Y-182828628D01*
X178434342Y-182757200D01*
X178362914Y-182614342D01*
X178362914Y-182471485D01*
X178434342Y-182328628D01*
X178505771Y-182257200D01*
X178648628Y-182185771D01*
X179005771Y-182185771D01*
X179220057Y-182257200D01*
X179862914Y-183685771D02*
X179862914Y-182185771D01*
X180505771Y-183685771D02*
X180505771Y-182900057D01*
X180434342Y-182757200D01*
X180291485Y-182685771D01*
X180077200Y-182685771D01*
X179934342Y-182757200D01*
X179862914Y-182828628D01*
X181791485Y-183614342D02*
X181648628Y-183685771D01*
X181362914Y-183685771D01*
X181220057Y-183614342D01*
X181148628Y-183471485D01*
X181148628Y-182900057D01*
X181220057Y-182757200D01*
X181362914Y-182685771D01*
X181648628Y-182685771D01*
X181791485Y-182757200D01*
X181862914Y-182900057D01*
X181862914Y-183042914D01*
X181148628Y-183185771D01*
X183077200Y-183614342D02*
X182934342Y-183685771D01*
X182648628Y-183685771D01*
X182505771Y-183614342D01*
X182434342Y-183471485D01*
X182434342Y-182900057D01*
X182505771Y-182757200D01*
X182648628Y-182685771D01*
X182934342Y-182685771D01*
X183077200Y-182757200D01*
X183148628Y-182900057D01*
X183148628Y-183042914D01*
X182434342Y-183185771D01*
X183577200Y-182685771D02*
X184148628Y-182685771D01*
X183791485Y-182185771D02*
X183791485Y-183471485D01*
X183862914Y-183614342D01*
X184005771Y-183685771D01*
X184148628Y-183685771D01*
X184648628Y-183542914D02*
X184720057Y-183614342D01*
X184648628Y-183685771D01*
X184577200Y-183614342D01*
X184648628Y-183542914D01*
X184648628Y-183685771D01*
X184648628Y-182757200D02*
X184720057Y-182828628D01*
X184648628Y-182900057D01*
X184577200Y-182828628D01*
X184648628Y-182757200D01*
X184648628Y-182900057D01*
X197002200Y-191507200D02*
X197002200Y-194507200D01*
X261002200Y-191507200D02*
X261002200Y-198007200D01*
D13*
X79000000Y-110000000D02*
X82000000Y-110000000D01*
X77000000Y-110000000D02*
X77500000Y-108200000D01*
X77500000Y-108200000D02*
X78500000Y-111800000D01*
X78500000Y-111800000D02*
X79000000Y-110000000D01*
X74500000Y-111800000D02*
X75000000Y-110000000D01*
X75000000Y-110000000D02*
X77000000Y-110000000D01*
X73500000Y-108200000D02*
X74500000Y-111800000D01*
X73000000Y-110000000D02*
X73500000Y-108200000D01*
X70000000Y-110000000D02*
X73000000Y-110000000D01*
D14*
X120179047Y-110055238D02*
X120632380Y-111415238D01*
X121085714Y-110055238D01*
X121798095Y-110055238D02*
X122057142Y-110055238D01*
X122186666Y-110120000D01*
X122316190Y-110249523D01*
X122380952Y-110508571D01*
X122380952Y-110961904D01*
X122316190Y-111220952D01*
X122186666Y-111350476D01*
X122057142Y-111415238D01*
X121798095Y-111415238D01*
X121668571Y-111350476D01*
X121539047Y-111220952D01*
X121474285Y-110961904D01*
X121474285Y-110508571D01*
X121539047Y-110249523D01*
X121668571Y-110120000D01*
X121798095Y-110055238D01*
X123611428Y-111415238D02*
X122963809Y-111415238D01*
X122963809Y-110055238D01*
X124064761Y-110055238D02*
X124064761Y-111156190D01*
X124129523Y-111285714D01*
X124194285Y-111350476D01*
X124323809Y-111415238D01*
X124582857Y-111415238D01*
X124712380Y-111350476D01*
X124777142Y-111285714D01*
X124841904Y-111156190D01*
X124841904Y-110055238D01*
X125489523Y-111415238D02*
X125489523Y-110055238D01*
X125942857Y-111026666D01*
X126396190Y-110055238D01*
X126396190Y-111415238D01*
X127043809Y-110702857D02*
X127497142Y-110702857D01*
X127691428Y-111415238D02*
X127043809Y-111415238D01*
X127043809Y-110055238D01*
X127691428Y-110055238D01*
D15*
X129011092Y-108053493D02*
G75*
G03X119000000Y-108060000I-5011092J8528493D01*
G01*
D11*
X132633840Y-104363840D02*
X133486279Y-104863333D01*
X132503840Y-94471160D02*
X133356279Y-93983333D01*
X128870000Y-90920000D02*
X129360000Y-90076666D01*
X119120000Y-90900000D02*
X118630000Y-90056666D01*
X115496160Y-94471160D02*
X114643721Y-93983333D01*
X115366160Y-104353840D02*
X114513721Y-104853333D01*
D15*
X129501488Y-108919130D02*
G75*
G03X118500000Y-108920000I-5501488J9394130D01*
G01*
D11*
X133892420Y-99383333D02*
X134880000Y-99383333D01*
D15*
X128500000Y-107180000D02*
X129490000Y-108910000D01*
X119500000Y-107180000D02*
X118510000Y-108910000D01*
D11*
X124000000Y-89630000D02*
X124000000Y-88650000D01*
X114117580Y-99383333D02*
X113130000Y-99383333D01*
D16*
G36*
X93392600Y-109716106D02*
G01*
X94281318Y-109716106D01*
X94284634Y-109164658D01*
X94287950Y-108613211D01*
X95126150Y-108613211D01*
X95129387Y-109926658D01*
X95132624Y-111240106D01*
X94307000Y-111240106D01*
X94307000Y-110117158D01*
X93418000Y-110117158D01*
X93418000Y-111240106D01*
X92579800Y-111240106D01*
X92579800Y-108606527D01*
X93392600Y-108606527D01*
X93392600Y-109716106D01*
X93392600Y-109716106D01*
G37*
X93392600Y-109716106D02*
X94281318Y-109716106D01*
X94284634Y-109164658D01*
X94287950Y-108613211D01*
X95126150Y-108613211D01*
X95129387Y-109926658D01*
X95132624Y-111240106D01*
X94307000Y-111240106D01*
X94307000Y-110117158D01*
X93418000Y-110117158D01*
X93418000Y-111240106D01*
X92579800Y-111240106D01*
X92579800Y-108606527D01*
X93392600Y-108606527D01*
X93392600Y-109716106D01*
G36*
X97164500Y-108967474D02*
G01*
X97532800Y-108967474D01*
X97532800Y-109341035D01*
X97707425Y-109344755D01*
X97882050Y-109348474D01*
X97888570Y-111240106D01*
X97062900Y-111240106D01*
X97062900Y-110504842D01*
X96148500Y-110504842D01*
X96148500Y-111240106D01*
X95322828Y-111240106D01*
X95329280Y-109381895D01*
X96161200Y-109381895D01*
X96161200Y-110103790D01*
X97050200Y-110103790D01*
X97050200Y-109368527D01*
X96707300Y-109368527D01*
X96707300Y-109007579D01*
X96491400Y-109007579D01*
X96491400Y-109381895D01*
X96161200Y-109381895D01*
X95329280Y-109381895D01*
X95329350Y-109361842D01*
X95490919Y-109358104D01*
X95652488Y-109354365D01*
X95659550Y-108987527D01*
X95840525Y-108983817D01*
X96021500Y-108980108D01*
X96021500Y-108606527D01*
X97164500Y-108606527D01*
X97164500Y-108967474D01*
X97164500Y-108967474D01*
G37*
X97164500Y-108967474D02*
X97532800Y-108967474D01*
X97532800Y-109341035D01*
X97707425Y-109344755D01*
X97882050Y-109348474D01*
X97888570Y-111240106D01*
X97062900Y-111240106D01*
X97062900Y-110504842D01*
X96148500Y-110504842D01*
X96148500Y-111240106D01*
X95322828Y-111240106D01*
X95329280Y-109381895D01*
X96161200Y-109381895D01*
X96161200Y-110103790D01*
X97050200Y-110103790D01*
X97050200Y-109368527D01*
X96707300Y-109368527D01*
X96707300Y-109007579D01*
X96491400Y-109007579D01*
X96491400Y-109381895D01*
X96161200Y-109381895D01*
X95329280Y-109381895D01*
X95329350Y-109361842D01*
X95490919Y-109358104D01*
X95652488Y-109354365D01*
X95659550Y-108987527D01*
X95840525Y-108983817D01*
X96021500Y-108980108D01*
X96021500Y-108606527D01*
X97164500Y-108606527D01*
X97164500Y-108967474D01*
G36*
X100301400Y-108953330D02*
G01*
X100637950Y-108960790D01*
X100641464Y-109157974D01*
X100644979Y-109355158D01*
X99818800Y-109355158D01*
X99818800Y-109007579D01*
X99272700Y-109007579D01*
X99272700Y-109355158D01*
X98917100Y-109355158D01*
X98917100Y-110464737D01*
X99260000Y-110464737D01*
X99260000Y-110839053D01*
X99792683Y-110839053D01*
X99796216Y-110655237D01*
X99799750Y-110471421D01*
X100637950Y-110471421D01*
X100641464Y-110668606D01*
X100644979Y-110865790D01*
X100301400Y-110865790D01*
X100301400Y-111240106D01*
X98802800Y-111240106D01*
X98802800Y-110892527D01*
X98434500Y-110892527D01*
X98434500Y-110491474D01*
X98078630Y-110491474D01*
X98085250Y-109335106D01*
X98408346Y-109327628D01*
X98411898Y-109157578D01*
X98415450Y-108987527D01*
X98583725Y-108983796D01*
X98752000Y-108980066D01*
X98752000Y-108606527D01*
X100301400Y-108606527D01*
X100301400Y-108953330D01*
X100301400Y-108953330D01*
G37*
X100301400Y-108953330D02*
X100637950Y-108960790D01*
X100641464Y-109157974D01*
X100644979Y-109355158D01*
X99818800Y-109355158D01*
X99818800Y-109007579D01*
X99272700Y-109007579D01*
X99272700Y-109355158D01*
X98917100Y-109355158D01*
X98917100Y-110464737D01*
X99260000Y-110464737D01*
X99260000Y-110839053D01*
X99792683Y-110839053D01*
X99796216Y-110655237D01*
X99799750Y-110471421D01*
X100637950Y-110471421D01*
X100641464Y-110668606D01*
X100644979Y-110865790D01*
X100301400Y-110865790D01*
X100301400Y-111240106D01*
X98802800Y-111240106D01*
X98802800Y-110892527D01*
X98434500Y-110892527D01*
X98434500Y-110491474D01*
X98078630Y-110491474D01*
X98085250Y-109335106D01*
X98408346Y-109327628D01*
X98411898Y-109157578D01*
X98415450Y-108987527D01*
X98583725Y-108983796D01*
X98752000Y-108980066D01*
X98752000Y-108606527D01*
X100301400Y-108606527D01*
X100301400Y-108953330D01*
G36*
X101660300Y-109729474D02*
G01*
X101863500Y-109729474D01*
X101863500Y-109355158D01*
X102206400Y-109355158D01*
X102206400Y-108980842D01*
X102548583Y-108980842D01*
X102552116Y-108797027D01*
X102555650Y-108613211D01*
X103393850Y-108613211D01*
X103397364Y-108810395D01*
X103400879Y-109007579D01*
X103070000Y-109007579D01*
X103070000Y-109381895D01*
X102727100Y-109381895D01*
X102727100Y-109756211D01*
X102333400Y-109756211D01*
X102333400Y-110077053D01*
X102676300Y-110077053D01*
X102676300Y-110464737D01*
X103057300Y-110464737D01*
X103057300Y-110838277D01*
X103393850Y-110845737D01*
X103397364Y-111042921D01*
X103400879Y-111240106D01*
X102219100Y-111240106D01*
X102219100Y-110892527D01*
X101876200Y-110892527D01*
X101876200Y-110504842D01*
X101685700Y-110504842D01*
X101685700Y-111240106D01*
X100834675Y-111240106D01*
X100837912Y-109926658D01*
X100841150Y-108613211D01*
X101250725Y-108609684D01*
X101660300Y-108606156D01*
X101660300Y-109729474D01*
X101660300Y-109729474D01*
G37*
X101660300Y-109729474D02*
X101863500Y-109729474D01*
X101863500Y-109355158D01*
X102206400Y-109355158D01*
X102206400Y-108980842D01*
X102548583Y-108980842D01*
X102552116Y-108797027D01*
X102555650Y-108613211D01*
X103393850Y-108613211D01*
X103397364Y-108810395D01*
X103400879Y-109007579D01*
X103070000Y-109007579D01*
X103070000Y-109381895D01*
X102727100Y-109381895D01*
X102727100Y-109756211D01*
X102333400Y-109756211D01*
X102333400Y-110077053D01*
X102676300Y-110077053D01*
X102676300Y-110464737D01*
X103057300Y-110464737D01*
X103057300Y-110838277D01*
X103393850Y-110845737D01*
X103397364Y-111042921D01*
X103400879Y-111240106D01*
X102219100Y-111240106D01*
X102219100Y-110892527D01*
X101876200Y-110892527D01*
X101876200Y-110504842D01*
X101685700Y-110504842D01*
X101685700Y-111240106D01*
X100834675Y-111240106D01*
X100837912Y-109926658D01*
X100841150Y-108613211D01*
X101250725Y-108609684D01*
X101660300Y-108606156D01*
X101660300Y-109729474D01*
G36*
X74217872Y-105065330D02*
G01*
X74389678Y-105136733D01*
X74541123Y-105244812D01*
X74663746Y-105390139D01*
X74693457Y-105440729D01*
X74723589Y-105506636D01*
X74742362Y-105578036D01*
X74752223Y-105670740D01*
X74755618Y-105800556D01*
X74755743Y-105843131D01*
X74748951Y-106024503D01*
X74724741Y-106164818D01*
X74677367Y-106279025D01*
X74601080Y-106382070D01*
X74516389Y-106465596D01*
X74367120Y-106564593D01*
X74184452Y-106628852D01*
X73981907Y-106656360D01*
X73773009Y-106645102D01*
X73597297Y-106602439D01*
X73429251Y-106516202D01*
X73293447Y-106388408D01*
X73193115Y-106226810D01*
X73131490Y-106039157D01*
X73111803Y-105833201D01*
X73122332Y-105743743D01*
X73630665Y-105743743D01*
X73632421Y-105939140D01*
X73634670Y-105962739D01*
X73667340Y-106118961D01*
X73727570Y-106228601D01*
X73806341Y-106286212D01*
X73920460Y-106311218D01*
X74033640Y-106301773D01*
X74105961Y-106270448D01*
X74184244Y-106191002D01*
X74232431Y-106079187D01*
X74253589Y-105926528D01*
X74255180Y-105857934D01*
X74240916Y-105667818D01*
X74197427Y-105525909D01*
X74123663Y-105430632D01*
X74018578Y-105380406D01*
X73931976Y-105371171D01*
X73813817Y-105396158D01*
X73723073Y-105468850D01*
X73661452Y-105585845D01*
X73630665Y-105743743D01*
X73122332Y-105743743D01*
X73137286Y-105616692D01*
X73156093Y-105544471D01*
X73233440Y-105375131D01*
X73349672Y-105238470D01*
X73496324Y-105135058D01*
X73664934Y-105065467D01*
X73847037Y-105030268D01*
X74034171Y-105030032D01*
X74217872Y-105065330D01*
X74217872Y-105065330D01*
G37*
X74217872Y-105065330D02*
X74389678Y-105136733D01*
X74541123Y-105244812D01*
X74663746Y-105390139D01*
X74693457Y-105440729D01*
X74723589Y-105506636D01*
X74742362Y-105578036D01*
X74752223Y-105670740D01*
X74755618Y-105800556D01*
X74755743Y-105843131D01*
X74748951Y-106024503D01*
X74724741Y-106164818D01*
X74677367Y-106279025D01*
X74601080Y-106382070D01*
X74516389Y-106465596D01*
X74367120Y-106564593D01*
X74184452Y-106628852D01*
X73981907Y-106656360D01*
X73773009Y-106645102D01*
X73597297Y-106602439D01*
X73429251Y-106516202D01*
X73293447Y-106388408D01*
X73193115Y-106226810D01*
X73131490Y-106039157D01*
X73111803Y-105833201D01*
X73122332Y-105743743D01*
X73630665Y-105743743D01*
X73632421Y-105939140D01*
X73634670Y-105962739D01*
X73667340Y-106118961D01*
X73727570Y-106228601D01*
X73806341Y-106286212D01*
X73920460Y-106311218D01*
X74033640Y-106301773D01*
X74105961Y-106270448D01*
X74184244Y-106191002D01*
X74232431Y-106079187D01*
X74253589Y-105926528D01*
X74255180Y-105857934D01*
X74240916Y-105667818D01*
X74197427Y-105525909D01*
X74123663Y-105430632D01*
X74018578Y-105380406D01*
X73931976Y-105371171D01*
X73813817Y-105396158D01*
X73723073Y-105468850D01*
X73661452Y-105585845D01*
X73630665Y-105743743D01*
X73122332Y-105743743D01*
X73137286Y-105616692D01*
X73156093Y-105544471D01*
X73233440Y-105375131D01*
X73349672Y-105238470D01*
X73496324Y-105135058D01*
X73664934Y-105065467D01*
X73847037Y-105030268D01*
X74034171Y-105030032D01*
X74217872Y-105065330D01*
G36*
X78683481Y-105044311D02*
G01*
X78781372Y-105052634D01*
X78858176Y-105070395D01*
X78931912Y-105100771D01*
X78960981Y-105115305D01*
X79096390Y-105206852D01*
X79192283Y-105325414D01*
X79252835Y-105478573D01*
X79282220Y-105673911D01*
X79283921Y-105701900D01*
X79296588Y-105943243D01*
X78202478Y-105943243D01*
X78202478Y-106012558D01*
X78228004Y-106100687D01*
X78295173Y-106186968D01*
X78389869Y-106256762D01*
X78469149Y-106289127D01*
X78632763Y-106310210D01*
X78815844Y-106296288D01*
X78994914Y-106250148D01*
X79072204Y-106217543D01*
X79156413Y-106177776D01*
X79218951Y-106150889D01*
X79242209Y-106143469D01*
X79251401Y-106169648D01*
X79258049Y-106238512D01*
X79260799Y-106335552D01*
X79260811Y-106342586D01*
X79260811Y-106541703D01*
X79110642Y-106588440D01*
X78964997Y-106620978D01*
X78789283Y-106641089D01*
X78603825Y-106648143D01*
X78428950Y-106641508D01*
X78284983Y-106620554D01*
X78262313Y-106614765D01*
X78074298Y-106537834D01*
X77915406Y-106424290D01*
X77796911Y-106282719D01*
X77774521Y-106243179D01*
X77736655Y-106159808D01*
X77714551Y-106078819D01*
X77704360Y-105979724D01*
X77702194Y-105858196D01*
X77715379Y-105657466D01*
X77715446Y-105657207D01*
X78177867Y-105657207D01*
X78810304Y-105657207D01*
X78792458Y-105564246D01*
X78746309Y-105456100D01*
X78663321Y-105382154D01*
X78555344Y-105346577D01*
X78434227Y-105353539D01*
X78324043Y-105399461D01*
X78264400Y-105437646D01*
X78232667Y-105461508D01*
X78231081Y-105463901D01*
X78224041Y-105493694D01*
X78206853Y-105556109D01*
X78204474Y-105564434D01*
X78177867Y-105657207D01*
X77715446Y-105657207D01*
X77757723Y-105494849D01*
X77834184Y-105356622D01*
X77918642Y-105258957D01*
X78035837Y-105160008D01*
X78162495Y-105094196D01*
X78312608Y-105056692D01*
X78500165Y-105042666D01*
X78546484Y-105042251D01*
X78683481Y-105044311D01*
X78683481Y-105044311D01*
G37*
X78683481Y-105044311D02*
X78781372Y-105052634D01*
X78858176Y-105070395D01*
X78931912Y-105100771D01*
X78960981Y-105115305D01*
X79096390Y-105206852D01*
X79192283Y-105325414D01*
X79252835Y-105478573D01*
X79282220Y-105673911D01*
X79283921Y-105701900D01*
X79296588Y-105943243D01*
X78202478Y-105943243D01*
X78202478Y-106012558D01*
X78228004Y-106100687D01*
X78295173Y-106186968D01*
X78389869Y-106256762D01*
X78469149Y-106289127D01*
X78632763Y-106310210D01*
X78815844Y-106296288D01*
X78994914Y-106250148D01*
X79072204Y-106217543D01*
X79156413Y-106177776D01*
X79218951Y-106150889D01*
X79242209Y-106143469D01*
X79251401Y-106169648D01*
X79258049Y-106238512D01*
X79260799Y-106335552D01*
X79260811Y-106342586D01*
X79260811Y-106541703D01*
X79110642Y-106588440D01*
X78964997Y-106620978D01*
X78789283Y-106641089D01*
X78603825Y-106648143D01*
X78428950Y-106641508D01*
X78284983Y-106620554D01*
X78262313Y-106614765D01*
X78074298Y-106537834D01*
X77915406Y-106424290D01*
X77796911Y-106282719D01*
X77774521Y-106243179D01*
X77736655Y-106159808D01*
X77714551Y-106078819D01*
X77704360Y-105979724D01*
X77702194Y-105858196D01*
X77715379Y-105657466D01*
X77715446Y-105657207D01*
X78177867Y-105657207D01*
X78810304Y-105657207D01*
X78792458Y-105564246D01*
X78746309Y-105456100D01*
X78663321Y-105382154D01*
X78555344Y-105346577D01*
X78434227Y-105353539D01*
X78324043Y-105399461D01*
X78264400Y-105437646D01*
X78232667Y-105461508D01*
X78231081Y-105463901D01*
X78224041Y-105493694D01*
X78206853Y-105556109D01*
X78204474Y-105564434D01*
X78177867Y-105657207D01*
X77715446Y-105657207D01*
X77757723Y-105494849D01*
X77834184Y-105356622D01*
X77918642Y-105258957D01*
X78035837Y-105160008D01*
X78162495Y-105094196D01*
X78312608Y-105056692D01*
X78500165Y-105042666D01*
X78546484Y-105042251D01*
X78683481Y-105044311D01*
G36*
X71831025Y-104604390D02*
G01*
X72055400Y-104609695D01*
X72231310Y-104617707D01*
X72367491Y-104630376D01*
X72472681Y-104649657D01*
X72555617Y-104677502D01*
X72625034Y-104715863D01*
X72689672Y-104766693D01*
X72731500Y-104805638D01*
X72822740Y-104923925D01*
X72873715Y-105067890D01*
X72888298Y-105244678D01*
X72859129Y-105438441D01*
X72777156Y-105612730D01*
X72659666Y-105748555D01*
X72519244Y-105845292D01*
X72347296Y-105908080D01*
X72136726Y-105939028D01*
X72004606Y-105943243D01*
X71766667Y-105943243D01*
X71766667Y-106601126D01*
X71251802Y-106601126D01*
X71251802Y-105571396D01*
X71766667Y-105571396D01*
X71924905Y-105571396D01*
X72035039Y-105563806D01*
X72138364Y-105544481D01*
X72180035Y-105530913D01*
X72268754Y-105477166D01*
X72319003Y-105399593D01*
X72338018Y-105285357D01*
X72338739Y-105249321D01*
X72324570Y-105137886D01*
X72277785Y-105059377D01*
X72191967Y-105008902D01*
X72060698Y-104981564D01*
X71979384Y-104975210D01*
X71766667Y-104964468D01*
X71766667Y-105571396D01*
X71251802Y-105571396D01*
X71251802Y-104593789D01*
X71831025Y-104604390D01*
X71831025Y-104604390D01*
G37*
X71831025Y-104604390D02*
X72055400Y-104609695D01*
X72231310Y-104617707D01*
X72367491Y-104630376D01*
X72472681Y-104649657D01*
X72555617Y-104677502D01*
X72625034Y-104715863D01*
X72689672Y-104766693D01*
X72731500Y-104805638D01*
X72822740Y-104923925D01*
X72873715Y-105067890D01*
X72888298Y-105244678D01*
X72859129Y-105438441D01*
X72777156Y-105612730D01*
X72659666Y-105748555D01*
X72519244Y-105845292D01*
X72347296Y-105908080D01*
X72136726Y-105939028D01*
X72004606Y-105943243D01*
X71766667Y-105943243D01*
X71766667Y-106601126D01*
X71251802Y-106601126D01*
X71251802Y-105571396D01*
X71766667Y-105571396D01*
X71924905Y-105571396D01*
X72035039Y-105563806D01*
X72138364Y-105544481D01*
X72180035Y-105530913D01*
X72268754Y-105477166D01*
X72319003Y-105399593D01*
X72338018Y-105285357D01*
X72338739Y-105249321D01*
X72324570Y-105137886D01*
X72277785Y-105059377D01*
X72191967Y-105008902D01*
X72060698Y-104981564D01*
X71979384Y-104975210D01*
X71766667Y-104964468D01*
X71766667Y-105571396D01*
X71251802Y-105571396D01*
X71251802Y-104593789D01*
X71831025Y-104604390D01*
G36*
X76251363Y-105091112D02*
G01*
X76470923Y-105099437D01*
X76613402Y-105592708D01*
X76659701Y-105747705D01*
X76701822Y-105878816D01*
X76736973Y-105978132D01*
X76762365Y-106037747D01*
X76774927Y-106050365D01*
X76787556Y-106011671D01*
X76810359Y-105927310D01*
X76840757Y-105807384D01*
X76876172Y-105661992D01*
X76902690Y-105549944D01*
X77011406Y-105085135D01*
X77265626Y-105085135D01*
X77386743Y-105086182D01*
X77460737Y-105090729D01*
X77497675Y-105100886D01*
X77507626Y-105118763D01*
X77504493Y-105135191D01*
X77491919Y-105176240D01*
X77465228Y-105263409D01*
X77427048Y-105388113D01*
X77380007Y-105541772D01*
X77326732Y-105715802D01*
X77300889Y-105800225D01*
X77244590Y-105984012D01*
X77192314Y-106154418D01*
X77146940Y-106302085D01*
X77111343Y-106417654D01*
X77088401Y-106491766D01*
X77083267Y-106508164D01*
X77053897Y-106601126D01*
X76791532Y-106601020D01*
X76529167Y-106600913D01*
X76386149Y-106116189D01*
X76339184Y-105961497D01*
X76296557Y-105829477D01*
X76261161Y-105728429D01*
X76235889Y-105666653D01*
X76224199Y-105651487D01*
X76210272Y-105684359D01*
X76183649Y-105762759D01*
X76147354Y-105877207D01*
X76104413Y-106018225D01*
X76069491Y-106136318D01*
X75933716Y-106601126D01*
X75668448Y-106601126D01*
X75541466Y-106599730D01*
X75460622Y-106594225D01*
X75414883Y-106582641D01*
X75393219Y-106563007D01*
X75388401Y-106551070D01*
X75364270Y-106470371D01*
X75328764Y-106352984D01*
X75284642Y-106207902D01*
X75234660Y-106044116D01*
X75181577Y-105870618D01*
X75128152Y-105696401D01*
X75077142Y-105530458D01*
X75031306Y-105381779D01*
X74993401Y-105259358D01*
X74966186Y-105172187D01*
X74952419Y-105129258D01*
X74951627Y-105127042D01*
X74952601Y-105106912D01*
X74980409Y-105094295D01*
X75044271Y-105087600D01*
X75153410Y-105085237D01*
X75194694Y-105085135D01*
X75453843Y-105085135D01*
X75479304Y-105178097D01*
X75495390Y-105239731D01*
X75521686Y-105343690D01*
X75554869Y-105476713D01*
X75591617Y-105625542D01*
X75601141Y-105664358D01*
X75636835Y-105805131D01*
X75669161Y-105923607D01*
X75695233Y-106009869D01*
X75712166Y-106053996D01*
X75715515Y-106057658D01*
X75733552Y-106032908D01*
X75758089Y-105970459D01*
X75768802Y-105936092D01*
X75790806Y-105862281D01*
X75825326Y-105748794D01*
X75867794Y-105610554D01*
X75913647Y-105462482D01*
X75917947Y-105448657D01*
X76031802Y-105082786D01*
X76251363Y-105091112D01*
X76251363Y-105091112D01*
G37*
X76251363Y-105091112D02*
X76470923Y-105099437D01*
X76613402Y-105592708D01*
X76659701Y-105747705D01*
X76701822Y-105878816D01*
X76736973Y-105978132D01*
X76762365Y-106037747D01*
X76774927Y-106050365D01*
X76787556Y-106011671D01*
X76810359Y-105927310D01*
X76840757Y-105807384D01*
X76876172Y-105661992D01*
X76902690Y-105549944D01*
X77011406Y-105085135D01*
X77265626Y-105085135D01*
X77386743Y-105086182D01*
X77460737Y-105090729D01*
X77497675Y-105100886D01*
X77507626Y-105118763D01*
X77504493Y-105135191D01*
X77491919Y-105176240D01*
X77465228Y-105263409D01*
X77427048Y-105388113D01*
X77380007Y-105541772D01*
X77326732Y-105715802D01*
X77300889Y-105800225D01*
X77244590Y-105984012D01*
X77192314Y-106154418D01*
X77146940Y-106302085D01*
X77111343Y-106417654D01*
X77088401Y-106491766D01*
X77083267Y-106508164D01*
X77053897Y-106601126D01*
X76791532Y-106601020D01*
X76529167Y-106600913D01*
X76386149Y-106116189D01*
X76339184Y-105961497D01*
X76296557Y-105829477D01*
X76261161Y-105728429D01*
X76235889Y-105666653D01*
X76224199Y-105651487D01*
X76210272Y-105684359D01*
X76183649Y-105762759D01*
X76147354Y-105877207D01*
X76104413Y-106018225D01*
X76069491Y-106136318D01*
X75933716Y-106601126D01*
X75668448Y-106601126D01*
X75541466Y-106599730D01*
X75460622Y-106594225D01*
X75414883Y-106582641D01*
X75393219Y-106563007D01*
X75388401Y-106551070D01*
X75364270Y-106470371D01*
X75328764Y-106352984D01*
X75284642Y-106207902D01*
X75234660Y-106044116D01*
X75181577Y-105870618D01*
X75128152Y-105696401D01*
X75077142Y-105530458D01*
X75031306Y-105381779D01*
X74993401Y-105259358D01*
X74966186Y-105172187D01*
X74952419Y-105129258D01*
X74951627Y-105127042D01*
X74952601Y-105106912D01*
X74980409Y-105094295D01*
X75044271Y-105087600D01*
X75153410Y-105085237D01*
X75194694Y-105085135D01*
X75453843Y-105085135D01*
X75479304Y-105178097D01*
X75495390Y-105239731D01*
X75521686Y-105343690D01*
X75554869Y-105476713D01*
X75591617Y-105625542D01*
X75601141Y-105664358D01*
X75636835Y-105805131D01*
X75669161Y-105923607D01*
X75695233Y-106009869D01*
X75712166Y-106053996D01*
X75715515Y-106057658D01*
X75733552Y-106032908D01*
X75758089Y-105970459D01*
X75768802Y-105936092D01*
X75790806Y-105862281D01*
X75825326Y-105748794D01*
X75867794Y-105610554D01*
X75913647Y-105462482D01*
X75917947Y-105448657D01*
X76031802Y-105082786D01*
X76251363Y-105091112D01*
G36*
X80748198Y-105568068D02*
G01*
X80555124Y-105552134D01*
X80423720Y-105548587D01*
X80300721Y-105557655D01*
X80240484Y-105569202D01*
X80118919Y-105602205D01*
X80118919Y-106601126D01*
X79632658Y-106601126D01*
X79632658Y-105085135D01*
X80118919Y-105085135D01*
X80118919Y-105291940D01*
X80197579Y-105240178D01*
X80336895Y-105158997D01*
X80463007Y-105112066D01*
X80597376Y-105090559D01*
X80748198Y-105078051D01*
X80748198Y-105568068D01*
X80748198Y-105568068D01*
G37*
X80748198Y-105568068D02*
X80555124Y-105552134D01*
X80423720Y-105548587D01*
X80300721Y-105557655D01*
X80240484Y-105569202D01*
X80118919Y-105602205D01*
X80118919Y-106601126D01*
X79632658Y-106601126D01*
X79632658Y-105085135D01*
X80118919Y-105085135D01*
X80118919Y-105291940D01*
X80197579Y-105240178D01*
X80336895Y-105158997D01*
X80463007Y-105112066D01*
X80597376Y-105090559D01*
X80748198Y-105078051D01*
X80748198Y-105568068D01*
G36*
X74472237Y-91600648D02*
G01*
X74662320Y-91642349D01*
X74821831Y-91715134D01*
X74961472Y-91822598D01*
X74970925Y-91831653D01*
X75099741Y-91986757D01*
X75187316Y-92165710D01*
X75237268Y-92377547D01*
X75251028Y-92531509D01*
X75241459Y-92798852D01*
X75187695Y-93032140D01*
X75090544Y-93229983D01*
X74950815Y-93390990D01*
X74769317Y-93513772D01*
X74650042Y-93565203D01*
X74518425Y-93597199D01*
X74353081Y-93615534D01*
X74175979Y-93619612D01*
X74009087Y-93608837D01*
X73885661Y-93585918D01*
X73708450Y-93521217D01*
X73563561Y-93429845D01*
X73439519Y-93310815D01*
X73346212Y-93196359D01*
X73281408Y-93084883D01*
X73240473Y-92961933D01*
X73218771Y-92813054D01*
X73211667Y-92623792D01*
X73211578Y-92600000D01*
X73212985Y-92556295D01*
X73742905Y-92556295D01*
X73744173Y-92711537D01*
X73761183Y-92845511D01*
X73772869Y-92888918D01*
X73849306Y-93044729D01*
X73956705Y-93161038D01*
X74087072Y-93233453D01*
X74232410Y-93257584D01*
X74384724Y-93229040D01*
X74389185Y-93227374D01*
X74520992Y-93147414D01*
X74625929Y-93019842D01*
X74658776Y-92957545D01*
X74693389Y-92840551D01*
X74711191Y-92690180D01*
X74712173Y-92527738D01*
X74696327Y-92374531D01*
X74663643Y-92251866D01*
X74659073Y-92241271D01*
X74570133Y-92103318D01*
X74455049Y-92008687D01*
X74323736Y-91956974D01*
X74186107Y-91947772D01*
X74052075Y-91980676D01*
X73931555Y-92055280D01*
X73834458Y-92171178D01*
X73785617Y-92277013D01*
X73756885Y-92403536D01*
X73742905Y-92556295D01*
X73212985Y-92556295D01*
X73218230Y-92393468D01*
X73242106Y-92229572D01*
X73288173Y-92095067D01*
X73361401Y-91976711D01*
X73466756Y-91861260D01*
X73500625Y-91829536D01*
X73631474Y-91724734D01*
X73764769Y-91652871D01*
X73914856Y-91609234D01*
X74096079Y-91589114D01*
X74240879Y-91586436D01*
X74472237Y-91600648D01*
X74472237Y-91600648D01*
G37*
X74472237Y-91600648D02*
X74662320Y-91642349D01*
X74821831Y-91715134D01*
X74961472Y-91822598D01*
X74970925Y-91831653D01*
X75099741Y-91986757D01*
X75187316Y-92165710D01*
X75237268Y-92377547D01*
X75251028Y-92531509D01*
X75241459Y-92798852D01*
X75187695Y-93032140D01*
X75090544Y-93229983D01*
X74950815Y-93390990D01*
X74769317Y-93513772D01*
X74650042Y-93565203D01*
X74518425Y-93597199D01*
X74353081Y-93615534D01*
X74175979Y-93619612D01*
X74009087Y-93608837D01*
X73885661Y-93585918D01*
X73708450Y-93521217D01*
X73563561Y-93429845D01*
X73439519Y-93310815D01*
X73346212Y-93196359D01*
X73281408Y-93084883D01*
X73240473Y-92961933D01*
X73218771Y-92813054D01*
X73211667Y-92623792D01*
X73211578Y-92600000D01*
X73212985Y-92556295D01*
X73742905Y-92556295D01*
X73744173Y-92711537D01*
X73761183Y-92845511D01*
X73772869Y-92888918D01*
X73849306Y-93044729D01*
X73956705Y-93161038D01*
X74087072Y-93233453D01*
X74232410Y-93257584D01*
X74384724Y-93229040D01*
X74389185Y-93227374D01*
X74520992Y-93147414D01*
X74625929Y-93019842D01*
X74658776Y-92957545D01*
X74693389Y-92840551D01*
X74711191Y-92690180D01*
X74712173Y-92527738D01*
X74696327Y-92374531D01*
X74663643Y-92251866D01*
X74659073Y-92241271D01*
X74570133Y-92103318D01*
X74455049Y-92008687D01*
X74323736Y-91956974D01*
X74186107Y-91947772D01*
X74052075Y-91980676D01*
X73931555Y-92055280D01*
X73834458Y-92171178D01*
X73785617Y-92277013D01*
X73756885Y-92403536D01*
X73742905Y-92556295D01*
X73212985Y-92556295D01*
X73218230Y-92393468D01*
X73242106Y-92229572D01*
X73288173Y-92095067D01*
X73361401Y-91976711D01*
X73466756Y-91861260D01*
X73500625Y-91829536D01*
X73631474Y-91724734D01*
X73764769Y-91652871D01*
X73914856Y-91609234D01*
X74096079Y-91589114D01*
X74240879Y-91586436D01*
X74472237Y-91600648D01*
G36*
X77086937Y-91999324D02*
G01*
X76171622Y-91999324D01*
X76171622Y-92371171D01*
X77001126Y-92371171D01*
X77001126Y-92771621D01*
X76171622Y-92771621D01*
X76171622Y-93601126D01*
X75656757Y-93601126D01*
X75656757Y-91598874D01*
X77086937Y-91598874D01*
X77086937Y-91999324D01*
X77086937Y-91999324D01*
G37*
X77086937Y-91999324D02*
X76171622Y-91999324D01*
X76171622Y-92371171D01*
X77001126Y-92371171D01*
X77001126Y-92771621D01*
X76171622Y-92771621D01*
X76171622Y-93601126D01*
X75656757Y-93601126D01*
X75656757Y-91598874D01*
X77086937Y-91598874D01*
X77086937Y-91999324D01*
G36*
X78860361Y-91999324D02*
G01*
X77945045Y-91999324D01*
X77945045Y-92371171D01*
X78774550Y-92371171D01*
X78774550Y-92771621D01*
X77945045Y-92771621D01*
X77945045Y-93601126D01*
X77430180Y-93601126D01*
X77430180Y-91598874D01*
X78860361Y-91598874D01*
X78860361Y-91999324D01*
X78860361Y-91999324D01*
G37*
X78860361Y-91999324D02*
X77945045Y-91999324D01*
X77945045Y-92371171D01*
X78774550Y-92371171D01*
X78774550Y-92771621D01*
X77945045Y-92771621D01*
X77945045Y-93601126D01*
X77430180Y-93601126D01*
X77430180Y-91598874D01*
X78860361Y-91598874D01*
X78860361Y-91999324D01*
G36*
X114856995Y-91090911D02*
G01*
X114486953Y-91492182D01*
X114278646Y-91721995D01*
X114094905Y-91933742D01*
X113929878Y-92134849D01*
X113777712Y-92332743D01*
X113632554Y-92534849D01*
X113488553Y-92748591D01*
X113449939Y-92807978D01*
X113168659Y-93279497D01*
X112921525Y-93769300D01*
X112709505Y-94274657D01*
X112533573Y-94792841D01*
X112394696Y-95321118D01*
X112293848Y-95856761D01*
X112252460Y-96176213D01*
X112236307Y-96324536D01*
X112223241Y-96437504D01*
X112212246Y-96519237D01*
X112202309Y-96573857D01*
X112192417Y-96605483D01*
X112181555Y-96618235D01*
X112168709Y-96616235D01*
X112152865Y-96603602D01*
X112148346Y-96599293D01*
X112128173Y-96564907D01*
X112108942Y-96508871D01*
X112103189Y-96484908D01*
X112085749Y-96378946D01*
X112070070Y-96239340D01*
X112056311Y-96072100D01*
X112044635Y-95883237D01*
X112035202Y-95678760D01*
X112028174Y-95464681D01*
X112023712Y-95247010D01*
X112021979Y-95031758D01*
X112023134Y-94824936D01*
X112027339Y-94632553D01*
X112034758Y-94460622D01*
X112045062Y-94320255D01*
X112117652Y-93760011D01*
X112228886Y-93204371D01*
X112377765Y-92656082D01*
X112563291Y-92117895D01*
X112784461Y-91592560D01*
X113040277Y-91082825D01*
X113329741Y-90591440D01*
X113487734Y-90352092D01*
X113547799Y-90266872D01*
X113607277Y-90186694D01*
X113658677Y-90121431D01*
X113690230Y-90085252D01*
X113757946Y-90015131D01*
X114856995Y-91090911D01*
X114856995Y-91090911D01*
G37*
X114856995Y-91090911D02*
X114486953Y-91492182D01*
X114278646Y-91721995D01*
X114094905Y-91933742D01*
X113929878Y-92134849D01*
X113777712Y-92332743D01*
X113632554Y-92534849D01*
X113488553Y-92748591D01*
X113449939Y-92807978D01*
X113168659Y-93279497D01*
X112921525Y-93769300D01*
X112709505Y-94274657D01*
X112533573Y-94792841D01*
X112394696Y-95321118D01*
X112293848Y-95856761D01*
X112252460Y-96176213D01*
X112236307Y-96324536D01*
X112223241Y-96437504D01*
X112212246Y-96519237D01*
X112202309Y-96573857D01*
X112192417Y-96605483D01*
X112181555Y-96618235D01*
X112168709Y-96616235D01*
X112152865Y-96603602D01*
X112148346Y-96599293D01*
X112128173Y-96564907D01*
X112108942Y-96508871D01*
X112103189Y-96484908D01*
X112085749Y-96378946D01*
X112070070Y-96239340D01*
X112056311Y-96072100D01*
X112044635Y-95883237D01*
X112035202Y-95678760D01*
X112028174Y-95464681D01*
X112023712Y-95247010D01*
X112021979Y-95031758D01*
X112023134Y-94824936D01*
X112027339Y-94632553D01*
X112034758Y-94460622D01*
X112045062Y-94320255D01*
X112117652Y-93760011D01*
X112228886Y-93204371D01*
X112377765Y-92656082D01*
X112563291Y-92117895D01*
X112784461Y-91592560D01*
X113040277Y-91082825D01*
X113329741Y-90591440D01*
X113487734Y-90352092D01*
X113547799Y-90266872D01*
X113607277Y-90186694D01*
X113658677Y-90121431D01*
X113690230Y-90085252D01*
X113757946Y-90015131D01*
X114856995Y-91090911D01*
D17*
G36*
X82232500Y-101793040D02*
G01*
X82262980Y-101777800D01*
X82326480Y-101737160D01*
X82420460Y-101676200D01*
X82529680Y-101602540D01*
X82641440Y-101526340D01*
X82730340Y-101465380D01*
X82793840Y-101424740D01*
X82821780Y-101412040D01*
X82834480Y-101417120D01*
X82887820Y-101442520D01*
X82964020Y-101480620D01*
X83007200Y-101503480D01*
X83078320Y-101533960D01*
X83111340Y-101539040D01*
X83118960Y-101531420D01*
X83144360Y-101478080D01*
X83182460Y-101386640D01*
X83235800Y-101264720D01*
X83296760Y-101125020D01*
X83360260Y-100972620D01*
X83426300Y-100817680D01*
X83487260Y-100667820D01*
X83540600Y-100535740D01*
X83583780Y-100426520D01*
X83614260Y-100352860D01*
X83624420Y-100319840D01*
X83621880Y-100312220D01*
X83586320Y-100279200D01*
X83525360Y-100233480D01*
X83393280Y-100126800D01*
X83263740Y-99964240D01*
X83185000Y-99778820D01*
X83157060Y-99575620D01*
X83179920Y-99385120D01*
X83256120Y-99202240D01*
X83383120Y-99039680D01*
X83535520Y-98917760D01*
X83715860Y-98839020D01*
X83919060Y-98816160D01*
X84112100Y-98836480D01*
X84297520Y-98910140D01*
X84462620Y-99034600D01*
X84531200Y-99115880D01*
X84627720Y-99280980D01*
X84681060Y-99458780D01*
X84688680Y-99504500D01*
X84678520Y-99700080D01*
X84622640Y-99885500D01*
X84518500Y-100053140D01*
X84376260Y-100190300D01*
X84358480Y-100205540D01*
X84289900Y-100253800D01*
X84246720Y-100289360D01*
X84211160Y-100317300D01*
X84460080Y-100916740D01*
X84500720Y-101010720D01*
X84569300Y-101175820D01*
X84627720Y-101315520D01*
X84675980Y-101427280D01*
X84709000Y-101503480D01*
X84724240Y-101533960D01*
X84726780Y-101533960D01*
X84747100Y-101539040D01*
X84792820Y-101521260D01*
X84876640Y-101480620D01*
X84932520Y-101452680D01*
X84996020Y-101422200D01*
X85023960Y-101412040D01*
X85049360Y-101424740D01*
X85110320Y-101462840D01*
X85199220Y-101523800D01*
X85305900Y-101597460D01*
X85407500Y-101666040D01*
X85501480Y-101727000D01*
X85570060Y-101770180D01*
X85603080Y-101787960D01*
X85608160Y-101787960D01*
X85638640Y-101772720D01*
X85691980Y-101727000D01*
X85773260Y-101650800D01*
X85890100Y-101536500D01*
X85907880Y-101518720D01*
X86001860Y-101422200D01*
X86078060Y-101340920D01*
X86131400Y-101285040D01*
X86149180Y-101257100D01*
X86131400Y-101224080D01*
X86088220Y-101158040D01*
X86027260Y-101061520D01*
X85951060Y-100949760D01*
X85752940Y-100662740D01*
X85862160Y-100390960D01*
X85895180Y-100307140D01*
X85938360Y-100205540D01*
X85968840Y-100134420D01*
X85984080Y-100101400D01*
X86014560Y-100091240D01*
X86088220Y-100073460D01*
X86197440Y-100050600D01*
X86326980Y-100027740D01*
X86448900Y-100004880D01*
X86558120Y-99984560D01*
X86639400Y-99969320D01*
X86674960Y-99961700D01*
X86685120Y-99956620D01*
X86690200Y-99938840D01*
X86695280Y-99900740D01*
X86697820Y-99834700D01*
X86700360Y-99728020D01*
X86700360Y-99575620D01*
X86700360Y-99557840D01*
X86697820Y-99410520D01*
X86695280Y-99296220D01*
X86692740Y-99220020D01*
X86687660Y-99189540D01*
X86652100Y-99181920D01*
X86573360Y-99164140D01*
X86464140Y-99143820D01*
X86332060Y-99118420D01*
X86321900Y-99115880D01*
X86192360Y-99090480D01*
X86080600Y-99067620D01*
X86004400Y-99049840D01*
X85971380Y-99039680D01*
X85963760Y-99029520D01*
X85938360Y-98978720D01*
X85900260Y-98897440D01*
X85857080Y-98798380D01*
X85813900Y-98694240D01*
X85775800Y-98602800D01*
X85750400Y-98531680D01*
X85742780Y-98501200D01*
X85745320Y-98501200D01*
X85763100Y-98468180D01*
X85808820Y-98399600D01*
X85872320Y-98305620D01*
X85951060Y-98193860D01*
X85956140Y-98186240D01*
X86032340Y-98074480D01*
X86093300Y-97980500D01*
X86133940Y-97911920D01*
X86149180Y-97881440D01*
X86123780Y-97848420D01*
X86067900Y-97784920D01*
X85986620Y-97698560D01*
X85887560Y-97602040D01*
X85857080Y-97571560D01*
X85750400Y-97464880D01*
X85674200Y-97396300D01*
X85628480Y-97358200D01*
X85605620Y-97350580D01*
X85603080Y-97350580D01*
X85570060Y-97370900D01*
X85501480Y-97416620D01*
X85404960Y-97482660D01*
X85293200Y-97558860D01*
X85285580Y-97563940D01*
X85173820Y-97640140D01*
X85079840Y-97703640D01*
X85013800Y-97746820D01*
X84985860Y-97764600D01*
X84980780Y-97764600D01*
X84935060Y-97749360D01*
X84856320Y-97721420D01*
X84759800Y-97685860D01*
X84655660Y-97642680D01*
X84564220Y-97604580D01*
X84493100Y-97571560D01*
X84460080Y-97553780D01*
X84460080Y-97551240D01*
X84447380Y-97513140D01*
X84427060Y-97429320D01*
X84404200Y-97315020D01*
X84378800Y-97177860D01*
X84373720Y-97155000D01*
X84348320Y-97022920D01*
X84328000Y-96913700D01*
X84312760Y-96837500D01*
X84305140Y-96807020D01*
X84284820Y-96801940D01*
X84221320Y-96796860D01*
X84122260Y-96794320D01*
X84002880Y-96794320D01*
X83878420Y-96794320D01*
X83753960Y-96796860D01*
X83649820Y-96801940D01*
X83573620Y-96807020D01*
X83543140Y-96812100D01*
X83543140Y-96814640D01*
X83530440Y-96855280D01*
X83512660Y-96939100D01*
X83489800Y-97053400D01*
X83461860Y-97190560D01*
X83456780Y-97215960D01*
X83433920Y-97348040D01*
X83411060Y-97454720D01*
X83395820Y-97530920D01*
X83385660Y-97558860D01*
X83375500Y-97566480D01*
X83319620Y-97589340D01*
X83230720Y-97627440D01*
X83121500Y-97670620D01*
X82867500Y-97774760D01*
X82555080Y-97558860D01*
X82524600Y-97541080D01*
X82412840Y-97464880D01*
X82321400Y-97401380D01*
X82257900Y-97360740D01*
X82229960Y-97345500D01*
X82227420Y-97348040D01*
X82196940Y-97373440D01*
X82135980Y-97431860D01*
X82049620Y-97515680D01*
X81953100Y-97612200D01*
X81879440Y-97685860D01*
X81793080Y-97772220D01*
X81739740Y-97830640D01*
X81709260Y-97868740D01*
X81699100Y-97891600D01*
X81701640Y-97906840D01*
X81721960Y-97939860D01*
X81767680Y-98008440D01*
X81831180Y-98102420D01*
X81907380Y-98214180D01*
X81970880Y-98305620D01*
X82036920Y-98409760D01*
X82082640Y-98485960D01*
X82097880Y-98521520D01*
X82092800Y-98536760D01*
X82072480Y-98597720D01*
X82034380Y-98691700D01*
X81988660Y-98800920D01*
X81879440Y-99047300D01*
X81716880Y-99080320D01*
X81617820Y-99098100D01*
X81480660Y-99123500D01*
X81351120Y-99148900D01*
X81145380Y-99189540D01*
X81137760Y-99941380D01*
X81168240Y-99956620D01*
X81198720Y-99964240D01*
X81274920Y-99982020D01*
X81384140Y-100002340D01*
X81511140Y-100027740D01*
X81620360Y-100048060D01*
X81732120Y-100068380D01*
X81810860Y-100083620D01*
X81846420Y-100091240D01*
X81854040Y-100101400D01*
X81881980Y-100154740D01*
X81920080Y-100241100D01*
X81963260Y-100342700D01*
X82008980Y-100446840D01*
X82047080Y-100545900D01*
X82075020Y-100619560D01*
X82085180Y-100657660D01*
X82069940Y-100685600D01*
X82026760Y-100751640D01*
X81965800Y-100843080D01*
X81892140Y-100952300D01*
X81818480Y-101061520D01*
X81754980Y-101155500D01*
X81711800Y-101221540D01*
X81691480Y-101252020D01*
X81701640Y-101274880D01*
X81744820Y-101325680D01*
X81828640Y-101412040D01*
X81950560Y-101533960D01*
X81970880Y-101551740D01*
X82067400Y-101645720D01*
X82151220Y-101721920D01*
X82207100Y-101772720D01*
X82232500Y-101793040D01*
X82232500Y-101793040D01*
G37*
X82232500Y-101793040D02*
X82262980Y-101777800D01*
X82326480Y-101737160D01*
X82420460Y-101676200D01*
X82529680Y-101602540D01*
X82641440Y-101526340D01*
X82730340Y-101465380D01*
X82793840Y-101424740D01*
X82821780Y-101412040D01*
X82834480Y-101417120D01*
X82887820Y-101442520D01*
X82964020Y-101480620D01*
X83007200Y-101503480D01*
X83078320Y-101533960D01*
X83111340Y-101539040D01*
X83118960Y-101531420D01*
X83144360Y-101478080D01*
X83182460Y-101386640D01*
X83235800Y-101264720D01*
X83296760Y-101125020D01*
X83360260Y-100972620D01*
X83426300Y-100817680D01*
X83487260Y-100667820D01*
X83540600Y-100535740D01*
X83583780Y-100426520D01*
X83614260Y-100352860D01*
X83624420Y-100319840D01*
X83621880Y-100312220D01*
X83586320Y-100279200D01*
X83525360Y-100233480D01*
X83393280Y-100126800D01*
X83263740Y-99964240D01*
X83185000Y-99778820D01*
X83157060Y-99575620D01*
X83179920Y-99385120D01*
X83256120Y-99202240D01*
X83383120Y-99039680D01*
X83535520Y-98917760D01*
X83715860Y-98839020D01*
X83919060Y-98816160D01*
X84112100Y-98836480D01*
X84297520Y-98910140D01*
X84462620Y-99034600D01*
X84531200Y-99115880D01*
X84627720Y-99280980D01*
X84681060Y-99458780D01*
X84688680Y-99504500D01*
X84678520Y-99700080D01*
X84622640Y-99885500D01*
X84518500Y-100053140D01*
X84376260Y-100190300D01*
X84358480Y-100205540D01*
X84289900Y-100253800D01*
X84246720Y-100289360D01*
X84211160Y-100317300D01*
X84460080Y-100916740D01*
X84500720Y-101010720D01*
X84569300Y-101175820D01*
X84627720Y-101315520D01*
X84675980Y-101427280D01*
X84709000Y-101503480D01*
X84724240Y-101533960D01*
X84726780Y-101533960D01*
X84747100Y-101539040D01*
X84792820Y-101521260D01*
X84876640Y-101480620D01*
X84932520Y-101452680D01*
X84996020Y-101422200D01*
X85023960Y-101412040D01*
X85049360Y-101424740D01*
X85110320Y-101462840D01*
X85199220Y-101523800D01*
X85305900Y-101597460D01*
X85407500Y-101666040D01*
X85501480Y-101727000D01*
X85570060Y-101770180D01*
X85603080Y-101787960D01*
X85608160Y-101787960D01*
X85638640Y-101772720D01*
X85691980Y-101727000D01*
X85773260Y-101650800D01*
X85890100Y-101536500D01*
X85907880Y-101518720D01*
X86001860Y-101422200D01*
X86078060Y-101340920D01*
X86131400Y-101285040D01*
X86149180Y-101257100D01*
X86131400Y-101224080D01*
X86088220Y-101158040D01*
X86027260Y-101061520D01*
X85951060Y-100949760D01*
X85752940Y-100662740D01*
X85862160Y-100390960D01*
X85895180Y-100307140D01*
X85938360Y-100205540D01*
X85968840Y-100134420D01*
X85984080Y-100101400D01*
X86014560Y-100091240D01*
X86088220Y-100073460D01*
X86197440Y-100050600D01*
X86326980Y-100027740D01*
X86448900Y-100004880D01*
X86558120Y-99984560D01*
X86639400Y-99969320D01*
X86674960Y-99961700D01*
X86685120Y-99956620D01*
X86690200Y-99938840D01*
X86695280Y-99900740D01*
X86697820Y-99834700D01*
X86700360Y-99728020D01*
X86700360Y-99575620D01*
X86700360Y-99557840D01*
X86697820Y-99410520D01*
X86695280Y-99296220D01*
X86692740Y-99220020D01*
X86687660Y-99189540D01*
X86652100Y-99181920D01*
X86573360Y-99164140D01*
X86464140Y-99143820D01*
X86332060Y-99118420D01*
X86321900Y-99115880D01*
X86192360Y-99090480D01*
X86080600Y-99067620D01*
X86004400Y-99049840D01*
X85971380Y-99039680D01*
X85963760Y-99029520D01*
X85938360Y-98978720D01*
X85900260Y-98897440D01*
X85857080Y-98798380D01*
X85813900Y-98694240D01*
X85775800Y-98602800D01*
X85750400Y-98531680D01*
X85742780Y-98501200D01*
X85745320Y-98501200D01*
X85763100Y-98468180D01*
X85808820Y-98399600D01*
X85872320Y-98305620D01*
X85951060Y-98193860D01*
X85956140Y-98186240D01*
X86032340Y-98074480D01*
X86093300Y-97980500D01*
X86133940Y-97911920D01*
X86149180Y-97881440D01*
X86123780Y-97848420D01*
X86067900Y-97784920D01*
X85986620Y-97698560D01*
X85887560Y-97602040D01*
X85857080Y-97571560D01*
X85750400Y-97464880D01*
X85674200Y-97396300D01*
X85628480Y-97358200D01*
X85605620Y-97350580D01*
X85603080Y-97350580D01*
X85570060Y-97370900D01*
X85501480Y-97416620D01*
X85404960Y-97482660D01*
X85293200Y-97558860D01*
X85285580Y-97563940D01*
X85173820Y-97640140D01*
X85079840Y-97703640D01*
X85013800Y-97746820D01*
X84985860Y-97764600D01*
X84980780Y-97764600D01*
X84935060Y-97749360D01*
X84856320Y-97721420D01*
X84759800Y-97685860D01*
X84655660Y-97642680D01*
X84564220Y-97604580D01*
X84493100Y-97571560D01*
X84460080Y-97553780D01*
X84460080Y-97551240D01*
X84447380Y-97513140D01*
X84427060Y-97429320D01*
X84404200Y-97315020D01*
X84378800Y-97177860D01*
X84373720Y-97155000D01*
X84348320Y-97022920D01*
X84328000Y-96913700D01*
X84312760Y-96837500D01*
X84305140Y-96807020D01*
X84284820Y-96801940D01*
X84221320Y-96796860D01*
X84122260Y-96794320D01*
X84002880Y-96794320D01*
X83878420Y-96794320D01*
X83753960Y-96796860D01*
X83649820Y-96801940D01*
X83573620Y-96807020D01*
X83543140Y-96812100D01*
X83543140Y-96814640D01*
X83530440Y-96855280D01*
X83512660Y-96939100D01*
X83489800Y-97053400D01*
X83461860Y-97190560D01*
X83456780Y-97215960D01*
X83433920Y-97348040D01*
X83411060Y-97454720D01*
X83395820Y-97530920D01*
X83385660Y-97558860D01*
X83375500Y-97566480D01*
X83319620Y-97589340D01*
X83230720Y-97627440D01*
X83121500Y-97670620D01*
X82867500Y-97774760D01*
X82555080Y-97558860D01*
X82524600Y-97541080D01*
X82412840Y-97464880D01*
X82321400Y-97401380D01*
X82257900Y-97360740D01*
X82229960Y-97345500D01*
X82227420Y-97348040D01*
X82196940Y-97373440D01*
X82135980Y-97431860D01*
X82049620Y-97515680D01*
X81953100Y-97612200D01*
X81879440Y-97685860D01*
X81793080Y-97772220D01*
X81739740Y-97830640D01*
X81709260Y-97868740D01*
X81699100Y-97891600D01*
X81701640Y-97906840D01*
X81721960Y-97939860D01*
X81767680Y-98008440D01*
X81831180Y-98102420D01*
X81907380Y-98214180D01*
X81970880Y-98305620D01*
X82036920Y-98409760D01*
X82082640Y-98485960D01*
X82097880Y-98521520D01*
X82092800Y-98536760D01*
X82072480Y-98597720D01*
X82034380Y-98691700D01*
X81988660Y-98800920D01*
X81879440Y-99047300D01*
X81716880Y-99080320D01*
X81617820Y-99098100D01*
X81480660Y-99123500D01*
X81351120Y-99148900D01*
X81145380Y-99189540D01*
X81137760Y-99941380D01*
X81168240Y-99956620D01*
X81198720Y-99964240D01*
X81274920Y-99982020D01*
X81384140Y-100002340D01*
X81511140Y-100027740D01*
X81620360Y-100048060D01*
X81732120Y-100068380D01*
X81810860Y-100083620D01*
X81846420Y-100091240D01*
X81854040Y-100101400D01*
X81881980Y-100154740D01*
X81920080Y-100241100D01*
X81963260Y-100342700D01*
X82008980Y-100446840D01*
X82047080Y-100545900D01*
X82075020Y-100619560D01*
X82085180Y-100657660D01*
X82069940Y-100685600D01*
X82026760Y-100751640D01*
X81965800Y-100843080D01*
X81892140Y-100952300D01*
X81818480Y-101061520D01*
X81754980Y-101155500D01*
X81711800Y-101221540D01*
X81691480Y-101252020D01*
X81701640Y-101274880D01*
X81744820Y-101325680D01*
X81828640Y-101412040D01*
X81950560Y-101533960D01*
X81970880Y-101551740D01*
X82067400Y-101645720D01*
X82151220Y-101721920D01*
X82207100Y-101772720D01*
X82232500Y-101793040D01*
D18*
X124000000Y-105525000D03*
D19*
X138260000Y-108740000D03*
X138780000Y-110000000D03*
D20*
X137000000Y-110000000D03*
D19*
X138260000Y-111260000D03*
X137000000Y-111780000D03*
X135220000Y-110000000D03*
X135740000Y-111260000D03*
X137000000Y-108220000D03*
X135740000Y-108740000D03*
X138260000Y-88740000D03*
X138780000Y-90000000D03*
D20*
X137000000Y-90000000D03*
D19*
X138260000Y-91260000D03*
X137000000Y-91780000D03*
X135220000Y-90000000D03*
X135740000Y-91260000D03*
X137000000Y-88220000D03*
X135740000Y-88740000D03*
X64260000Y-88740000D03*
X64780000Y-90000000D03*
D20*
X63000000Y-90000000D03*
D19*
X64260000Y-91260000D03*
X63000000Y-91780000D03*
X61220000Y-90000000D03*
X61740000Y-91260000D03*
X63000000Y-88220000D03*
X61740000Y-88740000D03*
X64260000Y-108740000D03*
X64780000Y-110000000D03*
D20*
X63000000Y-110000000D03*
D19*
X64260000Y-111260000D03*
X63000000Y-111780000D03*
X61220000Y-110000000D03*
X61740000Y-111260000D03*
X63000000Y-108220000D03*
X61740000Y-108740000D03*
M02*
